<?xml version="1.0" encoding="utf-8"?>
<!-- Generator: Adobe Illustrator 21.0.0, SVG Export Plug-In . SVG Version: 6.00 Build 0)  -->
<svg version="1.1" baseProfile="basic" id="Layer_1"
	 xmlns="http://www.w3.org/2000/svg" xmlns:xlink="http://www.w3.org/1999/xlink" x="0px" y="0px" viewBox="0 0 500 500"
	 xml:space="preserve">
<style type="text/css">
	.st0{fill:#EB2B36;}
	.st1{fill:#0012A9;}
	.st2{fill:#FFFFFF;}
</style>
<path class="st0" d="M250,102.5c39.4,0,76.4,15.3,104.3,43.2c27.9,27.9,43.2,64.9,43.2,104.3s-15.3,76.4-43.2,104.3
	c-27.9,27.9-64.9,43.2-104.3,43.2s-76.4-15.3-104.3-43.2c-27.9-27.9-43.2-64.9-43.2-104.3s15.3-76.4,43.2-104.3
	C173.6,117.8,210.6,102.5,250,102.5 M250,32.5C129.9,32.5,32.5,129.9,32.5,250S129.9,467.5,250,467.5S467.5,370.1,467.5,250
	S370.1,32.5,250,32.5L250,32.5z"/>
<polygon class="st1" points="500,215 0,215 0,285 500,285 500,215 "/>
<g>
	<path class="st2" d="M47.3,271.6l-5.6,0l-3.3-9.1h-15l-3.3,9.1l-5.6,0l13.9-37.9h5.1L47.3,271.6z M36.6,257.3l-5.7-15.5l-5.6,15.5
		H36.6z"/>
	<path class="st2" d="M75.3,260.5c0,3.5-1.2,6.3-3.7,8.6c-2.5,2.3-5.5,3.4-9,3.4c-2.8,0-5.4-0.8-7.6-2.4c-2.2-1.6-3.8-3.7-4.5-6.3
		l5.2-3.6c0,1.8,0.7,3.4,2,4.6c1.4,1.2,3,1.8,4.9,1.8c2,0,3.6-0.6,5-1.7c1.3-1.1,2-2.6,2-4.5c0-1.4-0.4-2.6-1.1-3.7
		c-0.7-1.1-1.7-1.9-3-2.4c-1.2-0.4-2.2-0.8-3-1.1c-0.8-0.3-1.8-0.7-2.9-1.1c-2.1-0.8-3.8-2-5-3.7c-1.3-1.7-1.9-3.6-1.9-5.8
		c0-2.9,1-5.3,3.1-7.2c2.1-1.9,4.6-2.8,7.6-2.8c2,0,3.9,0.5,5.5,1.4c1.6,0.9,2.9,2.3,3.9,3.9l-4.7,3.2c-0.4-0.9-1-1.6-1.8-2.1
		c-0.8-0.5-1.8-0.7-2.9-0.7c-1.4,0-2.7,0.4-3.6,1.1c-1,0.8-1.5,1.8-1.5,3.2c0,1,0.3,1.9,0.8,2.6c0.6,0.7,1.3,1.3,2.3,1.6l5.6,1.9
		c2.5,0.8,4.5,2.3,6,4.4S75.3,257.9,75.3,260.5z"/>
	<path class="st2" d="M111.4,271.6l-7.9,0l-17.4-17.4v17.4h-5.5v-37.9h5.5v12.7l15.2-12.7l8.7,0l-19.9,16.6L111.4,271.6z"/>
	<path class="st2" d="M160.8,271.6l-5.6,0l-3.3-9.1h-15l-3.3,9.1l-5.6,0l13.9-37.9h5.1L160.8,271.6z M150,257.3l-5.7-15.5l-5.6,15.5
		H150z"/>
	<path class="st2" d="M192.1,271.6l-6.8,0l-11-16.3l-4.9,0v16.3H164v-37.9h12c3,0,5.5,1,7.6,3.1c2.1,2.1,3.2,4.6,3.2,7.6
		c0,2.2-0.6,4.1-1.7,5.9c-1.1,1.7-2.7,3.1-4.6,3.9L192.1,271.6z M181.3,244.6c0-1.5-0.5-2.8-1.6-3.9c-1.1-1.1-2.3-1.6-3.8-1.6h-6.5
		V250h6.5c1.5,0,2.8-0.5,3.8-1.6C180.8,247.3,181.3,246.1,181.3,244.6z"/>
	<path class="st2" d="M221,233.7l-11.8,17.5v20.4h-5.5v-20.3l-11.9-17.6l6.7,0l7.9,11.8l8-11.8L221,233.7z"/>
	<path class="st2" d="M249.9,271.6l-5.6,0l-3.3-9.1h-15l-3.3,9.1l-5.6,0l13.9-37.9h5.1L249.9,271.6z M239.2,257.3l-5.7-15.5
		l-5.6,15.5H239.2z"/>
	<path class="st2" d="M293.1,271.6h-24.9v-37.9h24v5.1h-18.4v9.5h13.4v5.2h-13.4v12.8h19.3V271.6z"/>
	<path class="st2" d="M333.1,271.6l-5.7,0l-22.7-29.1v29.1h-5.5v-37.9h5.7l22.7,29.1v-29.1h5.5V271.6z"/>
	<path class="st2" d="M374.8,267.8l-1,0.6c-2.2,1.4-4.3,2.4-6.5,3c-2.2,0.6-4.6,0.9-7.4,0.9c-5.5,0-10.1-1.9-14-5.8
		s-5.8-8.5-5.8-13.9c0-5.4,1.9-10,5.7-13.8c3.8-3.8,8.5-5.7,14-5.7c2.6,0,5.1,0.4,7.5,1.1c2,0.6,4.2,1.5,6.4,2.8v6
		c-2.4-1.5-4.3-2.5-5.7-3.1c-2.5-1-5.2-1.5-8.2-1.5c-4,0-7.4,1.4-10.2,4.1c-2.8,2.8-4.2,6.1-4.2,10.1c0,3.9,1.4,7.3,4.2,10.1
		s6.3,4.2,10.3,4.2c2.1,0,3.8-0.2,5.2-0.5c1.4-0.3,2.8-0.9,4.2-1.7v-9.5h-8.3v-5.4h13.8V267.8z"/>
	<path class="st2" d="M405.9,271.6h-23.6v-37.9h5.5v32.4h18.1V271.6z"/>
	<path class="st2" d="M417.2,271.6h-5.5v-37.9h5.5V271.6z"/>
	<path class="st2" d="M447.8,260.5c0,3.5-1.2,6.3-3.7,8.6c-2.5,2.3-5.5,3.4-9,3.4c-2.8,0-5.4-0.8-7.6-2.4c-2.2-1.6-3.8-3.7-4.5-6.3
		l5.2-3.6c0,1.8,0.7,3.4,2,4.6c1.4,1.2,3,1.8,4.9,1.8c2,0,3.6-0.6,5-1.7c1.3-1.1,2-2.6,2-4.5c0-1.4-0.4-2.6-1.1-3.7s-1.7-1.9-3-2.4
		c-1.2-0.4-2.2-0.8-3-1.1c-0.8-0.3-1.8-0.7-2.9-1.1c-2.1-0.8-3.8-2-5-3.7c-1.3-1.7-1.9-3.6-1.9-5.8c0-2.9,1-5.3,3.1-7.2
		c2.1-1.9,4.6-2.8,7.6-2.8c2,0,3.9,0.5,5.5,1.4c1.6,0.9,2.9,2.3,3.9,3.9l-4.7,3.2c-0.4-0.9-1-1.6-1.8-2.1c-0.8-0.5-1.8-0.7-2.9-0.7
		c-1.4,0-2.7,0.4-3.6,1.1c-1,0.8-1.5,1.8-1.5,3.2c0,1,0.3,1.9,0.8,2.6c0.6,0.7,1.3,1.3,2.3,1.6l5.6,1.9c2.5,0.8,4.5,2.3,6,4.4
		S447.8,257.9,447.8,260.5z"/>
	<path class="st2" d="M484.3,271.6h-5.6v-18h-20.1v18h-5.5v-37.9h5.5v14.8h20.1v-14.8h5.6V271.6z"/>
</g>
</svg>
