<?xml version="1.0" encoding="utf-8"?>
<!-- Generator: Adobe Illustrator 21.0.0, SVG Export Plug-In . SVG Version: 6.00 Build 0)  -->
<svg version="1.1" xmlns="http://www.w3.org/2000/svg" xmlns:xlink="http://www.w3.org/1999/xlink" x="0px" y="0px"
	 viewBox="0 0 1400 770" style="enable-background:new 0 0 1400 770;" xml:space="preserve">
<style type="text/css">
	.st0{fill-rule:evenodd;clip-rule:evenodd;fill:url(#SVGID_1_);}
	.st1{opacity:0.41;fill-rule:evenodd;clip-rule:evenodd;fill:url(#SVGID_2_);}
	.st2{opacity:0.41;fill-rule:evenodd;clip-rule:evenodd;fill:url(#SVGID_3_);}
	.st3{fill-rule:evenodd;clip-rule:evenodd;fill:#1E3F4D;}
	.st4{opacity:0.25;fill-rule:evenodd;clip-rule:evenodd;fill:#A7EAFF;}
	.st5{opacity:0.4;}
	.st6{fill:#A7EAFF;}
	.st7{opacity:0.21;fill-rule:evenodd;clip-rule:evenodd;fill:#0A2636;}
	.st8{fill:url(#SVGID_4_);}
	.st9{opacity:0.55;}
	.st10{fill:#0A2636;}
	.st11{opacity:0.45;}
	.st12{opacity:0.11;}
	.st13{opacity:0.15;}
	.st14{opacity:0.27;}
	.st15{fill:url(#SVGID_5_);}
	.st16{opacity:0.21;fill:#0A2636;}
	.st17{opacity:0.41;fill-rule:evenodd;clip-rule:evenodd;fill:url(#SVGID_6_);}
	.st18{fill:url(#SVGID_7_);}
	.st19{opacity:0.56;fill:url(#SVGID_8_);}
	.st20{fill:#BF6B4A;}
	.st21{opacity:0.56;fill:url(#SVGID_9_);}
	.st22{fill:#6DD9FF;}
	.st23{fill:#FFFFFF;}
	.st24{fill:#C95D33;}
	.st25{fill:url(#SVGID_10_);}
	.st26{fill:url(#SVGID_11_);}
	.st27{fill:url(#SVGID_12_);}
	.st28{fill:url(#SVGID_13_);}
	.st29{opacity:0.56;fill:url(#SVGID_14_);}
	.st30{fill:url(#SVGID_15_);}
	.st31{fill:url(#SVGID_16_);}
	.st32{fill:url(#SVGID_17_);}
	.st33{fill:url(#SVGID_18_);}
	.st34{fill:url(#SVGID_19_);}
	.st35{fill:url(#SVGID_20_);}
	.st36{fill:url(#SVGID_21_);}
	.st37{fill:#7FBCF0;}
	.st38{opacity:0.56;fill:url(#SVGID_22_);}
	.st39{fill:#FAB178;}
	.st40{fill-rule:evenodd;clip-rule:evenodd;fill:url(#SVGID_23_);}
	.st41{opacity:0.56;fill:url(#SVGID_24_);}
	.st42{fill:url(#SVGID_25_);}
	.st43{opacity:0.56;fill:url(#SVGID_26_);}
	.st44{fill-rule:evenodd;clip-rule:evenodd;fill:url(#SVGID_27_);}
	.st45{opacity:0.23;fill:url(#SVGID_28_);}
	.st46{fill-rule:evenodd;clip-rule:evenodd;fill:url(#SVGID_29_);}
	.st47{fill:#1A3136;}
	.st48{opacity:0.23;fill:url(#SVGID_30_);}
	.st49{opacity:0.28;fill:#FFFFFF;}
	.st50{opacity:0.15;fill:url(#SVGID_31_);}
	.st51{fill:url(#SVGID_32_);}
	.st52{fill:#F7A774;}
	.st53{fill:#B5E3F5;}
	.st54{fill:#FCC19C;}
	.st55{opacity:0.15;fill:#91003B;}
	.st56{fill:#8F4312;}
	.st57{opacity:0.31;fill:#91003B;}
	.st58{fill:#1C3940;}
	.st59{opacity:0.15;fill:#99002A;}
	.st60{fill:url(#SVGID_33_);}
	.st61{fill:url(#SVGID_34_);}
	.st62{fill:#231F20;}
	.st63{fill:#66BDE3;}
	.st64{opacity:0.35;}
	.st65{opacity:0.62;fill:#703008;}
	.st66{opacity:0.31;}
	.st67{fill:#E8AD94;}
	.st68{fill:#FFD2B6;}
	.st69{fill:#E3FDFF;}
	.st70{opacity:0.25;fill-rule:evenodd;clip-rule:evenodd;fill:#143C42;}
</style>
<g id="Ñëîé_1">
	<linearGradient id="SVGID_1_" gradientUnits="userSpaceOnUse" x1="700" y1="-145.6001" x2="700" y2="865.202">
		<stop  offset="0" style="stop-color:#225470"/>
		<stop  offset="1" style="stop-color:#2A4778"/>
	</linearGradient>
	<rect class="st0" width="1400" height="770"/>
</g>
<g id="Ñëîé_3">
	<linearGradient id="SVGID_2_" gradientUnits="userSpaceOnUse" x1="700" y1="649.9999" x2="700" y2="243.9989">
		<stop  offset="0" style="stop-color:#006EAE"/>
		<stop  offset="1" style="stop-color:#000000"/>
	</linearGradient>
	<rect y="180" class="st1" width="1400" height="370"/>
	<linearGradient id="SVGID_3_" gradientUnits="userSpaceOnUse" x1="700" y1="279.4594" x2="700" y2="38.0534">
		<stop  offset="0" style="stop-color:#006EAE"/>
		<stop  offset="1" style="stop-color:#000000"/>
	</linearGradient>
	<rect class="st2" width="1400" height="220"/>
	<polygon class="st3" points="1400,227.5 0,226.2 0,216.8 1400,215.5 	"/>
	<path class="st4" d="M1400,227.5l-1262.9-1.2L0,226.2v13c0,0,10.2-6.7,15.8-6.5c5.5,0.2,11.9-1,16.7,0c4.8,1,12-0.2,17.6,0
		c5.6,0.2,8.8,0.6,16.9,0c8.1-0.6,27.6,6.7,34.1,0.1c6.5-6.6,62.8-0.9,71.2,0.2c8.4,1,29.5-0.1,36.3,0.1c6.8,0.2,11.1-1,16.2,0
		c5.1,1,12.9-3.5,18.9,0c6,3.5,169.8,3.5,183.6,0.4c13.9-3.2,29.7-1.9,41.8,0.1c12.2,2,54.8,0.8,62.5,0.1c7.7-0.6,20.2-4.5,36.6,0.1
		c16.5,4.6,121.8-0.9,139,0.3c17.3,1.2,36.8,0.7,50.3,0.1c13.5-0.6,22.9,6.6,34.3,7.6c11.5,0.9,51.7,4.8,66.7,0.2
		c15-4.5,38.8-6.4,44.2-6.3c5.4,0,84.8,0.2,112.9,0.3c28.3,0.1,34-2.8,54.6,0.1c20.7,2.9,57.9,5,70.8,5c16.3,0.1,20-5.4,34.2-4.7
		c7.3,0.3,12.6,1.6,21.4,0.1c4.7-0.8,8.1-2,14.1-1.9c6,0.1,10.4,1.5,12.3,2c6.3,1.8,16.8,3.6,34.7,3c24.5-0.2,44.4-1,58.2-1.6
		c17.8-0.8,25.8-1.5,37.8-0.4c20.1,1.8,36,7.2,46.3,11.5V227.5z"/>
	<path class="st4" d="M0,216.8l1190.5-1.1l209.5-0.2V199c0,0-16.5,8.6-25.4,8.3c-8.8-0.2-18.9,1.3-26.4,0.1
		c-7.5-1.2-18.7,0.3-27.4,0.1c-8.7-0.2-13.6-0.7-26,0.1c-12.3,0.8-41.6-8-51.3,0.1c-9.7,8.1-90.9,1.4-102.6,0.2
		c-11.7-1.2-40.8,0.3-50.1,0.1c-9.2-0.2-15,1.2-21.9,0c-6.9-1.2-17.2,4.1-25.1,0.1c-8-4-209.9-3-225.8,0.5
		c-15.8,3.4-33.6,2.1-47.1,0.1c-13.5-2-59.7-0.5-67.8,0.1c-8.1,0.7-21.3,4.7-38.3,0.1c-17-4.6-120.7,1.4-137,0.3
		c-16.2-1.1-34.2-0.6-46.4,0.1c-12.2,0.7-20.6-6.2-30.8-7c-10.2-0.8-45.2-4.1-58,0.2c-12.7,4.3-32.6,6-37.1,6
		c-4.5,0-68.3,0.2-90.1,0.2c-21.6,0-25.9,2.6-41.4,0.1c-15.4-2.4-42.4-4-51.7-4c-11.6,0-14.2,4.6-24.2,4.1c-5.1-0.3-8.8-1.3-14.9,0
		c-3.3,0.7-5.6,1.7-9.7,1.7c-4.1-0.1-7.1-1.2-8.4-1.6c-4.3-1.5-11.4-2.9-23.4-2.4c-16.2,0.3-29.3,1-38.2,1.5
		c-11.5,0.7-16.6,1.3-24.2,0.5c-12.7-1.4-22.6-5.6-29-8.9V216.8z"/>
	<g class="st5">
		<path class="st6" d="M1013.9,239.5c0,0-2.5,0.2-6.9,0.5c-4.4,0.3-10.6,0.7-18,1c-3.7,0.2-7.7,0.3-12,0.5
			c-4.2,0.1-8.7,0.3-13.3,0.4c-4.6,0.1-9.3,0.2-14.2,0.4c-4.8,0.1-9.7,0.2-14.6,0.3c-4.9,0-9.7,0.1-14.5,0.1c-4.8,0-9.5,0-14,0
			c-4.5,0-8.9-0.1-13-0.1c-4.1,0-8-0.1-11.6-0.2c-7.2-0.2-13.2-0.4-17.3-0.6c-4.2-0.2-6.5-0.4-6.5-0.4s2.4-0.2,6.5-0.6
			c4.2-0.3,10.1-0.7,17.3-1.1c3.6-0.2,7.5-0.4,11.6-0.6c4.1-0.2,8.5-0.4,13-0.5c4.5-0.2,9.2-0.3,14-0.4c4.8-0.1,9.6-0.2,14.5-0.3
			c4.9-0.1,9.8-0.1,14.6-0.2c2.4,0,4.8,0,7.2,0c2.4,0,4.7,0,7,0.1c4.6,0,9.1,0.2,13.3,0.3c4.3,0.1,8.3,0.2,12,0.3
			c7.5,0.2,13.7,0.5,18,0.8C1011.4,239.3,1013.9,239.5,1013.9,239.5z"/>
	</g>
	<g class="st5">
		<path class="st6" d="M548.1,237.6c0,0-4.4,0.2-12.2,0.6c-3.9,0.2-8.6,0.4-13.9,0.6c-5.4,0.2-11.4,0.5-18,0.7
			c-6.6,0.2-13.7,0.3-21.2,0.4c-7.5,0.1-15.3,0.2-23.4,0.2c-8.1,0-16.4,0-24.8-0.1c-8.4-0.1-16.9-0.3-25.4-0.5
			c-8.5-0.2-16.9-0.3-25.2-0.4c-8.2-0.1-16.3-0.2-24.2-0.3c-7.8-0.1-15.3-0.2-22.4-0.3c-7.1-0.1-13.8-0.1-19.9-0.2
			c-12.3-0.1-22.4-0.2-29.5-0.3c-7.1-0.1-11.1-0.1-11.1-0.1s4-0.1,11.1-0.4c3.5-0.1,7.9-0.2,12.8-0.3c5-0.1,10.6-0.3,16.7-0.3
			c6.2-0.1,12.8-0.2,19.9-0.2c7.1-0.1,14.6-0.1,22.4-0.1c7.8,0,15.9,0,24.2,0.1c8.3,0.1,16.7,0.2,25.2,0.4c8.5,0.2,17,0.4,25.4,0.5
			c8.4,0.1,16.7,0.3,24.8,0.3c8.1,0.1,15.9,0.1,23.4,0.2c7.5,0,14.6,0,21.1,0c13.2-0.1,24.2-0.2,31.9-0.3
			C543.6,237.6,548.1,237.6,548.1,237.6z"/>
	</g>
	<g class="st5">
		<path class="st6" d="M234.1,204.9c0,0-5.2-0.5-13-1.2c-1.9-0.2-4.1-0.3-6.3-0.5c-2.2-0.2-4.6-0.3-7-0.5c-2.4-0.2-4.9-0.3-7.4-0.5
			c-2.5-0.2-5.1-0.3-7.7-0.4c-2.6-0.1-5.1-0.2-7.7-0.3c-2.5-0.1-5-0.2-7.4-0.2c-2.4-0.1-4.7-0.1-6.9-0.2c-2.2,0-4.3-0.1-6.2-0.1
			c-7.7-0.1-12.7-0.1-12.7-0.1s1.3-0.2,3.5-0.4c1.1-0.1,2.5-0.3,4-0.4c1.6-0.1,3.3-0.3,5.2-0.4c3.8-0.3,8.3-0.5,13.2-0.5
			c2.4,0,4.9,0,7.5,0c2.5,0.1,5.1,0.1,7.7,0.3c2.6,0.1,5.2,0.3,7.7,0.5c2.6,0.2,5.1,0.4,7.5,0.7c2.4,0.2,4.8,0.6,7,0.9
			c2.2,0.3,4.3,0.6,6.3,0.9c3.9,0.6,7.1,1.3,9.3,1.8C232.8,204.6,234.1,204.9,234.1,204.9z"/>
	</g>
	<g class="st5">
		<path class="st6" d="M1032.4,200.3c0,0-1.9,0.2-5.5,0.4c-3.6,0.3-8.7,0.7-15.4,1.2c-6.6,0.4-14.6,1-23.8,1.5
			c-9.1,0.6-19.4,1.1-30.6,1.5c-11.1,0.5-23.2,0.9-35.8,1.2c-12.6,0.3-25.9,0.5-39.5,0.5c-13.6,0-27.6-0.1-41.7-0.5
			c-14.1-0.3-28.3-0.9-42.4-1.5c-14-0.7-28-1.4-41.7-1.9c-13.6-0.5-27-1-39.8-1.4c-12.8-0.3-25.1-0.6-36.8-0.8
			c-5.8-0.1-11.4-0.1-16.9-0.2c-5.4-0.1-10.7-0.1-15.7-0.1c-10,0-19.2,0-27.3,0.1c-8.1,0.1-15.1,0.2-20.9,0.3
			c-11.5,0.2-18.1,0.4-18.1,0.4s1.6-0.1,4.7-0.3c3.1-0.2,7.6-0.5,13.3-0.9c11.5-0.7,28.1-1.5,48.1-2c10.1-0.2,21-0.4,32.7-0.5
			c11.7-0.1,24-0.1,36.9,0.2c12.9,0.2,26.3,0.5,40,1c13.7,0.5,27.7,1.1,41.8,1.7c14.1,0.7,28.3,1.3,42.3,1.7
			c14.1,0.4,28,0.7,41.6,0.8c13.6,0.1,26.8,0.2,39.4,0.1c3.2,0,6.3,0,9.3-0.1c3.1,0,6.1-0.1,9.1-0.1c6,0,11.8-0.1,17.3-0.2
			c5.6-0.1,10.9-0.2,16-0.3c5.1-0.1,10-0.2,14.5-0.3c9.2-0.3,17.2-0.5,23.8-0.7C1024.8,200.5,1032.4,200.3,1032.4,200.3z"/>
	</g>
	<g class="st5">
		<path class="st6" d="M757.6,240c0,0-2.2,0-6.1,0c-3.9,0-9.4-0.1-16-0.3c-3.3-0.1-6.9-0.2-10.6-0.3c-0.9,0-1.9-0.1-2.9-0.1l-0.7,0
			l-0.7,0c-0.5,0-1,0-1.5,0c-2,0-4-0.1-6-0.1c-8.1-0.2-16.8-0.4-25.4-0.6c-17.2-0.3-34.3-0.6-47-0.8c-3.2-0.1-6.1-0.1-8.7-0.2
			c-2.6,0-4.8-0.1-6.7-0.2c-3.7-0.1-5.8-0.2-5.8-0.2s2.1-0.3,5.8-0.7c1.8-0.2,4.1-0.4,6.7-0.7c2.6-0.2,5.5-0.5,8.7-0.7
			c3.2-0.2,6.6-0.4,10.3-0.6c3.7-0.2,7.6-0.3,11.6-0.4c4-0.1,8.2-0.2,12.4-0.2c4.2,0,8.6,0,12.9,0.1c4.3,0.1,8.7,0.2,12.9,0.4
			c4.3,0.2,8.5,0.4,12.6,0.7c2,0.1,4,0.3,6,0.4c0.5,0,1,0.1,1.5,0.1l0.8,0.1l0.7,0.1c1,0.1,1.9,0.2,2.8,0.3
			c3.7,0.4,7.3,0.7,10.6,1.1c6.6,0.7,12,1.4,15.8,1.9C755.5,239.6,757.6,240,757.6,240z"/>
	</g>
	<polygon class="st3" points="0,558 1400,556.7 1400,547.3 0,546 	"/>
	<path class="st4" d="M0,558l1262.9-1.2l137.1-0.1v13c0,0-10.2-6.7-15.8-6.5c-5.5,0.2-11.9-1-16.7,0c-4.8,1-12-0.2-17.6,0
		c-5.6,0.2-8.8,0.6-16.9,0c-8.1-0.6-27.6,6.7-34.1,0.1c-6.5-6.6-62.8-0.9-71.2,0.2c-8.4,1-29.5-0.1-36.3,0.1c-6.8,0.2-11.1-1-16.2,0
		c-5.1,1-12.9-3.5-18.9,0c-6,3.5-169.8,3.5-183.6,0.4c-13.9-3.2-29.7-1.9-41.8,0.1c-12.2,2-54.8,0.8-62.5,0.1
		c-7.7-0.6-20.2-4.5-36.6,0.1c-16.5,4.6-121.8-0.9-139,0.3c-17.3,1.2-36.8,0.7-50.3,0.1c-13.5-0.6-22.9,6.6-34.3,7.6
		c-11.5,0.9-51.7,4.8-66.7,0.2c-15-4.5-38.8-6.4-44.2-6.3c-5.4,0-84.8,0.2-112.9,0.3c-28.3,0.1-34-2.8-54.6,0.1
		c-20.7,2.9-57.9,5-70.8,5c-16.3,0.1-20-5.4-34.2-4.7c-7.3,0.3-12.6,1.6-21.4,0.1c-4.7-0.8-8.1-2-14.1-1.9c-6,0.1-10.4,1.5-12.3,2
		c-6.3,1.8-16.8,3.6-34.7,3c-24.5-0.2-44.4-1-58.2-1.6c-17.8-0.8-25.8-1.5-37.8-0.4c-20.1,1.8-36,7.2-46.3,11.5V558z"/>
	<path class="st4" d="M1400,547.3l-1190.5-1.1L0,546v-16.5c0,0,16.5,8.6,25.4,8.3c8.8-0.2,18.9,1.3,26.4,0.1
		c7.5-1.2,18.7,0.3,27.4,0.1c8.7-0.2,13.6-0.7,26,0.1c12.3,0.8,41.6-8,51.3,0.1c9.7,8.1,90.9,1.4,102.6,0.2
		c11.7-1.2,40.8,0.3,50.1,0.1c9.2-0.2,15,1.2,21.9,0c6.9-1.2,17.2,4.1,25.1,0.1c8-4,209.9-3,225.8,0.5c15.8,3.4,33.6,2.1,47.1,0.1
		c13.5-2,59.7-0.5,67.8,0.1c8.1,0.7,21.3,4.7,38.3,0.1c17-4.6,120.7,1.4,137,0.3c16.2-1.1,34.2-0.6,46.4,0.1
		c12.2,0.7,20.6-6.2,30.8-7c10.2-0.8,45.2-4.1,58,0.2c12.7,4.3,32.6,6,37.1,6c4.5,0,68.3,0.2,90.1,0.2c21.6,0,25.9,2.6,41.4,0.1
		c15.4-2.4,42.4-4,51.7-4c11.6,0,14.2,4.6,24.2,4.1c5.1-0.3,8.8-1.3,14.9,0c3.3,0.7,5.6,1.7,9.7,1.7c4.1-0.1,7.1-1.2,8.4-1.6
		c4.3-1.5,11.4-2.9,23.4-2.4c16.2,0.3,29.3,1,38.2,1.5c11.5,0.7,16.6,1.3,24.2,0.5c12.7-1.4,22.6-5.6,29-8.9V547.3z"/>
	<g class="st5">
		<path class="st6" d="M367.6,536.8c0,0,1.9,0.2,5.5,0.4c3.6,0.3,8.7,0.7,15.4,1.2c6.6,0.4,14.6,1,23.8,1.5
			c9.1,0.6,19.4,1.1,30.6,1.5c11.1,0.5,23.2,0.9,35.8,1.2c12.6,0.3,25.9,0.5,39.5,0.5c13.6,0,27.6-0.1,41.7-0.5
			c14.1-0.3,28.3-0.9,42.4-1.5c14-0.7,28-1.4,41.7-1.9c13.6-0.5,27-1,39.8-1.4c12.8-0.3,25.1-0.6,36.8-0.8
			c5.8-0.1,11.4-0.1,16.9-0.2c5.4-0.1,10.7-0.1,15.7-0.1c10,0,19.2,0,27.3,0.1c8.1,0.1,15.1,0.2,20.9,0.3
			c11.5,0.2,18.1,0.4,18.1,0.4s-1.6-0.1-4.7-0.3c-3.1-0.2-7.6-0.5-13.3-0.9c-11.5-0.7-28.1-1.5-48.1-2c-10.1-0.2-21-0.4-32.7-0.5
			c-11.7-0.1-24-0.1-36.9,0.2c-12.9,0.2-26.3,0.5-40,1c-13.7,0.5-27.7,1.1-41.8,1.7c-14.1,0.7-28.3,1.3-42.3,1.7
			c-14.1,0.4-28,0.7-41.6,0.8c-13.6,0.1-26.8,0.2-39.4,0.1c-3.2,0-6.3,0-9.3-0.1c-3.1,0-6.1-0.1-9.1-0.1c-6,0-11.8-0.1-17.3-0.2
			c-5.6-0.1-10.9-0.2-16-0.3c-5.1-0.1-10-0.2-14.5-0.3c-9.2-0.3-17.2-0.5-23.8-0.7C375.2,537,367.6,536.8,367.6,536.8z"/>
	</g>
	<g class="st5">
		<path class="st6" d="M642.4,576.5c0,0,2.2,0,6.1,0c3.9,0,9.4-0.1,16-0.3c3.3-0.1,6.9-0.2,10.6-0.3c0.9,0,1.9-0.1,2.9-0.1l0.7,0
			l0.7,0c0.5,0,1,0,1.5,0c2,0,4-0.1,6-0.1c8.1-0.2,16.8-0.4,25.4-0.6c17.2-0.3,34.3-0.6,47-0.8c3.2-0.1,6.1-0.1,8.7-0.2
			c2.6,0,4.8-0.1,6.7-0.2c3.7-0.1,5.8-0.2,5.8-0.2s-2.1-0.3-5.8-0.7c-1.8-0.2-4.1-0.4-6.7-0.7c-2.6-0.2-5.5-0.5-8.7-0.7
			c-3.2-0.2-6.6-0.4-10.3-0.6c-3.7-0.2-7.6-0.3-11.6-0.4c-4-0.1-8.2-0.2-12.4-0.2c-4.2,0-8.6,0-12.9,0.1c-4.3,0.1-8.7,0.2-12.9,0.4
			c-4.3,0.2-8.5,0.4-12.6,0.7c-2,0.1-4,0.3-6,0.4c-0.5,0-1,0.1-1.5,0.1l-0.8,0.1l-0.7,0.1c-1,0.1-1.9,0.2-2.8,0.3
			c-3.7,0.4-7.3,0.7-10.6,1.1c-6.6,0.7-12,1.4-15.8,1.9C644.5,576.2,642.4,576.5,642.4,576.5z"/>
	</g>
	<g class="st5">
		<path class="st6" d="M107.7,236.3c0,0-2.9,0.5-7.2,1c-1.1,0.1-2.3,0.3-3.5,0.4c-1.3,0.1-2.6,0.2-3.9,0.2c-1.4,0-2.8,0.1-4.2,0.1
			c-1.4,0-2.9,0-4.3,0c-1.4-0.1-2.9-0.1-4.3-0.2c-1.4-0.1-2.8-0.2-4.2-0.3c-2.7-0.2-5.2-0.6-7.3-0.9c-2.1-0.3-3.9-0.7-5.1-1
			c-1.2-0.3-1.9-0.5-1.9-0.5s0.7,0,2,0c1.3,0,3,0,5.2,0.1c1.1,0,2.2,0.1,3.5,0.1c1.2,0,2.5,0.1,3.9,0.1c2.7,0.1,5.5,0.1,8.4,0.2
			c1.4,0,2.9,0.1,4.3,0.1c1.4,0,2.8,0.1,4.1,0.1c1.3,0,2.7,0.1,3.9,0.1c1.2,0,2.4,0,3.5,0.1C104.8,236.1,107.7,236.3,107.7,236.3z"
			/>
	</g>
	<path class="st6" d="M876.6,236.6c0,0-1.6,0.2-4.5,0.4c-2.8,0.2-6.9,0.5-11.8,0.9c-4.9,0.3-10.5,0.7-16.6,1c-3,0.2-6.1,0.3-9.3,0.5
		c-3.2,0.1-6.4,0.3-9.6,0.4c-3.2,0.1-6.4,0.3-9.6,0.4c-3.1,0.1-6.2,0.2-9.2,0.3c-6,0.2-11.5,0.3-16.3,0.4c-4.8,0.1-8.7,0.1-11.5,0.2
		c-2.8,0-4.4,0-4.4,0s1.6-0.1,4.3-0.4c2.8-0.2,6.7-0.5,11.5-0.8c4.8-0.3,10.3-0.7,16.3-1c3-0.2,6.1-0.3,9.2-0.5
		c3.1-0.1,6.4-0.3,9.6-0.4c3.2-0.1,6.4-0.3,9.6-0.4c3.2-0.1,6.3-0.2,9.3-0.3c6.1-0.2,11.7-0.4,16.6-0.4c4.9-0.1,9-0.1,11.8-0.2
		C875,236.6,876.6,236.6,876.6,236.6z"/>
	<path class="st6" d="M197.7,235.5c0,0-0.9,0-2.4,0c-1.5,0-3.7,0.1-6.3,0.1c-2.6,0-5.7,0-8.9,0c-3.3,0-6.7-0.1-10.2-0.1
		c-3.5-0.1-6.9-0.1-10.1-0.2c-3.2-0.1-6.2-0.2-8.8-0.2c-2.6-0.1-4.7-0.2-6.2-0.2c-1.5-0.1-2.4-0.1-2.4-0.1s0.9,0,2.4,0
		c1.5,0,3.6-0.1,6.2-0.1c2.6,0,5.6,0,8.8,0c3.2,0,6.7,0.1,10.1,0.1c3.5,0.1,6.9,0.1,10.2,0.2c3.3,0.1,6.3,0.2,8.9,0.2
		c2.6,0.1,4.8,0.2,6.3,0.2C196.8,235.5,197.7,235.5,197.7,235.5z"/>
	<path class="st7" d="M1127.1,121c-10.6-2.4-23-4.4-36.9-5.4c-14.8-1.1-28.1-0.7-39.3,0.3c-1.2,6-2.4,15.3-0.7,26.4
		c1.5,10.1,4.8,18,7.4,23.1c11.2,2,26.1,3.4,43.3,1.9c11.8-1,22.1-3.2,30.6-5.6C1130.1,148.1,1128.6,134.6,1127.1,121z"/>
	<g>
		
			<linearGradient id="SVGID_4_" gradientUnits="userSpaceOnUse" x1="1090.0553" y1="114.8031" x2="1090.0553" y2="170.4977" gradientTransform="matrix(0.9925 0.1225 -0.1225 0.9925 26.2777 -132.5937)">
			<stop  offset="0" style="stop-color:#0B2D47"/>
			<stop  offset="1" style="stop-color:#4D83AB"/>
		</linearGradient>
		<path class="st8" d="M1086.6,168.8C1086.6,168.8,1086.6,168.8,1086.6,168.8c-9.7,0-19.5-0.9-29.2-2.6l-0.4-0.1l-0.2-0.4
			c-3.7-7.4-6.3-15.2-7.5-23.4c-1.3-8.9-1.1-17.9,0.7-26.7l0.1-0.6l0.6-0.1c13.1-1.1,26.4-1.2,39.5-0.3c12.4,0.9,24.9,2.7,37.1,5.4
			l0.6,0.1l4.5,42l-0.7,0.2c-10,2.8-20.4,4.7-30.8,5.7C1096.2,168.6,1091.4,168.8,1086.6,168.8z M1058.1,164.6
			c9.4,1.6,19,2.5,28.4,2.5h0c4.7,0,9.5-0.2,14.3-0.6c10-0.9,20-2.7,29.8-5.4l-4.2-39.4c-11.9-2.6-24.1-4.4-36.2-5.3
			c-12.8-0.9-25.8-0.8-38.6,0.2c-1.6,8.4-1.8,17-0.6,25.5C1052.2,150,1054.6,157.5,1058.1,164.6z"/>
	</g>
	<g class="st9">
		<path class="st10" d="M1387.1,58.3l-43.6,1.1l-43.6,1l-87.3,1.9l-87.3,1.7c-14.6,0.3-29.1,0.5-43.7,0.8l-43.7,0.7l-87.3,1.1
			L906.9,67l-43.7,0.6l-43.7,0.7l-43.7,0.8L732.3,70l-43.7,0.9l0.5-1.4c2.2,2.3,4.2,4.7,5.9,7.5c0.8,1.4,1.5,2.9,1.8,4.5
			c0.2,0.8,0.2,1.7,0.1,2.6c-0.1,0.4-0.2,0.9-0.3,1.3c-0.1,0.2-0.1,0.4-0.3,0.7c-0.1,0.2-0.2,0.3-0.3,0.5c-1.1,1.6-2.6,2.4-4.2,3
			c-1.5,0.6-3.2,0.8-4.7,1.1l-9.1,1.6c-3,0.6-6.1,1-9.2,1.5l-9.2,1.4l-9.2,1.2c-1.5,0.2-3.1,0.4-4.6,0.6l-4.6,0.5
			c-3.1,0.3-6.2,0.7-9.3,0.9l-9.3,0.7c-3.1,0.3-6.2,0.3-9.3,0.5c-3.1,0.2-6.2,0.3-9.3,0.4c-3.1,0.1-6.2,0.2-9.3,0.2l-9.3,0
			c-6.2-0.1-12.4-0.2-18.6-0.6l-4.7-0.2l-4.6-0.3l-4.6-0.3c-1.5-0.1-3.1-0.3-4.6-0.4c-3.1-0.3-6.2-0.6-9.3-1
			c-3.1-0.4-6.2-0.7-9.2-1.2c-3.1-0.4-6.2-0.9-9.2-1.4l-4.6-0.8l-4.6-0.9c-6.1-1.2-12.2-2.6-18.2-4c-6-1.6-12-3.2-18-5.1
			c-5.9-1.9-11.8-4-17.6-6.3c-2.9-1.2-5.8-2.4-8.6-3.7c-1.4-0.7-2.8-1.4-4.2-2.1c-1.4-0.8-2.7-1.5-4.1-2.3
			c-5.4-3.1-10.7-6.4-15.8-9.9l0.8,0.3c-34.5-1.9-69-4-103.5-6.1c-17.2-1.1-34.5-2.2-51.7-3.4l-25.9-1.8l-25.8-1.9l-12.9-1
			l-12.9-1.1l-12.9-1L167,42.6c-8.6-0.4-17.2-0.7-25.9-0.9c-4.3-0.1-8.6-0.2-12.9-0.2c-4.3-0.1-8.6-0.1-12.9-0.1
			c-8.6-0.1-17.3,0-25.9,0.1l-13,0.1l-13,0.2c-8.6,0.2-17.3,0.4-25.9,0.6c-8.6,0.3-17.3,0.6-25.9,0.9l0-0.3
			c8.6-0.5,17.3-0.9,25.9-1.3c8.6-0.4,17.3-0.7,25.9-1l13-0.4l13-0.3c8.6-0.1,17.3-0.3,25.9-0.3c4.3,0,8.6,0,13,0
			c4.3,0,8.6,0,13,0.1c8.6,0.1,17.3,0.3,25.9,0.7l13,0.6l12.9,0.9l12.9,1l12.9,1l25.8,1.8l25.9,1.7l51.7,3.2
			c34.5,2.1,69,4.1,103.5,6l0.4,0l0.4,0.2c5.1,3.4,10.3,6.7,15.7,9.8c1.3,0.8,2.7,1.6,4,2.3c1.3,0.7,2.7,1.4,4.1,2
			c2.8,1.3,5.6,2.5,8.4,3.7c5.7,2.3,11.5,4.4,17.4,6.3c5.9,1.9,11.8,3.6,17.8,5.1c6,1.5,12,2.9,18.1,4.1l4.5,0.9l4.6,0.8
			c3,0.6,6.1,1,9.1,1.5c3,0.5,6.1,0.8,9.2,1.2c3.1,0.4,6.1,0.7,9.2,1c1.5,0.2,3.1,0.3,4.6,0.5l4.6,0.4l4.6,0.4l4.6,0.3
			c6.2,0.4,12.3,0.6,18.5,0.7l9.3,0.1c3.1,0,6.2-0.1,9.3-0.1c3.1,0,6.2-0.2,9.3-0.3c3.1-0.2,6.2-0.2,9.3-0.5l9.2-0.6
			c3.1-0.2,6.2-0.6,9.2-0.8l4.6-0.4c1.5-0.2,3.1-0.4,4.6-0.5l9.2-1.1l9.2-1.3c3.1-0.4,6.1-0.9,9.2-1.4l9.2-1.6c1.5-0.3,3-0.5,4.4-1
			c1.3-0.5,2.6-1.3,3.3-2.3c0.8-1.1,0.9-2.5,0.6-3.9c-0.3-1.4-0.9-2.8-1.6-4.1c-1.5-2.6-3.4-5-5.5-7.2l-1.3-1.3l1.9,0l43.7-0.6
			l43.7-0.6l43.7-0.7l43.7-0.8l43.7-0.9l43.7-1l87.3-1.9l43.7-0.8c14.6-0.3,29.1-0.5,43.7-0.7l87.3-1.3l87.3-1.1l43.7-0.5l43.7-0.4
			L1387.1,58.3z"/>
	</g>
	<g class="st9">
		<path class="st10" d="M1375.1,168.1c0,0-5.3,0.3-15.3,0.8c-10,0.5-24.6,1.2-43.2,2.1c-18.6,0.9-41.2,1.8-67.1,2.9
			c-25.9,1.1-55.1,2.2-87,3.4c-16,0.6-32.6,1.1-49.8,1.7c-17.2,0.6-35,1-53.3,1.5c-9.1,0.2-18.4,0.4-27.8,0.7
			c-9.4,0.1-18.9,0.3-28.5,0.5c-9.6,0.1-19.3,0.2-29.1,0.2c-9.8,0-19.7,0-29.7-0.5c-2.5-0.1-5-0.2-7.6-0.7l-1-0.3
			c-0.3-0.1-0.6-0.2-0.9-0.3c-0.6-0.2-1.2-0.4-1.8-0.5c-1.2-0.3-2.4-0.6-3.6-0.9c-4.9-1.2-9.8-2.1-14.8-3.1c-9.9-2-20-3.7-30.1-5.5
			c-20.2-3.5-40.7-6.9-61.4-10.1c-20.7-3.2-41.6-6.4-62.5-9.4c-10.5-1.5-21-3-31.5-4.4c-5.3-0.7-10.5-1.4-15.8-2.1l-7.9-1l-4-0.5
			c-0.6-0.1-1.3-0.2-2-0.2l-2-0.1c-5.3-0.3-10.5-0.2-15.9,0c-5.3,0.1-10.6,0.4-15.9,0.7c-10.6,0.5-21.2,1.2-31.8,1.9
			c-21.1,1.4-42.2,3-63.1,4.6c-41.8,3.2-82.9,6.4-122.6,9.5c-19.9,1.5-39.5,2.9-58.6,4.2c-19.2,1.3-37.9,2.5-56.2,3.6
			c-18.3,1-36,2-53.3,2.5c-8.6,0.3-17.1,0.4-25.4,0.5c-8.3,0.2-16.5,0.2-24.4,0.3c-31.9,0.3-61.2,0.3-87.1,0.1
			c-25.9-0.2-48.5-0.4-67.2-0.8c-37.2-0.6-58.5-1.2-58.5-1.2l0-0.3c0,0,21.3,0.3,58.5,0.3c18.6,0,41.2,0.1,67.2,0
			c25.9-0.1,55.2-0.3,87.1-0.8c8-0.2,16.1-0.3,24.4-0.5c8.3-0.2,16.8-0.4,25.3-0.7c17.2-0.7,34.9-1.6,53.2-2.6
			c36.5-2.2,74.9-5,114.7-7.9c39.8-2.9,80.9-5.9,122.7-9c20.9-1.5,42-2.9,63.1-4.1c10.6-0.6,21.2-1.2,31.8-1.7
			c5.3-0.2,10.6-0.4,16-0.5c5.3-0.1,10.7-0.2,16,0.1l2,0.1c0.7,0,1.3,0.2,2,0.2l4,0.5l7.9,1.1c5.3,0.7,10.5,1.5,15.8,2.2
			c10.5,1.6,21,3.1,31.5,4.7c21,3.1,41.8,6.4,62.5,9.6c20.7,3.3,41.2,6.5,61.5,9.9c10.1,1.7,20.2,3.5,30.1,5.3c5,0.9,9.9,1.9,14.9,3
			c1.2,0.3,2.5,0.6,3.7,0.9c0.6,0.1,1.2,0.3,1.8,0.5l0.9,0.3l0.8,0.2c2.4,0.4,4.9,0.5,7.4,0.6c9.9,0.4,19.8,0.3,29.6,0.2
			c9.8-0.1,19.5-0.3,29.1-0.5c19.2-0.5,38-1,56.2-1.5c36.6-1.1,71.1-2.2,103-3.1c127.6-4.2,212.7-6.9,212.7-6.9L1375.1,168.1z"/>
	</g>
	<g class="st11">
		<path class="st10" d="M19.6,69.6c0,0,13.9,0.3,38.3,0.9c12.2,0.3,27,0.8,43.9,1.3c17,0.5,36.1,1.3,57,2.1
			c20.9,0.9,43.5,1.9,67.4,3.2c23.9,1.3,49.1,2.9,75.1,4.8c26,2,52.9,4.1,80.2,7c13.6,1.5,27.4,3.1,41,5.8c3.4,0.7,6.8,1.4,10.2,2.4
			c1.7,0.5,3.3,1.1,5,1.7c1.6,0.7,3.2,1.5,4.7,2.6c0.7,0.6,1.5,1.3,1.7,2.4c0.1,0.6-0.1,1.2-0.4,1.6c-0.3,0.4-0.6,0.8-1,1
			c-1.5,1.1-3.2,1.7-4.9,2.2c-3.4,1-6.8,1.7-10.2,2.3c-6.9,1.2-13.8,2-20.7,2.7c-6.9,0.7-13.8,1.3-20.8,1.9c-13.8,1.1-27.6,2-41.3,3
			c-13.7,1-27.2,1.9-40.6,3.1c-6.7,0.6-13.3,1.3-19.9,2.1c-3.3,0.4-6.5,0.9-9.8,1.4c-3.2,0.6-6.4,1.2-9.5,2.1c-1.5,0.5-3,1-4.2,1.8
			l-0.4,0.3l-0.5,0.4l-0.9,0.8c-0.5,0.6-1,1-1.4,1.7c-0.9,1.2-1.5,2.5-1.6,3.9c-0.1,1.4,0.2,2.8,0.7,4.3c0.5,1.5,1.3,2.9,1.5,4.8
			c0.1,1-0.2,2.2-0.9,3c-0.3,0.4-0.7,0.7-1.1,1c-0.4,0.3-0.8,0.5-1.2,0.7c-3.2,1.4-6.3,1.9-9.5,2.4c-3.1,0.4-6.3,0.7-9.4,1
			c-1.6,0.1-3.1,0.2-4.7,0.3c-1.5,0.1-3.1,0.1-4.6,0.2c-6.1,0.3-12.2,0.4-18.2,0.6c-23.9,0.5-46.6,0.4-67.4,0.3
			c-20.9-0.1-40-0.3-57-0.6c-17-0.2-31.8-0.4-43.9-0.7C15.9,153,2,152.7,2,152.7l0-0.2c0,0,13.9,0.1,38.3,0.2
			c12.2,0.1,27,0.2,43.9,0.3c17,0.1,36.1,0.1,57,0.1c5.2,0,10.5,0,16-0.1c5.4,0,11-0.1,16.6-0.1c5.6-0.1,11.3-0.1,17.2-0.2
			c5.8-0.1,11.7-0.2,17.7-0.3c6-0.2,12-0.3,18.1-0.6c1.5-0.1,3.1-0.1,4.6-0.2c1.5-0.1,3.1-0.2,4.6-0.3c3.1-0.3,6.2-0.6,9.2-1
			c3-0.5,6.2-1,8.8-2.2c0.3-0.2,0.6-0.3,0.9-0.5c0.2-0.2,0.5-0.4,0.7-0.6c0.4-0.4,0.5-0.9,0.4-1.5c-0.1-1.2-0.8-2.7-1.4-4.3
			c-0.6-1.5-1-3.3-0.8-5.2c0.2-1.8,1-3.6,2-4.9c0.5-0.7,1.1-1.3,1.7-2l0.9-0.8l0.5-0.4c0.3-0.2,0.4-0.3,0.6-0.4c1.6-1,3.2-1.5,4.8-2
			c3.2-1,6.5-1.6,9.7-2.2c3.3-0.6,6.5-1,9.8-1.4c6.6-0.8,13.3-1.5,20-2c13.4-1.1,27-2,40.6-2.9c13.7-0.9,27.5-1.7,41.3-2.7
			c6.9-0.5,13.8-1.1,20.7-1.7c6.9-0.7,13.8-1.4,20.7-2.6c3.4-0.6,6.8-1.2,10.1-2.2c1.6-0.5,3.3-1.1,4.6-2c0.6-0.5,1.1-1.1,1-1.7
			c-0.1-0.6-0.6-1.3-1.3-1.8c-1.3-1-2.9-1.8-4.4-2.5c-1.6-0.7-3.2-1.3-4.9-1.7c-3.3-1-6.7-1.8-10.1-2.5c-13.6-2.7-27.3-4.4-40.9-6
			c-13.6-1.5-27.2-2.7-40.5-3.8c-13.4-1.1-26.6-2-39.6-2.8c-26-1.7-51.2-2.9-75.1-4.1c-23.9-1.1-46.5-2.2-67.3-3.2
			c-20.9-0.9-40-1.7-56.9-2.5c-17-0.7-31.7-1.3-43.9-1.8c-24.3-1-38.3-1.5-38.3-1.5L19.6,69.6z"/>
	</g>
	<g class="st12">
		<path class="st6" d="M429,249.1c0,0-1.2,1.1-3.4,3.3c-2.2,2.1-5.5,5.3-9.6,9.3c-4.2,4-9.2,8.8-15.1,14.3
			c-5.8,5.5-12.4,11.7-19.6,18.4c-7.2,6.7-15,14-23.4,21.7c-8.3,7.7-17.1,15.8-26.2,24c-9.1,8.3-18.5,16.9-28.2,25.6
			c-9.6,8.7-19.4,17.4-29.2,26.2c-9.8,8.7-19.7,17.5-29.4,26.1c-9.7,8.6-19.3,17-28.6,25.1c-9.3,8.2-18.3,15.9-26.8,23.3
			c-8.5,7.4-16.7,14.4-24.2,20.8c-7.5,6.4-14.4,12.3-20.5,17.4c-6.1,5.2-11.5,9.6-15.9,13.3c-4.4,3.7-7.9,6.6-10.3,8.5
			c-2.4,2-3.7,3-3.7,3s1.2-1.1,3.4-3.3c2.2-2.1,5.5-5.3,9.6-9.3c4.2-4,9.2-8.8,15.1-14.3c5.8-5.5,12.4-11.7,19.6-18.4
			c7.2-6.7,15-14,23.4-21.7c8.3-7.7,17.1-15.8,26.2-24c9.1-8.3,18.5-16.9,28.2-25.6c9.6-8.7,19.4-17.4,29.2-26.2
			c9.8-8.7,19.7-17.5,29.4-26.1c9.7-8.6,19.3-17,28.6-25.1c9.3-8.2,18.3-15.9,26.8-23.3c8.5-7.4,16.7-14.4,24.2-20.8
			c7.5-6.4,14.4-12.3,20.5-17.4c6.1-5.2,11.5-9.6,15.9-13.4c4.4-3.7,7.9-6.6,10.3-8.5C427.7,250.1,429,249.1,429,249.1z"/>
	</g>
	<g class="st13">
		<path class="st6" d="M272,111.3c0,0,0.8,0.1,2.4,0.4c1.6,0.3,3.8,0.7,6.7,1.1c5.8,1,14.1,2.4,24,4.3c5,0.9,10.3,1.9,16,3
			c5.7,1.1,11.7,2.2,17.9,3.4c6.2,1.2,12.6,2.5,19.1,3.7c6.5,1.3,13.1,2.6,19.7,3.9c6.6,1.3,13.2,2.7,19.7,4c6.5,1.3,12.9,2.7,19,4
			c12.3,2.6,23.8,5.1,33.7,7.3c9.9,2.2,18,4.1,23.8,5.4c2.9,0.7,5.1,1.2,6.7,1.6c1.5,0.4,2.4,0.6,2.4,0.6s-0.8-0.1-2.4-0.4
			c-1.6-0.3-3.8-0.7-6.7-1.1c-5.8-1-14.1-2.4-24-4.3c-9.9-1.8-21.5-4-33.9-6.4c-6.2-1.2-12.6-2.4-19.1-3.7
			c-6.5-1.3-13.1-2.6-19.7-3.9c-6.6-1.3-13.2-2.7-19.7-4c-6.5-1.4-12.9-2.7-19-4c-6.2-1.3-12.1-2.6-17.8-3.8
			c-5.6-1.2-11-2.4-15.9-3.5c-9.9-2.2-18-4.1-23.8-5.4c-2.9-0.7-5.1-1.2-6.7-1.6C272.8,111.5,272,111.3,272,111.3z"/>
	</g>
	<g class="st9">
		<path class="st10" d="M2,612.3l43.7,0.4l43.7,0.5l87.3,1.1l87.3,1.3c14.6,0.2,29.1,0.5,43.7,0.7l43.7,0.8l87.3,1.9l43.7,1
			l43.7,0.9l43.7,0.8l43.7,0.7l43.7,0.6l43.7,0.6l1.9,0L701,625c-2.1,2.1-4,4.6-5.5,7.2c-0.7,1.3-1.3,2.7-1.6,4.1
			c-0.3,1.4-0.2,2.7,0.6,3.9c0.7,1,2,1.8,3.3,2.3c1.4,0.5,2.8,0.7,4.4,1l9.2,1.6c3.1,0.5,6.1,1,9.2,1.4l9.2,1.3l9.2,1.1
			c1.5,0.2,3.1,0.4,4.6,0.5l4.6,0.4c3.1,0.3,6.2,0.6,9.2,0.8l9.2,0.6c3.1,0.2,6.2,0.3,9.3,0.5c3.1,0.1,6.2,0.3,9.3,0.3
			c3.1,0,6.2,0.1,9.3,0.1l9.3-0.1c6.2-0.2,12.3-0.3,18.5-0.7l4.6-0.3l4.6-0.4l4.6-0.4c1.5-0.1,3.1-0.3,4.6-0.5
			c3.1-0.3,6.1-0.6,9.2-1c3.1-0.4,6.1-0.7,9.2-1.2c3.1-0.5,6.1-0.9,9.1-1.5l4.6-0.8l4.5-0.9c6.1-1.2,12.1-2.6,18.1-4.1
			c6-1.6,11.9-3.2,17.8-5.1c5.9-1.9,11.7-4,17.4-6.3c2.8-1.2,5.7-2.4,8.4-3.7c1.4-0.7,2.8-1.3,4.1-2c1.3-0.7,2.7-1.5,4-2.3
			c5.3-3.1,10.5-6.4,15.7-9.8l0.4-0.2l0.4,0c34.5-1.9,69-3.9,103.5-6l51.7-3.2l25.9-1.7l25.8-1.8l12.9-1l12.9-1l12.9-0.9l13-0.6
			c8.6-0.3,17.3-0.6,25.9-0.7c4.3-0.1,8.6-0.1,13-0.1c4.3,0,8.6,0,13,0c8.6,0,17.3,0.2,25.9,0.3l13,0.3l13,0.4
			c8.6,0.3,17.3,0.6,25.9,1c8.6,0.4,17.3,0.8,25.9,1.3l0,0.3c-8.6-0.4-17.3-0.7-25.9-0.9c-8.6-0.3-17.3-0.5-25.9-0.6l-13-0.2
			l-13-0.1c-8.6-0.1-17.3-0.1-25.9-0.1c-4.3,0-8.6,0.1-12.9,0.1c-4.3,0.1-8.6,0.1-12.9,0.2c-8.6,0.2-17.3,0.5-25.9,0.9l-12.9,0.7
			l-12.9,1l-12.9,1.1l-12.9,1l-25.8,1.9l-25.9,1.8c-17.2,1.2-34.5,2.3-51.7,3.4c-34.5,2.1-69,4.2-103.5,6.1l0.8-0.3
			c-5.2,3.5-10.5,6.8-15.8,9.9c-1.4,0.8-2.7,1.5-4.1,2.3c-1.4,0.8-2.8,1.4-4.2,2.1c-2.8,1.3-5.7,2.6-8.6,3.7
			c-5.8,2.3-11.7,4.4-17.6,6.3c-5.9,1.9-11.9,3.5-18,5.1c-6,1.5-12.1,2.9-18.2,4l-4.6,0.9l-4.6,0.8c-3.1,0.5-6.1,1-9.2,1.4
			c-3.1,0.5-6.2,0.8-9.2,1.2c-3.1,0.4-6.2,0.7-9.3,1c-1.5,0.1-3.1,0.3-4.6,0.4l-4.6,0.3l-4.6,0.3l-4.7,0.2
			c-6.2,0.4-12.4,0.5-18.6,0.6l-9.3,0c-3.1,0-6.2-0.1-9.3-0.2c-3.1,0-6.2-0.2-9.3-0.4c-3.1-0.2-6.2-0.3-9.3-0.5l-9.3-0.7
			c-3.1-0.2-6.2-0.6-9.3-0.9l-4.6-0.5c-1.5-0.2-3.1-0.4-4.6-0.6l-9.2-1.2l-9.2-1.4c-3.1-0.5-6.1-0.9-9.2-1.5l-9.1-1.6
			c-1.5-0.3-3.1-0.5-4.7-1.1c-1.5-0.6-3.1-1.4-4.2-3c-0.1-0.2-0.2-0.4-0.3-0.5c-0.1-0.3-0.2-0.4-0.3-0.7c-0.2-0.4-0.3-0.9-0.3-1.3
			c-0.1-0.9,0-1.8,0.1-2.6c0.3-1.7,1-3.1,1.8-4.5c1.6-2.8,3.6-5.2,5.9-7.5l0.5,1.4l-43.7-0.9l-43.7-0.9l-43.7-0.8l-43.7-0.7
			l-43.7-0.6l-43.7-0.5l-87.3-1.1l-43.7-0.7c-14.6-0.2-29.1-0.5-43.7-0.8l-87.3-1.7l-87.3-1.9l-43.6-1L2,612.6L2,612.3z"/>
	</g>
	<g class="st9">
		<path class="st10" d="M14,722.1c0,0,85.1,2.8,212.7,6.9c31.9,1,66.5,2,103,3.1c18.3,0.5,37.1,1,56.2,1.5
			c9.6,0.2,19.3,0.4,29.1,0.5c9.8,0.1,19.7,0.2,29.6-0.2c2.5-0.1,5-0.2,7.4-0.6l0.8-0.2l0.9-0.3c0.6-0.2,1.2-0.4,1.8-0.5
			c1.2-0.3,2.5-0.6,3.7-0.9c4.9-1.1,9.9-2.1,14.9-3c10-1.8,20-3.6,30.1-5.3c20.2-3.4,40.8-6.6,61.5-9.9c20.7-3.3,41.6-6.5,62.5-9.6
			c10.5-1.6,21-3.1,31.5-4.7c5.3-0.7,10.5-1.5,15.8-2.2l7.9-1.1l4-0.5c0.7-0.1,1.3-0.2,2-0.2l2-0.1c5.4-0.3,10.7-0.2,16-0.1
			c5.3,0.1,10.6,0.3,16,0.5c10.6,0.4,21.2,1.1,31.8,1.7c21.2,1.3,42.2,2.7,63.1,4.1c41.8,3.1,82.9,6.1,122.7,9
			c39.8,2.9,78.2,5.7,114.7,7.9c18.2,1.1,36,2,53.2,2.6c8.6,0.3,17,0.5,25.3,0.7c8.3,0.2,16.4,0.3,24.4,0.5
			c31.9,0.5,61.2,0.7,87.1,0.8c25.9,0.1,48.5,0,67.2,0c37.2-0.1,58.5-0.3,58.5-0.3l0,0.3c0,0-21.3,0.6-58.5,1.2
			c-18.6,0.3-41.2,0.6-67.2,0.8c-25.9,0.2-55.2,0.2-87.1-0.1c-8-0.1-16.1-0.2-24.4-0.3c-8.3-0.1-16.8-0.3-25.4-0.5
			c-17.2-0.5-35-1.5-53.3-2.5c-18.3-1.1-37-2.3-56.2-3.6c-19.2-1.3-38.7-2.7-58.6-4.2c-39.8-3.1-80.9-6.2-122.6-9.5
			c-20.9-1.6-41.9-3.2-63.1-4.6c-10.6-0.7-21.2-1.4-31.8-1.9c-5.3-0.3-10.6-0.5-15.9-0.7c-5.3-0.1-10.6-0.3-15.9,0l-2,0.1
			c-0.6,0-1.3,0.1-2,0.2l-4,0.5l-7.9,1c-5.3,0.7-10.5,1.4-15.8,2.1c-10.5,1.5-21,3-31.5,4.4c-21,3.1-41.8,6.2-62.5,9.4
			c-20.7,3.2-41.2,6.6-61.4,10.1c-10.1,1.8-20.2,3.5-30.1,5.5c-5,1-9.9,2-14.8,3.1c-1.2,0.3-2.4,0.6-3.6,0.9
			c-0.6,0.1-1.2,0.3-1.8,0.5c-0.3,0.1-0.6,0.2-0.9,0.3l-1,0.3c-2.6,0.5-5.1,0.6-7.6,0.7c-10,0.5-19.9,0.5-29.7,0.5
			c-9.8,0-19.5-0.1-29.1-0.2c-9.6-0.2-19.1-0.3-28.5-0.5c-9.4-0.2-18.6-0.4-27.8-0.7c-18.3-0.5-36.1-0.9-53.3-1.5
			c-17.2-0.6-33.8-1.2-49.8-1.7c-31.9-1.1-61.1-2.2-87-3.4c-25.9-1.1-48.5-2-67.1-2.9c-18.6-0.9-33.2-1.6-43.2-2.1
			c-10-0.5-15.3-0.8-15.3-0.8L14,722.1z"/>
	</g>
	<g class="st11">
		<path class="st10" d="M1371.4,624.1c0,0-13.9,0.5-38.3,1.5c-12.2,0.5-26.9,1.1-43.9,1.8c-16.9,0.7-36.1,1.6-56.9,2.5
			c-20.9,1-43.4,2.1-67.3,3.2c-23.9,1.3-49.1,2.5-75.1,4.1c-13,0.8-26.3,1.7-39.6,2.8c-13.4,1.1-26.9,2.3-40.5,3.8
			c-13.6,1.6-27.3,3.3-40.9,6c-3.4,0.7-6.8,1.5-10.1,2.5c-1.7,0.5-3.3,1.1-4.9,1.7c-1.6,0.7-3.1,1.4-4.4,2.5
			c-0.6,0.5-1.2,1.1-1.3,1.8c-0.1,0.6,0.4,1.2,1,1.7c1.3,0.9,3,1.5,4.6,2c3.3,1,6.7,1.7,10.1,2.2c6.8,1.1,13.8,1.9,20.7,2.6
			c6.9,0.7,13.8,1.2,20.7,1.7c13.8,1,27.6,1.8,41.3,2.7c13.7,0.9,27.2,1.8,40.6,2.9c6.7,0.6,13.4,1.2,20,2c3.3,0.4,6.6,0.9,9.8,1.4
			c3.3,0.6,6.5,1.2,9.7,2.2c1.6,0.5,3.2,1,4.8,2c0.2,0.1,0.4,0.2,0.6,0.4l0.5,0.4l0.9,0.8c0.6,0.6,1.3,1.3,1.7,2
			c1,1.4,1.8,3.1,2,4.9c0.2,1.8-0.3,3.6-0.8,5.2c-0.6,1.6-1.3,3-1.4,4.3c-0.1,0.6,0.1,1.1,0.4,1.5c0.1,0.2,0.4,0.4,0.7,0.6
			c0.3,0.2,0.6,0.3,0.9,0.5c2.6,1.2,5.8,1.7,8.8,2.2c3.1,0.4,6.2,0.7,9.2,1c1.5,0.1,3.1,0.2,4.6,0.3c1.5,0.1,3.1,0.1,4.6,0.2
			c6.1,0.4,12.2,0.4,18.1,0.6c6,0.1,11.9,0.2,17.7,0.3c5.8,0.1,11.5,0.1,17.2,0.2c5.6,0,11.2,0.1,16.6,0.1c5.4,0,10.8,0,16,0.1
			c20.9,0,40,0,57-0.1c17-0.1,31.8-0.2,43.9-0.3c24.4-0.2,38.3-0.2,38.3-0.2l0,0.2c0,0-13.9,0.3-38.3,0.8c-12.2,0.3-27,0.4-43.9,0.7
			c-17,0.2-36.1,0.4-57,0.6c-20.9,0.1-43.5,0.2-67.4-0.3c-6-0.2-12.1-0.3-18.2-0.6c-1.5-0.1-3.1-0.1-4.6-0.2
			c-1.6-0.1-3.1-0.2-4.7-0.3c-3.1-0.3-6.2-0.5-9.4-1c-3.1-0.5-6.3-1-9.5-2.4c-0.4-0.2-0.8-0.4-1.2-0.7c-0.4-0.3-0.8-0.6-1.1-1
			c-0.7-0.8-1-2-0.9-3c0.2-2,1-3.4,1.5-4.8c0.5-1.4,0.8-2.9,0.7-4.3c-0.1-1.4-0.7-2.7-1.6-3.9c-0.4-0.6-0.9-1.1-1.4-1.7l-0.9-0.8
			l-0.5-0.4l-0.4-0.3c-1.2-0.8-2.7-1.3-4.2-1.8c-3-0.9-6.2-1.6-9.5-2.1c-3.2-0.6-6.5-1-9.8-1.4c-6.6-0.8-13.2-1.5-19.9-2.1
			c-13.4-1.2-26.9-2.1-40.6-3.1c-13.7-1-27.5-1.9-41.3-3c-6.9-0.6-13.8-1.2-20.8-1.9c-6.9-0.7-13.8-1.5-20.7-2.7
			c-3.4-0.6-6.9-1.3-10.2-2.3c-1.7-0.6-3.4-1.1-4.9-2.2c-0.4-0.3-0.7-0.6-1-1c-0.3-0.4-0.5-1-0.4-1.6c0.2-1.1,1-1.8,1.7-2.4
			c1.4-1.1,3.1-1.9,4.7-2.6c1.6-0.7,3.3-1.3,5-1.7c3.4-1,6.8-1.8,10.2-2.4c13.6-2.7,27.4-4.3,41-5.8c27.3-3,54.2-5.1,80.2-7
			c26-1.9,51.2-3.5,75.1-4.8c23.9-1.3,46.5-2.3,67.4-3.2c20.9-0.9,40-1.6,57-2.1c17-0.5,31.7-1,43.9-1.3c24.4-0.6,38.3-0.9,38.3-0.9
			L1371.4,624.1z"/>
	</g>
	<g class="st13">
		<path class="st6" d="M1117.1,665.7c0,0-0.8,0.2-2.4,0.6c-1.5,0.4-3.8,0.9-6.7,1.6c-5.7,1.3-13.9,3.2-23.8,5.4
			c-4.9,1.1-10.3,2.2-15.9,3.5c-5.7,1.2-11.6,2.5-17.8,3.8c-6.2,1.3-12.6,2.6-19,4c-6.5,1.3-13.1,2.7-19.7,4
			c-6.6,1.3-13.2,2.6-19.7,3.9c-6.5,1.3-12.9,2.5-19.1,3.7c-12.4,2.4-24,4.6-33.9,6.4c-9.9,1.8-18.2,3.2-24,4.3
			c-2.9,0.5-5.2,0.9-6.7,1.1c-1.6,0.3-2.4,0.4-2.4,0.4s0.8-0.2,2.4-0.6c1.5-0.4,3.8-0.9,6.7-1.6c5.7-1.3,13.9-3.2,23.8-5.4
			c9.9-2.2,21.4-4.7,33.7-7.3c6.2-1.3,12.5-2.7,19-4c6.5-1.3,13.1-2.7,19.7-4c6.6-1.3,13.2-2.6,19.7-3.9c6.5-1.3,12.9-2.5,19.1-3.7
			c6.2-1.2,12.2-2.3,17.9-3.4c5.7-1.1,11.1-2.1,16-3c9.9-1.8,18.2-3.2,24-4.3c2.9-0.5,5.2-0.9,6.7-1.1
			C1116.2,665.8,1117.1,665.7,1117.1,665.7z"/>
	</g>
	<g class="st14">
		<path class="st10" d="M5,301.2l43.7,0.4l43.7,0.5l87.3,1.1l87.3,1.3c14.6,0.2,29.1,0.5,43.7,0.7l43.7,0.8l87.3,1.9l43.7,1
			l43.7,0.9l43.7,0.8l43.7,0.7l43.7,0.6l43.7,0.6l1.9,0l-1.3,1.3c-2.1,2.1-4,4.6-5.5,7.2c-0.7,1.3-1.3,2.7-1.6,4.1
			c-0.3,1.4-0.2,2.7,0.6,3.9c0.7,1,2,1.8,3.3,2.3c1.4,0.5,2.8,0.7,4.4,1l9.2,1.6c3.1,0.5,6.1,1,9.2,1.4l9.2,1.3l9.2,1.1
			c1.5,0.2,3.1,0.4,4.6,0.5l4.6,0.4c3.1,0.3,6.2,0.6,9.2,0.8l9.2,0.6c3.1,0.2,6.2,0.3,9.3,0.5c3.1,0.1,6.2,0.3,9.3,0.3
			c3.1,0,6.2,0.1,9.3,0.1l9.3-0.1c6.2-0.2,12.4-0.3,18.5-0.7l4.6-0.3l4.6-0.4l4.6-0.4c1.5-0.1,3.1-0.3,4.6-0.5
			c3.1-0.3,6.1-0.6,9.2-1c3.1-0.4,6.1-0.7,9.2-1.2c3.1-0.5,6.1-0.9,9.1-1.5l4.6-0.8l4.5-0.9c6.1-1.2,12.1-2.6,18.1-4.1
			c6-1.6,11.9-3.2,17.8-5.1c5.9-1.9,11.7-4,17.4-6.3c2.8-1.2,5.7-2.4,8.4-3.7c1.4-0.7,2.8-1.3,4.1-2c1.3-0.7,2.7-1.5,4-2.3
			c5.3-3.1,10.5-6.4,15.7-9.8l0.4-0.2l0.4,0c34.5-1.9,69-3.9,103.5-6l51.7-3.2l25.9-1.7l25.8-1.8l12.9-1l12.9-1l12.9-0.9l13-0.6
			c8.6-0.3,17.3-0.6,25.9-0.7c4.3-0.1,8.6-0.1,13-0.1c4.3,0,8.6,0,13,0c8.6,0,17.3,0.2,25.9,0.3l13,0.3l13,0.4
			c8.6,0.3,17.3,0.6,25.9,1c8.6,0.4,17.3,0.8,25.9,1.3l0,0.3c-8.6-0.4-17.3-0.7-25.9-0.9c-8.6-0.3-17.3-0.5-25.9-0.6l-13-0.2
			l-13-0.1c-8.6-0.1-17.3-0.1-25.9-0.1c-4.3,0-8.6,0.1-12.9,0.1c-4.3,0.1-8.6,0.1-12.9,0.2c-8.6,0.2-17.3,0.5-25.9,0.9l-12.9,0.7
			l-12.9,1l-12.9,1.1l-12.9,1l-25.8,1.9l-25.9,1.8c-17.2,1.2-34.5,2.3-51.7,3.4c-34.5,2.1-69,4.2-103.5,6.1l0.8-0.3
			c-5.2,3.5-10.5,6.8-15.8,9.9c-1.4,0.8-2.7,1.5-4.1,2.3c-1.4,0.8-2.8,1.4-4.2,2.1c-2.8,1.3-5.7,2.6-8.6,3.7
			c-5.8,2.3-11.7,4.4-17.6,6.3c-5.9,1.9-11.9,3.5-18,5.1c-6,1.5-12.1,2.9-18.2,4l-4.6,0.9l-4.6,0.8c-3.1,0.5-6.1,1-9.2,1.4
			c-3.1,0.5-6.2,0.8-9.2,1.2c-3.1,0.4-6.2,0.7-9.3,1c-1.5,0.1-3.1,0.3-4.6,0.4l-4.6,0.3l-4.6,0.3l-4.7,0.2
			c-6.2,0.4-12.4,0.5-18.6,0.6l-9.3,0c-3.1,0-6.2-0.1-9.3-0.2c-3.1,0-6.2-0.2-9.3-0.4c-3.1-0.2-6.2-0.3-9.3-0.5l-9.3-0.7
			c-3.1-0.2-6.2-0.6-9.3-0.9l-4.6-0.5c-1.5-0.2-3.1-0.4-4.6-0.6l-9.2-1.2l-9.2-1.4c-3.1-0.5-6.1-0.9-9.2-1.5l-9.1-1.6
			c-1.5-0.3-3.1-0.5-4.7-1.1c-1.5-0.6-3.1-1.4-4.2-3c-0.1-0.2-0.2-0.4-0.3-0.5c-0.1-0.3-0.2-0.4-0.3-0.7c-0.2-0.4-0.3-0.9-0.3-1.3
			c-0.1-0.9,0-1.8,0.1-2.6c0.3-1.7,1-3.1,1.8-4.5c1.6-2.8,3.6-5.2,5.9-7.5l0.5,1.4l-43.7-0.9l-43.7-0.9l-43.7-0.8l-43.7-0.7
			l-43.7-0.6l-43.7-0.5l-87.3-1.1l-43.7-0.7c-14.6-0.2-29.1-0.5-43.7-0.8l-87.3-1.7l-87.3-1.9l-43.6-1L5,301.5L5,301.2z"/>
	</g>
	<g class="st11">
		<path class="st10" d="M22.3,470l79.8-6.5l79.8-6.3l79.8-6.1l39.9-3l39.9-2.9l39.9-2.9l39.9-2.8l79.9-5.5l79.9-5.8L661,422l0.2,0
			l0.1,0.1c19.7,9.5,39.8,18.5,60.1,26.7l-0.1,0l4.1,1.6l4,1.5l8,3c5.3,1.9,10.7,3.8,16.1,5.6c10.8,3.6,21.6,7.1,32.6,10.2
			c10.9,3.2,21.9,6.1,33,8.7c11.1,2.6,22.2,4.9,33.4,6.8c11.2,1.9,22.5,3.4,33.8,4.3c11.3,0.9,22.7,1.1,33.9,0.4
			c11.3-0.7,22.5-2.5,33.2-6c2.7-0.9,5.3-1.9,7.8-3l1.9-0.9l0.5-0.2c0,0,0.1-0.1,0,0l0.1,0l0.1-0.1l0.2-0.1l0.9-0.5l3.7-2.1
			c4.9-2.9,9.7-5.9,14.4-9.1l0.4-0.2l0.4,0c34.5-1.9,69-3.9,103.5-6l51.7-3.2l25.9-1.7l25.8-1.8l12.9-1l12.9-1
			c8.6-0.7,17.3-1.2,25.9-1.6c8.6-0.3,17.3-0.6,25.9-0.8c8.6-0.2,17.3-0.2,25.9-0.2c8.6,0,17.3,0.1,25.9,0.3
			c8.6,0.2,17.3,0.4,25.9,0.8c8.6,0.3,17.3,0.7,25.9,1.1c8.6,0.4,17.3,0.9,25.9,1.4l0,0.3c-8.6-0.4-17.3-0.7-25.9-1
			c-8.6-0.3-17.3-0.5-25.9-0.7c-8.6-0.2-17.3-0.3-25.9-0.4c-8.6-0.1-17.3-0.1-25.9-0.1c-8.6,0.1-17.3,0.2-25.9,0.4
			c-8.6,0.2-17.2,0.6-25.9,1c-8.6,0.5-17.2,1-25.8,1.8l-12.9,1.1l-12.9,1l-25.8,1.9l-25.9,1.8c-17.2,1.2-34.5,2.3-51.7,3.4
			c-34.5,2.1-69,4.2-103.5,6.1l0.8-0.3c-4.8,3.2-9.6,6.2-14.6,9.1l-3.7,2.1l-0.9,0.5l-0.2,0.1l-0.1,0.1l-0.1,0
			c-0.2,0.1-0.1,0-0.2,0.1l-0.5,0.2l-2,0.9c-2.7,1.2-5.4,2.2-8.1,3.1c-11,3.6-22.5,5.3-33.9,6c-11.5,0.7-22.9,0.4-34.4-0.5
			c-11.4-0.9-22.8-2.5-34-4.4c-11.3-1.9-22.4-4.4-33.5-7.1c-11.1-2.7-22.1-5.7-33-9c-10.9-3.3-21.8-6.8-32.6-10.5
			c-5.4-1.9-10.8-3.8-16.1-5.8l-8-3l-4-1.6l-2-0.8l-1-0.4l-0.5-0.2l-0.2-0.1l-0.1-0.1c0,0,0,0,0,0l-0.1,0
			c-20.3-8.4-40.3-17.5-59.9-27.3l0.3,0.1l-79.9,5.8l-79.8,6.1l-79.8,6.3l-39.9,3.2l-39.9,3.1l-39.9,3l-39.9,2.9l-79.9,5.8
			l-79.9,5.6l-79.9,5.3L22.3,470z"/>
	</g>
	<g class="st14">
		<path class="st10" d="M14,398.1c0,0,85.1,2.8,212.7,6.9c31.9,1,66.5,2,103,3.1c18.3,0.5,37.1,1,56.2,1.5
			c9.6,0.2,19.3,0.4,29.1,0.5c9.8,0.1,19.7,0.2,29.6-0.2c2.5-0.1,5-0.2,7.4-0.6l0.8-0.2l0.9-0.3c0.6-0.2,1.2-0.4,1.8-0.5
			c1.2-0.3,2.5-0.6,3.7-0.9c4.9-1.1,9.9-2.1,14.9-3c10-1.8,20-3.6,30.1-5.3c20.2-3.4,40.8-6.6,61.5-9.9c20.7-3.3,41.6-6.5,62.5-9.6
			c10.5-1.6,21-3.1,31.5-4.7c5.3-0.7,10.5-1.5,15.8-2.2l7.9-1.1l4-0.5c0.7-0.1,1.3-0.2,2-0.2l2-0.1c5.4-0.3,10.7-0.2,16-0.1
			c5.3,0.1,10.6,0.3,16,0.5c10.6,0.4,21.2,1.1,31.8,1.7c21.2,1.3,42.2,2.7,63.1,4.1c41.8,3.1,82.9,6.1,122.7,9
			c39.8,2.9,78.2,5.7,114.7,7.9c18.2,1.1,36,2,53.2,2.6c8.6,0.3,17,0.5,25.3,0.7c8.3,0.2,16.4,0.3,24.4,0.5
			c31.9,0.5,61.2,0.7,87.1,0.8c25.9,0.1,48.5,0,67.2,0c37.2-0.1,58.5-0.3,58.5-0.3l0,0.3c0,0-21.3,0.6-58.5,1.2
			c-18.6,0.3-41.2,0.6-67.2,0.8c-25.9,0.2-55.2,0.2-87.1-0.1c-8-0.1-16.1-0.2-24.4-0.3c-8.3-0.1-16.8-0.3-25.4-0.5
			c-17.2-0.5-35-1.5-53.3-2.5c-18.3-1.1-37-2.3-56.2-3.6c-19.2-1.3-38.7-2.7-58.6-4.2c-39.8-3.1-80.9-6.2-122.6-9.5
			c-20.9-1.6-41.9-3.2-63.1-4.6c-10.6-0.7-21.2-1.4-31.8-1.9c-5.3-0.3-10.6-0.5-15.9-0.7c-5.3-0.1-10.6-0.3-15.9,0l-2,0.1
			c-0.6,0-1.3,0.1-2,0.2l-4,0.5l-7.9,1c-5.3,0.7-10.5,1.4-15.8,2.1c-10.5,1.5-21,3-31.5,4.4c-21,3.1-41.8,6.2-62.5,9.4
			c-20.7,3.2-41.2,6.6-61.4,10.1c-10.1,1.8-20.2,3.5-30.1,5.5c-5,1-9.9,2-14.8,3.1c-1.2,0.3-2.4,0.6-3.6,0.9
			c-0.6,0.1-1.2,0.3-1.8,0.5c-0.3,0.1-0.6,0.2-0.9,0.3l-1,0.3c-2.6,0.5-5.1,0.6-7.6,0.7c-10,0.5-19.9,0.5-29.7,0.5
			c-9.8,0-19.5-0.1-29.1-0.2c-9.6-0.2-19.1-0.3-28.5-0.5c-9.4-0.2-18.6-0.4-27.8-0.7c-18.3-0.5-36.1-0.9-53.3-1.5
			c-17.2-0.6-33.8-1.2-49.8-1.7c-31.9-1.1-61.1-2.2-87-3.4c-25.9-1.1-48.5-2-67.1-2.9c-18.6-0.9-33.2-1.6-43.2-2.1
			c-10-0.5-15.3-0.8-15.3-0.8L14,398.1z"/>
	</g>
	<g class="st14">
		<path class="st10" d="M1371.4,300.1c0,0-13.9,0.5-38.3,1.5c-12.2,0.5-26.9,1.1-43.9,1.8c-16.9,0.7-36.1,1.6-56.9,2.5
			c-20.9,1-43.4,2.1-67.3,3.2c-23.9,1.3-49.1,2.5-75.1,4.2c-13,0.8-26.3,1.7-39.6,2.8c-13.4,1.1-26.9,2.3-40.5,3.8
			c-13.6,1.6-27.3,3.3-40.9,6c-3.4,0.7-6.8,1.5-10.1,2.5c-1.7,0.5-3.3,1.1-4.9,1.7c-1.6,0.7-3.1,1.4-4.4,2.5
			c-0.6,0.5-1.2,1.1-1.3,1.8c-0.1,0.6,0.4,1.2,1,1.7c1.3,0.9,3,1.5,4.6,2c3.3,1,6.7,1.7,10.1,2.2c6.8,1.1,13.8,1.9,20.7,2.6
			c6.9,0.7,13.8,1.2,20.7,1.7c13.8,1,27.6,1.8,41.3,2.7c13.7,0.9,27.2,1.8,40.6,2.9c6.7,0.6,13.4,1.2,20,2c3.3,0.4,6.6,0.9,9.8,1.4
			c3.3,0.6,6.5,1.2,9.7,2.2c1.6,0.5,3.2,1,4.8,2c0.2,0.1,0.4,0.2,0.6,0.4l0.5,0.4l0.9,0.8c0.6,0.6,1.3,1.3,1.7,2
			c1,1.4,1.8,3.1,2,4.9c0.2,1.8-0.3,3.6-0.8,5.2c-0.6,1.6-1.3,3-1.4,4.3c-0.1,0.6,0.1,1.1,0.4,1.5c0.1,0.2,0.4,0.4,0.7,0.6
			c0.3,0.2,0.6,0.3,0.9,0.5c2.6,1.2,5.8,1.7,8.8,2.2c3.1,0.4,6.2,0.7,9.2,1c1.5,0.1,3.1,0.2,4.6,0.3c1.5,0.1,3.1,0.1,4.6,0.2
			c6.1,0.4,12.2,0.4,18.1,0.6c6,0.1,11.9,0.2,17.7,0.3c5.8,0.1,11.5,0.1,17.2,0.2c5.6,0,11.2,0.1,16.6,0.1c5.4,0,10.8,0,16,0.1
			c20.9,0,40,0,57-0.1c17-0.1,31.8-0.2,43.9-0.3c24.4-0.2,38.3-0.2,38.3-0.2l0,0.2c0,0-13.9,0.3-38.3,0.8c-12.2,0.3-27,0.4-43.9,0.7
			c-17,0.2-36.1,0.4-57,0.6c-20.9,0.1-43.5,0.2-67.4-0.3c-6-0.2-12.1-0.3-18.2-0.6c-1.5-0.1-3.1-0.1-4.6-0.2
			c-1.6-0.1-3.1-0.2-4.7-0.3c-3.1-0.3-6.2-0.5-9.4-1c-3.1-0.5-6.3-1-9.5-2.4c-0.4-0.2-0.8-0.4-1.2-0.7c-0.4-0.3-0.8-0.6-1.1-1
			c-0.7-0.8-1-2-0.9-3c0.2-2,1-3.4,1.5-4.8c0.5-1.4,0.8-2.9,0.7-4.3c-0.1-1.4-0.7-2.7-1.6-3.9c-0.4-0.6-0.9-1.1-1.4-1.7l-0.9-0.8
			l-0.5-0.4l-0.4-0.3c-1.2-0.8-2.7-1.3-4.2-1.8c-3-0.9-6.2-1.6-9.5-2.1c-3.2-0.6-6.5-1-9.8-1.4c-6.6-0.8-13.2-1.5-19.9-2.1
			c-13.4-1.2-26.9-2.1-40.6-3.1c-13.7-1-27.5-1.9-41.3-3c-6.9-0.6-13.8-1.2-20.8-1.9c-6.9-0.7-13.8-1.5-20.7-2.7
			c-3.4-0.6-6.9-1.3-10.2-2.3c-1.7-0.6-3.4-1.1-4.9-2.2c-0.4-0.3-0.7-0.6-1-1c-0.3-0.4-0.5-1-0.4-1.6c0.2-1.1,1-1.8,1.7-2.4
			c1.4-1.1,3.1-1.9,4.7-2.6c1.6-0.7,3.3-1.3,5-1.7c3.4-1,6.8-1.8,10.2-2.4c13.6-2.7,27.4-4.3,41-5.8c27.3-3,54.2-5.1,80.2-7
			c26-1.9,51.2-3.5,75.1-4.8c23.9-1.3,46.5-2.3,67.4-3.2c20.9-0.9,40-1.6,57-2.1c17-0.5,31.7-1,43.9-1.3c24.4-0.6,38.3-0.9,38.3-0.9
			L1371.4,300.1z"/>
	</g>
	<g class="st13">
		<path class="st6" d="M1117.1,341.7c0,0-0.8,0.2-2.4,0.6c-1.5,0.4-3.8,0.9-6.7,1.6c-5.7,1.3-13.9,3.2-23.8,5.4
			c-4.9,1.1-10.3,2.2-15.9,3.5c-5.7,1.2-11.6,2.5-17.8,3.8c-6.2,1.3-12.6,2.6-19,4c-6.5,1.3-13.1,2.7-19.7,4
			c-6.6,1.3-13.2,2.6-19.7,3.9c-6.5,1.3-12.9,2.5-19.1,3.7c-12.4,2.4-24,4.6-33.9,6.4c-9.9,1.8-18.2,3.2-24,4.3
			c-2.9,0.5-5.2,0.9-6.7,1.1c-1.6,0.3-2.4,0.4-2.4,0.4s0.8-0.2,2.4-0.6c1.5-0.4,3.8-0.9,6.7-1.6c5.7-1.3,13.9-3.2,23.8-5.4
			c9.9-2.2,21.4-4.7,33.7-7.3c6.2-1.3,12.5-2.7,19-4c6.5-1.3,13.1-2.7,19.7-4c6.6-1.3,13.2-2.6,19.7-3.9c6.5-1.3,12.9-2.5,19.1-3.7
			c6.2-1.2,12.2-2.3,17.9-3.4c5.7-1.1,11.1-2.1,16-3c9.9-1.8,18.2-3.2,24-4.3c2.9-0.5,5.2-0.9,6.7-1.1
			C1116.2,341.8,1117.1,341.7,1117.1,341.7z"/>
	</g>
	<g class="st13">
		<path class="st6" d="M949,454c0,0,6,2.4,16.6,6.6c10.5,4.2,25.6,10.3,43.6,17.6c18,7.3,39.1,15.9,61.6,25
			c22.5,9.2,46.5,19.1,70.6,28.9c24,9.9,48,19.8,70.4,29.1c22.5,9.4,43.4,18.1,61.4,25.6c17.9,7.5,32.9,13.8,43.4,18.2
			c10.5,4.4,16.4,7,16.4,7s-6-2.4-16.6-6.6c-10.5-4.2-25.6-10.3-43.6-17.6c-18-7.3-39.1-15.9-61.6-25c-22.5-9.2-46.5-19.1-70.6-28.9
			c-24-9.9-48-19.8-70.4-29.1c-22.5-9.4-43.4-18.1-61.4-25.6c-17.9-7.5-32.9-13.8-43.4-18.2C955,456.5,949,454,949,454z"/>
	</g>
	<circle class="st7" cx="116.4" cy="670.6" r="31.6"/>
	<g>
		<linearGradient id="SVGID_5_" gradientUnits="userSpaceOnUse" x1="83.8945" y1="670.6285" x2="148.8481" y2="670.6285">
			<stop  offset="0" style="stop-color:#0B2D47"/>
			<stop  offset="1" style="stop-color:#4D83AB"/>
		</linearGradient>
		<path class="st15" d="M116.4,703.1c-17.9,0-32.5-14.6-32.5-32.5c0-17.9,14.6-32.5,32.5-32.5c17.9,0,32.5,14.6,32.5,32.5
			C148.8,688.5,134.3,703.1,116.4,703.1z M116.4,639.8c-17,0-30.8,13.8-30.8,30.8c0,17,13.8,30.8,30.8,30.8
			c17,0,30.8-13.8,30.8-30.8C147.2,653.7,133.3,639.8,116.4,639.8z"/>
	</g>
	<circle class="st16" cx="301.1" cy="509.2" r="17.4"/>
	<linearGradient id="SVGID_6_" gradientUnits="userSpaceOnUse" x1="700" y1="869.9999" x2="700" y2="463.9989">
		<stop  offset="0" style="stop-color:#006EAE"/>
		<stop  offset="1" style="stop-color:#000000"/>
	</linearGradient>
	<rect y="400" class="st17" width="1400" height="370"/>
</g>
<g id="Ñëîé_4">
	<g>
		
			<linearGradient id="SVGID_7_" gradientUnits="userSpaceOnUse" x1="162.5376" y1="615.3596" x2="221.7656" y2="615.3596" gradientTransform="matrix(1 7.800000e-03 -7.800000e-03 1 2.1463 4.6162)">
			<stop  offset="0" style="stop-color:#F28C6F"/>
			<stop  offset="1" style="stop-color:#D47324"/>
		</linearGradient>
		<polygon class="st18" points="219.3,601 159.6,653.8 216.5,589.1 		"/>
		
			<linearGradient id="SVGID_8_" gradientUnits="userSpaceOnUse" x1="162.5376" y1="615.3596" x2="221.7656" y2="615.3596" gradientTransform="matrix(1 7.800000e-03 -7.800000e-03 1 2.1463 4.6162)">
			<stop  offset="0" style="stop-color:#320030"/>
			<stop  offset="1" style="stop-color:#FF7BFB"/>
		</linearGradient>
		<polygon class="st19" points="219.3,601 159.6,653.8 216.5,589.1 		"/>
		<polygon class="st20" points="299.4,624 290.3,627.8 266.7,627.6 218.6,578.3 222.5,570.1 		"/>
		
			<linearGradient id="SVGID_9_" gradientUnits="userSpaceOnUse" x1="220.9173" y1="592.2736" x2="302.0846" y2="592.2736" gradientTransform="matrix(1 7.800000e-03 -7.800000e-03 1 2.1463 4.6162)">
			<stop  offset="0" style="stop-color:#320030"/>
			<stop  offset="1" style="stop-color:#FF7BFB"/>
		</linearGradient>
		<polygon class="st21" points="299.4,624 290.3,627.8 266.7,627.6 218.6,578.3 222.5,570.1 		"/>
		
			<ellipse transform="matrix(7.753856e-03 -1 1 7.753856e-03 -161.7512 548.7918)" class="st22" cx="195.7" cy="355.9" rx="5.7" ry="5.8"/>
		
			<ellipse transform="matrix(7.750858e-03 -1 1 7.750858e-03 -166.9015 554.9186)" class="st23" cx="196.2" cy="361.6" rx="6.5" ry="8.8"/>
		<polygon class="st20" points="207.8,563.3 269.6,625.5 299.4,624 303.3,593.1 255.8,546.3 212.6,537.3 		"/>
		<polygon class="st24" points="200.5,439.7 292.9,416.7 313.5,431.1 305,462.4 208.4,474.1 		"/>
		
			<linearGradient id="SVGID_10_" gradientUnits="userSpaceOnUse" x1="-1740.5482" y1="449.0367" x2="-1895.1769" y2="489.674" gradientTransform="matrix(-1 -7.800000e-03 -7.800000e-03 1 -1526.4973 -7.9724)">
			<stop  offset="0" style="stop-color:#F28C6F"/>
			<stop  offset="1" style="stop-color:#D47324"/>
		</linearGradient>
		<polygon class="st25" points="205.9,437.2 320.3,462.3 334.6,490.1 306.2,502.7 201.8,472.1 		"/>
		
			<linearGradient id="SVGID_11_" gradientUnits="userSpaceOnUse" x1="-1907.045" y1="489.4485" x2="-1794.4292" y2="489.4485" gradientTransform="matrix(-1 -7.800000e-03 -7.800000e-03 1 -1586.6552 -8.4386)">
			<stop  offset="0" style="stop-color:#F7C692"/>
			<stop  offset="1" style="stop-color:#F5E7B0"/>
		</linearGradient>
		<path class="st26" d="M208.4,439.8L313,510.4l3.2,34.3c-9,2.1-17.9,4.2-26.9,6.3c-28.4-20.4-56.9-40.9-85.3-61.3
			C205.5,473,206.9,456.4,208.4,439.8z"/>
		
			<linearGradient id="SVGID_12_" gradientUnits="userSpaceOnUse" x1="129.0961" y1="604.0239" x2="224.7875" y2="604.0239" gradientTransform="matrix(1 7.800000e-03 -7.800000e-03 1 2.1463 4.6162)">
			<stop  offset="0" style="stop-color:#F28C6F"/>
			<stop  offset="1" style="stop-color:#D47324"/>
		</linearGradient>
		<polygon class="st27" points="222.4,592.5 159.6,653.8 129.8,651.8 126.4,620.9 174.6,574.9 218,566.5 		"/>
		
			<linearGradient id="SVGID_13_" gradientUnits="userSpaceOnUse" x1="70.3981" y1="535.8727" x2="217.4496" y2="535.8727" gradientTransform="matrix(1 7.800000e-03 -7.800000e-03 1 2.1463 4.6162)">
			<stop  offset="0" style="stop-color:#F28C6F"/>
			<stop  offset="1" style="stop-color:#D47324"/>
		</linearGradient>
		<polygon class="st28" points="187.8,509.4 79.1,527.7 68.3,552.9 87.1,573.7 215.3,552.8 201.4,519.6 		"/>
		<polygon class="st20" points="342.5,555 322.4,579.1 220.3,548 219.7,542.9 		"/>
		
			<linearGradient id="SVGID_14_" gradientUnits="userSpaceOnUse" x1="221.7628" y1="554.2483" x2="344.5844" y2="554.2483" gradientTransform="matrix(1 7.800000e-03 -7.800000e-03 1 2.1463 4.6162)">
			<stop  offset="0" style="stop-color:#320030"/>
			<stop  offset="1" style="stop-color:#FF7BFB"/>
		</linearGradient>
		<polygon class="st29" points="342.5,555 322.4,579.1 220.3,548 219.7,542.9 		"/>
		
			<linearGradient id="SVGID_15_" gradientUnits="userSpaceOnUse" x1="-1697.3981" y1="532.6955" x2="-1564.5077" y2="532.6955" gradientTransform="matrix(-1 -7.800000e-03 -7.800000e-03 1 -1350.6622 -6.6096)">
			<stop  offset="0" style="stop-color:#F28C6F"/>
			<stop  offset="1" style="stop-color:#D47324"/>
		</linearGradient>
		<path class="st30" d="M218.8,502c37.7,9.2,75.5,18.5,113.2,27.7l10.5,25.4l-19.1,20.5c-37.1-11.7-74.2-23.4-111.3-35.1
			c-0.7-7-1.5-13.9-2.2-20.9C212.8,513.7,215.8,507.8,218.8,502z"/>
		
			<linearGradient id="SVGID_16_" gradientUnits="userSpaceOnUse" x1="70.3949" y1="480.8777" x2="201.7185" y2="480.8777" gradientTransform="matrix(1 7.800000e-03 -7.800000e-03 1 2.1463 4.6162)">
			<stop  offset="0" style="stop-color:#EBA55C"/>
			<stop  offset="1" style="stop-color:#D48F37"/>
		</linearGradient>
		<polygon class="st31" points="68.8,488.3 71.6,493.2 97.1,505.5 198.6,479.3 200.3,467.8 		"/>
		
			<linearGradient id="SVGID_17_" gradientUnits="userSpaceOnUse" x1="97.2595" y1="513.3599" x2="207.8902" y2="513.3599" gradientTransform="matrix(1 7.800000e-03 -7.800000e-03 1 2.1463 4.6162)">
			<stop  offset="0" style="stop-color:#EBA55C"/>
			<stop  offset="1" style="stop-color:#D48F37"/>
		</linearGradient>
		<polygon class="st32" points="95.2,542.9 123,551.3 206.2,497.5 194,487.2 		"/>
		
			<linearGradient id="SVGID_18_" gradientUnits="userSpaceOnUse" x1="194.6658" y1="448.6168" x2="40.039" y2="489.2536" gradientTransform="matrix(1 7.800000e-03 -7.800000e-03 1 2.1463 4.6162)">
			<stop  offset="0" style="stop-color:#EBA55C"/>
			<stop  offset="1" style="stop-color:#FAD29E"/>
		</linearGradient>
		<polygon class="st33" points="198.2,437.4 83.5,460.7 68.8,488.3 96.9,501.3 201.8,472.3 		"/>
		
			<linearGradient id="SVGID_19_" gradientUnits="userSpaceOnUse" x1="83.3791" y1="585.42" x2="220.1479" y2="585.42" gradientTransform="matrix(1 7.800000e-03 -7.800000e-03 1 2.1463 4.6162)">
			<stop  offset="0" style="stop-color:#EBA55C"/>
			<stop  offset="1" style="stop-color:#D48F37"/>
		</linearGradient>
		<path class="st34" d="M80.9,593.1l2.9,5.1l26.6,12.8c35.6-8.6,71.2-17.3,106.8-25.9c0.2-4.4,0.4-8.9,0.6-13.3L80.9,593.1z"/>
		
			<linearGradient id="SVGID_20_" gradientUnits="userSpaceOnUse" x1="212.9415" y1="552.3492" x2="51.9032" y2="594.671" gradientTransform="matrix(1 7.800000e-03 -7.800000e-03 1 2.1463 4.6162)">
			<stop  offset="0" style="stop-color:#EBA55C"/>
			<stop  offset="1" style="stop-color:#FAD29E"/>
		</linearGradient>
		<path class="st35" d="M215.8,540L96.2,564.3l-15.3,28.8l29.3,13.5c36.3-8.9,72.6-17.7,108.9-26.6C218,566.7,216.9,553.4,215.8,540
			z"/>
		
			<linearGradient id="SVGID_21_" gradientUnits="userSpaceOnUse" x1="97.2595" y1="488.7906" x2="209.8701" y2="488.7906" gradientTransform="matrix(1 7.800000e-03 -7.800000e-03 1 2.1463 4.6162)">
			<stop  offset="0" style="stop-color:#F7C692"/>
			<stop  offset="1" style="stop-color:#F5E7B0"/>
		</linearGradient>
		<path class="st36" d="M204.6,439.7l-105.7,69l-3.7,34.2c8.9,2.2,17.9,4.5,26.8,6.7c28.7-20,57.5-40,86.2-59.9
			C207,473,205.8,456.4,204.6,439.7z"/>
		<path class="st37" d="M201.4,361.6c-0.3-0.3-2.3-2.3-5.4-2.2c-2.8,0.1-4.5,1.7-4.9,2.1L229.5,770h14.6L201.4,361.6z"/>
		
			<linearGradient id="SVGID_22_" gradientUnits="userSpaceOnUse" x1="185.0299" y1="487.55" x2="163.4654" y2="635.7188" gradientTransform="matrix(1 7.800000e-03 -7.800000e-03 1 2.1463 4.6162)">
			<stop  offset="0" style="stop-color:#320030"/>
			<stop  offset="1" style="stop-color:#FF7BFB"/>
		</linearGradient>
		<polygon class="st38" points="134.5,485.2 153,528.8 157.8,528.8 166.6,550 181.6,546.9 197.8,585.2 205.5,587.9 209.3,605.2 
			217.7,597.1 206,520.3 153.3,481.4 		"/>
		<polygon class="st39" points="200.5,439.7 198.6,441.4 78.5,408.8 63,373 87.7,358.3 		"/>
		
			<linearGradient id="SVGID_23_" gradientUnits="userSpaceOnUse" x1="134.4587" y1="332.7839" x2="134.4587" y2="443.9891" gradientTransform="matrix(1 7.800000e-03 -7.800000e-03 1 2.1463 4.6162)">
			<stop  offset="0" style="stop-color:#F7C692"/>
			<stop  offset="1" style="stop-color:#F5E7B0"/>
		</linearGradient>
		<polygon class="st40" points="196.6,393.9 94.3,354.2 66.5,371.9 81.8,407.8 200.5,439.7 		"/>
		<path class="st23" d="M63,373c1.2-0.4,2.3-0.9,3.5-1.3l0.1,0l0,0.1c0.7,1.5,1.3,3,2,4.5c0.7,1.5,1.3,3,2,4.5l1.9,4.5
			c0.6,1.5,1.3,3,1.9,4.5c1.2,3,2.5,6,3.7,9l1.8,4.5c0.6,1.5,1.2,3,1.8,4.6c-0.7-1.5-1.4-3-2.1-4.4l-2-4.5c-1.3-3-2.6-6-3.9-9
			c-0.7-1.5-1.3-3-1.9-4.5L70,381c-0.6-1.5-1.2-3-1.8-4.5c-0.6-1.5-1.2-3-1.8-4.5l0.1,0.1C65.3,372.3,64.1,372.7,63,373z"/>
		<path class="st23" d="M152.7,528.4c-1.2,1-2.5,1.9-3.7,2.8c-1.2,0.9-2.5,1.9-3.7,2.8c-2.5,1.9-5,3.7-7.5,5.5
			c-2.5,1.8-5.1,3.6-7.6,5.4c-2.5,1.8-5.1,3.6-7.7,5.3l-0.3,0.2l-0.3-0.1c-2.2-0.6-4.5-1.2-6.7-1.7c-2.2-0.6-4.5-1.2-6.7-1.8
			l-3.3-0.9c-1.1-0.3-2.2-0.6-3.3-1c-2.2-0.7-4.4-1.3-6.6-2c2.3,0.4,4.5,0.9,6.8,1.4c1.1,0.2,2.3,0.5,3.4,0.7l3.4,0.8
			c2.3,0.5,4.5,1,6.7,1.6c2.2,0.5,4.5,1.1,6.7,1.6l-0.5,0.1c2.5-1.8,5.1-3.6,7.7-5.3c2.6-1.8,5.1-3.5,7.7-5.2
			c2.6-1.7,5.2-3.5,7.8-5.1c1.3-0.9,2.6-1.7,3.9-2.5C150.1,530,151.4,529.2,152.7,528.4z"/>
		
			<linearGradient id="SVGID_24_" gradientUnits="userSpaceOnUse" x1="258.7019" y1="511.8654" x2="244.4669" y2="609.6735" gradientTransform="matrix(1 7.800000e-03 -7.800000e-03 1 2.1463 4.6162)">
			<stop  offset="0" style="stop-color:#320030"/>
			<stop  offset="1" style="stop-color:#FF7BFB"/>
		</linearGradient>
		<path class="st41" d="M290.2,518.6c-7.7,13-15.3,26.1-23,39.1c0.2,1.5,0.4,3.1,0.7,4.6c-10.6-2.9-21.2-5.8-31.8-8.7
			c-1.9,10.7-3.7,21.3-5.6,32c-2.1-1.9-4.2-3.8-6.3-5.7l-4.5-36.9L290.2,518.6z"/>
		<path class="st39" d="M218.1,540l1.6,2.9L352,498.7c4.1-10.6,8.3-21.3,12.4-31.9c-0.6-1.5-1.2-2.9-1.8-4.4
			c-44.4,10.3-88.8,20.6-133.2,30.9C225.7,508.9,221.9,524.5,218.1,540z"/>
		
			<linearGradient id="SVGID_25_" gradientUnits="userSpaceOnUse" x1="365.4997" y1="449.4286" x2="234.369" y2="501.8808" gradientTransform="matrix(1 7.800000e-03 -7.800000e-03 1 2.1463 4.6162)">
			<stop  offset="0" style="stop-color:#F7C692"/>
			<stop  offset="1" style="stop-color:#F5E7B0"/>
		</linearGradient>
		<path class="st42" d="M212.5,483.8c40.5-13.6,81-27.1,121.5-40.7c9.5,6.4,19,12.9,28.6,19.3c-4.1,10.7-8.1,21.4-12.2,32.2
			c-44.1,15.1-88.2,30.3-132.3,45.4L212.5,483.8z"/>
		<path class="st23" d="M362.6,462.4c-0.9,2.7-1.9,5.4-2.8,8.1l-2.9,8.1c-1.9,5.4-3.9,10.8-5.8,16.2l-0.1,0.3l-0.3,0.1l-16.5,5.9
			l-16.5,5.8l-16.5,5.7l-16.6,5.6l-16.6,5.6l-16.6,5.5c-5.5,1.8-11.1,3.6-16.6,5.4l-8.3,2.7c-2.8,0.9-5.6,1.8-8.3,2.6
			c2.7-1,5.5-2.1,8.2-3.1l8.2-3c5.5-2,11-4,16.4-6l16.5-5.9l16.5-5.8l16.5-5.7L317,505l16.6-5.6l16.6-5.5l-0.4,0.4
			c2.1-5.3,4.2-10.7,6.4-16l3.2-8C360.4,467.7,361.5,465.1,362.6,462.4z"/>
		
			<linearGradient id="SVGID_26_" gradientUnits="userSpaceOnUse" x1="210.6311" y1="451.7121" x2="240.3336" y2="451.7121" gradientTransform="matrix(1 7.800000e-03 -7.800000e-03 1 2.1463 4.6162)">
			<stop  offset="0" style="stop-color:#320030"/>
			<stop  offset="1" style="stop-color:#FF7BFB"/>
		</linearGradient>
		<polygon class="st43" points="209.4,437.5 213.8,483.4 238.8,475 229.7,454.1 223.5,449.9 223.5,441.1 229.3,442.3 228.4,432.7 		
			"/>
		<polygon class="st39" points="206.9,438.4 209,439.8 321.2,386 330.1,348.1 303.1,338.1 		"/>
		
			<linearGradient id="SVGID_27_" gradientUnits="userSpaceOnUse" x1="-1769.2028" y1="516.0779" x2="-1769.2028" y2="627.2926" gradientTransform="matrix(-0.9822 0.188 0.188 0.9822 -1580.7627 152.5719)">
			<stop  offset="0" style="stop-color:#F7C692"/>
			<stop  offset="1" style="stop-color:#F5E7B0"/>
		</linearGradient>
		<polygon class="st44" points="202.4,392.7 295.9,335.1 326.4,347.5 317.8,385.6 206.9,438.4 		"/>
		<path class="st23" d="M330.1,348.1c-1.2-0.1-2.5-0.3-3.7-0.4l0.1-0.1c-0.3,1.6-0.6,3.2-1,4.8c-0.3,1.6-0.6,3.2-1,4.8l-1,4.8
			c-0.3,1.6-0.7,3.2-1.1,4.8c-0.7,3.2-1.4,6.3-2.2,9.5l-1.2,4.7c-0.4,1.6-0.8,3.2-1.2,4.7c0.3-1.6,0.6-3.2,0.9-4.8l1-4.8
			c0.6-3.2,1.4-6.4,2.1-9.5c0.3-1.6,0.7-3.2,1.1-4.8l1.1-4.8c0.4-1.6,0.8-3.2,1.1-4.7c0.4-1.6,0.8-3.2,1.2-4.7l0-0.1l0.1,0
			C327.7,347.6,328.9,347.8,330.1,348.1z"/>
		
			<linearGradient id="SVGID_28_" gradientUnits="userSpaceOnUse" x1="145.8317" y1="391.2395" x2="143.0766" y2="441.1747" gradientTransform="matrix(1 7.800000e-03 -7.800000e-03 1 2.1463 4.6162)">
			<stop  offset="0" style="stop-color:#91002C"/>
			<stop  offset="1" style="stop-color:#FFB042"/>
		</linearGradient>
		<path class="st45" d="M196.6,393.9c0,0-6.9,25.4-13.1,27.8c-6.2,2.4-97.6-12.6-97.6-12.6l114.6,30.6L196.6,393.9z"/>
		<path class="st39" d="M130.5,398.9l-14.2-0.1c-7.2,2.1-14.5,4.1-21.7,6.2c-2.9,1.4-5.8,2.7-8.6,4.1c8.5,19.4,17,38.8,25.6,58.2
			c32.2,25.2,64.4,50.4,96.7,75.5l3.9-0.9L130.5,398.9z"/>
		
			<linearGradient id="SVGID_29_" gradientUnits="userSpaceOnUse" x1="95.6456" y1="464.4048" x2="214.12" y2="464.4048" gradientTransform="matrix(1 7.800000e-03 -7.800000e-03 1 2.1463 4.6162)">
			<stop  offset="0" style="stop-color:#F7C692"/>
			<stop  offset="1" style="stop-color:#F5E7B0"/>
		</linearGradient>
		<path class="st46" d="M207.5,483.8l-76.9-84.9L94.7,405c8,19.5,16.1,39,24.1,58.5c31.1,26.1,62.2,52.2,93.3,78.3L207.5,483.8z"/>
		<path class="st23" d="M94.7,405c1.1,2.4,2.2,4.9,3.2,7.3l3.2,7.3l3.2,7.3l3.2,7.4l6.3,14.7l6.2,14.8l-0.3-0.4
			c3.9,3.2,7.8,6.4,11.7,9.7l11.6,9.7l11.6,9.7l11.6,9.8l11.5,9.8l11.5,9.8c3.8,3.3,7.6,6.6,11.5,9.9l5.7,5l5.7,5l-5.9-4.7l-5.9-4.7
			c-3.9-3.2-7.9-6.3-11.8-9.5l-11.7-9.6l-11.7-9.6l-11.7-9.6l-11.6-9.7l-11.6-9.7c-3.9-3.2-7.7-6.5-11.6-9.8l-0.2-0.2l-0.1-0.2
			l-6-14.8l-5.9-14.9l-2.9-7.4l-2.9-7.5l-2.9-7.5C96.6,410,95.6,407.5,94.7,405z"/>
		<path class="st47" d="M218.7,526.5c-0.9-0.4-3.2-1.3-6.2-0.7c-2.2,0.4-3.7,1.4-4.5,2c0.2,1.7,0.3,3.4,0.5,5.2
			c0.9-0.5,2.4-1.3,4.5-1.5c2.9-0.3,5.1,0.6,6,1.1C218.9,530.5,218.8,528.5,218.7,526.5z"/>
		<path class="st47" d="M215.3,489.2c-0.7-0.4-2.9-1.6-5.9-1.2c-2.3,0.3-3.8,1.5-4.5,2c0.2,1.7,0.3,3.4,0.5,5.2
			c0.8-0.5,2.4-1.3,4.5-1.5c2.6-0.3,4.6,0.4,5.5,0.8C215.4,492.8,215.4,491,215.3,489.2z"/>
		
			<linearGradient id="SVGID_30_" gradientUnits="userSpaceOnUse" x1="255.8212" y1="387.1355" x2="252.4679" y2="447.9153" gradientTransform="matrix(1 7.800000e-03 -7.800000e-03 1 2.1463 4.6162)">
			<stop  offset="0" style="stop-color:#91002C"/>
			<stop  offset="1" style="stop-color:#FFB042"/>
		</linearGradient>
		<path class="st48" d="M202.4,392.7c0,0,7.2,33.7,17.4,32.3c10.2-1.4,88-35.6,88-35.6l-101,49.1L202.4,392.7z"/>
		<path class="st47" d="M204.3,396.9c-0.7-0.3-2.2-0.9-4.3-0.7c-2.4,0.3-4,1.6-4.5,2c0.2,1.7,0.3,3.4,0.5,5.2
			c0.6-0.4,2.2-1.5,4.5-1.5c2.1,0,3.6,0.8,4.2,1.2C204.5,400.9,204.4,398.9,204.3,396.9z"/>
		<path class="st47" d="M207.3,428.2c-0.7-0.3-2.2-0.9-4.3-0.7c-2.4,0.3-4,1.6-4.5,2c0.2,1.7,0.3,3.4,0.5,5.2
			c0.6-0.4,2.2-1.5,4.5-1.5c2.1,0,3.6,0.8,4.2,1.2C207.6,432.3,207.5,430.3,207.3,428.2z"/>
		<path class="st49" d="M280.8,347.2c-2.2,2.8-10.5,14-9.4,29.8c0.8,11.1,5.8,19,8.3,22.3c-7.7,3.3-15.4,6.7-23.2,10
			c2.1-2.4,12.8-14.5,11.3-31.6c-0.7-8.2-4-14.3-6.2-17.8C268.1,355.7,274.5,351.5,280.8,347.2z"/>
		<path class="st49" d="M281.8,463.4c0,0,7-0.5,9.8,5.1c2.8,5.6,6,33.9,5.3,36.7c-0.7,2.7-5.6,6.8-5.6,6.8l32.9-10.6
			c0,0-9.6,3-11.1-1.8c-1.6-4.8-6.6-31.3-5.7-36.1s6.1-11.3,6.1-11.3L281.8,463.4z"/>
		<path class="st49" d="M149.8,377.3c0,0-16.2-6-22.4-0.2c-6.2,5.8-19.1,21.5-19.1,21.5L92,402.5c0,0,19.9-30.3,19.9-33.4
			c0-3.1-4.4-8.2-4.4-8.2L149.8,377.3z"/>
		<linearGradient id="SVGID_31_" gradientUnits="userSpaceOnUse" x1="229.2763" y1="703.0113" x2="232.7849" y2="732.2493">
			<stop  offset="0" style="stop-color:#320030"/>
			<stop  offset="1" style="stop-color:#FF7BFB"/>
		</linearGradient>
		<polygon class="st50" points="237.2,704.5 224.3,714.1 229.5,770 244.1,770 		"/>
		<path class="st49" d="M178.9,548.9c-18.9,7.1-24.4,14.5-25.2,20.5c0,0-0.4,3.1,6.4,21.9l0,0l-25.7,6.7
			c12.5-9.7,16.2-23.8,11.1-32.1c-3-4.9-8.6-6.9-11.9-7.7C148.7,555.1,163.8,552,178.9,548.9z"/>
	</g>
	<linearGradient id="SVGID_32_" gradientUnits="userSpaceOnUse" x1="545.2281" y1="547.5781" x2="551.0524" y2="770.6528">
		<stop  offset="0" style="stop-color:#C7F6FF"/>
		<stop  offset="1" style="stop-color:#8EDDF5"/>
	</linearGradient>
	<path class="st51" d="M549.3,642.3l-9.9,5l-21.6,52.6c6.1,22.2,12,45.6,17.5,70.1h47.1C574.7,718.9,561.8,675.8,549.3,642.3z"/>
	<path class="st52" d="M468.7,452l-4.7,10.6l-17.2-2.2c0,0-0.1-4.1,1.4-6c1.5-1.9,5.3-1.1,5.3-1.1l-4.4-9.7l11.8-8.2L468.7,452z"/>
	<path class="st53" d="M427.5,516.6c0,0-15.1-3.5-17.1-1.3c-2,2.2-1.7,15.3,0,19.7c1.7,4.3,6.4,6.2,6.4,6.2l10.7-3.6V516.6z"/>
	<path class="st54" d="M496.2,614.1l-7.4-35.4l14.4-84.2l-72,2c0,0-6.9,13.9-8.5,18.2c-1.6,4.2-1.7,8.1-1.7,8.1s1.7,3.9,1.7,7.8
		c0.1,3.9-1.3,6.5-1.3,6.5s-2.1,1.1-4.5,2.3c-3.2,1.5-6.2,2.4-6.5,2.6c-4.6,1.5-5.6,1.2-6.2,2.3c-1.1,1.9,0.6,5.7,3.3,7.8
		c4.9,3.8,13.4,2.4,13.4,2.4l0,0c0,0-7.8,35.8-3.3,36.1c4.4,0.3,25.8-5.2,25.8-5.2l1.6,12.6L496.2,614.1z"/>
	<path class="st55" d="M444.6,555.9c0,0,2.6,22.1,0,24.3c-2.6,2.2-23.6,8.9-23.6,8.9l22.5-3.8l1.6,12.6l15.9,5
		c0.1-2.8,0.6-6.8,2.4-11.4c2.5-6.3,6.4-10.5,8.8-12.6c-5.5-13.4-11-26.8-16.5-40.2C451.9,544.4,448.3,550.2,444.6,555.9z"/>
	<path class="st56" d="M536.6,527c-4.3,13-11.2,23-14.6,27.3c-6.8,8.6-14.1,14.3-19,17.7c-2,4.3-4,8.5-6,12.7l-26.9-2.4l-9-23.3
		c-1.8-4.7-3.6-9.3-5.4-14l-11-12.1l-3.9-3.3l-3.1,11.6l-3.4-3.9l5.8-12.4c0,0-0.8-9-2.4-12.9c-1.6-3.9-3.4-11.6-3.4-11.6l-3.1-3.9
		c0,0-7-2.6-4.8-6.8c2.2-4.2,13.2-25,18.2-27.2c5-2.3,49.5-3.6,65,1.6c15.6,5.2,28.5,24.3,29.8,32.4
		C541.2,507.4,539.5,517.9,536.6,527z"/>
	<path class="st57" d="M456.2,536.2c0.2,0.6,2.9,10.8-3.2,16.9c-2.5,2.4-7.8,5.6-11.8,3.7c-1.1-0.6-1.9-1.4-2.4-2.1
		C444.6,548.5,450.4,542.3,456.2,536.2z"/>
	<path class="st58" d="M409,517.9c4.4,0.7,10.7,1.9,18.2,3.8c16.6,4.2,34.3,10.9,33.7,15l-4.6,4.5l0,0c0,0,0.5-2.2-0.8-4.2
		c-0.7-1-1.6-1.5-2.1-1.8c-11-5.7-29.7-8.9-29.7-8.9c-3.3-0.6-8.6-1.5-15.1-2.9c-0.2-0.2-1-1.3-0.9-2.8
		C407.8,519.1,408.8,518.1,409,517.9z"/>
	<path class="st54" d="M439.2,530.9c0.3-0.3,6.3-5.5,11.6-3.5c5.9,2.2,6.8,11.5,4.8,17.5c-1.5,4.6-5.9,10.2-12.1,10.6
		c-3.3,0.2-5.9-1.1-7.3-1.9C437.2,546,438.2,538.5,439.2,530.9z"/>
	<path class="st59" d="M441.5,537.1c0,0,2.3-6.7,5.6-3.5c3.3,3.2,2.1,10.2,0,13.4c-2.1,3.2-7.1,2.2-7.1,2.2s2.2-1.9,2.4-4.5
		C442.6,542.1,441.5,537.1,441.5,537.1z"/>
	<linearGradient id="SVGID_33_" gradientUnits="userSpaceOnUse" x1="454.4726" y1="484.857" x2="462.9349" y2="808.9713">
		<stop  offset="0" style="stop-color:#C7F6FF"/>
		<stop  offset="1" style="stop-color:#8EDDF5"/>
	</linearGradient>
	<path class="st60" d="M542.8,671.8l6.5-29.5l-39.9-17.6l0.7-9.5l-76.3-25.9l-7.4,11.2l-23-18.2c0,0-14.6,10.7-25.5,30
		c-22.8,40.5,1.9,69.7,0,144.3c-0.1,4.5-0.3,8.9-0.6,13.4H540C541.8,722.1,542.8,671.8,542.8,671.8z"/>
	<path class="st54" d="M443.7,455.5c0,0,11.3,4.9,17.3,4.9c6,0,10.8,0.3,11,1.6c0.2,1.3-2.8,5.4-6.3,6.7c-3.5,1.3-22-1.3-22-1.3
		s-8.4,3-11.5,3.7c-3,0.6-11.3-2.8-11.3-2.8l-4.8-11c0,0,9.6-9.3,16-14.3c6.5-5,25.3-13.6,25.3-13.6s5.6-0.6,6.7,1.5
		c1.1,2.2,5.6,16.4,7.8,19.3c2.2,2.9,6.9,4.2,5,5.7c-1.9,1.5-6.4,1.1-8.3-0.2c-1.9-1.3-7.7-15.6-7.7-15.6l-10.2,6.5L443.7,455.5z"/>
	<linearGradient id="SVGID_34_" gradientUnits="userSpaceOnUse" x1="352.8575" y1="436.363" x2="365.823" y2="932.9559">
		<stop  offset="0" style="stop-color:#C7F6FF"/>
		<stop  offset="1" style="stop-color:#8EDDF5"/>
	</linearGradient>
	<path class="st61" d="M403.3,589.4c-0.2-0.7-1.9-5.5-6.8-7.1c-2.2-0.7-4.2-0.5-5.3-0.3c0.3-1.6,0.5-3.2,0.8-4.9
		c0,0-16.4-16.9-22.7-26.6c-6.3-9.7-21.2-41.5-21.2-41.5l75-34.4c0,0,1.8-9.1,0-12.3c-1.8-3.2-7.2-9.1-7.2-9.1s-54.3,8.4-80.2,16.2
		c-25.9,7.8-51.9,24-51.9,24c2.1,5.8,6.2,16.8,11.7,30.5c30.1,74.6,67.2,138.9,67.2,138.9l0,0c0,0,15.5,50.7,15,48.3
		C377.3,708.7,403.3,589.4,403.3,589.4z"/>
	<g class="st13">
		<path class="st62" d="M307.8,494.6c3-0.5,6-0.6,9-0.3c0.8,0,1.5,0.1,2.3,0.2c0.8,0.1,1.5,0.2,2.3,0.4c0.7,0.1,1.5,0.3,2.2,0.5
			c0.7,0.2,1.5,0.4,2.2,0.6c0.7,0.2,1.4,0.5,2.2,0.7c0.7,0.3,1.4,0.6,2.1,0.9l1,0.5l0.5,0.3l0.5,0.3c0.7,0.4,1.4,0.7,2,1.1
			c1.3,0.8,2.6,1.6,3.8,2.6c1.2,0.9,2.4,1.9,3.5,3l3.1,3l-4.3-0.9l-5.5-1.1c-1.8-0.4-3.7-0.7-5.6-1.1l-5.6-1
			c-1.9-0.3-3.7-0.6-5.6-0.9c-1.9-0.3-3.7-0.6-5.6-0.9c-1.9-0.3-3.7-0.6-5.6-0.8l-11.2-1.6c1.9-0.1,3.8,0,5.7,0
			c1.9,0,3.8,0.1,5.7,0.2c1.9,0.1,3.8,0.2,5.7,0.4c1.9,0.2,3.8,0.3,5.7,0.5c1.9,0.2,3.8,0.5,5.7,0.7c1.9,0.2,3.8,0.5,5.6,0.9
			c1.9,0.3,3.7,0.6,5.6,1c1.9,0.4,3.7,0.8,5.6,1.2l-1.1,2.2c-1-1-2.1-2-3.3-2.9c-1.1-0.9-2.3-1.8-3.5-2.6c-0.6-0.4-1.2-0.8-1.9-1.1
			l-0.5-0.3l-0.5-0.2l-1-0.5c-0.6-0.3-1.3-0.6-2-1c-0.7-0.3-1.3-0.6-2-0.8c-0.7-0.3-1.4-0.5-2.1-0.7c-0.7-0.2-1.4-0.4-2.1-0.7
			c-0.7-0.2-1.4-0.4-2.1-0.5c-0.7-0.1-1.4-0.3-2.2-0.4c-0.7-0.1-1.5-0.2-2.2-0.3c-0.7-0.1-1.5-0.2-2.2-0.2
			C310.8,494.7,309.3,494.6,307.8,494.6z"/>
	</g>
	<path class="st63" d="M426.4,600.5c0,0,1.2,0.3,3.3,0.8c2.1,0.5,5.1,1.2,8.8,2.1c3.6,0.9,7.8,1.9,12.3,3.1c2.3,0.6,4.6,1.2,7,1.8
		c2.4,0.6,4.8,1.2,7.2,1.9c2.4,0.6,4.8,1.3,7.2,1.9c2.4,0.6,4.7,1.3,6.9,1.9c4.5,1.2,8.7,2.4,12.2,3.4c3.6,1,6.5,1.9,8.6,2.5
		c2.1,0.6,3.3,1,3.3,1s-1.2-0.3-3.3-0.8c-2.1-0.5-5.1-1.2-8.8-2.1c-3.6-0.9-7.8-1.9-12.3-3.1c-2.3-0.6-4.6-1.2-7-1.8
		c-2.4-0.6-4.8-1.2-7.2-1.9c-2.4-0.6-4.8-1.3-7.2-1.9c-2.4-0.6-4.7-1.3-6.9-1.9c-4.5-1.2-8.7-2.4-12.2-3.4c-3.6-1-6.6-1.9-8.6-2.5
		C427.6,600.8,426.4,600.5,426.4,600.5z"/>
	<g class="st64">
		<path class="st63" d="M424,600.5c-2.3,0.3-4.5,0.7-6.7,1.1c-2.2,0.5-4.4,1-6.5,1.9c-1,0.4-2,1-2.8,1.7c-0.2,0.2-0.3,0.4-0.5,0.6
			c-0.2,0.2-0.3,0.5-0.5,0.7c-0.3,0.5-0.6,0.9-0.9,1.4c-0.5,1-1,2-1.4,3c-0.4,1-0.8,2.1-1,3.2l-0.4,1.5l-0.4-1.5c-0.2-1-0.6-2-0.9-3
			c-0.3-1-0.7-1.9-1.2-2.9c-0.4-0.9-0.9-1.9-1.4-2.8c-0.5-0.9-1.1-1.8-1.6-2.6c-0.6-0.8-1.3-1.6-2-2.4c-0.7-0.8-1.5-1.4-2.3-2.1
			c-0.8-0.7-1.6-1.3-2.5-1.9c-0.9-0.6-1.7-1.2-2.6-1.7c-3.5-2.3-7.2-4.3-10.9-6.3l-2.8-1.5c-0.5-0.3-0.9-0.5-1.4-0.8
			c-0.4-0.3-0.9-0.6-1.4-0.9c-0.9-0.7-1.6-1.5-2.2-2.5c-0.3-0.5-0.6-1-0.8-1.5c-0.2-0.5-0.4-1.1-0.4-1.7l0.6,0.6
			c-2.6-0.3-5.2-0.5-7.9-0.8l-1.4-0.1l1-0.9l3.9-3.5l-0.1,0.8c-3.2-4.9-6.3-9.8-9.2-14.9c-0.7-1.3-1.4-2.5-2.1-3.8
			c-0.7-1.3-1.4-2.6-2-3.9c-0.3-0.7-0.6-1.3-0.9-2c-0.3-0.7-0.6-1.3-0.9-2c-0.2-0.7-0.5-1.4-0.8-2.1c-0.2-0.7-0.4-1.4-0.6-2.1
			c-0.2-0.7-0.4-1.4-0.5-2.2l-0.4-2.1c-0.3-1.4-0.5-2.9-0.8-4.3c-0.5-2.9-0.9-5.8-1.2-8.7c-0.7-5.8-1.3-11.6-1.7-17.4
			c0.7,5.8,1.4,11.6,2.3,17.3l0.7,4.3c0.2,1.4,0.5,2.9,0.7,4.3c0.2,1.4,0.5,2.9,0.8,4.3l0.5,2.1c0.2,0.7,0.4,1.4,0.5,2.1
			c0.2,0.7,0.4,1.4,0.6,2.1c0.2,0.7,0.5,1.3,0.8,2c0.3,0.7,0.6,1.3,0.9,2c0.3,0.7,0.6,1.3,1,1.9c0.7,1.3,1.3,2.6,2,3.8
			c0.7,1.3,1.4,2.5,2.1,3.8c2.9,5,6,9.9,9.3,14.8l0.3,0.4l-0.4,0.4l-3.8,3.5l-0.4-1.1c2.6,0.3,5.2,0.5,7.9,0.8l0.5,0.1l0,0.5
			c0,0.4,0.2,0.9,0.3,1.3c0.2,0.5,0.4,0.9,0.6,1.3c0.5,0.8,1.2,1.6,1.9,2.2c0.4,0.3,0.8,0.6,1.2,0.9c0.4,0.3,0.9,0.5,1.3,0.8
			l2.8,1.5c3.7,2,7.4,4.1,10.9,6.4c0.9,0.6,1.8,1.2,2.6,1.8c0.9,0.6,1.7,1.3,2.5,1.9c0.8,0.7,1.6,1.4,2.3,2.2c0.8,0.8,1.4,1.6,2,2.5
			c0.6,0.9,1.2,1.8,1.7,2.7c0.5,0.9,1,1.9,1.4,2.9c0.4,1,0.8,2,1.1,3c0.3,1,0.6,2,0.9,3.1l-0.7,0c0.3-1.1,0.7-2.2,1.1-3.3
			c0.2-0.5,0.4-1.1,0.7-1.6c0.2-0.5,0.5-1,0.8-1.5c0.3-0.5,0.6-1,0.9-1.5c0.2-0.2,0.3-0.5,0.5-0.7c0.2-0.2,0.4-0.5,0.6-0.7
			c0.9-0.8,2-1.3,3-1.7c2.1-0.8,4.4-1.3,6.6-1.7C419.5,600.9,421.7,600.7,424,600.5z"/>
	</g>
	<path class="st23" d="M362.9,662.8c0,0-0.6-1.7-1.6-4.8c-1-3.1-2.4-7.5-4-12.8c-0.8-2.7-1.6-5.5-2.5-8.6c-0.9-3.1-1.7-6.3-2.6-9.6
		c-1.7-6.7-3.3-13.9-4.6-21.2c-0.6-3.6-1.1-7.3-1.4-11c-0.1-1.8-0.2-3.6-0.2-5.4c0-1.8,0.1-3.6,0.5-5.4c0.2-0.9,0.5-1.7,1-2.6
		c0.5-0.8,1.2-1.6,2.2-1.9c0.8-0.2,1.6-0.5,2.4-0.7c0.8-0.1,1.6-0.3,2.4-0.4c3.2-0.4,6.2-0.3,9-0.1c1.4,0.1,2.7,0.3,4,0.5
		c1.2,0.2,2.4,0.4,3.5,0.6c2.2,0.4,4.1,0.9,5.7,1.3c1.6,0.4,2.8,0.8,3.6,1c0.8,0.3,1.3,0.4,1.3,0.4s-0.4-0.1-1.3-0.3
		c-0.8-0.2-2.1-0.5-3.6-0.9c-1.6-0.3-3.5-0.7-5.7-1.1c-2.2-0.3-4.7-0.7-7.5-0.8c-2.7-0.2-5.7-0.2-8.8,0.3c-0.8,0.1-1.5,0.3-2.3,0.4
		c-0.8,0.2-1.6,0.5-2.4,0.7c-0.6,0.2-1.2,0.7-1.5,1.4c-0.4,0.7-0.6,1.4-0.8,2.3c-0.7,3.3-0.5,6.9-0.2,10.4c0.3,3.6,0.9,7.2,1.5,10.8
		c1.2,7.3,2.8,14.4,4.4,21.2c0.8,3.4,1.6,6.6,2.4,9.7c0.8,3.1,1.5,6,2.3,8.6c1.4,5.3,2.6,9.8,3.5,12.9
		C362.4,661,362.9,662.8,362.9,662.8z"/>
	<path class="st56" d="M428.3,510c0,0-8.9-7.5-10.1-5.5c-1.2,1.9-3.7,6.5-0.6,8.6c3,2.1,8.7,1.5,8.7,1.5L428.3,510z"/>
	<path class="st65" d="M536.6,527c-4.3,13-11.2,23-14.6,27.3c-6.8,8.6-14.1,14.3-19,17.7c-2,4.3-4,8.5-6,12.7l-26.9-2.4l-9-23.3
		l4.7-7.1c0,0,7.6,5.8,11.8,5.5c4-0.4,15.6-7.4,16.3-7.9c-0.8,0.2-14.2,3.9-21.2,0c-7.2-4-7.8-8.3-7.8-8.3s11.1,4.6,16.9,5.6
		c5.8,1.1,21.4,0,21.4,0s-12.4-1.1-25.7-8c-13.4-7-18.5-16.2-18.5-16.2l19.9,10.3l-25.3-18.2l4.2-10.4c0,0,34,26.6,51.9,28.6
		C527.4,534.8,536.6,527,536.6,527z"/>
	<g class="st66">
		<path class="st67" d="M528.8,485.3c0,0-0.7-0.6-1.9-1.7c-0.6-0.6-1.3-1.2-2.1-2c-0.8-0.7-1.8-1.5-2.8-2.4
			c-2.1-1.7-4.6-3.6-7.5-5.4c-0.7-0.4-1.5-0.9-2.2-1.3c-0.8-0.5-1.5-0.9-2.3-1.3c-0.4-0.2-0.8-0.4-1.1-0.6c-0.4-0.2-0.8-0.4-1.2-0.6
			c-0.8-0.4-1.6-0.8-2.4-1.1c-0.8-0.3-1.6-0.7-2.4-1.1c-0.8-0.3-1.7-0.6-2.5-1c-0.8-0.3-1.7-0.6-2.5-0.9c-0.8-0.2-1.6-0.5-2.4-0.8
			c-0.8-0.2-1.6-0.4-2.4-0.7c-0.8-0.2-1.6-0.4-2.3-0.6c-1.5-0.3-2.9-0.7-4.3-0.9c-1.3-0.2-2.6-0.5-3.7-0.6c-1.1-0.2-2.1-0.3-2.9-0.4
			c-1.6-0.2-2.5-0.3-2.5-0.3s0.2,0,0.7-0.1c0.4-0.1,1.1-0.2,1.9-0.3c0.8-0.1,1.8-0.2,2.9-0.3c1.1-0.1,2.4-0.1,3.8-0.1
			c1.4,0,2.9,0.1,4.6,0.3c0.8,0.1,1.6,0.2,2.5,0.3c0.8,0.1,1.7,0.3,2.6,0.5c0.9,0.2,1.7,0.4,2.6,0.6c0.9,0.2,1.8,0.5,2.7,0.8
			c0.9,0.3,1.8,0.6,2.7,0.9c0.9,0.3,1.8,0.7,2.6,1.1c0.9,0.4,1.7,0.8,2.6,1.2c0.4,0.2,0.8,0.4,1.3,0.7c0.4,0.2,0.8,0.5,1.2,0.7
			c0.8,0.5,1.7,1,2.4,1.5c0.4,0.3,0.7,0.5,1.1,0.8c0.4,0.3,0.7,0.5,1.1,0.8c2.8,2.1,5.2,4.5,7.1,6.6c0.9,1.1,1.7,2.1,2.4,3
			c0.7,0.9,1.2,1.8,1.6,2.5c0.4,0.7,0.7,1.3,1,1.6C528.7,485.1,528.8,485.3,528.8,485.3z"/>
	</g>
	<path class="st68" d="M432.2,534.5c-1,0.1-4.9,0.4-7.8,3.6c-4.4,4.8-3.4,12.4-1.8,12.9C423.7,551.3,426.1,548.8,432.2,534.5z"/>
	<path class="st69" d="M369.4,667.1c0,0-0.4-0.6-1.2-1.8c-0.8-1.2-2-2.9-3.4-5.1c-1.4-2.2-3.2-4.9-5.1-8c-1.9-3.1-4.1-6.6-6.4-10.5
		c-2.3-3.9-4.7-8.1-7.2-12.6c-2.5-4.5-5.1-9.3-7.7-14.2c-1.3-2.5-2.6-5-4-7.6c-1.3-2.6-2.7-5.2-4-7.8c-2.6-5.3-5.2-10.7-7.8-16.1
		c-1.3-2.7-2.5-5.5-3.8-8.2c-1.2-2.7-2.4-5.4-3.6-8.1c-0.6-1.3-1.2-2.7-1.8-4c-0.6-1.3-1.1-2.7-1.7-4c-1.1-2.7-2.3-5.3-3.3-7.9
		c-2.2-5.2-4.2-10.2-6.1-15c-1.9-4.8-3.7-9.3-5.3-13.5c-3.2-8.4-5.7-15.5-7.4-20.5c-0.9-2.5-1.5-4.5-1.9-5.8
		c-0.4-1.3-0.7-2.1-0.7-2.1s0.4,0.6,1.1,1.8c0.7,1.2,1.8,3,3.1,5.3c2.6,4.6,6.3,11.1,10.5,19c2.1,4,4.4,8.3,6.7,12.9
		c2.3,4.6,4.8,9.4,7.2,14.5c1.2,2.5,2.5,5.1,3.7,7.7c0.6,1.3,1.3,2.6,1.9,3.9c0.6,1.3,1.2,2.6,1.9,4c1.2,2.7,2.5,5.3,3.8,8.1
		c1.3,2.7,2.5,5.4,3.8,8c2.5,5.4,5,10.8,7.5,16.1c1.3,2.7,2.5,5.3,3.7,7.9c1.2,2.6,2.4,5.2,3.5,7.8c2.3,5.1,4.5,10,6.6,14.7
		c2.1,4.7,4,9.1,5.8,13.3c3.6,8.2,6.5,15.2,8.4,20c1,2.4,1.7,4.4,2.2,5.7C369.1,666.4,369.4,667.1,369.4,667.1z"/>
	<g>
		<path class="st23" d="M560.6,282.1c-26.3-23.5-74.3-14.9-87.4,7.9c-5.8,10-7.3,27.2,1.5,35.9c5,4.9,13.4,7.2,20.8,6.4
			c3.7-0.4,7.8-0.8,10.6-3.4c10.4-9.7-10.4-36.4-1.1-48.1c6.9-8.7,29.8-8,40.1,4.5c11.7,14.4,1.1,37.2-10.2,46.9
			c-3.9,3.3-4.3,2-15.5,8.3c-19.1,10.8-29.7,16.5-29.9,24.6c-0.1,4.9,3.7,9.7,7.9,11.7c5.5,2.6,12.7,1.2,18.2-3.8
			c1.2-2.4,3.6-6.8,7.9-11c16.8-15.9,39.1-4.9,49.9-15.5C585.7,334.8,580.7,300.1,560.6,282.1z"/>
		<path class="st23" d="M509,389c-10.1-5.3-25.9-2.3-28.8,6.4c-2.3,7,4.1,16.8,12.5,19.7c11.3,3.9,25.4-4.9,25.7-13.6
			C518.8,394.3,509.6,389.3,509,389z"/>
	</g>
	<path class="st23" d="M416.2,631.9c1.4,2.9,2.8,5.8,4.2,8.7l4.1,8.7l8.2,17.5l-0.4-0.3c5.1,0.4,10.2,0.8,15.4,1.2L463,669
		c5.1,0.4,10.2,0.8,15.4,1.2l15.4,1.3l0.1,0l0.1,0c3.6,1.4,7.1,2.8,10.7,4.3l10.7,4.3c3.6,1.4,7.1,2.9,10.7,4.3
		c3.6,1.4,7.1,2.9,10.6,4.4c-3.6-1.3-7.2-2.7-10.8-4c-3.6-1.3-7.2-2.7-10.8-4l-10.8-4.1c-3.6-1.4-7.2-2.7-10.7-4.1l0.2,0l-15.4-1.2
		c-5.1-0.4-10.3-0.8-15.4-1.2l-15.4-1.3c-5.1-0.4-10.2-0.8-15.4-1.3l-0.3,0l-0.1-0.3l-7.9-17.7l-3.9-8.9
		C418.7,637.8,417.5,634.9,416.2,631.9z"/>
</g>
<g id="Ñëîé_2">
	<rect class="st70" width="1400" height="770"/>
</g>
</svg>
