<svg xmlns="http://www.w3.org/2000/svg" width="21" height="27" viewBox="0 0 21 27">
    <g fill="none" fill-rule="evenodd">
        <g fill="#4A4A4A" fill-rule="nonzero">
            <path d="M18.612 12.148H14.74a1.452 1.452 0 1 1 0-2.903h3.872a1.452 1.452 0 0 1 0 2.903zM10.316 12.148H2.01a1.452 1.452 0 1 1 0-2.903h8.306a1.452 1.452 0 0 1 0 2.903z"/>
            <path d="M19.864 11.423l-8.269 14.115a1.486 1.486 0 0 1-2.017.54 1.45 1.45 0 0 1-.534-1.992l8.269-14.115a1.486 1.486 0 0 1 2.017-.54 1.45 1.45 0 0 1 .534 1.992z"/>
            <path d="M3.299 9.971l8.269 14.115a1.45 1.45 0 0 1-.534 1.993 1.486 1.486 0 0 1-2.018-.541L.747 11.423a1.45 1.45 0 0 1 .534-1.992 1.486 1.486 0 0 1 2.018.54z"/>
        </g>
        <path fill="#53B5FF" d="M8.821 14.746v-8.1a1.473 1.473 0 1 1 2.946 0v8.1a1.473 1.473 0 0 1-2.946 0zM8.821 2.699V1.473a1.473 1.473 0 1 1 2.946 0V2.7a1.473 1.473 0 0 1-2.946 0z"/>
    </g>
</svg>
