<?xml version="1.0" encoding="utf-8"?>
<!-- Generator: Adobe Illustrator 21.0.0, SVG Export Plug-In . SVG Version: 6.00 Build 0)  -->
<svg version="1.1" id="Layer_1" xmlns="http://www.w3.org/2000/svg" xmlns:xlink="http://www.w3.org/1999/xlink" x="0px" y="0px"
	 viewBox="0 0 1080 720" style="enable-background:new 0 0 1080 720;" xml:space="preserve">
<style type="text/css">
	.st0{display:none;fill:#FFFFFF;}
	.st1{fill:#FEE7EC;}
	.st2{fill:#E5DBFF;}
	.st3{fill:#150D9C;}
	.st4{fill:url(#SVGID_1_);}
	.st5{fill:url(#SVGID_2_);}
	.st6{fill:url(#SVGID_3_);}
	.st7{fill:url(#SVGID_4_);}
	.st8{fill:#0D035C;}
	.st9{fill:url(#SVGID_5_);}
	.st10{opacity:0.3;}
	.st11{fill:url(#SVGID_6_);}
	.st12{fill:url(#SVGID_7_);}
	.st13{fill:url(#SVGID_8_);}
	.st14{fill:#A8BCFB;}
	.st15{opacity:0.3;fill:#150D9C;}
	.st16{fill:#7D9AF8;}
	.st17{fill:#A7A9F9;}
	.st18{fill:#FFE0E4;}
	.st19{fill:#FFFFFF;}
	.st20{fill:url(#XMLID_65_);}
	.st21{fill:url(#XMLID_66_);}
	.st22{opacity:0.3;fill:#0D035C;}
	.st23{fill:#B8A1D7;}
	.st24{fill:#FC899F;}
	.st25{fill:url(#XMLID_67_);}
	.st26{fill:#F9F7F9;}
	.st27{fill:#2329F0;}
	.st28{fill:url(#SVGID_9_);}
	.st29{fill:url(#SVGID_10_);}
	.st30{fill:url(#XMLID_68_);}
	.st31{fill:#673AB7;}
	.st32{fill:url(#XMLID_69_);}
	.st33{fill:#BA539A;}
	.st34{fill:#2657F4;}
	.st35{fill:#5179F6;}
	.st36{fill:url(#XMLID_70_);}
	.st37{fill:#FDB8C5;}
	.st38{fill:#FF6677;}
</style>
<rect x="-1" y="154.1" transform="matrix(-1 -4.489665e-11 4.489665e-11 -1 948 877.9678)" class="st0" width="950" height="569.7"/>
<g>
	<path class="st1" d="M-2,624.4c5.4-8.9,10.6-17.8,13.7-27.2c6-18.6,9.6-36.5,19.5-54.1c9.1-16.2,19.9-31.4,31.3-46
		c6.2-8,12.6-15.8,19-23.7c18.6-22.8,40.1-47.2,69.2-51.2c20.8-2.8,41.8,5.7,58.5,18.5c16.7,12.7,29.9,29.4,43.3,45.5
		c22.3,26.7,46,52.3,70.8,76.6c29.4,28.8,64.7,18.8,101.5,26.7c25.4,5.5,48.1,22.6,60.2,45.6c12.2,23,13.6,51.4,3.8,75.5
		c-7.8,19.3-22.5,31.4-34.1,47.8c-1.9,2.7-3.3,5.8-4.3,9.2H-2V624.4z"/>
</g>
<g>
	<path class="st2" d="M-2,767.5V428.7c5.1,0.4,10.3,1.2,15.2,2.3c20.2,4.5,39.3,13.6,55.6,26.3c20.1,15.8,35.5,36.8,53.9,54.5
		c18.4,17.7,41.9,32.8,67.5,31.9c32.9-1.1,58.9-27.6,89.7-39.3c24.9-9.4,53.5-8.7,77.7,2.4c24.2,11,43.6,32.3,51.9,57.6
		c11,33.3,3.3,71.4,18.2,103.1c13.6,29.2,43.6,47,73.2,59.7c22.8,9.7,46.6,17.5,68.1,30c4.8,2.8,8.7,6.2,12.1,10.1H-2z"/>
</g>
<g>
	<g id="XMLID_265_">
		<g id="XMLID_523_">
			<path id="XMLID_524_" class="st3" d="M514,659.3c-18.4,25.1-46.4,41.9-77.2,46.5c-0.8,0.1-1.1-1.1-0.2-1.3
				c30.5-4.5,58.2-21.1,76.4-45.9C513.4,657.9,514.5,658.6,514,659.3L514,659.3z"/>
		</g>
		<path id="XMLID_522_" class="st3" d="M511,662.4c0,0,10.8-2.6,9.7-11.8C520.7,650.6,512.1,648.9,511,662.4z"/>
		<path id="XMLID_521_" class="st3" d="M503.6,671c0,0,9.7,5.4,15.1-2.2C518.7,668.7,513.5,661.7,503.6,671z"/>
		<path id="XMLID_274_" class="st3" d="M492.3,681.3c0,0,8.8,6.8,15.2,0.1C507.6,681.4,503.5,673.7,492.3,681.3z"/>
		<path id="XMLID_273_" class="st3" d="M479.9,689.5c0,0,6.8,8.8,14.7,3.9C494.6,693.4,492.6,684.9,479.9,689.5z"/>
		<path id="XMLID_272_" class="st3" d="M466.6,695.9c0,0,3.9,10.4,13,8C479.6,704,480.1,695.2,466.6,695.9z"/>
		<path id="XMLID_271_" class="st3" d="M453.3,700.9c0,0,1.2,11,10.5,11C463.9,711.9,466.5,703.6,453.3,700.9z"/>
		<path id="XMLID_270_" class="st3" d="M503.5,670.9c0,0,7.5-8.2,1.4-15.2C504.9,655.7,496.9,659.2,503.5,670.9z"/>
		<path id="XMLID_269_" class="st3" d="M492.2,681.2c0,0,7.5-8.2,1.4-15.2C493.6,666,485.6,669.5,492.2,681.2z"/>
		<path id="XMLID_268_" class="st3" d="M479.9,689.6c0,0,7.5-8.2,1.4-15.2C481.3,674.4,473.3,677.9,479.9,689.6z"/>
		<path id="XMLID_267_" class="st3" d="M466.7,696.8c0,0,7.5-8.2,1.4-15.2C468.1,681.6,460.1,685.1,466.7,696.8z"/>
		<path id="XMLID_266_" class="st3" d="M453.6,701.3c0,0,7.5-8.2,1.4-15.2C455,686.1,446.9,689.6,453.6,701.3z"/>
	</g>
	<g id="XMLID_511_">
		<g id="XMLID_520_">
			
				<linearGradient id="SVGID_1_" gradientUnits="userSpaceOnUse" x1="766.3004" y1="658.0728" x2="775.8969" y2="658.0728" gradientTransform="matrix(-1 0 0 1 1212 0)">
				<stop  offset="0" style="stop-color:#2329F0"/>
				<stop  offset="0.3198" style="stop-color:#2433F1"/>
				<stop  offset="0.8713" style="stop-color:#264FF3"/>
				<stop  offset="1" style="stop-color:#2657F4"/>
			</linearGradient>
			<path class="st4" d="M437.6,652.8c0.1,0,0.2,0.1,0.3,0.2c0.2,0.4,0.5,1.1,0.4,1.7c0.5-0.8,1.5-1.3,2.3-1.6c0,0,0.1,0,0.1,0
				c0,0,0.1,0,0.1,0.1c0.3,0.4,0.4,0.9,0.5,1.3c0,0.4-0.2,0.8-0.4,1.2c0.3-0.4,0.7-0.8,1.2-1c0.2-0.1,0.4-0.1,0.6-0.2
				c0.2,0,0.5-0.2,0.7-0.2c0.1,0,0.2,0.1,0.2,0.1c0.1,0.1,0.1,0.3,0.1,0.5c0,0.4,0,0.8-0.1,1.2c0,0.4-0.1,0.7,0.3,0.5
				c0.6-0.3,1.1-0.5,1.8-0.5c0.1,0-0.1,0.7-0.1,0.7c-0.6,1.6-1.6,3.3-3,4.4c-1.5,1.2-4.9,2.2-4.9,2.2c-0.2-0.3-0.5-0.7-0.7-1
				c-0.1-0.2-0.3-0.4-0.3-0.6c-0.1-0.2-0.1-0.5-0.2-0.8c-0.1-1.1-0.3-2.2-0.3-3.3c0-1.2,0.3-2.2,0.7-3.3
				C436.9,654.2,437.3,652.7,437.6,652.8z"/>
		</g>
		<g id="XMLID_518_">
			<g id="XMLID_519_">
				<path class="st3" d="M440.8,660.9c1.2-1,2-2.4,2.6-3.8c0,0,0.1-0.3,0.1-0.5c0.1,0,0.2,0,0.3,0c0.1,0-0.1,0.6-0.1,0.6
					c-0.5,1.4-1.4,2.9-2.6,3.8c-1.3,1-4.3,2-4.3,2c0-0.1-0.1-0.1-0.1-0.2C437.3,662.6,439.7,661.8,440.8,660.9z"/>
			</g>
		</g>
		<g id="XMLID_516_">
			<g id="XMLID_517_">
				<path class="st3" d="M436.9,658.7c0.1-1.3,0.7-2.6,1.4-3.6c0,0,0.2-0.2,0.3-0.3c0-0.1-0.1-0.1-0.1-0.2c0,0-0.4,0.3-0.4,0.4
					c-0.7,1-1.3,2.4-1.4,3.6c-0.1,1.4,0.7,3.9,0.7,3.9c0.1,0,0.1,0,0.2,0C437.4,661.9,436.8,659.9,436.9,658.7z"/>
			</g>
		</g>
		<g id="XMLID_514_">
			<path id="XMLID_515_" class="st3" d="M441.1,655.8c-1.2,2.2-2.3,4.5-3.4,6.8c-0.1,0.2-0.4,0.1-0.3-0.1c1.1-2.3,2.2-4.6,3.4-6.8
				C441,655.4,441.2,655.6,441.1,655.8L441.1,655.8z"/>
		</g>
		<g id="XMLID_513_">
			<path class="st3" d="M436.4,661.4c0,0,0.2,0,0.2,0.1c0.1,0.2,0.2,0.4,0.2,0.6c0.2-0.3,0.5-0.5,0.8-0.6c0,0,0,0,0,0c0,0,0,0,0,0
				c0.1,0.1,0.2,0.3,0.2,0.5c0,0.2-0.1,0.3-0.1,0.4c0.1-0.1,0.3-0.3,0.4-0.4c0.1,0,0.1,0,0.2-0.1c0.1,0,0.2-0.1,0.3-0.1
				c0,0,0.1,0,0.1,0c0,0.1,0,0.1,0,0.2c0,0.1,0,0.3,0,0.4c0,0.1,0,0.2,0.1,0.2c0.2-0.1,0.5-0.2,0.7-0.2c0,0-0.1,0.2-0.2,0.3
				c-0.6,0.3-0.6,1.2-1.1,1.6c-0.5,0.4-1.8,0.8-1.8,0.8c-0.1-0.1-0.2-0.3-0.3-0.4c0-0.1-0.1-0.1-0.1-0.2c0-0.1-0.1-0.2-0.1-0.3
				c-0.1-0.4-0.1-0.6-0.1-1c0-0.4,0.3-0.8,0.4-1.2C436.4,662.1,436.4,661.5,436.4,661.4z"/>
		</g>
		<path id="XMLID_512_" class="st3" d="M431.1,675.4c1.9-3.8,4.4-7.2,5.5-11.4c0.1-0.4,0.7-0.2,0.6,0.2c-1.1,4.3-3.8,7.9-5.7,11.8
			c-0.5,1.1-1,2.1-1.4,3.2l-0.6,0C429.9,677.9,430.5,676.7,431.1,675.4z"/>
	</g>
	<g id="XMLID_255_">
		<g id="XMLID_264_">
			
				<linearGradient id="SVGID_2_" gradientUnits="userSpaceOnUse" x1="921.998" y1="362.2973" x2="933.5229" y2="362.2973" gradientTransform="matrix(-0.6716 0.7409 0.7409 0.6716 690.3533 -288.6118)">
				<stop  offset="0" style="stop-color:#2329F0"/>
				<stop  offset="0.3198" style="stop-color:#2433F1"/>
				<stop  offset="0.8713" style="stop-color:#264FF3"/>
				<stop  offset="1" style="stop-color:#2657F4"/>
			</linearGradient>
			<path class="st5" d="M328.3,640.7c0.1-0.1,0.3-0.1,0.4-0.1c0.6,0.1,1.4,0.4,1.9,1c-0.2-1.1,0.1-2.3,0.4-3.3c0-0.1,0-0.1,0.1-0.1
				c0,0,0.1,0,0.1,0c0.6,0.1,1.1,0.3,1.6,0.6c0.4,0.3,0.6,0.8,0.7,1.3c-0.1-0.6-0.1-1.3,0.1-1.9c0.1-0.3,0.2-0.4,0.3-0.6
				c0.1-0.2,0.2-0.6,0.4-0.8c0.1-0.1,0.2-0.1,0.3-0.1c0.2,0,0.4,0.2,0.5,0.3c0.3,0.3,0.7,0.7,1,1c0.3,0.3,0.5,0.7,0.7,0.1
				c0.2-0.7,0.5-1.4,1-1.9c0.1-0.1,0.5,0.6,0.5,0.7c0.9,1.8,1.6,4.1,1.5,6.2c-0.1,2.3-2,6.2-2,6.2c-0.5-0.1-1-0.1-1.5-0.2
				c-0.3,0-0.5-0.1-0.8-0.1c-0.3-0.1-0.6-0.3-0.8-0.5c-1.1-0.7-2.2-1.5-3.1-2.4c-1-1-1.8-2.1-2.4-3.3
				C329,642.5,328.1,641,328.3,640.7z"/>
		</g>
		<g id="XMLID_262_">
			<g id="XMLID_263_">
				<path class="st3" d="M338.1,644.5c0.1-1.8-0.5-3.8-1.3-5.4c0,0-0.2-0.3-0.3-0.5c0.1-0.1,0.1-0.2,0.2-0.3c0-0.1,0.4,0.6,0.5,0.6
					c0.8,1.6,1.4,3.6,1.3,5.4c-0.1,2-1.7,5.4-1.7,5.4c-0.1,0-0.2,0-0.2,0C336.8,648.9,338,646.1,338.1,644.5z"/>
			</g>
		</g>
		<g id="XMLID_260_">
			<g id="XMLID_261_">
				<path class="st3" d="M333,646.1c-1.1-1.1-1.7-2.7-2.1-4.2c0,0,0-0.3-0.1-0.5c-0.1,0-0.2-0.1-0.3-0.1c-0.1,0,0,0.6,0,0.6
					c0.4,1.5,1,3.1,2.1,4.2c1.1,1.2,4.1,2.6,4.1,2.6c0,0,0.1-0.1,0.1-0.1C336.2,648.3,334,647.2,333,646.1z"/>
			</g>
		</g>
		<g id="XMLID_258_">
			<path id="XMLID_259_" class="st3" d="M333.8,640c1,2.8,2.1,5.7,3.3,8.5c0.1,0.2-0.2,0.4-0.3,0.2c-1.2-2.8-2.3-5.7-3.3-8.5
				C333.4,639.9,333.7,639.8,333.8,640L333.8,640z"/>
		</g>
		<g id="XMLID_257_">
			<path class="st3" d="M335,648.7c0,0,0.2-0.1,0.2-0.1c0.2,0,0.5,0.2,0.7,0.3c-0.1-0.4,0-0.8,0.1-1.2c0,0,0,0,0,0c0,0,0,0,0,0
				c0.2,0,0.4,0.1,0.6,0.2c0.1,0.1,0.2,0.3,0.3,0.5c0-0.2,0-0.5,0-0.7c0-0.1,0.1-0.1,0.1-0.2c0.1-0.1,0.1-0.2,0.1-0.3
				c0,0,0.1,0,0.1,0c0.1,0,0.1,0.1,0.2,0.1c0.1,0.1,0.2,0.2,0.4,0.4c0.1,0.1,0.2,0.2,0.2,0c0.1-0.3,0.3-0.6,0.4-0.8
				c0,0,0.1,0.2,0.1,0.3c-0.2,0.7,0.6,1.5,0.5,2.2c0,0.8-0.7,2.2-0.7,2.2c-0.2,0-0.4,0-0.5-0.1c-0.1,0-0.2,0-0.3-0.1
				c-0.1,0-0.2-0.1-0.3-0.2c-0.4-0.3-0.6-0.4-0.9-0.7c-0.4-0.3-0.5-0.9-0.7-1.3C335.6,649.3,335.1,648.8,335,648.7z"/>
		</g>
		<path id="XMLID_256_" class="st3" d="M343.2,664.8c-1.8-4.7-2.9-9.8-5.7-14.1c-0.3-0.4,0.4-0.7,0.6-0.3c2.9,4.5,3.9,9.7,5.9,14.6
			c0.5,1.3,1.1,2.6,1.7,3.8l-0.5,0.6C344.5,667.9,343.8,666.4,343.2,664.8z"/>
	</g>
	<g id="XMLID_243_">
		<g id="XMLID_254_">
			
				<linearGradient id="SVGID_3_" gradientUnits="userSpaceOnUse" x1="667.9077" y1="730.7338" x2="677.5037" y2="730.7338" gradientTransform="matrix(-0.9389 -0.3443 -0.3443 0.9389 1334.5065 206.6255)">
				<stop  offset="0" style="stop-color:#2329F0"/>
				<stop  offset="0.3198" style="stop-color:#2433F1"/>
				<stop  offset="0.8713" style="stop-color:#264FF3"/>
				<stop  offset="1" style="stop-color:#2657F4"/>
			</linearGradient>
			<path class="st6" d="M450.1,655c0.1,0,0.1,0.2,0.2,0.3c0.1,0.5,0.1,1.2-0.2,1.7c0.8-0.5,1.8-0.7,2.7-0.7c0,0,0.1,0,0.1,0
				c0,0,0,0.1,0,0.1c0.1,0.5,0.1,1,0,1.4c-0.1,0.4-0.5,0.7-0.8,1c0.4-0.3,1-0.5,1.5-0.5c0.2,0,0.4,0,0.6,0.1c0.2,0,0.5,0,0.7,0
				c0.1,0,0.1,0.1,0.2,0.2c0,0.2,0,0.3-0.1,0.5c-0.2,0.4-0.3,0.7-0.5,1.1c-0.2,0.4-0.4,0.6,0.1,0.5c0.6,0,1.2,0,1.8,0.2
				c0.1,0-0.3,0.6-0.4,0.6c-1.1,1.3-2.7,2.5-4.3,3.1c-1.8,0.6-5.4,0.4-5.4,0.4c-0.1-0.4-0.2-0.8-0.3-1.2c-0.1-0.2-0.1-0.4-0.1-0.6
				c0-0.3,0-0.5,0.1-0.8c0.2-1.1,0.5-2.1,0.9-3.2c0.4-1.1,1-2,1.8-2.9C448.9,656,449.8,654.9,450.1,655z"/>
		</g>
		<g id="XMLID_251_">
			<g id="XMLID_253_">
				<path class="st3" d="M450.2,663.7c1.4-0.5,2.8-1.6,3.8-2.7c0,0,0.2-0.3,0.3-0.4c0.1,0,0.2,0,0.3,0.1c0.1,0-0.3,0.5-0.3,0.6
					c-1,1.1-2.3,2.2-3.8,2.7c-1.6,0.5-4.7,0.4-4.7,0.4c0-0.1,0-0.1-0.1-0.2C446.4,664.1,448.9,664.2,450.2,663.7z"/>
			</g>
		</g>
		<g id="XMLID_248_">
			<g id="XMLID_250_">
				<path class="st3" d="M447.3,660.3c0.5-1.2,1.6-2.2,2.6-2.9c0,0,0.2-0.1,0.4-0.2c0-0.1,0-0.2,0-0.2c0,0-0.5,0.2-0.5,0.2
					c-1,0.7-2.1,1.8-2.6,2.9c-0.6,1.3-0.7,3.9-0.7,3.9c0.1,0,0.1,0,0.2,0.1C446.7,663.5,446.9,661.4,447.3,660.3z"/>
			</g>
		</g>
		<g id="XMLID_246_">
			<path id="XMLID_247_" class="st3" d="M452.3,659c-1.9,1.7-3.7,3.4-5.5,5.2c-0.1,0.1-0.4-0.1-0.2-0.2c1.8-1.8,3.7-3.5,5.6-5.3
				C452.3,658.6,452.5,658.9,452.3,659L452.3,659z"/>
		</g>
		<g id="XMLID_245_">
			<path class="st3" d="M446,662.6c0,0,0.2,0.1,0.2,0.1c0,0.2,0,0.4-0.1,0.6c0.3-0.2,0.7-0.2,1-0.3c0,0,0,0,0,0c0,0,0,0,0,0
				c0,0.2,0,0.3,0,0.5c0,0.1-0.2,0.3-0.3,0.4c0.2-0.1,0.3-0.2,0.5-0.2c0.1,0,0.1,0,0.2,0c0.1,0,0.2,0,0.3,0c0,0,0,0,0.1,0.1
				c0,0.1,0,0.1,0,0.2c-0.1,0.1-0.1,0.3-0.2,0.4c-0.1,0.1-0.1,0.2,0,0.2c0.2,0,0.5,0,0.7,0.1c0,0-0.1,0.2-0.2,0.2
				c-0.6,0.1-1,0.9-1.6,1.1c-0.6,0.2-1.9,0.1-1.9,0.1c0-0.1-0.1-0.3-0.1-0.4c0-0.1,0-0.2,0-0.2c0-0.1,0-0.2,0-0.3
				c0.1-0.4,0.1-0.6,0.2-0.9c0.2-0.4,0.5-0.7,0.8-1C445.7,663.3,445.9,662.8,446,662.6z"/>
		</g>
		<path id="XMLID_244_" class="st3" d="M436.1,674c3.1-2.9,6.6-5.3,9.1-8.8c0.2-0.3,0.7,0.1,0.5,0.4c-2.5,3.6-6.2,6.1-9.4,9.1
			c-0.8,0.8-1.6,1.7-2.4,2.5l-0.6-0.2C434.2,676,435.1,675,436.1,674z"/>
	</g>
	<g id="XMLID_501_">
		<g id="XMLID_510_">
			
				<linearGradient id="SVGID_4_" gradientUnits="userSpaceOnUse" x1="800.6235" y1="650.2067" x2="797.6209" y2="630.295" gradientTransform="matrix(-1 0 0 1 1212 0)">
				<stop  offset="0" style="stop-color:#2329F0"/>
				<stop  offset="0.3198" style="stop-color:#2433F1"/>
				<stop  offset="0.8713" style="stop-color:#264FF3"/>
				<stop  offset="1" style="stop-color:#2657F4"/>
			</linearGradient>
			<path class="st7" d="M406.8,631.8c0.2,0,0.4,0.1,0.5,0.3c0.6,0.6,1.3,1.6,1.4,2.6c0.6-1.5,2-2.6,3.2-3.6c0.1,0,0.1-0.1,0.2-0.1
				c0.1,0,0.1,0,0.1,0.1c0.6,0.5,1.1,1.2,1.3,2c0.2,0.7,0,1.5-0.2,2.1c0.4-0.8,0.9-1.6,1.6-2.1c0.3-0.2,0.6-0.3,0.9-0.5
				c0.4-0.2,0.7-0.6,1.1-0.6c0.1,0,0.3,0,0.4,0.1c0.2,0.2,0.3,0.5,0.3,0.8c0.1,0.7,0.2,1.3,0.4,2c0.1,0.7,0,1.1,0.7,0.7
				c0.8-0.6,1.7-1.2,2.7-1.5c0.1,0,0.1,1.1,0.1,1.2c-0.4,2.9-1.4,6.1-3.3,8.4c-2,2.5-7.3,5.6-7.3,5.6c-0.5-0.5-1.1-1-1.6-1.4
				c-0.3-0.2-0.6-0.5-0.8-0.8c-0.3-0.4-0.4-0.8-0.6-1.2c-0.6-1.7-1.3-3.5-1.7-5.3c-0.4-2-0.4-3.8-0.1-5.8
				C406,634.4,406.3,631.9,406.8,631.8z"/>
		</g>
		<g id="XMLID_508_">
			<g id="XMLID_509_">
				<path class="st8" d="M415.1,644c1.6-2,2.5-4.8,2.8-7.3c0-0.1,0-0.6,0-0.9c0.2-0.1,0.3-0.1,0.5-0.2c0.1,0,0.1,1,0,1.1
					c-0.4,2.5-1.3,5.3-2.8,7.3c-1.7,2.2-6.4,4.9-6.4,4.9c-0.1-0.1-0.2-0.1-0.2-0.2C410,648.1,413.6,645.9,415.1,644z"/>
			</g>
		</g>
		<g id="XMLID_506_">
			<g id="XMLID_507_">
				<path class="st8" d="M407.8,641.8c-0.3-2.1,0.2-4.6,1-6.6c0,0,0.2-0.4,0.4-0.6c-0.1-0.1-0.2-0.2-0.3-0.3
					c-0.1-0.1-0.5,0.7-0.5,0.8c-0.8,2-1.3,4.4-1,6.6c0.3,2.3,2.6,6.3,2.6,6.3c0.1,0,0.2,0,0.3-0.1
					C409.8,647,408.1,643.8,407.8,641.8z"/>
			</g>
		</g>
		<g id="XMLID_504_">
			<path id="XMLID_505_" class="st8" d="M413.7,635.4c-1.1,4.1-2.1,8.3-3,12.5c-0.1,0.3-0.6,0.3-0.5-0.1c0.9-4.2,1.9-8.4,3-12.6
				C413.3,634.9,413.8,635.1,413.7,635.4L413.7,635.4z"/>
		</g>
		<g id="XMLID_503_">
			<path class="st3" d="M408,646.5c0-0.1,0.3,0,0.4,0.1c0.2,0.2,0.5,0.6,0.5,0.9c0.2-0.5,0.7-0.9,1.1-1.3c0,0,0,0,0.1,0
				c0,0,0,0,0.1,0c0.2,0.2,0.4,0.4,0.5,0.7c0.1,0.2,0,0.5-0.1,0.8c0.1-0.3,0.3-0.6,0.6-0.8c0.1-0.1,0.2-0.1,0.3-0.2
				c0.1-0.1,0.3-0.2,0.4-0.2c0.1,0,0.1,0,0.1,0c0.1,0.1,0.1,0.2,0.1,0.3c0,0.2,0.1,0.5,0.1,0.7c0,0.2,0,0.4,0.2,0.2
				c0.3-0.2,0.8-0.5,1.1-0.6c0,0,0,0.4-0.2,0.5c-0.8,0.7-0.5,2.2-1.2,3c-0.7,0.9-2.6,2-2.6,2c-0.2-0.2-0.4-0.3-0.6-0.5
				c-0.1-0.1-0.2-0.2-0.3-0.3c-0.1-0.1-0.2-0.3-0.2-0.4c-0.2-0.6-0.4-0.9-0.5-1.5c-0.2-0.7,0.1-1.4,0.2-2.2
				C408.3,647.6,408.1,646.7,408,646.5z"/>
		</g>
		<path id="XMLID_502_" class="st3" d="M404.5,671.7c1.7-7,4.6-13.6,4.8-20.9c0-0.7,1-0.5,1,0.1c-0.2,7.5-3.3,14.4-5,21.6
			c-0.5,1.9-0.8,3.9-1.1,5.8l-1,0.2C403.6,676.3,404,674,404.5,671.7z"/>
	</g>
	<g id="XMLID_289_">
		<g id="XMLID_500_">
			
				<linearGradient id="SVGID_5_" gradientUnits="userSpaceOnUse" x1="752.7578" y1="684.2706" x2="857.2081" y2="684.2706" gradientTransform="matrix(-1 0 0 1 1212 0)">
				<stop  offset="0" style="stop-color:#673AB7"/>
				<stop  offset="0.1719" style="stop-color:#6F44BA"/>
				<stop  offset="0.4695" style="stop-color:#8561C3"/>
				<stop  offset="0.8546" style="stop-color:#A98ED1"/>
				<stop  offset="1" style="stop-color:#B8A1D7"/>
			</linearGradient>
			<path class="st9" d="M425.2,711.3c1.7-0.8,3.4-1.7,5-2.7c8.6-5,36.3-22.7,27.3-35c-2.4-3.3-6.8-4.3-10.8-4.4
				c-3.8-0.1-7.5,0.5-11.1,1.7c-0.7,0.2-1.5,0.5-2.3,0.3c-1.2-0.4-1.6-1.9-1.7-3.2c-0.3-3.4-0.3-7-1.9-10c-3.4-6.5-13-7.5-19.6-4.2
				c-3.7,1.8-7.7,4.7-11.4,3.1c-2-0.9-3.2-2.8-4.8-4.3c-3.8-3.6-9.5-4.2-14.8-4.7c-4.1-0.3-8.3-0.6-12,1.1c-2.2,1.1-4,2.9-5.5,4.8
				c-11.1,13.9-7.3,34.5,1.7,48.6c6.7,10.5,15.7,19.4,28.6,18.3C403.5,719.8,414.8,716.5,425.2,711.3z"/>
		</g>
		<g id="XMLID_477_" class="st10">
			<g id="XMLID_498_">
				<path id="XMLID_499_" class="st3" d="M448.2,677.8c-19.6,11.4-36.7,26.4-55.2,39.5c-0.1,0.1-0.5-0.1-0.4-0.2
					c18.5-13,35.5-28.1,55.2-39.5C447.9,677.5,448.3,677.7,448.2,677.8L448.2,677.8z"/>
			</g>
			<g id="XMLID_496_">
				<path id="XMLID_497_" class="st3" d="M441.9,676.3c-1.4,3-3,5.8-5,8.5c-0.1,0.2-0.6,0-0.4-0.2c1.9-2.6,3.6-5.4,4.9-8.4
					C441.6,676,442,676.1,441.9,676.3L441.9,676.3z"/>
			</g>
			<g id="XMLID_242_">
				<path id="XMLID_495_" class="st3" d="M434.1,678.4c-1.3,4.4-3.1,8.5-5.6,12.2c-0.1,0.1-0.5,0-0.4-0.2c2.5-3.8,4.4-7.8,5.6-12.2
					C433.6,678.2,434.1,678.3,434.1,678.4L434.1,678.4z"/>
			</g>
			<g id="XMLID_492_">
				<path id="XMLID_493_" class="st3" d="M426.1,683.6c-1.5,4.6-3.5,9.1-5.8,13.4c-0.1,0.1-0.5-0.1-0.5-0.1
					c2.3-4.3,4.3-8.7,5.8-13.4C425.7,683.3,426.1,683.5,426.1,683.6L426.1,683.6z"/>
			</g>
			<g id="XMLID_238_">
				<path id="XMLID_240_" class="st3" d="M417.7,687.8c-1.7,6-4.2,11.6-7.7,16.8c-0.1,0.2-0.6,0-0.4-0.2c3.5-5.2,6-10.7,7.6-16.7
					C417.3,687.5,417.8,687.6,417.7,687.8L417.7,687.8z"/>
			</g>
			<g id="XMLID_488_">
				<path id="XMLID_489_" class="st3" d="M411.1,692.2c-3.8,7-7.8,13.9-12,20.7c-0.1,0.1-0.6,0-0.4-0.2c4.2-6.7,8.2-13.6,12-20.6
					C410.7,691.9,411.1,692,411.1,692.2L411.1,692.2z"/>
			</g>
			<g id="XMLID_486_">
				<path id="XMLID_237_" class="st3" d="M445.9,684.1c-3.5,0.2-6.9,0.8-10.3,1.7c-0.1,0-0.5-0.2-0.4-0.2c3.4-0.9,6.9-1.5,10.4-1.8
					C445.7,683.9,446.1,684.1,445.9,684.1L445.9,684.1z"/>
			</g>
			<g id="XMLID_484_">
				<path id="XMLID_485_" class="st3" d="M434.6,691.3c-3.7,0.6-7.2,1.6-10.7,2.9c-0.1,0.1-0.6-0.2-0.4-0.2c3.5-1.3,7.1-2.3,10.8-3
					C434.5,691,434.9,691.2,434.6,691.3L434.6,691.3z"/>
			</g>
			<g id="XMLID_482_">
				<path id="XMLID_236_" class="st3" d="M423.4,699.5c-3.3-0.4-6.2,1.5-9.4,2.2c-0.1,0-0.6-0.2-0.3-0.2c3.3-0.7,6.2-2.6,9.6-2.2
					C423.5,699.3,423.7,699.6,423.4,699.5L423.4,699.5z"/>
			</g>
			<g id="XMLID_480_">
				<path id="XMLID_481_" class="st3" d="M417.9,705c-4.1,0-7.6,2-11.6,2.4c-0.1,0-0.5-0.2-0.3-0.2c2.3-0.2,4.3-1.1,6.4-1.8
					c1.7-0.5,3.4-0.6,5.2-0.6C417.7,704.8,418.1,705,417.9,705L417.9,705z"/>
			</g>
			<g id="XMLID_478_">
				<path id="XMLID_479_" class="st3" d="M410,710.7c-3.6,0.6-7.6,0.8-11,2.2c-0.1,0.1-0.6-0.1-0.4-0.2c3.4-1.5,7.4-1.7,11.1-2.3
					C409.9,710.5,410.3,710.7,410,710.7L410,710.7z"/>
			</g>
		</g>
		<g id="XMLID_321_" class="st10">
			<g id="XMLID_475_">
				<path id="XMLID_476_" class="st3" d="M419.9,657.7c-14.6,17.4-25.5,37.3-38.5,55.8c-0.1,0.1-0.5,0.1-0.5,0
					c13-18.5,23.9-38.5,38.5-55.8C419.5,657.6,420,657.6,419.9,657.7L419.9,657.7z"/>
			</g>
			<g id="XMLID_473_">
				<path id="XMLID_474_" class="st3" d="M413.5,658.5c-0.3,3.3-0.9,6.5-1.8,9.7c-0.1,0.2-0.6,0.2-0.5-0.1c0.9-3.1,1.5-6.3,1.8-9.6
					C413.1,658.3,413.5,658.3,413.5,658.5L413.5,658.5z"/>
			</g>
			<g id="XMLID_471_">
				<path id="XMLID_472_" class="st3" d="M406.8,663.1c0.3,4.5-0.1,9-1.2,13.4c0,0.1-0.5,0.1-0.5,0c1.1-4.4,1.4-8.9,1.1-13.4
					C406.3,663,406.8,663,406.8,663.1L406.8,663.1z"/>
			</g>
			<g id="XMLID_235_">
				<path id="XMLID_470_" class="st3" d="M401.1,670.6c0.1,4.9-0.2,9.7-1,14.5c0,0.1-0.5,0.1-0.5,0c0.7-4.8,1.1-9.7,1-14.5
					C400.6,670.6,401.1,670.5,401.1,670.6L401.1,670.6z"/>
			</g>
			<g id="XMLID_467_">
				<path id="XMLID_234_" class="st3" d="M394.6,677.5c0.5,6.2,0,12.4-1.5,18.4c0,0.2-0.5,0.2-0.5,0c1.5-6,2-12.1,1.5-18.3
					C394.1,677.3,394.6,677.3,394.6,677.5L394.6,677.5z"/>
			</g>
			<g id="XMLID_402_">
				<path id="XMLID_466_" class="st3" d="M389.8,683.9c-1.2,7.9-2.6,15.7-4.3,23.5c0,0.2-0.5,0.2-0.5,0c1.7-7.8,3.1-15.6,4.3-23.4
					C389.4,683.7,389.9,683.7,389.8,683.9L389.8,683.9z"/>
			</g>
			<g id="XMLID_233_">
				<path id="XMLID_400_" class="st3" d="M419.9,664.5c-3.2,1.4-6.3,3.1-9.1,5.1c-0.1,0.1-0.6,0-0.4-0.1c2.9-2,6-3.8,9.2-5.2
					C419.6,664.3,420.1,664.4,419.9,664.5L419.9,664.5z"/>
			</g>
			<g id="XMLID_332_">
				<path id="XMLID_339_" class="st3" d="M411.7,675c-3.2,1.8-6.2,4-9.1,6.4c-0.1,0.1-0.6,0-0.4-0.1c2.8-2.4,5.9-4.6,9.1-6.4
					C411.5,674.8,412,674.9,411.7,675L411.7,675z"/>
			</g>
			<g id="XMLID_231_">
				<path id="XMLID_232_" class="st3" d="M403.9,686.6c-3.3,0.7-5.4,3.5-8.1,5.2c-0.1,0.1-0.6,0-0.4-0.1c2.8-1.8,5-4.5,8.3-5.3
					C404,686.3,404.2,686.5,403.9,686.6L403.9,686.6z"/>
			</g>
			<g id="XMLID_328_">
				<path id="XMLID_329_" class="st3" d="M400.6,693.6c-3.9,1.4-6.4,4.4-10.1,6.2c-0.1,0-0.6,0-0.4-0.1c2-1,3.6-2.5,5.4-3.8
					c1.5-1.1,3-1.8,4.7-2.4C400.4,693.5,400.9,693.5,400.6,693.6L400.6,693.6z"/>
			</g>
			<g id="XMLID_323_">
				<path id="XMLID_325_" class="st3" d="M395.2,701.7c-3.2,1.8-6.9,3.3-9.6,5.8c-0.1,0.1-0.6,0.1-0.4-0.1c2.7-2.6,6.4-4.1,9.7-5.9
					C394.9,701.5,395.4,701.5,395.2,701.7L395.2,701.7z"/>
			</g>
		</g>
		<g id="XMLID_291_" class="st10">
			<g id="XMLID_317_">
				<path id="XMLID_319_" class="st3" d="M378.4,646.6c-4.1,22.3-3.6,45.1-5.7,67.6c0,0.2-0.4,0.4-0.4,0.2
					c2.1-22.5,1.7-45.3,5.7-67.6C378,646.7,378.4,646.5,378.4,646.6L378.4,646.6z"/>
			</g>
			<g id="XMLID_315_">
				<path id="XMLID_316_" class="st3" d="M373.3,650.4c1.4,3,2.5,6.1,3.3,9.3c0.1,0.2-0.4,0.4-0.4,0.2c-0.8-3.2-1.8-6.2-3.2-9.2
					C372.7,650.5,373.2,650.2,373.3,650.4L373.3,650.4z"/>
			</g>
			<g id="XMLID_312_">
				<path id="XMLID_314_" class="st3" d="M369.8,657.8c2.5,3.8,4.4,7.9,5.7,12.2c0,0.1-0.4,0.4-0.4,0.2c-1.3-4.4-3.1-8.4-5.7-12.2
					C369.3,657.9,369.7,657.7,369.8,657.8L369.8,657.8z"/>
			</g>
			<g id="XMLID_310_">
				<path id="XMLID_311_" class="st3" d="M368.5,667.2c2.5,4.2,4.6,8.5,6.4,13.1c0,0.1-0.4,0.4-0.4,0.3c-1.8-4.6-3.9-8.9-6.4-13.1
					C368,667.4,368.4,667.1,368.5,667.2L368.5,667.2z"/>
			</g>
			<g id="XMLID_308_">
				<path id="XMLID_309_" class="st3" d="M366.3,676.3c3.5,5.2,6.1,10.7,7.8,16.8c0.1,0.2-0.4,0.4-0.4,0.2c-1.7-6-4.3-11.5-7.8-16.7
					C365.8,676.4,366.2,676.2,366.3,676.3L366.3,676.3z"/>
			</g>
			<g id="XMLID_306_">
				<path id="XMLID_307_" class="st3" d="M365.3,684.2c2.9,7.4,5.5,14.9,7.9,22.5c0.1,0.2-0.4,0.4-0.4,0.2c-2.4-7.6-5-15.1-7.9-22.5
					C364.8,684.3,365.2,684.1,365.3,684.2L365.3,684.2z"/>
			</g>
			<g id="XMLID_304_">
				<path id="XMLID_305_" class="st3" d="M381.8,652.5c-2.1,2.8-3.9,5.8-5.4,9c-0.1,0.1-0.5,0.3-0.4,0.2c1.5-3.2,3.3-6.2,5.4-9.1
					C381.5,652.5,381.9,652.3,381.8,652.5L381.8,652.5z"/>
			</g>
			<g id="XMLID_302_">
				<path id="XMLID_303_" class="st3" d="M379.9,665.7c-1.9,3.2-3.5,6.5-4.7,10c-0.1,0.1-0.5,0.3-0.4,0.1c1.3-3.5,2.8-6.9,4.7-10.1
					C379.6,665.6,380,665.4,379.9,665.7L379.9,665.7z"/>
			</g>
			<g id="XMLID_300_">
				<path id="XMLID_301_" class="st3" d="M378.9,679.6c-2.5,2.3-2.9,5.7-4.5,8.6c-0.1,0.1-0.5,0.3-0.4,0.1c1.6-2.9,2.1-6.4,4.6-8.7
					C378.8,679.4,379.1,679.4,378.9,679.6L378.9,679.6z"/>
			</g>
			<g id="XMLID_297_">
				<path id="XMLID_298_" class="st3" d="M379.5,687.3c-2.7,3.2-3.4,7.1-5.7,10.4c-0.1,0.1-0.5,0.3-0.4,0.1c1.3-1.9,1.9-4,2.8-6
					c0.7-1.7,1.7-3,2.9-4.4C379.2,687.4,379.7,687.2,379.5,687.3L379.5,687.3z"/>
			</g>
			<g id="XMLID_293_">
				<path id="XMLID_296_" class="st3" d="M378.8,697c-1.9,3.1-4.3,6.3-5.4,9.8c0,0.1-0.5,0.3-0.4,0.2c1.1-3.6,3.5-6.8,5.5-9.9
					C378.5,697,378.9,696.8,378.8,697L378.8,697z"/>
			</g>
		</g>
	</g>
	<g id="XMLID_46_">
		<g id="XMLID_229_">
			
				<linearGradient id="SVGID_6_" gradientUnits="userSpaceOnUse" x1="45.7025" y1="683.9438" x2="150.1528" y2="683.9438" gradientTransform="matrix(1 0 0 1 235.5586 0)">
				<stop  offset="0" style="stop-color:#673AB7"/>
				<stop  offset="0.1719" style="stop-color:#6F44BA"/>
				<stop  offset="0.4695" style="stop-color:#8561C3"/>
				<stop  offset="0.8546" style="stop-color:#A98ED1"/>
				<stop  offset="1" style="stop-color:#B8A1D7"/>
			</linearGradient>
			<path class="st11" d="M315.3,711c-1.7-0.8-3.4-1.7-5-2.7c-8.6-5-36.3-22.7-27.3-35c2.4-3.3,6.8-4.3,10.8-4.4
				c3.8-0.1,7.5,0.5,11.1,1.7c0.7,0.2,1.5,0.5,2.3,0.3c1.2-0.4,1.6-1.9,1.7-3.2c0.3-3.4,0.3-7,1.9-10c3.4-6.5,13-7.5,19.6-4.2
				c3.7,1.8,7.7,4.7,11.4,3.1c2-0.9,3.2-2.8,4.8-4.3c3.8-3.6,9.5-4.2,14.8-4.7c4.1-0.3,8.3-0.6,12,1.1c2.2,1.1,4,2.9,5.5,4.8
				c11.1,13.9,7.3,34.5-1.7,48.6c-6.7,10.5-15.7,19.4-28.6,18.3C337,719.5,325.7,716.2,315.3,711z"/>
		</g>
		<g id="XMLID_204_" class="st10">
			<g id="XMLID_227_">
				<path id="XMLID_228_" class="st3" d="M292.3,677.4c19.6,11.4,36.7,26.4,55.2,39.5c0.1,0.1,0.5-0.1,0.4-0.2
					c-18.5-13-35.5-28.1-55.2-39.5C292.6,677.2,292.2,677.4,292.3,677.4L292.3,677.4z"/>
			</g>
			<g id="XMLID_225_">
				<path id="XMLID_226_" class="st3" d="M298.6,676c1.4,3,3,5.8,5,8.5c0.1,0.2,0.6,0,0.4-0.2c-1.9-2.6-3.6-5.4-4.9-8.4
					C298.9,675.7,298.5,675.8,298.6,676L298.6,676z"/>
			</g>
			<g id="XMLID_222_">
				<path id="XMLID_223_" class="st3" d="M306.4,678.1c1.3,4.4,3.1,8.5,5.6,12.2c0.1,0.1,0.5,0,0.4-0.2c-2.5-3.8-4.4-7.8-5.6-12.2
					C306.9,677.8,306.4,678,306.4,678.1L306.4,678.1z"/>
			</g>
			<g id="XMLID_220_">
				<path id="XMLID_221_" class="st3" d="M314.4,683.2c1.5,4.6,3.5,9.1,5.8,13.4c0.1,0.1,0.5-0.1,0.5-0.1c-2.3-4.3-4.3-8.7-5.8-13.4
					C314.9,683,314.4,683.1,314.4,683.2L314.4,683.2z"/>
			</g>
			<g id="XMLID_218_">
				<path id="XMLID_219_" class="st3" d="M322.8,687.5c1.7,6,4.2,11.6,7.7,16.8c0.1,0.2,0.6,0,0.4-0.2c-3.5-5.2-6-10.7-7.6-16.7
					C323.2,687.2,322.7,687.3,322.8,687.5L322.8,687.5z"/>
			</g>
			<g id="XMLID_216_">
				<path id="XMLID_217_" class="st3" d="M329.4,691.9c3.8,7,7.8,13.9,12,20.7c0.1,0.1,0.6,0,0.4-0.2c-4.2-6.7-8.2-13.6-12-20.6
					C329.8,691.6,329.4,691.7,329.4,691.9L329.4,691.9z"/>
			</g>
			<g id="XMLID_214_">
				<path id="XMLID_215_" class="st3" d="M294.6,683.8c3.5,0.2,6.9,0.8,10.3,1.7c0.1,0,0.5-0.2,0.4-0.2c-3.4-0.9-6.9-1.5-10.4-1.8
					C294.8,683.6,294.4,683.8,294.6,683.8L294.6,683.8z"/>
			</g>
			<g id="XMLID_212_">
				<path id="XMLID_213_" class="st3" d="M305.9,690.9c3.7,0.6,7.2,1.6,10.7,2.9c0.1,0.1,0.6-0.2,0.4-0.2c-3.5-1.3-7.1-2.3-10.8-3
					C306,690.6,305.6,690.9,305.9,690.9L305.9,690.9z"/>
			</g>
			<g id="XMLID_210_">
				<path id="XMLID_211_" class="st3" d="M317.1,699.2c3.3-0.4,6.2,1.5,9.4,2.2c0.1,0,0.6-0.2,0.3-0.2c-3.3-0.7-6.2-2.6-9.6-2.1
					C317,699,316.8,699.2,317.1,699.2L317.1,699.2z"/>
			</g>
			<g id="XMLID_207_">
				<path id="XMLID_208_" class="st3" d="M322.6,704.7c4.1,0,7.6,2,11.6,2.4c0.1,0,0.5-0.2,0.3-0.2c-2.3-0.2-4.3-1.1-6.4-1.8
					c-1.7-0.5-3.4-0.6-5.2-0.6C322.8,704.5,322.4,704.7,322.6,704.7L322.6,704.7z"/>
			</g>
			<g id="XMLID_205_">
				<path id="XMLID_206_" class="st3" d="M330.5,710.4c3.6,0.6,7.6,0.8,11,2.2c0.1,0.1,0.6-0.1,0.4-0.2c-3.4-1.5-7.4-1.7-11.1-2.3
					C330.6,710.2,330.2,710.4,330.5,710.4L330.5,710.4z"/>
			</g>
		</g>
		<g id="XMLID_170_" class="st10">
			<g id="XMLID_201_">
				<path id="XMLID_202_" class="st3" d="M320.6,657.4c14.6,17.4,25.5,37.3,38.5,55.8c0.1,0.1,0.5,0.1,0.5,0
					c-13-18.5-23.9-38.5-38.5-55.8C321,657.2,320.5,657.3,320.6,657.4L320.6,657.4z"/>
			</g>
			<g id="XMLID_198_">
				<path id="XMLID_200_" class="st3" d="M327,658.2c0.3,3.3,0.9,6.5,1.8,9.7c0.1,0.2,0.6,0.2,0.5-0.1c-0.9-3.1-1.5-6.3-1.8-9.6
					C327.5,658,327,657.9,327,658.2L327,658.2z"/>
			</g>
			<g id="XMLID_194_">
				<path id="XMLID_196_" class="st3" d="M333.7,662.8c-0.3,4.5,0.1,9,1.2,13.4c0,0.1,0.5,0.1,0.5,0c-1.1-4.4-1.4-8.9-1.1-13.4
					C334.2,662.7,333.7,662.6,333.7,662.8L333.7,662.8z"/>
			</g>
			<g id="XMLID_192_">
				<path id="XMLID_193_" class="st3" d="M339.4,670.3c-0.1,4.9,0.2,9.7,1,14.5c0,0.1,0.5,0.1,0.5,0c-0.7-4.8-1.1-9.7-1-14.5
					C339.9,670.2,339.4,670.2,339.4,670.3L339.4,670.3z"/>
			</g>
			<g id="XMLID_190_">
				<path id="XMLID_191_" class="st3" d="M345.9,677.2c-0.5,6.2,0,12.4,1.5,18.4c0,0.2,0.5,0.2,0.5,0c-1.5-6-2-12.1-1.5-18.3
					C346.4,677,345.9,677,345.9,677.2L345.9,677.2z"/>
			</g>
			<g id="XMLID_188_">
				<path id="XMLID_189_" class="st3" d="M350.7,683.5c1.2,7.9,2.6,15.7,4.3,23.5c0,0.2,0.5,0.2,0.5,0c-1.7-7.8-3.1-15.6-4.3-23.4
					C351.1,683.4,350.6,683.4,350.7,683.5L350.7,683.5z"/>
			</g>
			<g id="XMLID_186_">
				<path id="XMLID_187_" class="st3" d="M320.6,664.1c3.2,1.4,6.3,3.1,9.1,5.1c0.1,0.1,0.6,0,0.4-0.1c-2.9-2-6-3.8-9.2-5.2
					C320.9,664,320.4,664,320.6,664.1L320.6,664.1z"/>
			</g>
			<g id="XMLID_183_">
				<path id="XMLID_185_" class="st3" d="M328.8,674.7c3.2,1.8,6.2,4,9.1,6.4c0.1,0.1,0.6,0,0.4-0.1c-2.8-2.4-5.9-4.6-9.1-6.4
					C329,674.4,328.5,674.5,328.8,674.7L328.8,674.7z"/>
			</g>
			<g id="XMLID_181_">
				<path id="XMLID_182_" class="st3" d="M336.6,686.3c3.3,0.7,5.4,3.5,8.1,5.2c0.1,0.1,0.6,0,0.4-0.1c-2.8-1.8-5-4.5-8.3-5.3
					C336.5,686,336.3,686.2,336.6,686.3L336.6,686.3z"/>
			</g>
			<g id="XMLID_175_">
				<path id="XMLID_176_" class="st3" d="M339.9,693.3c3.9,1.4,6.4,4.4,10.1,6.2c0.1,0,0.6,0,0.4-0.1c-2-1-3.6-2.5-5.4-3.8
					c-1.5-1.1-3-1.8-4.7-2.4C340.1,693.2,339.6,693.2,339.9,693.3L339.9,693.3z"/>
			</g>
			<g id="XMLID_173_">
				<path id="XMLID_174_" class="st3" d="M345.3,701.3c3.2,1.8,6.9,3.3,9.6,5.8c0.1,0.1,0.6,0.1,0.4-0.1c-2.7-2.6-6.4-4.1-9.7-5.9
					C345.6,701.2,345.1,701.2,345.3,701.3L345.3,701.3z"/>
			</g>
		</g>
		<g id="XMLID_78_" class="st10">
			<g id="XMLID_166_">
				<path id="XMLID_168_" class="st3" d="M362.1,646.3c4.1,22.3,3.6,45.1,5.7,67.6c0,0.2,0.4,0.4,0.4,0.2
					c-2.1-22.5-1.7-45.3-5.7-67.6C362.5,646.3,362.1,646.1,362.1,646.3L362.1,646.3z"/>
			</g>
			<g id="XMLID_164_">
				<path id="XMLID_165_" class="st3" d="M367.3,650.1c-1.4,3-2.5,6.1-3.3,9.3c-0.1,0.2,0.4,0.4,0.4,0.2c0.8-3.2,1.8-6.2,3.2-9.2
					C367.8,650.2,367.3,649.9,367.3,650.1L367.3,650.1z"/>
			</g>
			<g id="XMLID_160_">
				<path id="XMLID_162_" class="st3" d="M370.7,657.5c-2.5,3.8-4.4,7.9-5.7,12.2c0,0.1,0.4,0.4,0.4,0.2c1.3-4.4,3.1-8.4,5.7-12.2
					C371.2,657.6,370.8,657.3,370.7,657.5L370.7,657.5z"/>
			</g>
			<g id="XMLID_150_">
				<path id="XMLID_151_" class="st3" d="M372,666.9c-2.5,4.2-4.6,8.5-6.4,13.1c0,0.1,0.4,0.4,0.4,0.3c1.8-4.6,3.9-8.9,6.4-13.1
					C372.5,667,372.1,666.8,372,666.9L372,666.9z"/>
			</g>
			<g id="XMLID_147_">
				<path id="XMLID_149_" class="st3" d="M374.2,676c-3.5,5.2-6.1,10.7-7.8,16.8c-0.1,0.2,0.4,0.4,0.4,0.2c1.7-6,4.3-11.5,7.8-16.7
					C374.7,676.1,374.3,675.8,374.2,676L374.2,676z"/>
			</g>
			<g id="XMLID_144_">
				<path id="XMLID_146_" class="st3" d="M375.2,683.9c-2.9,7.4-5.5,14.9-7.9,22.5c-0.1,0.2,0.4,0.4,0.4,0.2
					c2.4-7.6,5-15.1,7.9-22.5C375.7,684,375.3,683.7,375.2,683.9L375.2,683.9z"/>
			</g>
			<g id="XMLID_140_">
				<path id="XMLID_142_" class="st3" d="M358.7,652.1c2.1,2.8,3.9,5.8,5.4,9c0.1,0.1,0.5,0.3,0.4,0.2c-1.5-3.2-3.3-6.2-5.4-9.1
					C359,652.1,358.6,651.9,358.7,652.1L358.7,652.1z"/>
			</g>
			<g id="XMLID_138_">
				<path id="XMLID_139_" class="st3" d="M360.6,665.3c1.9,3.2,3.5,6.5,4.7,10c0.1,0.1,0.5,0.3,0.4,0.1c-1.3-3.5-2.8-6.9-4.7-10.1
					C360.9,665.2,360.5,665.1,360.6,665.3L360.6,665.3z"/>
			</g>
			<g id="XMLID_131_">
				<path id="XMLID_133_" class="st3" d="M361.6,679.3c2.5,2.3,2.9,5.7,4.5,8.6c0.1,0.1,0.5,0.3,0.4,0.1c-1.6-2.9-2.1-6.4-4.6-8.7
					C361.7,679,361.4,679,361.6,679.3L361.6,679.3z"/>
			</g>
			<g id="XMLID_94_">
				<path id="XMLID_95_" class="st3" d="M361,687c2.7,3.2,3.4,7.1,5.7,10.4c0.1,0.1,0.5,0.3,0.4,0.1c-1.3-1.9-1.9-4-2.8-6
					c-0.7-1.7-1.7-3-2.9-4.4C361.3,687,360.8,686.8,361,687L361,687z"/>
			</g>
			<g id="XMLID_92_">
				<path id="XMLID_93_" class="st3" d="M361.7,696.7c1.9,3.1,4.3,6.3,5.4,9.8c0,0.1,0.5,0.3,0.4,0.2c-1.1-3.6-3.5-6.8-5.5-9.9
					C362,696.7,361.6,696.5,361.7,696.7L361.7,696.7z"/>
			</g>
		</g>
	</g>
	<path id="XMLID_249_" class="st3" d="M355,721.1c0.6-2.6,1.7-4.2,1.7-4.2c2.4,0.8,4.3,1.9,5.9,3.2c0.1-0.1,0.3-0.1,0.4-0.2
		c-1.7-9.9,5.6-14.3,5.6-14.3c2.7,2.4,4.4,5,5.3,7.7c3.1-8.4,10.6-10.2,10.6-10.2c1.4,2.2,2.3,4.4,2.8,6.6c0.5-0.2,1-0.4,1.5-0.6
		c-5.4-8.5-0.4-15.3-0.4-15.3c4.7,1.5,7.7,4.2,9.6,7.3c2.8-7.8,9.9-8.9,9.9-8.9c1.6,3.2,2.2,6.2,2,9c0.9-0.3,1.8-0.6,2.7-0.9
		c1.7-4.5,5.1-6.5,5.1-6.5c1.5,1.3,2.6,2.7,3.5,4.1c0.4-0.1,0.9-0.2,1.3-0.3c2.2-9.4,10.2-10.8,10.2-10.8c1.7,3.3,2.3,6.4,2.2,9.2
		c0.5,0,1.1,0,1.6,0c0-6.2,4-9.7,4-9.7c5,3,7.3,7.2,8.2,11.3c0.2,0.1,0.4,0.1,0.7,0.2c0.6-1.7,1.3-2.6,1.3-2.6
		c3.7,1.2,6.3,3.2,8.2,5.5c2.5-5.1,7.2-6.6,7.2-6.6c3.5,4.9,3.9,9.8,3,14.1c0.1,0.1,0.2,0.1,0.3,0.2c4.5-2.9,9-2.1,9-2.1
		c0.3,2.5,0.1,4.7-0.4,6.7c0.7,0.3,1.4,0.6,2.2,0.9c2.6-4.3,6.6-5.6,6.6-5.6c1.2,1.7,2.1,3.4,2.6,5.1c3.4-1.7,6.3-1.4,6.3-1.4
		c0.3,1.5,0.5,2.9,0.5,4.3c2.6-0.1,5.2-0.3,7.9-0.5c2.6-4.2,6.5-5.4,6.5-5.4c1.1,1.6,1.9,3.1,2.5,4.7c3.4-4,7.6-5,7.6-5
		c1.3,2.1,2.1,4.1,2.7,6.1c0.6,0.1,1.1,0.3,1.7,0.4c4.6-3.2,9.3-2.3,9.3-2.3c0.3,2.4,0.2,4.5-0.3,6.4c0.4,0.3,0.8,0.6,1.1,0.8H355z"
		/>
	<path id="XMLID_252_" class="st3" d="M239.3,721.1c0.6-2.6,1.7-4.2,1.7-4.2c2.4,0.8,4.3,1.9,5.9,3.2c0.1-0.1,0.3-0.1,0.4-0.2
		c-1.7-9.9,5.6-14.3,5.6-14.3c2.7,2.4,4.4,5,5.3,7.7c3.1-8.4,10.6-10.2,10.6-10.2c1.4,2.2,2.3,4.4,2.8,6.6c0.5-0.2,1-0.4,1.5-0.6
		c-5.4-8.5-0.4-15.3-0.4-15.3c4.7,1.5,7.7,4.2,9.6,7.3c2.8-7.8,9.9-8.9,9.9-8.9c1.6,3.2,2.2,6.2,2,9c0.9-0.3,1.8-0.6,2.7-0.9
		c1.7-4.5,5.1-6.5,5.1-6.5c1.5,1.3,2.6,2.7,3.5,4.1c0.4-0.1,0.9-0.2,1.3-0.3c2.2-9.4,10.2-10.8,10.2-10.8c1.7,3.3,2.3,6.4,2.2,9.2
		c0.5,0,1.1,0,1.6,0c0-6.2,4-9.7,4-9.7c5,3,7.3,7.2,8.2,11.3c0.2,0.1,0.4,0.1,0.7,0.2c0.6-1.7,1.3-2.6,1.3-2.6
		c3.7,1.2,6.3,3.2,8.2,5.5c2.5-5.1,7.2-6.6,7.2-6.6c3.5,4.9,3.9,9.8,3,14.1c0.1,0.1,0.2,0.1,0.3,0.2c4.5-2.9,9-2.1,9-2.1
		c0.3,2.5,0.1,4.7-0.4,6.7c0.7,0.3,1.4,0.6,2.2,0.9c2.6-4.3,6.6-5.6,6.6-5.6c1.2,1.7,2.1,3.4,2.6,5.1c3.4-1.7,6.3-1.4,6.3-1.4
		c0.3,1.5,0.5,2.9,0.5,4.3c2.6-0.1,5.2-0.3,7.9-0.5c2.6-4.2,6.5-5.4,6.5-5.4c1.1,1.6,1.9,3.1,2.5,4.7c3.4-4,7.6-5,7.6-5
		c1.3,2.1,2.1,4.1,2.7,6.1c0.6,0.1,1.1,0.3,1.7,0.4c4.6-3.2,9.3-2.3,9.3-2.3c0.3,2.4,0.2,4.5-0.3,6.4c0.4,0.3,0.8,0.6,1.1,0.8H239.3
		z"/>
</g>
<g>
	
		<linearGradient id="SVGID_7_" gradientUnits="userSpaceOnUse" x1="197.4952" y1="295.0643" x2="189.0754" y2="205.2526" gradientTransform="matrix(0.2858 -0.9583 0.9583 0.2858 -237.9124 794.4628)">
		<stop  offset="0" style="stop-color:#2329F0"/>
		<stop  offset="0.15" style="stop-color:#332DE7"/>
		<stop  offset="0.4427" style="stop-color:#5C39CF"/>
		<stop  offset="0.8455" style="stop-color:#9F4BAA"/>
		<stop  offset="1" style="stop-color:#BA539A"/>
	</linearGradient>
	<path class="st12" d="M77.6,673.2c-3.1,6.7,2.3,11.6,4.6,13.3c-4.2-0.1-8.3-0.4-12.5-0.9c2.4-11.9-5.7-12.9-5.7-12.9
		c-2.8,6,1.3,10.6,3.8,12.6c-4.2-0.6-8.4-1.5-12.5-2.6c2.6-12.2-5.6-13.2-5.6-13.2c-2.8,6.1,1.5,10.7,3.9,12.7
		c-4.1-1.2-8.2-2.6-12.2-4.2c2.5-12-5.6-13.1-5.6-13.1c-2.5,5.4,0.6,9.6,3,12c-3.7-1.6-7.3-3.4-10.8-5.4c2.5-12.1-5.6-13.1-5.6-13.1
		c-2.2,4.7-0.1,8.6,2.1,11c-2.2-1.4-4.4-2.8-6.5-4.4c-4.7-10.7-11.8-7.1-11.8-7.1c1.2,7.4,8.8,8.3,11.4,8.4c2.4,1.7,4.8,3.3,7.3,4.8
		c-9.4-3.4-11.9,3.3-11.9,3.3c6.3,5,13-0.5,14.5-1.8c3.7,2.1,7.4,4,11.3,5.7c-10.4-2.3-11.9,4.9-11.9,4.9c7.1,4.1,12.9-2.6,14.1-4
		c3.8,1.5,7.6,2.9,11.6,4c-10.5,0.4-10.2,7.8-10.2,7.8c7.5,2,11.5-5,12.5-7.1c3.9,1,7.9,1.9,11.9,2.5c-9.8,3.4-7.3,10.3-7.3,10.3
		c7.3-0.2,9.3-7.2,9.8-10c4,0.5,8.1,0.9,12.1,1c-9.2,5.9-5,12.1-5,12.1c7-2,7.2-9.3,7-12.1c5.6,0.1,11.2-0.3,16.8-1.1
		c0.8-0.1,0.7-1.4-0.1-1.2c-5.6,0.8-11.2,1.1-16.8,1.1C85.9,674.2,77.6,673.2,77.6,673.2z"/>
	
		<linearGradient id="SVGID_8_" gradientUnits="userSpaceOnUse" x1="743.4606" y1="618.1542" x2="735.0402" y2="528.3362" gradientTransform="matrix(-0.9751 0.2215 0.2215 0.9751 709.4719 -86.609)">
		<stop  offset="0" style="stop-color:#2329F0"/>
		<stop  offset="0.15" style="stop-color:#332DE7"/>
		<stop  offset="0.4427" style="stop-color:#5C39CF"/>
		<stop  offset="0.8455" style="stop-color:#9F4BAA"/>
		<stop  offset="1" style="stop-color:#BA539A"/>
	</linearGradient>
	<path class="st13" d="M106.7,656.2c6.8-2.6,11.4,3.1,12.9,5.4c0.2-4.2,0.2-8.3-0.1-12.5c-12,1.6-12.5-6.5-12.5-6.5
		c6.1-2.4,10.4,2,12.4,4.6c-0.3-4.3-0.9-8.5-1.7-12.7c-12.3,1.8-12.8-6.5-12.8-6.5c6.2-2.4,10.6,2.2,12.5,4.8
		c-0.9-4.2-2-8.3-3.4-12.4c-12.2,1.7-12.7-6.5-12.7-6.5c5.5-2.1,9.6,1.2,11.7,3.8c-1.4-3.8-2.9-7.5-4.7-11.2
		c-12.2,1.7-12.7-6.5-12.7-6.5c4.8-1.9,8.6,0.5,10.8,2.8c-1.2-2.3-2.5-4.6-3.9-6.8c-10.4-5.4-6.3-12.2-6.3-12.2
		c7.3,1.7,7.7,9.4,7.6,12c1.5,2.5,3,5,4.3,7.6c-2.7-9.6,4.1-11.6,4.1-11.6c4.6,6.6-1.3,13-2.7,14.3c1.8,3.8,3.5,7.7,4.9,11.7
		c-1.6-10.5,5.7-11.5,5.7-11.5c3.6,7.3-3.5,12.7-4.9,13.8c1.3,3.9,2.4,7.8,3.2,11.8c1.1-10.5,8.4-9.6,8.4-9.6
		c1.5,7.6-5.7,11.1-7.9,12c0.8,4,1.4,8,1.7,12c4.1-9.5,10.8-6.6,10.8-6.6c-0.7,7.3-7.8,8.8-10.6,9.1c0.3,4,0.3,8.1,0.2,12.2
		c6.5-8.8,12.4-4.2,12.4-4.2c-2.5,6.9-9.8,6.6-12.5,6.2c-0.3,5.6-1,11.1-2.2,16.7c-0.2,0.8-1.4,0.6-1.2-0.2
		c1.1-5.5,1.9-11.1,2.2-16.7C107.2,664.4,106.7,656.2,106.7,656.2z"/>
	<g id="XMLID_535_">
		<g id="XMLID_548_">
			<path class="st14" d="M59.6,624.4c-4.3-2.6-9-4.7-13.8-6.1c-1.6-0.5-5.4-2.1-7-1.3c-1.8,0.9-2.1,4.7-2.2,6.4
				c-0.7,12.3,4.5,24.2,10.3,35.1c4.6,8.6,9.6,17,16.2,24c0.9,1,1.9,1.9,2.9,2.9c7.9,7.3,17.2,12.9,27.1,17c5.4,2.3,17,7.9,20.9,0.6
				c1.3-2.5,1-5.7-0.1-8.3c-1.1-2.6-2.9-4.9-4.7-7.2c-4.7-6.1-9.6-12-13.6-18.5c-4.7-7.5-8.4-15.6-13.3-22.9c-0.2-0.3-0.5-0.7-0.7-1
				C75.9,636.9,68.4,629.6,59.6,624.4z"/>
		</g>
		<path class="st15" d="M66.2,656.8C66.2,656.8,66.2,656.8,66.2,656.8c-1.6-6.8-3.8-13.3-6.5-19.7c-0.1-0.3-0.8,0.1-0.7,0.4
			c2.5,5.9,4.5,11.9,6,18c-6.7-7.9-12.7-16.4-17.4-25.7c-0.2-0.3-0.9-0.3-0.7,0.2c3.9,7.7,8.6,14.8,13.9,21.5
			c-6.9-2-13.1-5.7-18.2-10.8c-0.3-0.3-1-0.1-0.6,0.3c5.4,5.5,12,9.3,19.5,11.4c1.3,1.6,2.5,3.1,3.8,4.6c0,0,0,0.1,0,0.1
			c0,0.1,0.1,0.1,0.2,0.1c2.3,2.7,4.7,5.3,7.1,7.9c1.3,1.4,2.7,2.8,4,4.2c-3.1,0.1-6.2,0.1-9.2-0.4c-3.1-0.6-6.1-1.8-9-3.1
			c-0.3-0.1-0.9,0.3-0.5,0.5c3,1.3,5.9,2.6,9.1,3.2c3.3,0.6,6.7,0.5,10,0.5c0,0,0.1,0,0.1,0c5.1,5.2,10.2,10.4,15.4,15.5
			c-8.5-0.5-16.8-2.4-24.7-5.7c-0.3-0.1-0.9,0.2-0.5,0.4c8.2,3.4,16.8,5.4,25.7,5.9c3.8,3.7,7.6,7.5,11.3,11.2
			c0.3,0.3,0.9,0,0.5-0.3c-5.9-5.9-11.8-11.7-17.7-17.6c-2.9-8.8-6.9-17.2-11.9-25c-0.1-0.2-0.7-0.2-0.7-0.3
			c4.9,7.6,8.8,15.8,11.7,24.4c-4.2-4.2-8.3-8.4-12.4-12.7C71.5,662.7,68.8,659.8,66.2,656.8z"/>
	</g>
	<g id="XMLID_456_">
		<g id="XMLID_549_">
			<path class="st14" d="M85.2,630c0.5-4.2,1.4-8.4,3-12.3c0.5-1.3,1.4-4.7,2.7-5.3c1.5-0.7,4.2,1,5.4,1.8
				c8.7,5.8,14,15.4,18.3,24.8c3.4,7.4,6.5,15.1,7.8,23.2c0.2,1.1,0.3,2.3,0.5,3.4c0.9,9-0.2,18.1-2.4,26.9
				c-1.2,4.8-3.4,15.5-10.3,14.3c-2.4-0.4-4.3-2.2-5.5-4.3c-1.2-2.1-1.8-4.5-2.4-6.8c-1.7-6.2-3.2-12.5-5.5-18.6
				c-2.6-7-6.2-13.6-8.6-20.6c-0.1-0.3-0.2-0.6-0.3-1C85.3,647.3,84.2,638.5,85.2,630z"/>
		</g>
		<path class="st15" d="M104,650.8c0-0.1,0.1-0.1,0-0.2c0,0,0,0-0.1-0.1c-0.4-1.7-0.7-3.3-1.2-4.9c2.4-6,3.2-12.4,2.3-18.9
			c-0.1-0.4-0.5,0-0.5,0.3c0.8,6.1,0.1,12.1-2,17.8c-1.8-7-4.1-13.8-7.3-20.3c-0.2-0.4-0.6,0.1-0.4,0.4c3.9,7.9,6.4,16.2,8.3,24.7
			c-3.3-4.2-6.3-8.6-9-13.2c-0.1-0.2-0.7,0-0.6,0.2c2.9,5.1,6.2,9.8,9.9,14.4c0,0,0,0,0,0c0.7,3.3,1.3,6.6,1.8,9.9
			c0.8,4.9,1.5,9.9,2.2,14.8c-4.3-6.3-7.7-13.1-10.4-20.3c0,0-0.2,0.4-0.2,0.6c2.7,7.4,6.3,14.3,10.7,20.8
			c0.9,6.9,1.8,13.9,2.8,20.8c0.1,0.4,0.5,0.1,0.5-0.2c-0.6-4.4-1.2-8.9-1.8-13.3c4.2-6.2,7.3-13,9.2-20.3c0.1-0.4-0.5-0.1-0.5,0.1
			c-1.8,7-4.7,13.5-8.8,19.5c-0.8-6.1-1.6-12.2-2.6-18.2c0,0,0.1,0,0.1-0.1c1.7-2.2,3.5-4.4,4.8-6.9c1.2-2.4,1.9-5.1,2.5-7.7
			c0.1-0.3-0.5-0.1-0.6,0.1c-0.6,2.6-1.3,5.2-2.5,7.6c-1.2,2.3-2.8,4.4-4.4,6.4c-0.3-1.6-0.5-3.3-0.8-4.9
			C105.2,656.6,104.7,653.7,104,650.8z"/>
	</g>
	<g id="XMLID_397_">
		<g id="XMLID_534_">
			<path class="st16" d="M115.7,697.6c1.3,5.3,0.8,11.1-1.9,15.4c-1.2,1.9-2.4,3.9-4.2,5.3c-7.4,6.4-15.6,2.2-22.2-2.2
				c-1.7-1.1-3.5-2.3-5.5-2.3c-2.5,0-4.7,1.5-7.1,2c-3,0.6-6.3,0.3-9.2-0.8c-2.8-1-5.4-2.7-7.1-5.1c-3.9-5.5-1.9-13.8,3.5-17.9
				c5.4-4,13.1-4,19.1-0.9c1.2,0.6,2.6,1.4,3.9,1.1c1-0.2,1.8-1,2.5-1.8c1.3-1.3,2.5-2.7,4-3.8c3.9-2.8,9.2-3.6,13.7-1.8
				C110.7,686.9,114.3,692,115.7,697.6z"/>
		</g>
		<g id="XMLID_491_" class="st10">
			<g id="XMLID_532_">
				<path id="XMLID_533_" class="st3" d="M65,704.8c6.5-3.2,14.1-3.4,21.2-3.7c7.3-0.4,14.7-0.2,21.6,2.6c0.1,0.1,0.5-0.6,0.5-0.6
					c-7.2-2.9-14.9-3-22.6-2.5c-6.8,0.4-14,0.6-20.2,3.7C65.2,704.3,65.1,704.7,65,704.8L65,704.8z"/>
			</g>
			<g id="XMLID_530_">
				<path id="XMLID_531_" class="st3" d="M81.5,700.8c-4.4-1.5-8.9-2.9-13.5-4c-0.2,0-0.6,0.5-0.5,0.5c4.6,1.1,9.1,2.5,13.5,4
					C81.2,701.3,81.6,700.8,81.5,700.8L81.5,700.8z"/>
			</g>
			<g id="XMLID_528_">
				<path id="XMLID_529_" class="st3" d="M70.6,710.3c3.2-3.3,6.7-6.3,10.5-8.8c0.2-0.1,0.1-0.9-0.1-0.7c-3.9,2.6-7.4,5.5-10.6,8.9
					C70.2,709.8,70.3,710.6,70.6,710.3L70.6,710.3z"/>
			</g>
			<g id="XMLID_526_">
				<path id="XMLID_527_" class="st3" d="M88.5,708.3c3.3-2.3,6.7-4.6,10-7c0.2-0.1,0.3-0.8,0.1-0.7c-3.3,2.3-6.7,4.6-10,7
					C88.5,707.8,88.3,708.5,88.5,708.3L88.5,708.3z"/>
			</g>
			<g id="XMLID_494_">
				<path id="XMLID_525_" class="st3" d="M86.9,694.5c4.4,1.9,8.6,4.2,12.5,6.9c0.3,0.2,0.9-0.3,0.5-0.6c-4-2.8-8.2-5.2-12.6-7
					C86.9,693.7,86.5,694.3,86.9,694.5L86.9,694.5z"/>
			</g>
		</g>
	</g>
	<g id="XMLID_27_">
		<g id="XMLID_91_">
			<path class="st17" d="M106.8,706.5c5.3,1.3,11.1,0.8,15.4-1.9c1.9-1.2,3.9-2.4,5.4-4.1c6.4-7.3,2.3-15.6-2.2-22.2
				c-1.1-1.7-2.3-3.5-2.2-5.5c0-2.5,1.5-4.7,2-7.1c0.6-3,0.3-6.3-0.8-9.2c-1-2.8-2.7-5.4-5.1-7.1c-5.5-3.9-13.8-1.9-17.9,3.5
				c-4,5.4-4,13.1-1,19.1c0.6,1.2,1.4,2.6,1.1,3.9c-0.2,1-1,1.8-1.8,2.5c-1.4,1.3-2.7,2.5-3.8,4c-2.9,3.9-3.6,9.2-1.9,13.7
				C96.1,701.5,101.1,705.1,106.8,706.5z"/>
		</g>
		<g id="XMLID_80_" class="st10">
			<g id="XMLID_89_">
				<path id="XMLID_90_" class="st3" d="M114.1,655.8c-3.2,6.5-3.4,14.1-3.8,21.2c-0.4,7.3-0.2,14.7,2.5,21.6
					c0.1,0.1-0.6,0.5-0.6,0.5c-2.9-7.2-2.9-15-2.5-22.6c0.4-6.8,0.6-14,3.8-20.2C113.6,656.1,114,655.9,114.1,655.8L114.1,655.8z"/>
			</g>
			<g id="XMLID_87_">
				<path id="XMLID_88_" class="st3" d="M110,672.4c-1.5-4.4-2.9-9-4-13.5c0-0.2,0.5-0.6,0.5-0.5c1.1,4.6,2.5,9.1,4,13.5
					C110.6,672,110.1,672.5,110,672.4L110,672.4z"/>
			</g>
			<g id="XMLID_85_">
				<path id="XMLID_86_" class="st3" d="M119.6,661.5c-3.4,3.2-6.3,6.7-8.9,10.5c-0.1,0.2-0.9,0.1-0.7-0.1c2.6-3.9,5.5-7.4,8.9-10.6
					C119.1,661.1,119.8,661.2,119.6,661.5L119.6,661.5z"/>
			</g>
			<g id="XMLID_83_">
				<path id="XMLID_84_" class="st3" d="M117.5,679.4c-2.3,3.3-4.7,6.6-7,10c-0.1,0.2-0.8,0.3-0.7,0.1c2.3-3.3,4.7-6.6,7-10
					C117,679.3,117.7,679.2,117.5,679.4L117.5,679.4z"/>
			</g>
			<g id="XMLID_81_">
				<path id="XMLID_82_" class="st3" d="M103.7,677.7c1.8,4.4,4.1,8.6,6.9,12.5c0.2,0.3-0.3,0.9-0.6,0.5c-2.8-4-5.1-8.2-7-12.7
					C102.9,677.7,103.5,677.3,103.7,677.7L103.7,677.7z"/>
			</g>
		</g>
	</g>
</g>
<g id="XMLID_14_">
	
		<rect id="XMLID_135_" x="102.6" y="536.8" transform="matrix(-1 -4.488733e-11 4.488733e-11 -1 248.535 1257.7913)" class="st18" width="43.3" height="184.3"/>
	<g id="XMLID_134_">
		<path class="st8" d="M145.7,629c0-23,0-45.9,0-68.9c0-5.6,0-11.2,0-16.8c0-0.8,0.2-6.7,0.3-6.5c-1.7-1.6-12.2,0-14.4,0
			c-7.1,0-14.3,0-21.4,0c-1.6,0-6.5-0.7-7.3,0.4c-0.7,0.8,0,5.1,0,6.1c0,9.6,0,19.1,0,28.7c0,29.7,0,59.5,0,89.2
			c0,19.9,0,39.9,0,59.8c0,0.1-0.5,0-0.5-0.1c0-53.8,0-107.6,0-161.4c0-7.6,0-15.3,0-22.9c0,0,0.1,0,0.1,0c14.4,0,28.9,0,43.3,0
			c0.1,0,0.4,0,0.4,0.2c0,30.8,0,61.6,0,92.3C146.2,629.2,145.7,629.2,145.7,629L145.7,629z"/>
	</g>
</g>
<g id="XMLID_1693_">
	
		<rect id="XMLID_1683_" x="250.6" y="544.1" transform="matrix(-1 -4.494950e-11 4.494950e-11 -1 534.4875 1265.2465)" class="st14" width="33.3" height="177"/>
	<g id="XMLID_4_">
		<path class="st8" d="M283.6,657c0-11.3,0-22.7,0-34c0-0.1,0.5-0.1,0.5,0.1c0,11.3,0,22.7,0,34C284.1,657.3,283.6,657.2,283.6,657
			L283.6,657z"/>
	</g>
	<g id="XMLID_2_">
		<path class="st8" d="M283.6,614.9c0-22.4,0-44.7,0-67.1c0-3.7,0.8-3.6-2.9-3.5c-6.5,0.2-13.1,0-19.7,0c-1.7,0-9.3-0.8-10.2,0.2
			c-0.6,0.7,0,4.6,0,5.5c0,50.7,0,101.5,0,152.2c0,4.4,0,8.9,0,13.3c0,0.9-0.6,5,0,5.7c0.8,0.9,13.2-0.1,15.5-0.1
			c5.8,0,11.6,0,17.4,0c0.2,0,0.5,0.3,0.2,0.3c-11.1,0-22.2,0-33.3,0c-0.1,0-0.3-0.1-0.3-0.2c0-51.6,0-103.1,0-154.7
			c0-7.4,0-14.9,0-22.3c0-0.1,0.1-0.1,0.1-0.1c11.1,0,22.2,0,33.3,0c0.1,0,0.3,0.1,0.3,0.2c0,23.6,0,47.2,0,70.8
			C284.1,615.1,283.6,615,283.6,614.9L283.6,614.9z"/>
	</g>
	
		<rect id="XMLID_1684_" x="263.7" y="557.8" transform="matrix(-1 -4.492108e-11 4.492108e-11 -1 536.278 1124.4016)" class="st19" width="8.8" height="8.8"/>
	
		<rect id="XMLID_1685_" x="263.7" y="575.4" transform="matrix(-1 -4.512802e-11 4.512802e-11 -1 536.278 1159.5493)" class="st19" width="8.8" height="8.8"/>
	
		<rect id="XMLID_1686_" x="263.7" y="593" transform="matrix(-1 -4.492108e-11 4.492108e-11 -1 536.278 1194.6968)" class="st19" width="8.8" height="8.8"/>
	
		<rect id="XMLID_1687_" x="263.7" y="610.5" transform="matrix(-1 -4.492108e-11 4.492108e-11 -1 536.278 1229.8434)" class="st19" width="8.8" height="8.8"/>
	
		<rect id="XMLID_1688_" x="263.7" y="628.1" transform="matrix(-1 -4.492108e-11 4.492108e-11 -1 536.278 1264.9905)" class="st19" width="8.8" height="8.8"/>
	
		<rect id="XMLID_1689_" x="263.7" y="645.7" transform="matrix(-1 -4.471413e-11 4.471413e-11 -1 536.278 1300.1379)" class="st19" width="8.8" height="8.8"/>
	
		<rect id="XMLID_1690_" x="263.7" y="663.2" transform="matrix(-1 -4.471413e-11 4.471413e-11 -1 536.278 1335.2853)" class="st19" width="8.8" height="8.8"/>
	
		<rect id="XMLID_1691_" x="263.7" y="680.8" transform="matrix(-1 -4.471413e-11 4.471413e-11 -1 536.278 1370.4323)" class="st19" width="8.8" height="8.8"/>
	
		<rect id="XMLID_1692_" x="263.7" y="698.4" transform="matrix(-1 -4.471413e-11 4.471413e-11 -1 536.278 1405.5792)" class="st19" width="8.8" height="8.8"/>
</g>
<g id="XMLID_1698_">
	
		<rect id="XMLID_1695_" x="217.9" y="544.8" transform="matrix(-1 -4.489532e-11 4.489532e-11 -1 468.9771 1265.8717)" class="st19" width="33.3" height="176.4"/>
	<g id="XMLID_6_">
		<path class="st8" d="M217.6,617.7c0-24.3,0-48.7,0-73c0-0.1,0.1,0,0.1,0c11.1,0,22.2,0,33.3,0c0.1,0,0.5,0.2,0.2,0.2
			c-9.6,0-19.3,0-28.9,0c-3.5,0-3.3-0.7-4.2,1.6c-1.1,3,0,8.8,0,12c0,19.8,0,39.6,0,59.4C218.1,618,217.6,617.9,217.6,617.7
			L217.6,617.7z"/>
	</g>
	<g id="XMLID_3_">
		<path class="st8" d="M251.2,721.2c-11.1,0-22.2,0-33.3,0c-0.1,0-0.3-0.1-0.3-0.2c0-32.5,0-64.9,0-97.4c0-0.1,0.5,0,0.5,0.1
			c0,24.1,0,48.2,0,72.4c0,5.9,0,11.8,0,17.6c0,0.9-0.3,7.1-0.2,7.2c0.6,0.6,4.5,0,5.4,0c4,0,8,0,11.9,0c5.3,0,10.6,0,15.8,0
			C251.2,721,251.5,721.2,251.2,721.2L251.2,721.2z"/>
	</g>
	
		<linearGradient id="XMLID_65_" gradientUnits="userSpaceOnUse" x1="960.8795" y1="580.9007" x2="994.1434" y2="580.9007" gradientTransform="matrix(-1 0 0 1 1212 0)">
		<stop  offset="0" style="stop-color:#150D9C"/>
		<stop  offset="0.2082" style="stop-color:#1E13A5"/>
		<stop  offset="0.5556" style="stop-color:#3824BF"/>
		<stop  offset="0.9971" style="stop-color:#623FE9"/>
		<stop  offset="1" style="stop-color:#623FE9"/>
	</linearGradient>
	<polygon id="XMLID_1696_" class="st20" points="217.9,594.1 251.1,594.1 251.1,567.7 217.9,567.7 	"/>
	
		<linearGradient id="XMLID_66_" gradientUnits="userSpaceOnUse" x1="960.8795" y1="684.8843" x2="994.1434" y2="684.8843" gradientTransform="matrix(-1 0 0 1 1212 0)">
		<stop  offset="0" style="stop-color:#150D9C"/>
		<stop  offset="0.2082" style="stop-color:#1E13A5"/>
		<stop  offset="0.5556" style="stop-color:#3824BF"/>
		<stop  offset="0.9971" style="stop-color:#623FE9"/>
		<stop  offset="1" style="stop-color:#623FE9"/>
	</linearGradient>
	<polygon id="XMLID_1697_" class="st21" points="217.9,698.1 251.1,698.1 251.1,671.7 217.9,671.7 	"/>
</g>
<g id="XMLID_21_">
	
		<rect id="XMLID_29_" x="342.5" y="537.7" transform="matrix(-0.9664 0.2571 -0.2571 -0.9664 869.1024 1144.0625)" class="st19" width="34.4" height="182.4"/>
	<g id="XMLID_28_">
		<path class="st8" d="M372.1,609.3c-5.3-19.8-10.5-39.6-15.8-59.4c-1-3.7-1.5-8-3-11.5c-1.2-2.8-0.2-1.9-4.2-0.9
			c-9.7,2.6-19.4,5.2-29.2,7.8c-0.1,0-0.5-0.2-0.4-0.2c11.1-2.9,22.2-5.9,33.2-8.8c0.1,0,0.4,0,0.4,0.1c6.5,24.3,12.9,48.7,19.4,73
			C372.6,609.5,372.1,609.4,372.1,609.3L372.1,609.3z"/>
	</g>
	<g id="XMLID_26_">
		<path class="st8" d="M366.4,721.3c5.5-1.5,11.1-2.9,16.6-4.4c2.2-0.6,15.6-2.5,16.5-4.4c0.5-1-1.5-5.8-1.8-6.9
			c-1.6-6-3.2-12.1-4.8-18.1c-6.4-24.1-12.8-48.2-19.2-72.3c0-0.1,0.4-0.1,0.5,0.1c8.6,32.4,17.3,64.9,25.9,97.3c0,0,0,0.1,0,0.1
			c-11.1,2.9-22.2,5.9-33.2,8.8C366.6,721.5,366.2,721.3,366.4,721.3L366.4,721.3z"/>
	</g>
	<g id="XMLID_145_">
		<path class="st8" d="M362.8,573.5c-11.1,2.9-22.2,5.9-33.2,8.8c-0.2,0.1-0.6-0.2-0.3-0.3c11.1-2.9,22.2-5.9,33.2-8.8
			C362.7,573.2,363.1,573.4,362.8,573.5L362.8,573.5z"/>
	</g>
	<g id="XMLID_143_">
		<path class="st8" d="M332.9,563.9c8.4-2.2,16.9-4.5,25.3-6.7c0.2-0.1,0.6,0.2,0.3,0.3c-8.4,2.2-16.9,4.5-25.3,6.7
			C333,564.2,332.6,564,332.9,563.9L332.9,563.9z"/>
	</g>
	<g id="XMLID_141_">
		<path class="st8" d="M393.1,687.9c-11.1,2.9-22.2,5.9-33.2,8.8c-0.2,0.1-0.6-0.2-0.3-0.3c11.1-2.9,22.2-5.9,33.2-8.8
			C393,687.5,393.4,687.8,393.1,687.9L393.1,687.9z"/>
	</g>
	<g id="XMLID_137_">
		<path class="st8" d="M363.2,678.3c8.4-2.2,16.9-4.5,25.3-6.7c0.2-0.1,0.6,0.2,0.3,0.3c-8.4,2.2-16.9,4.5-25.3,6.7
			C363.3,678.6,362.9,678.3,363.2,678.3L363.2,678.3z"/>
	</g>
</g>
<rect id="XMLID_1710_" x="276.1" y="544.1" transform="matrix(-1 -4.492774e-11 4.492774e-11 -1 560.0187 1265.2465)" class="st22" width="7.7" height="177"/>
<rect id="XMLID_13_" x="216.7" y="544.2" transform="matrix(-1 -4.492774e-11 4.492774e-11 -1 441.1939 1265.4393)" class="st22" width="7.7" height="177"/>
<g id="XMLID_1694_">
	
		<rect id="XMLID_1681_" x="287.7" y="535.5" transform="matrix(-0.9976 6.989144e-02 -6.989144e-02 -0.9976 661.7766 1232.0775)" class="st23" width="43.3" height="184.3"/>
	<g id="XMLID_1_">
		<path class="st8" d="M330.7,626.3c-1.6-22.9-3.2-45.8-4.8-68.7c-0.4-5.6-0.8-11.2-1.2-16.7c-0.1-0.8-0.3-6.7-0.1-6.5
			c-1.8-1.4-12.1,0.9-14.4,1c-7.1,0.5-14.3,1-21.4,1.5c-1.6,0.1-6.5-0.2-7.3,0.9c-0.6,0.9,0.4,5.1,0.4,6.1c0.7,9.5,1.3,19.1,2,28.6
			c2.1,29.7,4.2,59.3,6.2,89c1.4,19.9,2.8,39.8,4.2,59.7c0,0.1-0.5,0-0.5-0.1c-3.8-53.7-7.5-107.3-11.3-161
			c-0.5-7.6-1.1-15.2-1.6-22.8c0,0,0.1,0,0.1,0c14.4-1,28.8-2,43.2-3c0.1,0,0.4,0,0.4,0.1c2.2,30.7,4.3,61.4,6.5,92.1
			C331.2,626.4,330.7,626.4,330.7,626.3L330.7,626.3z"/>
	</g>
	
		<rect id="XMLID_1682_" x="303.1" y="556.8" transform="matrix(-0.9976 6.989220e-02 -6.989220e-02 -0.9976 662.6838 1240.6885)" class="st19" width="13" height="150.2"/>
</g>
<g id="XMLID_5_">
	
		<rect id="XMLID_11_" x="176.3" y="534.4" transform="matrix(-0.9988 -4.984529e-02 4.984529e-02 -0.9988 358.6995 1263.6403)" class="st24" width="37.6" height="185.9"/>
	<g id="XMLID_10_">
		<path class="st8" d="M213.6,629.2c1.1-22.9,2.4-47.5,3.5-70.4c0.3-5.6,0.6-11.2,0.8-16.7c0-0.8,0.5-6.6,0.6-6.5
			c-1.6-1.6-12.2-0.6-14.4-0.7c-7.1-0.4-8.5-0.4-15.7-0.8c-1.6-0.1-6.4-1-7.3,0c-0.7,0.8-0.3,5.1-0.3,6.1c-0.5,9.5-1,19.1-1.4,28.6
			c-1.5,29.7-3,61-4.5,90.7c-1,19.9-2,39.8-3,59.8c0,0.1-0.5,0-0.5-0.2c2.7-53.7,5.4-109.1,8.1-162.8c0.4-7.6,0.8-15.2,1.1-22.8
			c0,0,0.1,0,0.1,0c14.4,0.7,23.1,1.2,37.5,1.9c0.1,0,0.4,0.1,0.4,0.2c-1.5,30.7-3.2,63.1-4.7,93.9
			C214,629.5,213.6,629.4,213.6,629.2L213.6,629.2z"/>
	</g>
	
		<rect id="XMLID_9_" x="184.3" y="549.2" transform="matrix(-0.9988 -4.984163e-02 4.984163e-02 -0.9988 358.8733 1265.7767)" class="st19" width="21.8" height="158.4"/>
	<g id="XMLID_132_">
		<path class="st8" d="M204.7,651.8c0.9-18.6,1.9-37.3,2.8-55.9c0.6-11.8,1.2-23.5,1.8-35.3c0.1-2.5,1.2-7,0.5-9.4
			c-0.7-2.3-2.2-1.3-5.7-1.5c-2.2-0.1-14-2.3-15.5-0.8c-0.4,0.4-0.2,3-0.2,3.5c-0.4,8-0.8,16-1.2,23.9c-1.3,25.8-2.6,51.5-3.9,77.3
			c-0.9,17.8-1.8,35.6-2.7,53.3c0,0.1-0.5,0-0.5-0.1c2.3-46.2,4.6-92.3,6.9-138.5c0.3-6.6,0.7-13.1,1-19.7c0-0.1,0.1-0.1,0.1-0.1
			c7.3,0.4,14.5,0.7,21.8,1.1c0.1,0,0.3,0,0.3,0.2c-1.7,34-3.4,68-5.1,102C205.2,652.1,204.7,652,204.7,651.8L204.7,651.8z"/>
	</g>
</g>
<g id="XMLID_8_">
	
		<rect id="XMLID_33_" x="140.3" y="510.7" transform="matrix(-0.9945 -0.1045 0.1045 -0.9945 248.7294 1243.5388)" class="st19" width="33.3" height="209.1"/>
	<g id="XMLID_32_">
		<path class="st8" d="M169,657.2c1.2-11.3,2.4-22.6,3.6-33.9c0-0.1,0.5,0,0.5,0.2c-1.2,11.3-2.4,22.6-3.6,33.9
			C169.5,657.5,169,657.3,169,657.2L169,657.2z"/>
	</g>
	<g id="XMLID_31_">
		<path class="st8" d="M173.4,615.3c2.3-22.2,8-76.4,10.4-98.7c0.4-3.7,1.2-3.5-2.5-3.8c-6.5-0.5-13-1.4-19.6-2.1
			c-1.7-0.2-9.2-1.8-10.2-0.9c-0.7,0.6-0.5,4.6-0.6,5.5c-5.3,50.5-14,132.9-19.3,183.3c-0.5,4.4-0.9,8.8-1.4,13.2
			c-0.1,0.9-1.1,4.9-0.6,5.7c0.7,1,13.1,1.2,15.4,1.5c5.8,0.6,11.6,1.2,17.3,1.8c0.2,0,0.5,0.3,0.2,0.3c-11-1.2-22.1-2.3-33.1-3.5
			c-0.1,0-0.3-0.1-0.3-0.2c5.4-51.3,10.8-102.5,16.2-153.8c0.8-7.4,4.9-46.8,5.7-54.2c0-0.1,0.1-0.1,0.2-0.1
			c11,1.2,22.1,2.3,33.1,3.5c0.1,0,0.3,0.1,0.3,0.2c-2.5,23.5-8.3,78.9-10.8,102.4C173.9,615.6,173.4,615.5,173.4,615.3L173.4,615.3
			z"/>
	</g>
	
		<linearGradient id="XMLID_67_" gradientUnits="userSpaceOnUse" x1="1031.0016" y1="743.2515" x2="1031.0016" y2="559.5074" gradientTransform="matrix(-0.9945 -0.1045 -0.1045 0.9945 1251.2258 75.4905)">
		<stop  offset="0" style="stop-color:#673AB7"/>
		<stop  offset="0.4457" style="stop-color:#9347A7"/>
		<stop  offset="0.797" style="stop-color:#B0509E"/>
		<stop  offset="1" style="stop-color:#BA539A"/>
	</linearGradient>
	<polygon id="XMLID_22_" class="st25" points="163.1,523.7 171.8,524.6 152.6,707.4 143.9,706.5 	"/>
</g>
<rect id="XMLID_24_" x="323" y="537" transform="matrix(-0.9974 7.159827e-02 -7.159827e-02 -0.9974 697.8636 1231.9937)" class="st22" width="7.7" height="183"/>
<g id="XMLID_239_">
	<g id="XMLID_241_">
		<path class="st24" d="M217.1,490.9c1.6-1.3,2.3,0.2,2.8,1.6c0.6,2,1.7,3.7,2.7,5.5c3.6,6.1,6.3,13.4,7.6,20.3
			c0.6,3.2-1.9,4.4-4.7,3.4c-1.8-0.6-2.1-2.4-2.8-4c-0.7-1.7-1.5-3.4-2.2-5.1c-1.5-3.5-3-6.9-3.9-10.6
			C216,499.2,214.3,493.3,217.1,490.9C217.1,491,217.1,490.9,217.1,490.9z"/>
	</g>
	<path id="XMLID_209_" class="st3" d="M216.5,478.1l-14.9-1.5c-0.3,0-0.5,0.2-0.5,0.5l7.8,31.5l13.1-6.4L216.5,478.1z"/>
	<polygon id="XMLID_230_" class="st26" points="216.8,479.1 202,477.7 209.6,508.2 222.1,502.1 	"/>
	<path id="XMLID_224_" class="st27" d="M216.5,478.1l-13.9,6.1c-0.9,0.4-1.3,1.4-1,2.3l7.5,22.9c0.3,1,1.4,1.4,2.3,1l11.4-5.6
		L216.5,478.1z"/>
	
		<rect id="XMLID_203_" x="330.3" y="535.5" transform="matrix(-1 -4.489843e-11 4.489843e-11 -1 675.4902 1078.8021)" class="st24" width="14.9" height="7.9"/>
	<g id="XMLID_169_">
		<path class="st27" d="M246.2,523.6c2.9-4.4,5-9.3,7.3-14.1c3.4-6.9,8.1-15,15.7-17.9c7.7-3,16.1-0.6,22.2,4.6
			c6.4,5.4,11,12.4,14.7,19.8c2.6,5.2,9.3,16.5,6.1,22.4c-1.4,2.5-5.9,2.3-8,1.4c-3.3-1.5-5.1-4.8-5.9-8.3c-0.6-2.4-0.7-3.9-2-5.9
			c-1.2-1.9-2.1-3.8-3.6-5.4c-3-3.3-7-5.6-11.4-6.4c-1.8-0.3-3.7-0.4-5.5,0.1c-2.7,0.8-4.8,2.8-6.3,5.2c-2.4,3.9-2.4,9.6-5.3,13.1
			c-4.4,5.2-9.7,2.2-15.3,2.2c-2.6,0-14.3,1.3-8.3-4.1C242.8,528.3,244.6,526.1,246.2,523.6z"/>
	</g>
	<g id="XMLID_172_">
		<path class="st27" d="M246.3,526.9c1.3-1.9,3.3-3.3,5.5-4.1c2.6-1,5.3-1.2,8-1.5c9.4-0.7,18.8-0.8,28.1,0.8
			c11.6,2,22.6,6.4,34.2,8.4c3.9,0.7,7.9,1,11.7,2c1.2,0.3,2.5,0.7,3.2,1.7c0.8,1,0.8,2.3,0.7,3.5c-0.2,1.7-0.8,3.5-2,4.8
			c-2.5,2.6-8.8,2.4-12.1,2.1c-10.5-0.9-20.9-3.8-31.5-4.2c-11.7-0.4-23.2,2.4-34.8,4.2c-5.2,0.8-10.9,1.4-15.4-1.3
			c0.7-2.3,1.4-4.5,1.9-6.8c0.6-2.8,0.5-5.8,1.8-8.4C245.8,527.6,246,527.2,246.3,526.9z"/>
	</g>
	<g id="XMLID_156_">
		<path id="XMLID_199_" class="st3" d="M251.7,522.6c5.4-1.8,11.4-1.8,17.1-1.9c5.8-0.1,11.6,0.1,17.3,1c12.3,1.8,23.9,6.5,36.1,8.7
			c0.2,0,0.1,0.4-0.1,0.3c-11.4-2-22.2-6.2-33.5-8.3c-6.1-1.1-12.3-1.5-18.4-1.4c-6,0.1-12.5,0-18.2,1.9
			C251.6,523,251.5,522.7,251.7,522.6L251.7,522.6z"/>
	</g>
	<g id="XMLID_152_">
		<path class="st24" d="M196.2,519c-2.5-1.7-4.1-4.2-5.7-7c-1.3,0.5-2.6,1.2-4,1.5c-1.4,0.3-2.8,0.4-4.2,0.1
			c-1.1-0.2-1.6-0.2-2.6,0.4c-0.6,0.3-1.8,1.3-2.6,1.2c0.8,0.2,3.3,3.1,4,3.6c1.9,1.7,3.9,3.3,5.6,5.2c1.5,1.7,2.3,3.8,4.6,4.7
			c1.2,0.5,2.7,0.4,3.8-0.4c2.2-1.7,3.3-5.1,4.3-7.6C198.2,520.2,197.2,519.6,196.2,519z"/>
	</g>
	<g id="XMLID_163_">
		<path class="st24" d="M173.2,499.8c0-2.1,0.3-4.5,2-5.6c0.8-0.5,1.8-0.7,2.8-0.8c2.5-0.1,5.1,0.4,6.8,2.2c0.8,0.9,1.4,2,2.2,3
			c0.8,0.9,2.2,1.6,3.3,1.1l0.6-0.2c0.7,3.4,4.5,5.2,5.7,8.4c1.2,3.1-0.7,7-3.9,8c-1.2,0.4-2.5,0.4-3.8,0.4c-3.8,0-7.8-0.2-10.8-2.4
			c-2.1-1.5-3.5-3.9-4.2-6.4C173.3,505,173.2,502.4,173.2,499.8z"/>
	</g>
	<g id="XMLID_155_">
		<path id="XMLID_197_" class="st3" d="M178,493.3c2.2,0,4.4,0.2,6.2,1.6c2.1,1.7,3.3,5.4,6.7,4.4c0.1,0,0.2,0,0.2,0.1
			c1.4,4.6,7.6,7.1,5.7,12.6c-1.7,5.1-7.3,4.6-11.7,4.3c-0.2,0-0.2-0.3,0-0.3c4.7,0.3,11.7,0.4,11.6-6.1c0-3.8-3.6-5.8-5.3-8.8
			c-0.1-0.2-0.3-0.9-0.5-1.1c-0.6-0.3-0.6,0.1-1.4,0c-0.7-0.1-1.2-0.2-1.8-0.6c-1.1-0.7-1.6-1.9-2.4-2.9c-1.9-2.3-4.3-2.9-7.2-2.9
			C177.8,493.6,177.8,493.3,178,493.3L178,493.3z"/>
	</g>
	<g id="XMLID_158_">
		
			<linearGradient id="SVGID_9_" gradientUnits="userSpaceOnUse" x1="1046.7201" y1="524.0182" x2="1024.7203" y2="483.0189" gradientTransform="matrix(-1 0 0 1 1212 0)">
			<stop  offset="0" style="stop-color:#0D035C"/>
			<stop  offset="3.077479e-02" style="stop-color:#0E0563"/>
			<stop  offset="0.2983" style="stop-color:#17149F"/>
			<stop  offset="0.5259" style="stop-color:#1E20CB"/>
			<stop  offset="0.7024" style="stop-color:#2226E6"/>
			<stop  offset="0.8061" style="stop-color:#2329F0"/>
		</linearGradient>
		<path class="st28" d="M166.4,500.3c-0.1-0.4-0.1-0.7-0.1-1.1c-0.1-1.6,0.5-3.4,1.9-4.3c0.6-0.4,1.3-0.6,1.7-1.1
			c0.6-0.7,0.4-1.8,0.5-2.7c0.2-1.7,1.5-3.3,3.1-3.8c1.1-0.3,2.3-0.3,3.1-1.2c0.5-0.5,0.6-1.2,0.9-1.9c0.7-1.8,2.8-3.1,4.7-2.7
			c1.9,0.3,3.4,2.4,2.9,4.3c-0.2,0.9-0.9,1.8-0.7,2.7c0.1,0.5,0.4,1,0.7,1.4c0.9,1.6,1.4,3.8,0,5.2c-0.9,0.9-2.2,1.3-3.4,1.8
			c-0.6,0.2-1.3,0.5-1.6,1c-0.6,0.9-0.2,2.2,0.3,3.2c0.4,1,0.7,2.4-0.1,3.2c-0.3,0.3-0.7,0.5-0.9,0.8c-0.2,0.4-0.1,1,0.2,1.3
			c0.7,0.9,3.6,2.1,3,3.5c-0.3,0.8-1.4,0.4-2-0.1s-1.4-1.2-2.1-0.8c-0.4,0.2-0.5,0.8-0.5,1.2c0,1.2,0.4,2.4,1.1,3.3
			c1.2,1.5,2.8,1.6,2.7,3.8c-0.1,1.8-1.2,3.5-3,4.1c-2,0.6-4.1-0.1-5.9-1.2c-3.1-1.9-5.5-5.1-6.3-8.7c-0.4-1.6-0.4-3.5,0.5-4.8
			c0.3-0.5,0.8-0.9,0.9-1.5c0.1-0.5-0.1-1-0.2-1.4C167.1,502.8,166.6,501.6,166.4,500.3z"/>
	</g>
	<g id="XMLID_154_">
		
			<linearGradient id="SVGID_10_" gradientUnits="userSpaceOnUse" x1="979.3982" y1="549.249" x2="1006.3976" y2="504.7499" gradientTransform="matrix(-1 0 0 1 1212 0)">
			<stop  offset="0" style="stop-color:#673AB7"/>
			<stop  offset="0.4108" style="stop-color:#8643AC"/>
			<stop  offset="1" style="stop-color:#BA539A"/>
		</linearGradient>
		<path class="st29" d="M225.7,518.1c-0.3,0.1-0.7,0.1-1,0.1c-2.9-0.2-6-1.8-8.6-2.9c-2.3-1-4.2-2.3-6.7-2.7c-3-0.4-6-0.6-8.9,0.3
			c-3,0.9-5.6,2.8-7.8,5.1c-3.2,3.2-7.2,7.7-4.5,12.4c1,1.7,2.6,3,4.2,4.2c3.6,2.7,7.4,5,11.5,6.9c4,1.9,8,2.6,12.3,3.7
			c4.6,1.2,9.4,1.9,14.1,2.4c5.5,0.6,11,0.9,16.5,0.2c2.4-0.3,4.7-0.5,6.6-2.1c1.6-1.4,2.8-3.4,3-5.6c0.1-1.5-0.3-3-0.7-4.4
			c-0.7-2.7-1.6-5.4-2.9-7.8c-3.6-6.7-11-11.6-18.6-11.3c-1.6,0.1-3.3,0.4-4.9,0.7C228,517.4,226.8,517.9,225.7,518.1z"/>
	</g>
	<g id="XMLID_167_">
		<path id="XMLID_195_" class="st3" d="M216,515.4c-6.1-2.9-12.5-4.6-18.8-0.9c-4.9,2.9-11.9,9.6-9,15.8c0.1,0.2-0.2,0.4-0.3,0.2
			c-2.8-5.9,2.9-11.7,7.4-15.1c3-2.3,6.5-3.4,10.2-3.3c4.1,0.1,7,1.4,10.6,3.1C216.3,515.2,216.2,515.5,216,515.4L216,515.4z"/>
	</g>
	<g id="XMLID_159_">
		<path id="XMLID_184_" class="st3" d="M256,540c0-7.3-4.2-15.4-10.1-19.6c-2.4-1.7-5.2-3-8.1-3.5c-4.3-0.8-8,0.4-12.1,1.4
			c-0.2,0.1-0.3-0.3-0.1-0.3c3.8-0.9,7.3-2.1,11.3-1.6c3.6,0.5,7.1,2.1,9.9,4.3c5.5,4.3,9.4,12.2,9.4,19.3
			C256.3,540.2,256,540.2,256,540L256,540z"/>
	</g>
	<g id="XMLID_153_">
		<path class="st24" d="M215.1,488.3c-0.4-0.4-1-0.8-1.4-0.4c-0.2,0.2-0.2,0.5-0.2,0.8c-0.1,2.4-0.2,5.1,0,7.4
			c-1.3-1.5-1.5-3.9-2.5-5.6c-0.2-0.3-0.6-0.7-0.9-0.5c-0.2,0.1-0.2,0.4-0.2,0.6c-0.1,1.8,0.6,3.3,1,5.1c0.4,1.7,0.9,3.1,1,4.9
			c0,0.2,0,0.4-0.1,0.6c-0.2,0.3-0.8,0.2-1.1,0c-1.1-0.5-2.3-1-3.4-1.6c-0.4,0.6-0.4,1.4,0,2.1c0.3,0.6,0.9,1.1,1.5,1.6
			c1.4,1,2.9,1.8,4.3,2.8c5.1,3.7,5.2,11.9,4.1,17.5c-0.5,2.3-1.4,4.7-3.5,5.8c-1.7,0.9-3.3,0.4-5.1,0.4c-2,0-1.6,0.8-1.4,2.7
			c0.3,2,0.1,6.5,2,7.3c2,0.8,5.8-0.3,7.8-0.9c2.5-0.8,4.9-2.4,6.2-4.7c2.1-3.5,1.6-7.8,1.3-11.7c-0.4-6.3-1.7-12.6-3.4-18.7
			c-0.9-3.1-1.8-6.1-2.8-9.1C217.3,492.1,217,490.3,215.1,488.3z"/>
	</g>
	<g id="XMLID_161_">
		<path id="XMLID_180_" class="st3" d="M213,505.9c4.5,3.6,5.1,9.8,4.5,15.2c-0.3,2.3-0.7,4.7-2,6.6c-1.8,2.5-4.3,2.2-7.1,2.1
			c-0.2,0-0.2-0.3,0-0.3c3.9,0.2,6.8-0.6,8.1-4.7c0.6-2,0.8-4.2,0.9-6.3c0.1-4.6-0.8-9.4-4.6-12.4C212.6,506,212.9,505.7,213,505.9
			L213,505.9z"/>
	</g>
	<g id="XMLID_157_">
		<path id="XMLID_171_" class="st3" d="M216.8,538.9c5.6-2.1,7.8-6.6,7.6-12.4c-0.1-4.6-0.7-9.3-1.6-13.8c-0.8-4.1-1.8-8.1-3.1-12.1
			c-1.2-3.9-2.1-8.7-4.8-11.9c-0.1-0.2,0.1-0.4,0.2-0.2c2.8,3.3,3.7,8,4.9,12c1.7,5.6,3.1,11.3,3.9,17c1.1,8.4,2.4,18-7.1,21.6
			C216.7,539.3,216.6,538.9,216.8,538.9L216.8,538.9z"/>
	</g>
	<g id="XMLID_148_">
		
			<linearGradient id="XMLID_68_" gradientUnits="userSpaceOnUse" x1="322.6564" y1="4.4566" x2="359.5028" y2="4.4566" gradientTransform="matrix(4.489700e-11 -1 1 4.489700e-11 344.3533 867.6467)">
			<stop  offset="0" style="stop-color:#2329F0"/>
			<stop  offset="0.3198" style="stop-color:#2433F1"/>
			<stop  offset="0.8713" style="stop-color:#264FF3"/>
			<stop  offset="1" style="stop-color:#2657F4"/>
		</linearGradient>
		<path id="XMLID_179_" class="st30" d="M340.3,545h17.1v-36.8l0,0c-4.9,0-9.1,3.6-9.7,8.5L346,528l-5.8,3.8V545z"/>
		
			<rect id="XMLID_178_" x="335.6" y="524.6" transform="matrix(4.490992e-11 -1 1 4.490992e-11 -170.9002 881.9252)" class="st31" width="39.9" height="3.7"/>
		<circle id="XMLID_177_" class="st19" cx="346.1" cy="537.4" r="3.4"/>
	</g>
</g>
<g id="XMLID_349_">
	
		<rect id="XMLID_404_" x="107.3" y="692.6" transform="matrix(-0.5477 0.8367 -0.8367 -0.5477 758.0135 990.0882)" class="st24" width="8.2" height="14.6"/>
	<g id="XMLID_403_">
		<path class="st31" d="M66,651.3c0.7-11.1,1.4-26.3,2-37.4l4.5,0.1c4.5-2.4,10.5-3.5,14.4-0.2c3.5,3,3.8,8.2,3.2,12.7
			c-0.8,5.8-2.8,15.5-4.1,21.2c-1.3,5.8-1.9,11.9,0.2,17.4c2.1,5.7,6.4,10.3,10.6,14.5c5.3,5.2,10.5,10.4,15.8,15.6
			c0.4,0.4,0.7,0.7,1,1.2c0.5,1,0.3,2.3-0.3,3.3c-0.7,0.9-1.7,1.5-2.8,1.9c-2.6,0.8-5.5,0.2-7.9-1.1c-7.1-3.7-11.3-10.3-17.1-15.6
			c-5.9-5.4-13.9-9.1-17.5-16.3C65.3,663.3,65.6,657.1,66,651.3z"/>
	</g>
	
		<linearGradient id="XMLID_69_" gradientUnits="userSpaceOnUse" x1="1089.28" y1="708.3777" x2="1109.0914" y2="708.3777" gradientTransform="matrix(-1 0 0 1 1212 0)">
		<stop  offset="0" style="stop-color:#673AB7"/>
		<stop  offset="0.4457" style="stop-color:#9347A7"/>
		<stop  offset="0.797" style="stop-color:#B0509E"/>
		<stop  offset="1" style="stop-color:#BA539A"/>
	</linearGradient>
	<path id="XMLID_401_" class="st32" d="M117.6,696l5.1,4.4l-13.3,20.3h-6.5v-0.9c0-1.6,1.2-2.8,2.8-2.9l0,0l1.8-1.8l0.6-10.5
		l0.5-0.7l4.5,0.3l3.9-5.1l-0.3-2.2L117.6,696z"/>
	<path id="XMLID_399_" class="st3" d="M120.7,698.8l-13.2,20.1h-4.4c-0.1,0.3-0.2,0.7-0.2,1v0.9h6.5l13.3-20.3L120.7,698.8z"/>
	
		<rect id="XMLID_398_" x="90.6" y="703.5" transform="matrix(-1 -4.458268e-11 4.458268e-11 -1 188.693 1418.6342)" class="st24" width="7.6" height="11.6"/>
	<g id="XMLID_396_">
		<path class="st31" d="M79.8,624.6c0.2-5.1,0.3-12.6,4.4-16.5c4.1-3.8,10.2-1.3,13.6,2.4c4.6,4.9,5,12.3,5,18.7
			c0,8.4-0.6,20.7-1.2,29.1c-0.8,11.2-1.7,30-2.5,41.2c-0.3,3.6,1.3,12.4-4.4,11.3c-2.9-0.6-5-3.1-6-5.8c-1-2.8-1-5.7-1.2-8.7
			c-0.7-12.7-3.8-32.7-5.8-45.2C80.4,643.6,79.6,632.1,79.8,624.6z"/>
	</g>
	<g id="XMLID_394_">
		<path id="XMLID_395_" class="st3" d="M80,627.2c-0.3,13.8,2.5,27.4,4.5,41c0.8,5.6,1.6,11.2,2.2,16.8c0.9,7.8-1,22.4,8,25.5
			c0.2,0.1,0.1,0.4-0.1,0.3c-4.7-1.6-6.4-5.5-7-10.3c-1-7.9-1.2-15.9-2.3-23.9c-2.1-16.4-6-32.8-5.7-49.5C79.7,627,80,627,80,627.2
			L80,627.2z"/>
	</g>
	<g id="XMLID_393_">
		<path class="st33" d="M69.1,545.1c0.2-1.2,0.6-2.3,0.7-3.5c0.3-4.1,2.8-7.7,6.6-9.5c2.5-1.2,5.3-1.6,8.1-1.5
			c2.4,0,5.1,0.6,6.4,2.6c1,1.5,1,3.6,2.1,5c0.8,1,1.9,1.5,3.1,2c2.5,1,4.9,1.7,5.6,4.6c0.4,1.8,0,3.7,0.1,5.5
			c0.2,2.1,1.3,4.1,2.9,5.4c1.7,1.4,3.4,2.2,2.9,4.9c-0.4,1.8-1.6,2.2-2.9,3.3c-1.2,1.1-2.4,2.7-3.5,3.9c-0.7,0.7-1.1,1.7-1.4,2.6
			c-0.2,1.1,0.1,2.1-0.3,3.1c-0.7,1.9-2.5,3.5-4.4,4.3c-2.5,1-5.4,0.9-8,0.2c-1.4-0.4-3-1.3-3.1-2.7c0-0.4,0.1-0.8,0-1.2
			c-0.1-0.4-0.4-0.8-0.8-0.7l0.6,0c0.8-1.5,0.2-3.4-1-4.7c-1.1-1.3-2.7-2.1-4.1-3c-1.4-0.9-2.9-2-3.5-3.6c-0.4-1-0.4-2.2-0.7-3.2
			c-1-4.2-5-7.1-5.6-11.4C68.9,546.7,69,545.9,69.1,545.1z"/>
	</g>
	<g id="XMLID_392_">
		<path class="st24" d="M95,559.6c-0.7-0.3-1.4-0.8-1.9-1.4c-2.3-2.7-3-6.8-3-10.2c0,0-8.8,7.5-8.8,7.5c-0.1,0.1,0.2,3.1,0.1,3.5
			c-0.2,1.1-0.6,2-0.9,3.1c-0.1,0-0.2,0.1-0.3,0.2c-0.8,1.3-2.6,1.6-3.3,2.9c-0.4,0.8-0.3,1.9,0.2,2.7c0.5,0.8,1.2,1.4,2,2
			c0.7,0.6,1.4,1.2,2.3,1.5c0.8,0.3,1.7,0.3,2.6,0.2c3.4-0.2,6.7-0.9,9.9-2.1c0.8-0.3,1.7-0.7,2.4-1.2c2.3-1.7,3.2-5.2,1.9-7.7
			c-0.1-0.2-0.3-0.5-0.5-0.6c-0.4-0.3-0.9-0.1-1.4-0.1C95.8,559.8,95.4,559.7,95,559.6z"/>
	</g>
	<g id="XMLID_391_">
		<path class="st24" d="M70.4,544.6c0.7-4,4.7-7.1,8.8-7.1c4.8,0.1,10,4.7,10.2,9.5c0.1,2.9-1,5.4-2,8c-0.5,1.3-1.1,2.6-2,3.6
			s-2.3,1.8-3.6,1.7c-1.9-0.1-3.5-1.6-4.8-3c-1.4-1.6-2.8-3.3-4.1-5c-0.8-1-1.5-2-2-3.2C70.3,547.7,70.1,546.1,70.4,544.6z"/>
	</g>
	<g id="XMLID_389_">
		<path id="XMLID_390_" class="st3" d="M87.6,555.1c-1.4,3.6-4.6,7.1-8.6,4.4c-2.5-1.7-4.5-4.7-6.3-7.1c-1.8-2.5-2.8-4.7-2.5-7.8
			c0-0.2,0.4-0.2,0.3,0c-0.5,4.5,2.1,7.5,4.8,10.7c1,1.1,1.9,2.4,3.1,3.4c3.9,3.2,7.3,0.1,8.8-3.6C87.3,554.8,87.7,554.9,87.6,555.1
			L87.6,555.1z"/>
	</g>
	<g id="XMLID_388_">
		<path class="st19" d="M64.2,587.2c-1.5-7,1.3-14.2,5.3-20.1c0.6-0.9,1.1-1.8,2-2.5c3.3-2.4,6.9-1.4,6.9-1.4
			c1.8,3.9,6.2,6.3,10.4,5.9c0.8-0.1,1.7-0.3,2.4-0.7c0.8-0.4,1.5-1.1,2-1.8c1.5-1.9,2.3-4.4,2.3-6.8c3-0.6,6.1,0.3,8.9,1.5
			c1.5,0.7,3,1.5,4.2,2.6c1.6,1.5,2.5,3.6,3.2,5.7c1.6,4.7,2.4,9.7,3.1,14.6c-2.1,0.3-4.2,1-6.3,1.7c-1.1,0.4-2.1,0.7-3.2,1.1
			c-3.6,1.2-2.6,3.5-2.4,6.6c0.4,5.1,0.7,10.2,0.9,15.3c0.2,3.7,2.2,9.2-1.1,11.9c-1.3,1.1-3,1.7-4.7,2.1c-8.7,2.4-18,2.5-26.7,0.1
			c-1.1-0.3-2.2-0.7-3-1.5c-3.4-3.4-0.1-13.1,0.6-17.1c0.3-1.8,0.6-3.5,0.8-5.3c0.4-4.1,0.2-8,0.3-12.1
			C68.3,586.6,66.1,586.8,64.2,587.2z"/>
	</g>
	<g id="XMLID_386_">
		<path id="XMLID_387_" class="st3" d="M88.7,568.9c4.5-0.7,6.4-5,6.6-9.1c0-0.1,0-0.2,0.1-0.2c3.2-0.4,6,0.3,8.9,1.5
			c0.2,0.1,0.1,0.4-0.1,0.3c-2-0.8-7.1-3.1-8.7-0.6c-0.5,0.9-0.5,2.6-1,3.6c-1.2,2.6-3,4.4-5.9,4.8C88.6,569.3,88.5,569,88.7,568.9
			L88.7,568.9z"/>
	</g>
	<g id="XMLID_384_">
		<path id="XMLID_385_" class="st3" d="M71.6,623.1c-6.5-1.9-4.7-9.1-3.6-14.3c0-0.2,0.4-0.1,0.3,0.1c-1.1,4.9-3,12,3.3,13.9
			C71.9,622.9,71.8,623.2,71.6,623.1L71.6,623.1z"/>
	</g>
	<g id="XMLID_382_">
		<path id="XMLID_383_" class="st3" d="M103.1,620.9c-8.7,5.7-21.9,4.6-31.5,2.2c-0.2-0.1-0.1-0.4,0.1-0.3
			c9.5,2.4,22.6,3.4,31.2-2.2C103.1,620.5,103.2,620.8,103.1,620.9L103.1,620.9z"/>
	</g>
	<g>
		<path class="st33" d="M69.2,536.5c0.1-0.1,0.3-0.3,0.4-0.4c2.1-1.8,4.3-0.8,6.6-0.5c2.7,0.4,5.6,0.6,8.4,0.9
			c3.5,0.5,7.4,1.2,9.3,4.2c0.7,1.1,1,2.4,1.4,3.6c0.7,2.8,3.9,7.6,2.3,10.4c-0.4,0.7-1.2,1.1-1.9,0.8c-2.3-1-4.3-3-6.2-4.6
			c-3-2.6-5.2-3.2-9.1-2.9c-2.4,0.2-4.9,0.3-7-0.8c-1.5-0.8-2.6-2.1-3.7-3.4c-0.6-0.7-1.2-1.5-1.6-2.4
			C67.3,539.8,67.9,537.9,69.2,536.5z"/>
	</g>
	<g id="XMLID_378_">
		<path class="st24" d="M65.6,584.8l0.6-1.2c0.5,1.6,1.1,3.2,2.1,4.7c1.1,1.7,2.8,3.2,3.2,5.2c0.2,0.9,0,1.9-0.1,2.9
			c-0.2,1.4-0.4,2.9-0.6,4.3c-0.1,1-0.3,2-0.8,2.8c-0.5,0.9-1.4,1.6-2.4,1.5c-1.4-0.1-2.3-1.5-2.7-2.8
			C62.9,596.7,65.2,590.7,65.6,584.8z"/>
	</g>
	<g id="XMLID_368_">
		<polygon id="XMLID_377_" class="st2" points="69.4,559.8 74.1,570.4 62.3,575.6 58.5,571.1 		"/>
		<polygon id="XMLID_376_" class="st2" points="67.6,558.8 72.5,569.2 60.5,574.6 60,566.3 		"/>
		<polygon id="XMLID_375_" class="st2" points="65.8,558.1 72.2,569 58.7,574 64,560.9 		"/>
		<polygon id="XMLID_374_" class="st19" points="58.5,571.1 69.4,559.8 68.9,559.5 57.9,570.7 		"/>
		<polygon id="XMLID_373_" class="st19" points="58.5,570.9 67.7,558.8 67.2,558.6 57.9,570.7 		"/>
		<polygon id="XMLID_372_" class="st19" points="58.6,570.8 65.9,558.1 65.3,558.1 57.9,570.7 		"/>
		<path id="XMLID_371_" class="st34" d="M79.7,561.7l10.1,22.1c0.4,0.8,0,1.8-0.8,2.2L71,594.4l-12.8-23.5l19.7-9.9
			C78.6,560.7,79.4,561,79.7,561.7z"/>
		<polygon id="XMLID_370_" class="st35" points="58.2,570.9 64.9,558.1 64,558.1 57.1,570.9 		"/>
		<polygon id="XMLID_369_" class="st35" points="57.1,570.9 69.7,594.4 71,594.4 58.2,570.9 		"/>
	</g>
	<g id="XMLID_367_">
		<path class="st24" d="M83.6,594.5c-1.1-0.4-2.1-0.8-3.3-1.1c-0.9-0.2-1.9-0.4-2.8-0.8c-1.9-0.8-2.7-2.9-2.2-4.9
			c0.6-2.2,3-2.9,5-2.7c2.2,0.2,3.8,1.3,5.9,1.8c-0.4-0.9-1.6-1.5-1.6-2.6c0-0.2,0.1-0.5,0.3-0.6c0.3-0.2,0.7,0.1,0.9,0.4
			c1.7,1.9,3.1,4.5,5.2,5.8c2.3,1.5,4.6,2.9,7.2,3.6c1,0.3,2.1,0,3.1-0.2c1-0.1,1.9-0.6,2.6-1.4c0.5-0.6,0.7-1.3,0.9-2
			c0.1-0.7-0.5-1.8-0.3-2.4c0.4-1.2,3.4-1.5,4.5-1.9c1.7-0.6,3-0.9,4.7-1.5c1.4,5.4,0.4,11.4-3.8,15.4c-0.8,0.7-1.7,1.4-2.6,1.9
			c-4.8,2.2-10.6-0.3-14.9-2.5C89.5,597.4,86.7,595.7,83.6,594.5z"/>
	</g>
	
		<rect id="XMLID_366_" x="86.6" y="718.5" transform="matrix(-1 -4.506407e-11 4.506407e-11 -1 188.0957 1439.6859)" class="st3" width="14.8" height="2.7"/>
	
		<linearGradient id="XMLID_70_" gradientUnits="userSpaceOnUse" x1="1111.2566" y1="715.1139" x2="1124.0504" y2="715.1139" gradientTransform="matrix(-1 0 0 1 1212 0)">
		<stop  offset="0" style="stop-color:#673AB7"/>
		<stop  offset="0.4457" style="stop-color:#9347A7"/>
		<stop  offset="0.797" style="stop-color:#B0509E"/>
		<stop  offset="1" style="stop-color:#BA539A"/>
	</linearGradient>
	<path id="XMLID_365_" class="st36" d="M94.3,711.8L94.3,711.8c3.5,0,6.4,2.9,6.4,6.4v0.3H87.9v-0.3
		C87.9,714.6,90.8,711.8,94.3,711.8z"/>
	<g id="XMLID_363_">
		<path id="XMLID_364_" class="st3" d="M105.5,587.1c-1.2,0.4-2.5,0.9-2.6,2.3c-0.1,1,0.2,2.1,0.3,3.1c0,0.2-0.3,0.2-0.3,0
			c-0.1-1.2-0.5-2.6-0.1-3.8c0.4-1.1,1.7-1.6,2.7-2C105.6,586.7,105.7,587,105.5,587.1L105.5,587.1z"/>
	</g>
	<g id="XMLID_361_">
		<path id="XMLID_362_" class="st3" d="M115,584.4c-3.3,0.6-6.4,1.7-9.5,2.8c-0.2,0.1-0.3-0.3-0.1-0.3c3.1-1,6.2-2.2,9.5-2.8
			C115.1,584,115.2,584.3,115,584.4L115,584.4z"/>
	</g>
	<g id="XMLID_359_">
		<path id="XMLID_360_" class="st3" d="M112,569.6c1.6,4.7,2.4,9.6,3.1,14.6c0,0.2-0.3,0.3-0.3,0.1c-0.7-4.9-1.6-9.8-3.1-14.6
			C111.6,569.5,111.9,569.4,112,569.6L112,569.6z"/>
	</g>
</g>
<g id="XMLID_7_">
	<g id="XMLID_335_">
		<path class="st3" d="M105.1,410.2c-4.3-6-11.7-7.8-18.3-4.3c-0.4,0.2-0.7-0.4-0.3-0.6c6.9-3.7,14.7-1.8,19.2,4.5
			C105.9,410.2,105.4,410.6,105.1,410.2L105.1,410.2z"/>
	</g>
	<g id="XMLID_334_">
		<path class="st3" d="M75.9,408.2c3.5,0.1,6.2,2.8,6.3,6.3c0,0.4-0.6,0.4-0.7,0c-0.1-3.1-2.5-5.5-5.6-5.6
			C75.4,408.9,75.4,408.2,75.9,408.2L75.9,408.2z"/>
	</g>
	<g id="XMLID_333_">
		<path class="st3" d="M78.3,408.9c3.4-8.8,12.4-14.2,21.7-11c4.1,1.4,7.5,4.4,9.6,8.2c1,1.9,1.2,4.1,2.8,4.9c1.3,0.6,4.3,0,5.7,0
			c0.4,0,0.4,0.7,0,0.7c-2.4,0-4.7,0-7.1,0c-0.1,0-0.3-0.1-0.3-0.2c-3.7-16.6-25.6-18.4-31.7-2.4C78.8,409.5,78.2,409.3,78.3,408.9
			L78.3,408.9z"/>
	</g>
	<g id="XMLID_331_">
		<path class="st3" d="M64,418.2c1.3-6.9,7.8-11,14.7-9.5c0.4,0.1,0.2,0.7-0.2,0.6c-6.5-1.5-12.6,2.4-13.9,9
			C64.6,418.8,64,418.6,64,418.2L64,418.2z"/>
	</g>
	<g id="XMLID_330_">
		<path class="st3" d="M44.3,426.5c1.7,0,3.5,0,5.2,0c1,0,2.4,0.3,3.3,0c1.3-0.4,0.6,0.1,0.9-1.3c1.4-5.3,5.4-7.2,10.6-7.2
			c0.4,0,0.4,0.7,0,0.7c-5.3,0-9.7,2.3-10.1,8.2c0,0.2-0.1,0.3-0.3,0.3c-3.2,0-6.4,0-9.6,0C43.9,427.1,43.9,426.5,44.3,426.5
			L44.3,426.5z"/>
	</g>
</g>
<g>
	<g>
		<path class="st24" d="M296.5,449.4c-1.5-1-3.3-1.5-5.2-1.5h-2.1c-1-6.2-6.3-10.9-12.7-10.9c-0.1,0-0.2,0-0.3,0l0.1-0.1
			c-0.5,0-1,0.1-1.5,0.2c-0.6,0.1-1.1,0.2-1.6,0.3c-2-6.5-7.5-11.5-14.2-12.8c0.2-14.7,12.1-26.5,26.8-26.5
			c14.8,0,26.8,12,26.8,26.8C312.5,435.9,305.9,445.3,296.5,449.4z"/>
	</g>
	<path class="st37" d="M308.3,427.4c0-14.8-12-26.8-26.8-26.8c-4.2,0-8.1,1-11.6,2.7c4.4-3.2,9.9-5.2,15.8-5.2
		c14.8,0,26.8,12,26.8,26.8c0,10.6-6.2,19.7-15.1,24.1C304,444.1,308.3,436.3,308.3,427.4z"/>
	<g id="XMLID_347_">
		<g id="XMLID_357_">
			<g id="XMLID_381_">
				<path class="st3" d="M242.6,438.6c5-7.2,13.9-9.2,21.6-5.1c0.4,0.2,0,0.8-0.3,0.6c-7.4-4-15.9-2-20.7,4.8
					C242.9,439.3,242.3,439,242.6,438.6L242.6,438.6z"/>
			</g>
			<g id="XMLID_380_">
				<path class="st3" d="M276.2,437.4c-3.5,0.1-6.3,2.8-6.4,6.4c0,0.4-0.7,0.4-0.7,0c0.1-3.9,3.1-6.9,7-7
					C276.6,436.7,276.6,437.4,276.2,437.4L276.2,437.4z"/>
			</g>
			<g id="XMLID_379_">
				<path class="st3" d="M272.8,437.7c-6.8-18.1-31.8-16.2-35.9,2.7c0,0.1-0.2,0.2-0.3,0.2c-2.7,0-5.4,0-8,0c-0.4,0-0.4-0.7,0-0.7
					c1.7,0,3.9,0.4,5.5,0c3.1-0.8,2-0.7,3.5-4.1c2-4.8,6-8.7,10.9-10.5c10.6-4,21.2,2.1,25,12.2
					C273.5,437.9,272.9,438.1,272.8,437.7L272.8,437.7z"/>
			</g>
			<g id="XMLID_358_">
				<path class="st3" d="M311.8,458c-3.6,0-7.2,0-10.8,0c-0.2,0-0.3-0.2-0.3-0.3c-0.6-6.2-5.7-9.3-11.4-9.3c-0.1,0-0.3-0.1-0.3-0.2
					c-1.8-7.4-8.2-11.7-15.7-10.2c-0.4,0.1-0.6-0.6-0.2-0.6c4.7-1,9.4-0.1,12.8,3.4c1.6,1.6,2,3.6,3.2,5.2c1.8,2.4,2.3,1.3,5.2,2.2
					c4.4,1.4,4.6,4.4,6.8,7.5c1,1.5-0.4,0.9,1.3,1.6c0.8,0.3,2.3,0,3.2,0c2.1,0,4.1,0,6.2,0C312.2,457.3,312.2,458,311.8,458
					L311.8,458z"/>
			</g>
		</g>
		<g id="XMLID_355_">
			<path class="st3" d="M286.1,385.6c0,2.6,0,5.2,0,7.7c0,0.4-0.7,0.4-0.7,0c0-2.6,0-5.2,0-7.7C285.4,385.2,286.1,385.2,286.1,385.6
				L286.1,385.6z"/>
		</g>
		<g id="XMLID_354_">
			<path class="st3" d="M266.6,390.7c1.3,2.2,2.6,4.5,3.9,6.7c0.2,0.4-0.4,0.7-0.6,0.3c-1.3-2.2-2.6-4.5-3.9-6.7
				C265.8,390.6,266.4,390.3,266.6,390.7L266.6,390.7z"/>
		</g>
		<g id="XMLID_353_">
			<path class="st3" d="M252.3,404.7c2.2,1.3,4.5,2.6,6.7,3.9c0.4,0.2,0,0.8-0.3,0.6c-2.2-1.3-4.5-2.6-6.7-3.9
				C251.6,405.1,251.9,404.5,252.3,404.7L252.3,404.7z"/>
		</g>
		<g id="XMLID_352_">
			<path class="st3" d="M319.1,444.2c-2.2-1.3-4.5-2.6-6.7-3.9c-0.4-0.2,0-0.8,0.3-0.6c2.2,1.3,4.5,2.6,6.7,3.9
				C319.8,443.8,319.5,444.4,319.1,444.2L319.1,444.2z"/>
		</g>
		<g id="XMLID_351_">
			<path class="st3" d="M324.5,424.9c-2.6,0-5.2,0-7.7,0c-0.4,0-0.4-0.7,0-0.7c2.6,0,5.2,0,7.7,0C325,424.2,325,424.9,324.5,424.9
				L324.5,424.9z"/>
		</g>
		<g id="XMLID_350_">
			<path class="st3" d="M319.6,405.4c-2.2,1.3-4.5,2.6-6.7,3.9c-0.4,0.2-0.7-0.4-0.3-0.6c2.2-1.3,4.5-2.6,6.7-3.9
				C319.6,404.6,319.9,405.2,319.6,405.4L319.6,405.4z"/>
		</g>
		<g id="XMLID_348_">
			<path class="st3" d="M305.5,391.1c-1.3,2.2-2.6,4.5-3.9,6.7c-0.2,0.4-0.8,0-0.6-0.3c1.3-2.2,2.6-4.5,3.9-6.7
				C305.2,390.4,305.7,390.7,305.5,391.1L305.5,391.1z"/>
		</g>
	</g>
</g>
<g id="XMLID_336_">
	<g id="XMLID_346_">
		<path class="st3" d="M194.5,415.8c2.4-3.3,6.5-4.3,10.1-2.4c0.4,0.2,0,0.8-0.3,0.6c-3.3-1.8-7.1-0.9-9.2,2.1
			C194.8,416.5,194.2,416.2,194.5,415.8L194.5,415.8z"/>
	</g>
	<g id="XMLID_345_">
		<path class="st3" d="M209.7,415.6c-1.5,0.1-2.7,1.2-2.7,2.7c0,0.4-0.7,0.4-0.7,0c0.1-1.9,1.5-3.3,3.4-3.4
			C210.1,415,210.1,415.6,209.7,415.6L209.7,415.6z"/>
	</g>
	<g id="XMLID_344_">
		<path class="st3" d="M208.2,415.5c-3.1-8.1-14.2-7.2-16,1.2c0,0.1-0.2,0.2-0.3,0.2c-1.2,0-2.4,0-3.7,0c-0.4,0-0.4-0.7,0-0.7
			c0.7,0,1.9,0.2,2.6,0c1.3-0.4,0.8-0.6,1.4-2c1-2.3,3-4,5.3-4.8c4.9-1.7,9.6,1.2,11.4,5.8C209,415.8,208.4,415.9,208.2,415.5
			L208.2,415.5z"/>
	</g>
	<g id="XMLID_343_">
		<path class="st3" d="M215.6,420.3c-0.6-3.3-3.7-5.3-6.9-4.5c-0.4,0.1-0.6-0.5-0.2-0.6c3.6-0.8,7,1.3,7.8,5
			C216.3,420.5,215.7,420.7,215.6,420.3L215.6,420.3z"/>
	</g>
</g>
<g id="XMLID_435_">
	<g id="XMLID_442_">
		<path class="st3" d="M347.9,482.5c2.4-3.3,6.5-4.3,10.1-2.4c0.4,0.2,0,0.8-0.3,0.6c-3.3-1.8-7.1-0.9-9.2,2.1
			C348.3,483.2,347.7,482.9,347.9,482.5L347.9,482.5z"/>
	</g>
	<g id="XMLID_440_">
		<path class="st3" d="M363.2,482.4c-1.5,0.1-2.7,1.2-2.7,2.7c0,0.4-0.7,0.4-0.7,0c0.1-1.9,1.5-3.3,3.4-3.4
			C363.6,481.7,363.6,482.4,363.2,482.4L363.2,482.4z"/>
	</g>
	<g id="XMLID_438_">
		<path class="st3" d="M361.7,482.3c-3.1-8.1-14.2-7.2-16,1.2c0,0.1-0.2,0.2-0.3,0.2c-1.2,0-2.4,0-3.7,0c-0.4,0-0.4-0.7,0-0.7
			c0.7,0,1.9,0.2,2.6,0c1.2-0.4,0.8-0.6,1.4-2c1-2.3,3-4,5.3-4.8c4.9-1.7,9.6,1.2,11.4,5.8C362.5,482.5,361.8,482.7,361.7,482.3
			L361.7,482.3z"/>
	</g>
	<g id="XMLID_436_">
		<path class="st3" d="M369,487c-0.6-3.3-3.7-5.3-6.9-4.5c-0.4,0.1-0.6-0.5-0.2-0.6c3.6-0.8,7,1.3,7.8,5
			C369.8,487.3,369.1,487.4,369,487L369,487z"/>
	</g>
</g>
<polygon id="XMLID_12_" class="st22" points="171.7,719.2 187.6,720 186.5,533.8 181.6,533.5 "/>
<g>
	<path class="st3" d="M580.4,721.3c-18.7,0-37.5,0-56.2,0c-44.7,0-89.4,0-134.2,0c-54.4,0-108.7,0-163.1,0c-46.8,0-93.6,0-140.4,0
		c-15.6,0-31.2,0-46.8,0c-7,0-15,1.1-22,0c-0.3,0-0.7,0-1,0c-0.3,0-0.3-0.4,0-0.4c18.7,0,37.5,0,56.2,0c44.7,0,89.4,0,134.2,0
		c54.4,0,108.7,0,163.1,0c46.8,0,93.6,0,140.4,0c15.6,0,31.2,0,46.8,0c6.7,0,15.5-1.5,22,0c0.3,0.1,0.7,0,1,0
		C580.6,720.9,580.6,721.3,580.4,721.3L580.4,721.3z"/>
</g>
<rect x="257.2" y="363.5" transform="matrix(-1 -4.490420e-11 4.490420e-11 -1 525.0369 729.0537)" class="st38" width="10.7" height="2.1"/>
</svg>
