<?xml version="1.0" encoding="utf-8"?>
<!-- Generator: Adobe Illustrator 21.0.0, SVG Export Plug-In . SVG Version: 6.00 Build 0)  -->
<svg version="1.1" id="Layer_1" xmlns="http://www.w3.org/2000/svg" xmlns:xlink="http://www.w3.org/1999/xlink" x="0px" y="0px"
	 viewBox="0 0 1080 720" style="enable-background:new 0 0 1080 720;" xml:space="preserve">
<style type="text/css">
	.st0{fill:#FEE7EC;}
	.st1{fill:#E5DBFF;}
	.st2{fill:#150D9C;}
	.st3{fill:url(#SVGID_1_);}
	.st4{fill:url(#SVGID_2_);}
	.st5{fill:url(#SVGID_3_);}
	.st6{fill:url(#SVGID_4_);}
	.st7{fill:#0D035C;}
	.st8{fill:url(#SVGID_5_);}
	.st9{opacity:0.3;}
	.st10{fill:url(#SVGID_6_);}
	.st11{fill:url(#SVGID_7_);}
	.st12{fill:url(#SVGID_8_);}
	.st13{fill:#A8BCFB;}
	.st14{opacity:0.3;fill:#150D9C;}
	.st15{fill:#7D9AF8;}
	.st16{fill:#A7A9F9;}
	.st17{fill:#FFE0E4;}
	.st18{fill:#FFFFFF;}
	.st19{fill:url(#XMLID_65_);}
	.st20{fill:url(#XMLID_66_);}
	.st21{opacity:0.3;fill:#0D035C;}
	.st22{fill:#B8A1D7;}
	.st23{fill:#FC899F;}
	.st24{fill:url(#XMLID_67_);}
	.st25{fill:#F9F7F9;}
	.st26{fill:#2329F0;}
	.st27{fill:url(#SVGID_9_);}
	.st28{fill:url(#SVGID_10_);}
	.st29{fill:url(#XMLID_68_);}
	.st30{fill:#673AB7;}
	.st31{fill:url(#XMLID_69_);}
	.st32{fill:#BA539A;}
	.st33{fill:#2657F4;}
	.st34{fill:#5179F6;}
	.st35{fill:url(#XMLID_70_);}
	.st36{fill:#FDB8C5;}
	.st37{fill:#FF6677;}
</style>
<g>
	<path class="st0" d="M1090.1,623.9c-5.4-8.9-10.6-17.7-13.6-27.1c-6-18.6-9.6-36.4-19.4-54c-9-16.2-19.8-31.3-31.2-45.9
		c-6.2-8-12.6-15.8-19-23.6c-18.6-22.7-39.9-47-69-51c-20.7-2.8-41.7,5.7-58.3,18.4c-16.6,12.7-29.8,29.3-43.2,45.4
		c-22.2,26.6-45.8,52.1-70.6,76.3c-29.3,28.7-64.5,18.7-101.1,26.6c-25.3,5.5-47.9,22.5-60,45.4c-12.1,22.9-13.6,51.2-3.8,75.2
		c7.8,19.3,22.4,31.3,34,47.6c1.9,2.7,3.3,5.8,4.3,9.1h451.1V623.9z"/>
</g>
<g>
	<path class="st1" d="M1090.1,766.5V428.8c-5.1,0.4-10.2,1.2-15.2,2.3c-20.1,4.5-39.2,13.5-55.4,26.2c-20,15.7-35.3,36.6-53.7,54.3
		c-18.4,17.7-41.8,32.7-67.2,31.8c-32.8-1.1-58.7-27.5-89.4-39.1c-24.8-9.4-53.3-8.6-77.4,2.4c-24.1,11-43.4,32.2-51.8,57.4
		c-11,33.2-3.3,71.1-18.1,102.8c-13.6,29.1-43.4,46.9-73,59.5c-22.7,9.7-46.5,17.4-67.9,29.9c-4.8,2.8-8.7,6.2-12,10.1H1090.1z"/>
</g>
<g>
	<g id="XMLID_265_">
		<g id="XMLID_523_">
			<path id="XMLID_524_" class="st2" d="M575.8,658.6c18.4,25,46.3,41.8,77,46.3c0.8,0.1,1.1-1.1,0.2-1.2
				c-30.4-4.5-58-21.1-76.2-45.8C576.3,657.3,575.3,658,575.8,658.6L575.8,658.6z"/>
		</g>
		<path id="XMLID_522_" class="st2" d="M578.8,661.7c0,0-10.8-2.5-9.6-11.8C569.1,649.9,577.7,648.3,578.8,661.7z"/>
		<path id="XMLID_521_" class="st2" d="M586.1,670.3c0,0-9.7,5.4-15-2.2C571.1,668.1,576.3,661.1,586.1,670.3z"/>
		<path id="XMLID_274_" class="st2" d="M597.4,680.6c0,0-8.8,6.8-15.2,0.1C582.2,680.7,586.3,673,597.4,680.6z"/>
		<path id="XMLID_273_" class="st2" d="M609.8,688.8c0,0-6.8,8.8-14.7,3.9C595.1,692.7,597.1,684.2,609.8,688.8z"/>
		<path id="XMLID_272_" class="st2" d="M623,695.1c0,0-3.9,10.3-12.9,8C610.1,703.2,609.6,694.5,623,695.1z"/>
		<path id="XMLID_271_" class="st2" d="M636.2,700.1c0,0-1.2,11-10.5,11C625.7,711.1,623.1,702.8,636.2,700.1z"/>
		<path id="XMLID_270_" class="st2" d="M586.2,670.2c0,0-7.5-8.2-1.4-15.1C584.9,655.1,592.9,658.5,586.2,670.2z"/>
		<path id="XMLID_269_" class="st2" d="M597.5,680.5c0,0-7.5-8.2-1.4-15.1C596.1,665.4,604.1,668.8,597.5,680.5z"/>
		<path id="XMLID_268_" class="st2" d="M609.8,688.9c0,0-7.5-8.2-1.4-15.1C608.4,673.7,616.4,677.2,609.8,688.9z"/>
		<path id="XMLID_267_" class="st2" d="M622.9,696.1c0,0-7.5-8.2-1.4-15.1C621.5,680.9,629.5,684.4,622.9,696.1z"/>
		<path id="XMLID_266_" class="st2" d="M636,700.5c0,0-7.5-8.2-1.4-15.1C634.6,685.4,642.6,688.8,636,700.5z"/>
	</g>
	<g id="XMLID_511_">
		<g id="XMLID_520_">
			
				<linearGradient id="SVGID_1_" gradientUnits="userSpaceOnUse" x1="1051.0072" y1="657.4302" x2="1060.5725" y2="657.4302" gradientTransform="matrix(1 0 0 1 -407.1472 0)">
				<stop  offset="0" style="stop-color:#2329F0"/>
				<stop  offset="0.3198" style="stop-color:#2433F1"/>
				<stop  offset="0.8713" style="stop-color:#264FF3"/>
				<stop  offset="1" style="stop-color:#2657F4"/>
			</linearGradient>
			<path class="st3" d="M651.9,652.1c-0.1,0-0.2,0.1-0.3,0.2c-0.2,0.4-0.5,1.1-0.4,1.7c-0.5-0.8-1.5-1.3-2.3-1.6c0,0-0.1,0-0.1,0
				c0,0-0.1,0-0.1,0.1c-0.3,0.4-0.4,0.8-0.5,1.3c0,0.4,0.2,0.8,0.4,1.2c-0.3-0.4-0.7-0.8-1.2-1c-0.2-0.1-0.4-0.1-0.6-0.2
				c-0.2,0-0.5-0.2-0.7-0.2c-0.1,0-0.2,0.1-0.2,0.1c-0.1,0.1-0.1,0.3-0.1,0.5c0,0.4,0,0.8,0.1,1.2c0,0.4,0.1,0.7-0.3,0.5
				c-0.6-0.3-1.1-0.5-1.7-0.5c-0.1,0,0.1,0.7,0.1,0.7c0.6,1.6,1.6,3.3,3,4.4c1.5,1.2,4.9,2.2,4.9,2.2c0.2-0.3,0.5-0.7,0.7-1
				c0.1-0.2,0.3-0.4,0.3-0.6c0.1-0.2,0.1-0.5,0.2-0.8c0.1-1.1,0.3-2.2,0.3-3.3c0-1.2-0.3-2.2-0.7-3.3
				C652.7,653.5,652.2,652.1,651.9,652.1z"/>
		</g>
		<g id="XMLID_518_">
			<g id="XMLID_519_">
				<path class="st2" d="M648.7,660.2c-1.2-0.9-2-2.4-2.6-3.8c0,0-0.1-0.3-0.1-0.5c-0.1,0-0.2,0-0.3,0c-0.1,0,0.1,0.6,0.1,0.6
					c0.5,1.4,1.4,2.9,2.6,3.8c1.3,1,4.3,2,4.3,2c0-0.1,0.1-0.1,0.1-0.2C652.2,661.9,649.8,661.1,648.7,660.2z"/>
			</g>
		</g>
		<g id="XMLID_516_">
			<g id="XMLID_517_">
				<path class="st2" d="M652.6,658c-0.1-1.3-0.7-2.6-1.4-3.6c0,0-0.2-0.2-0.3-0.3c0-0.1,0.1-0.1,0.1-0.2c0,0,0.4,0.3,0.4,0.4
					c0.7,1,1.3,2.4,1.4,3.6c0.1,1.4-0.7,3.9-0.7,3.9c-0.1,0-0.1,0-0.2,0C652.2,661.2,652.7,659.2,652.6,658z"/>
			</g>
		</g>
		<g id="XMLID_514_">
			<path id="XMLID_515_" class="st2" d="M648.4,655.1c1.2,2.2,2.3,4.5,3.4,6.7c0.1,0.2,0.4,0.1,0.3-0.1c-1.1-2.3-2.2-4.6-3.4-6.8
				C648.6,654.8,648.3,654.9,648.4,655.1L648.4,655.1z"/>
		</g>
		<g id="XMLID_513_">
			<path class="st2" d="M653.1,660.7c0,0-0.2,0-0.2,0.1c-0.1,0.2-0.2,0.4-0.2,0.6c-0.2-0.3-0.5-0.5-0.8-0.6c0,0,0,0,0,0c0,0,0,0,0,0
				c-0.1,0.1-0.2,0.3-0.2,0.5c0,0.1,0.1,0.3,0.1,0.4c-0.1-0.1-0.3-0.3-0.4-0.4c-0.1,0-0.1,0-0.2-0.1c-0.1,0-0.2-0.1-0.3-0.1
				c0,0-0.1,0-0.1,0c0,0.1,0,0.1,0,0.2c0,0.1,0,0.3,0,0.4c0,0.1,0,0.2-0.1,0.2c-0.2-0.1-0.5-0.2-0.7-0.2c0,0,0.1,0.2,0.2,0.3
				c0.5,0.3,0.6,1.2,1.1,1.6c0.5,0.4,1.8,0.8,1.8,0.8c0.1-0.1,0.2-0.2,0.3-0.4c0-0.1,0.1-0.1,0.1-0.2c0-0.1,0.1-0.2,0.1-0.3
				c0.1-0.4,0.1-0.6,0.1-1c0-0.4-0.3-0.8-0.4-1.2C653.1,661.4,653.1,660.8,653.1,660.7z"/>
		</g>
		<path id="XMLID_512_" class="st2" d="M658.4,674.7c-1.9-3.8-4.4-7.2-5.5-11.3c-0.1-0.4-0.7-0.2-0.6,0.2c1.1,4.3,3.8,7.8,5.7,11.7
			c0.5,1,1,2.1,1.4,3.2l0.6,0C659.6,677.2,659,676,658.4,674.7z"/>
	</g>
	<g id="XMLID_255_">
		<g id="XMLID_264_">
			
				<linearGradient id="SVGID_2_" gradientUnits="userSpaceOnUse" x1="1112.552" y1="151.2223" x2="1124.0394" y2="151.2223" gradientTransform="matrix(0.6716 0.7409 -0.7409 0.6716 114.4994 -288.6118)">
				<stop  offset="0" style="stop-color:#2329F0"/>
				<stop  offset="0.3198" style="stop-color:#2433F1"/>
				<stop  offset="0.8713" style="stop-color:#264FF3"/>
				<stop  offset="1" style="stop-color:#2657F4"/>
			</linearGradient>
			<path class="st4" d="M760.8,640.1c-0.1-0.1-0.3-0.1-0.4-0.1c-0.6,0.1-1.4,0.4-1.9,1c0.2-1.1-0.1-2.3-0.4-3.3c0-0.1,0-0.1-0.1-0.1
				c0,0-0.1,0-0.1,0c-0.6,0.1-1.1,0.3-1.6,0.6c-0.4,0.3-0.6,0.8-0.7,1.3c0.1-0.6,0.1-1.3-0.1-1.9c-0.1-0.3-0.2-0.4-0.3-0.6
				c-0.1-0.2-0.2-0.6-0.4-0.8c-0.1-0.1-0.2-0.1-0.3-0.1c-0.2,0-0.4,0.2-0.5,0.3c-0.3,0.3-0.7,0.7-1,1c-0.3,0.3-0.5,0.7-0.7,0.1
				c-0.2-0.7-0.5-1.4-1-1.9c-0.1-0.1-0.5,0.6-0.5,0.7c-0.9,1.8-1.6,4.1-1.5,6.2c0.1,2.2,2,6.2,2,6.2c0.5-0.1,1-0.1,1.5-0.2
				c0.3,0,0.5-0.1,0.8-0.1c0.3-0.1,0.6-0.3,0.8-0.5c1.1-0.7,2.2-1.5,3.1-2.4c1-1,1.8-2.1,2.4-3.3
				C760.2,641.9,761.1,640.4,760.8,640.1z"/>
		</g>
		<g id="XMLID_262_">
			<g id="XMLID_263_">
				<path class="st2" d="M751.1,643.9c-0.1-1.8,0.5-3.8,1.3-5.4c0,0,0.2-0.3,0.3-0.5c-0.1-0.1-0.1-0.2-0.2-0.3
					c0-0.1-0.4,0.6-0.5,0.6c-0.8,1.6-1.4,3.6-1.3,5.4c0.1,2,1.7,5.4,1.7,5.4c0.1,0,0.2,0,0.2,0C752.4,648.3,751.2,645.5,751.1,643.9
					z"/>
			</g>
		</g>
		<g id="XMLID_260_">
			<g id="XMLID_261_">
				<path class="st2" d="M756.2,645.5c1.1-1.1,1.7-2.7,2.1-4.2c0,0,0-0.3,0.1-0.5c0.1,0,0.2-0.1,0.3-0.1c0.1,0,0,0.6,0,0.6
					c-0.4,1.5-1,3.1-2.1,4.2c-1.1,1.2-4,2.6-4,2.6c0,0-0.1-0.1-0.1-0.1C753,647.7,755.2,646.6,756.2,645.5z"/>
			</g>
		</g>
		<g id="XMLID_258_">
			<path id="XMLID_259_" class="st2" d="M755.4,639.4c-1,2.8-2.1,5.6-3.3,8.4c-0.1,0.2,0.2,0.4,0.3,0.2c1.2-2.8,2.3-5.7,3.3-8.5
				C755.8,639.3,755.5,639.2,755.4,639.4L755.4,639.4z"/>
		</g>
		<g id="XMLID_257_">
			<path class="st2" d="M754.2,648.1c0,0-0.2-0.1-0.2-0.1c-0.2,0-0.5,0.2-0.7,0.3c0.1-0.4,0-0.8-0.1-1.2c0,0,0,0,0,0c0,0,0,0,0,0
				c-0.2,0-0.4,0.1-0.6,0.2c-0.1,0.1-0.2,0.3-0.3,0.5c0-0.2,0-0.5,0-0.7c0-0.1-0.1-0.1-0.1-0.2c-0.1-0.1-0.1-0.2-0.1-0.3
				c0,0-0.1,0-0.1,0c-0.1,0-0.1,0.1-0.2,0.1c-0.1,0.1-0.2,0.2-0.4,0.4c-0.1,0.1-0.2,0.2-0.2,0c-0.1-0.3-0.3-0.6-0.4-0.8
				c0,0-0.1,0.2-0.1,0.3c0.2,0.7-0.6,1.5-0.5,2.2c0,0.8,0.7,2.2,0.7,2.2c0.2,0,0.4,0,0.5-0.1c0.1,0,0.2,0,0.3-0.1
				c0.1,0,0.2-0.1,0.3-0.2c0.4-0.3,0.6-0.4,0.9-0.7c0.4-0.3,0.5-0.9,0.7-1.3C753.6,648.7,754.1,648.2,754.2,648.1z"/>
		</g>
		<path id="XMLID_256_" class="st2" d="M746,664.1c1.8-4.7,2.9-9.7,5.7-14c0.3-0.4-0.4-0.7-0.6-0.3c-2.9,4.4-3.9,9.7-5.9,14.5
			c-0.5,1.3-1.1,2.6-1.7,3.8l0.5,0.6C744.7,667.2,745.4,665.7,746,664.1z"/>
	</g>
	<g id="XMLID_243_">
		<g id="XMLID_254_">
			
				<linearGradient id="SVGID_3_" gradientUnits="userSpaceOnUse" x1="935.4561" y1="828.1448" x2="945.0209" y2="828.1448" gradientTransform="matrix(0.9389 -0.3443 0.3443 0.9389 -529.6537 206.6255)">
				<stop  offset="0" style="stop-color:#2329F0"/>
				<stop  offset="0.3198" style="stop-color:#2433F1"/>
				<stop  offset="0.8713" style="stop-color:#264FF3"/>
				<stop  offset="1" style="stop-color:#2657F4"/>
			</linearGradient>
			<path class="st5" d="M639.5,654.4c-0.1,0-0.1,0.2-0.2,0.3c-0.1,0.5-0.1,1.2,0.2,1.7c-0.8-0.5-1.8-0.7-2.7-0.7c0,0-0.1,0-0.1,0
				c0,0,0,0.1,0,0.1c-0.1,0.4-0.1,0.9,0,1.4c0.1,0.4,0.5,0.7,0.8,1c-0.4-0.3-1-0.5-1.5-0.5c-0.2,0-0.4,0-0.6,0.1c-0.2,0-0.5,0-0.7,0
				c-0.1,0-0.1,0.1-0.2,0.2c0,0.2,0,0.3,0.1,0.5c0.2,0.4,0.3,0.7,0.5,1.1c0.2,0.4,0.4,0.6-0.1,0.5c-0.6,0-1.2,0-1.8,0.2
				c-0.1,0,0.3,0.6,0.4,0.6c1.1,1.3,2.7,2.5,4.3,3.1c1.8,0.6,5.4,0.4,5.4,0.4c0.1-0.4,0.2-0.8,0.3-1.2c0.1-0.2,0.1-0.4,0.1-0.6
				c0-0.3,0-0.5-0.1-0.8c-0.2-1.1-0.5-2.1-0.9-3.1c-0.4-1.1-1-2-1.8-2.9C640.7,655.4,639.8,654.2,639.5,654.4z"/>
		</g>
		<g id="XMLID_251_">
			<g id="XMLID_253_">
				<path class="st2" d="M639.3,663.1c-1.4-0.5-2.8-1.6-3.7-2.7c0,0-0.2-0.3-0.3-0.4c-0.1,0-0.2,0-0.3,0.1c-0.1,0,0.3,0.5,0.3,0.5
					c1,1.1,2.3,2.2,3.7,2.7c1.5,0.5,4.7,0.4,4.7,0.4c0-0.1,0-0.1,0.1-0.2C643.1,663.4,640.7,663.5,639.3,663.1z"/>
			</g>
		</g>
		<g id="XMLID_248_">
			<g id="XMLID_250_">
				<path class="st2" d="M642.2,659.6c-0.5-1.2-1.6-2.2-2.6-2.9c0,0-0.2-0.1-0.4-0.2c0-0.1,0-0.2,0-0.2c0,0,0.5,0.2,0.5,0.2
					c1,0.7,2.1,1.7,2.6,2.9c0.6,1.3,0.7,3.9,0.7,3.9c-0.1,0-0.1,0-0.2,0.1C642.9,662.8,642.7,660.7,642.2,659.6z"/>
			</g>
		</g>
		<g id="XMLID_246_">
			<path id="XMLID_247_" class="st2" d="M637.3,658.4c1.9,1.7,3.7,3.4,5.5,5.2c0.1,0.1,0.4-0.1,0.2-0.2c-1.8-1.8-3.6-3.5-5.5-5.2
				C637.3,658,637.1,658.2,637.3,658.4L637.3,658.4z"/>
		</g>
		<g id="XMLID_245_">
			<path class="st2" d="M643.6,662c0,0-0.2,0.1-0.2,0.1c0,0.2,0,0.4,0.1,0.6c-0.3-0.2-0.7-0.2-1-0.3c0,0,0,0,0,0c0,0,0,0,0,0
				c0,0.2,0,0.3,0,0.5c0,0.1,0.2,0.3,0.3,0.4c-0.2-0.1-0.3-0.2-0.5-0.2c-0.1,0-0.1,0-0.2,0c-0.1,0-0.2,0-0.3,0c0,0,0,0-0.1,0.1
				c0,0.1,0,0.1,0,0.2c0.1,0.1,0.1,0.3,0.2,0.4c0.1,0.1,0.1,0.2,0,0.2c-0.2,0-0.5,0-0.7,0.1c0,0,0.1,0.2,0.2,0.2
				c0.6,0.1,1,0.9,1.5,1.1c0.6,0.2,1.9,0.1,1.9,0.1c0-0.1,0.1-0.3,0.1-0.4c0-0.1,0-0.2,0-0.2c0-0.1,0-0.2,0-0.3
				c-0.1-0.4-0.1-0.6-0.2-0.9c-0.2-0.4-0.5-0.7-0.8-1C643.8,662.7,643.6,662.1,643.6,662z"/>
		</g>
		<path id="XMLID_244_" class="st2" d="M653.4,673.3c-3.1-2.9-6.6-5.3-9.1-8.8c-0.2-0.3-0.7,0.1-0.5,0.4c2.5,3.6,6.2,6.1,9.4,9.1
			c0.8,0.8,1.6,1.7,2.4,2.5l0.6-0.2C655.3,675.3,654.4,674.3,653.4,673.3z"/>
	</g>
	<g id="XMLID_501_">
		<g id="XMLID_510_">
			
				<linearGradient id="SVGID_4_" gradientUnits="userSpaceOnUse" x1="1085.2186" y1="649.5897" x2="1082.226" y2="629.7429" gradientTransform="matrix(1 0 0 1 -407.1472 0)">
				<stop  offset="0" style="stop-color:#2329F0"/>
				<stop  offset="0.3198" style="stop-color:#2433F1"/>
				<stop  offset="0.8713" style="stop-color:#264FF3"/>
				<stop  offset="1" style="stop-color:#2657F4"/>
			</linearGradient>
			<path class="st6" d="M682.7,631.2c-0.2,0-0.4,0.1-0.5,0.3c-0.6,0.6-1.3,1.6-1.4,2.6c-0.6-1.5-2-2.6-3.2-3.5
				c-0.1,0-0.1-0.1-0.2-0.1c-0.1,0-0.1,0-0.1,0.1c-0.6,0.5-1.1,1.2-1.3,2c-0.2,0.7,0,1.5,0.2,2.1c-0.4-0.8-0.9-1.6-1.6-2.1
				c-0.3-0.2-0.6-0.3-0.9-0.5c-0.4-0.2-0.7-0.6-1.1-0.6c-0.1,0-0.3,0-0.4,0.1c-0.2,0.2-0.3,0.5-0.3,0.8c-0.1,0.7-0.2,1.3-0.4,2
				c-0.1,0.7,0,1.1-0.7,0.7c-0.8-0.6-1.7-1.2-2.7-1.5c-0.1,0-0.1,1.1-0.1,1.2c0.4,2.9,1.4,6.1,3.3,8.4c2,2.5,7.3,5.6,7.3,5.6
				c0.5-0.5,1.1-1,1.6-1.4c0.3-0.2,0.5-0.5,0.8-0.8c0.3-0.4,0.4-0.8,0.6-1.2c0.6-1.7,1.3-3.5,1.7-5.3c0.4-1.9,0.4-3.8,0.1-5.8
				C683.4,633.8,683.2,631.3,682.7,631.2z"/>
		</g>
		<g id="XMLID_508_">
			<g id="XMLID_509_">
				<path class="st7" d="M674.4,643.4c-1.6-2-2.5-4.8-2.8-7.3c0-0.1,0-0.6,0-0.9c-0.2-0.1-0.3-0.1-0.5-0.2c-0.1,0-0.1,1,0,1.1
					c0.4,2.5,1.2,5.3,2.8,7.3c1.7,2.2,6.4,4.9,6.4,4.9c0.1-0.1,0.2-0.1,0.2-0.2C679.4,647.5,675.8,645.3,674.4,643.4z"/>
			</g>
		</g>
		<g id="XMLID_506_">
			<g id="XMLID_507_">
				<path class="st7" d="M681.6,641.3c0.3-2.1-0.2-4.5-1-6.5c0,0-0.2-0.4-0.4-0.6c0.1-0.1,0.2-0.2,0.3-0.3c0.1-0.1,0.5,0.7,0.5,0.8
					c0.8,2,1.3,4.4,1,6.5c-0.3,2.3-2.6,6.2-2.6,6.2c-0.1,0-0.2,0-0.3-0.1C679.6,646.4,681.3,643.2,681.6,641.3z"/>
			</g>
		</g>
		<g id="XMLID_504_">
			<path id="XMLID_505_" class="st7" d="M675.8,634.8c1.1,4.1,2.1,8.3,3,12.4c0.1,0.3,0.6,0.3,0.5-0.1c-0.9-4.2-1.9-8.4-3-12.5
				C676.1,634.3,675.7,634.5,675.8,634.8L675.8,634.8z"/>
		</g>
		<g id="XMLID_503_">
			<path class="st2" d="M681.4,645.8c0-0.1-0.3,0-0.4,0.1c-0.2,0.2-0.5,0.6-0.5,0.9c-0.2-0.5-0.7-0.9-1.1-1.3c0,0,0,0-0.1,0
				c0,0,0,0-0.1,0c-0.2,0.2-0.4,0.4-0.5,0.7c-0.1,0.2,0,0.5,0.1,0.8c-0.1-0.3-0.3-0.6-0.6-0.8c-0.1-0.1-0.2-0.1-0.3-0.2
				c-0.1-0.1-0.3-0.2-0.4-0.2c-0.1,0-0.1,0-0.1,0c-0.1,0.1-0.1,0.2-0.1,0.3c0,0.2-0.1,0.5-0.1,0.7c0,0.2,0,0.4-0.2,0.2
				c-0.3-0.2-0.8-0.5-1.1-0.6c0,0,0,0.4,0.2,0.5c0.8,0.7,0.5,2.2,1.2,3c0.7,0.9,2.6,2,2.6,2c0.2-0.2,0.4-0.3,0.6-0.5
				c0.1-0.1,0.2-0.2,0.3-0.3c0.1-0.1,0.2-0.3,0.2-0.4c0.2-0.6,0.4-0.9,0.5-1.5c0.2-0.7-0.1-1.4-0.2-2.1
				C681.2,647,681.4,646.1,681.4,645.8z"/>
		</g>
		<path id="XMLID_502_" class="st2" d="M684.9,671c-1.7-6.9-4.5-13.6-4.8-20.8c0-0.7-1-0.5-1,0.1c0.2,7.5,3.3,14.4,5,21.6
			c0.5,1.9,0.8,3.9,1.1,5.8l1,0.2C685.8,675.6,685.4,673.3,684.9,671z"/>
	</g>
	<g id="XMLID_289_">
		<g id="XMLID_500_">
			
				<linearGradient id="SVGID_5_" gradientUnits="userSpaceOnUse" x1="1037.5088" y1="683.5428" x2="1141.6193" y2="683.5428" gradientTransform="matrix(1 0 0 1 -407.1472 0)">
				<stop  offset="0" style="stop-color:#673AB7"/>
				<stop  offset="0.1719" style="stop-color:#6F44BA"/>
				<stop  offset="0.4695" style="stop-color:#8561C3"/>
				<stop  offset="0.8546" style="stop-color:#A98ED1"/>
				<stop  offset="1" style="stop-color:#B8A1D7"/>
			</linearGradient>
			<path class="st8" d="M664.3,710.5c-1.7-0.8-3.4-1.7-5-2.7c-8.6-5-36.2-22.7-27.2-34.9c2.4-3.3,6.8-4.3,10.8-4.4
				c3.7-0.1,7.5,0.5,11.1,1.7c0.7,0.2,1.5,0.5,2.3,0.3c1.2-0.4,1.6-1.9,1.7-3.2c0.3-3.4,0.3-7,1.9-10c3.4-6.5,12.9-7.5,19.5-4.2
				c3.7,1.8,7.7,4.7,11.4,3.1c2-0.9,3.2-2.8,4.8-4.3c3.8-3.6,9.5-4.2,14.7-4.6c4-0.3,8.3-0.6,11.9,1.1c2.2,1.1,4,2.9,5.5,4.8
				c11,13.8,7.3,34.4-1.7,48.4c-6.6,10.5-15.7,19.4-28.5,18.3C686,719,674.7,715.7,664.3,710.5z"/>
		</g>
		<g id="XMLID_477_" class="st9">
			<g id="XMLID_498_">
				<path id="XMLID_499_" class="st2" d="M641.4,677.1c19.6,11.4,36.5,26.4,55,39.4c0.1,0.1,0.5-0.1,0.4-0.2
					c-18.4-13-35.4-28-55-39.4C641.7,676.8,641.3,677,641.4,677.1L641.4,677.1z"/>
			</g>
			<g id="XMLID_496_">
				<path id="XMLID_497_" class="st2" d="M647.6,675.6c1.4,3,3,5.8,5,8.5c0.1,0.2,0.6,0,0.4-0.2c-1.9-2.6-3.6-5.4-4.9-8.4
					C648,675.3,647.5,675.4,647.6,675.6L647.6,675.6z"/>
			</g>
			<g id="XMLID_242_">
				<path id="XMLID_495_" class="st2" d="M655.4,677.7c1.2,4.4,3.1,8.4,5.6,12.2c0.1,0.1,0.5,0,0.4-0.2c-2.5-3.8-4.3-7.8-5.6-12.2
					C655.9,677.5,655.4,677.6,655.4,677.7L655.4,677.7z"/>
			</g>
			<g id="XMLID_492_">
				<path id="XMLID_493_" class="st2" d="M663.4,682.8c1.5,4.6,3.5,9,5.8,13.3c0.1,0.1,0.5-0.1,0.5-0.1c-2.3-4.3-4.3-8.7-5.8-13.3
					C663.8,682.6,663.4,682.7,663.4,682.8L663.4,682.8z"/>
			</g>
			<g id="XMLID_238_">
				<path id="XMLID_240_" class="st2" d="M671.8,687.1c1.7,6,4.2,11.6,7.7,16.8c0.1,0.2,0.6,0,0.4-0.2c-3.4-5.2-6-10.7-7.6-16.7
					C672.2,686.8,671.7,686.9,671.8,687.1L671.8,687.1z"/>
			</g>
			<g id="XMLID_488_">
				<path id="XMLID_489_" class="st2" d="M678.4,691.4c3.8,7,7.8,13.8,12,20.6c0.1,0.1,0.5,0,0.4-0.2c-4.2-6.7-8.2-13.6-11.9-20.5
					C678.8,691.1,678.3,691.3,678.4,691.4L678.4,691.4z"/>
			</g>
			<g id="XMLID_486_">
				<path id="XMLID_237_" class="st2" d="M643.7,683.4c3.5,0.2,6.9,0.8,10.3,1.7c0.1,0,0.5-0.2,0.4-0.2c-3.4-0.9-6.9-1.5-10.4-1.8
					C643.8,683.2,643.4,683.4,643.7,683.4L643.7,683.4z"/>
			</g>
			<g id="XMLID_484_">
				<path id="XMLID_485_" class="st2" d="M654.9,690.5c3.6,0.6,7.2,1.6,10.7,2.9c0.1,0.1,0.6-0.2,0.4-0.2c-3.5-1.3-7.1-2.3-10.7-2.9
					C655,690.2,654.6,690.5,654.9,690.5L654.9,690.5z"/>
			</g>
			<g id="XMLID_482_">
				<path id="XMLID_236_" class="st2" d="M666.1,698.7c3.3-0.4,6.2,1.5,9.4,2.1c0.1,0,0.5-0.2,0.3-0.2c-3.3-0.7-6.2-2.6-9.6-2.1
					C666,698.5,665.8,698.8,666.1,698.7L666.1,698.7z"/>
			</g>
			<g id="XMLID_480_">
				<path id="XMLID_481_" class="st2" d="M671.6,704.2c4.1,0,7.5,2,11.5,2.4c0.1,0,0.5-0.2,0.3-0.2c-2.3-0.2-4.2-1.1-6.4-1.8
					c-1.7-0.5-3.4-0.6-5.2-0.6C671.8,704,671.3,704.2,671.6,704.2L671.6,704.2z"/>
			</g>
			<g id="XMLID_478_">
				<path id="XMLID_479_" class="st2" d="M679.4,709.9c3.6,0.6,7.6,0.8,11,2.2c0.1,0.1,0.6-0.1,0.4-0.2c-3.4-1.5-7.4-1.7-11.1-2.3
					C679.6,709.7,679.2,709.9,679.4,709.9L679.4,709.9z"/>
			</g>
		</g>
		<g id="XMLID_321_" class="st9">
			<g id="XMLID_475_">
				<path id="XMLID_476_" class="st2" d="M669.6,657.1c14.6,17.3,25.5,37.2,38.4,55.6c0.1,0.1,0.5,0.1,0.5,0
					c-12.9-18.5-23.8-38.3-38.4-55.6C669.9,656.9,669.5,657,669.6,657.1L669.6,657.1z"/>
			</g>
			<g id="XMLID_473_">
				<path id="XMLID_474_" class="st2" d="M675.9,657.8c0.3,3.3,0.9,6.5,1.8,9.7c0.1,0.2,0.5,0.2,0.5-0.1c-0.9-3.1-1.5-6.3-1.8-9.6
					C676.4,657.6,675.9,657.6,675.9,657.8L675.9,657.8z"/>
			</g>
			<g id="XMLID_471_">
				<path id="XMLID_472_" class="st2" d="M682.6,662.5c-0.3,4.5,0.1,9,1.1,13.4c0,0.1,0.5,0.1,0.5,0c-1.1-4.4-1.4-8.8-1.1-13.3
					C683.1,662.4,682.6,662.3,682.6,662.5L682.6,662.5z"/>
			</g>
			<g id="XMLID_235_">
				<path id="XMLID_470_" class="st2" d="M688.4,670c-0.1,4.9,0.2,9.7,0.9,14.5c0,0.1,0.5,0.1,0.5,0c-0.7-4.8-1.1-9.6-0.9-14.5
					C688.8,669.9,688.4,669.9,688.4,670L688.4,670z"/>
			</g>
			<g id="XMLID_467_">
				<path id="XMLID_234_" class="st2" d="M694.8,676.8c-0.5,6.2,0,12.3,1.5,18.4c0,0.2,0.5,0.2,0.5,0c-1.5-6-2-12.1-1.5-18.3
					C695.3,676.6,694.8,676.6,694.8,676.8L694.8,676.8z"/>
			</g>
			<g id="XMLID_402_">
				<path id="XMLID_466_" class="st2" d="M699.5,683.1c1.2,7.9,2.6,15.7,4.3,23.4c0,0.2,0.5,0.2,0.5,0c-1.7-7.7-3.1-15.5-4.3-23.3
					C700,683,699.5,683,699.5,683.1L699.5,683.1z"/>
			</g>
			<g id="XMLID_233_">
				<path id="XMLID_400_" class="st2" d="M669.6,663.8c3.2,1.4,6.2,3.1,9.1,5.1c0.1,0.1,0.6,0,0.4-0.1c-2.9-2-5.9-3.7-9.2-5.2
					C669.8,663.7,669.4,663.7,669.6,663.8L669.6,663.8z"/>
			</g>
			<g id="XMLID_332_">
				<path id="XMLID_339_" class="st2" d="M677.7,674.3c3.2,1.8,6.2,3.9,9,6.3c0.1,0.1,0.6,0,0.4-0.1c-2.8-2.4-5.9-4.6-9.1-6.4
					C678,674.1,677.5,674.2,677.7,674.3L677.7,674.3z"/>
			</g>
			<g id="XMLID_231_">
				<path id="XMLID_232_" class="st2" d="M685.5,685.8c3.3,0.7,5.4,3.5,8.1,5.2c0.1,0.1,0.6,0,0.4-0.1c-2.8-1.8-4.9-4.5-8.3-5.3
					C685.4,685.6,685.2,685.8,685.5,685.8L685.5,685.8z"/>
			</g>
			<g id="XMLID_328_">
				<path id="XMLID_329_" class="st2" d="M688.8,692.9c3.9,1.4,6.4,4.4,10,6.2c0.1,0,0.6,0,0.4-0.1c-2-1-3.6-2.5-5.4-3.8
					c-1.4-1.1-2.9-1.7-4.6-2.4C689,692.7,688.6,692.8,688.8,692.9L688.8,692.9z"/>
			</g>
			<g id="XMLID_323_">
				<path id="XMLID_325_" class="st2" d="M694.2,700.9c3.2,1.8,6.9,3.3,9.6,5.8c0.1,0.1,0.6,0.1,0.4-0.1c-2.7-2.5-6.4-4.1-9.6-5.9
					C694.5,700.7,694,700.8,694.2,700.9L694.2,700.9z"/>
			</g>
		</g>
		<g id="XMLID_291_" class="st9">
			<g id="XMLID_317_">
				<path id="XMLID_319_" class="st2" d="M710.9,646c4,22.3,3.6,44.9,5.7,67.4c0,0.2,0.4,0.4,0.4,0.2c-2.1-22.5-1.7-45.1-5.7-67.4
					C711.3,646.1,710.9,645.9,710.9,646L710.9,646z"/>
			</g>
			<g id="XMLID_315_">
				<path id="XMLID_316_" class="st2" d="M716.1,649.8c-1.4,3-2.5,6.1-3.2,9.3c-0.1,0.2,0.4,0.4,0.4,0.2c0.8-3.2,1.8-6.2,3.2-9.2
					C716.6,649.9,716.2,649.6,716.1,649.8L716.1,649.8z"/>
			</g>
			<g id="XMLID_312_">
				<path id="XMLID_314_" class="st2" d="M719.6,657.1c-2.5,3.8-4.4,7.8-5.7,12.2c0,0.1,0.4,0.4,0.4,0.2c1.3-4.3,3.1-8.4,5.6-12.1
					C720,657.3,719.6,657,719.6,657.1L719.6,657.1z"/>
			</g>
			<g id="XMLID_310_">
				<path id="XMLID_311_" class="st2" d="M720.8,666.5c-2.5,4.2-4.6,8.5-6.4,13.1c0,0.1,0.4,0.4,0.4,0.3c1.7-4.5,3.9-8.9,6.4-13.1
					C721.3,666.7,720.9,666.4,720.8,666.5L720.8,666.5z"/>
			</g>
			<g id="XMLID_308_">
				<path id="XMLID_309_" class="st2" d="M723,675.6c-3.5,5.1-6.1,10.7-7.8,16.7c-0.1,0.2,0.4,0.4,0.4,0.2c1.7-6,4.3-11.5,7.8-16.6
					C723.5,675.7,723.1,675.5,723,675.6L723,675.6z"/>
			</g>
			<g id="XMLID_306_">
				<path id="XMLID_307_" class="st2" d="M724,683.5c-2.9,7.4-5.5,14.9-7.9,22.5c-0.1,0.2,0.4,0.4,0.4,0.2c2.4-7.5,5-15,7.9-22.4
					C724.5,683.6,724.1,683.3,724,683.5L724,683.5z"/>
			</g>
			<g id="XMLID_304_">
				<path id="XMLID_305_" class="st2" d="M707.6,651.8c2.1,2.8,3.9,5.8,5.4,9c0.1,0.1,0.5,0.3,0.4,0.2c-1.5-3.2-3.3-6.2-5.4-9
					C707.9,651.8,707.4,651.6,707.6,651.8L707.6,651.8z"/>
			</g>
			<g id="XMLID_302_">
				<path id="XMLID_303_" class="st2" d="M709.5,665c1.9,3.2,3.4,6.5,4.7,10c0.1,0.1,0.5,0.3,0.4,0.1c-1.3-3.5-2.8-6.9-4.7-10.1
					C709.8,664.9,709.3,664.8,709.5,665L709.5,665z"/>
			</g>
			<g id="XMLID_300_">
				<path id="XMLID_301_" class="st2" d="M710.5,678.9c2.5,2.3,2.9,5.7,4.4,8.5c0.1,0.1,0.5,0.3,0.4,0.1c-1.6-2.9-2.1-6.4-4.6-8.7
					C710.5,678.6,710.2,678.7,710.5,678.9L710.5,678.9z"/>
			</g>
			<g id="XMLID_297_">
				<path id="XMLID_298_" class="st2" d="M709.8,686.6c2.7,3.1,3.4,7,5.6,10.4c0.1,0.1,0.5,0.3,0.4,0.1c-1.3-1.9-1.9-4-2.8-6
					c-0.7-1.6-1.7-3-2.9-4.3C710.1,686.6,709.7,686.4,709.8,686.6L709.8,686.6z"/>
			</g>
			<g id="XMLID_293_">
				<path id="XMLID_296_" class="st2" d="M710.6,696.3c1.9,3.1,4.3,6.3,5.4,9.8c0,0.1,0.5,0.3,0.4,0.2c-1.1-3.6-3.5-6.7-5.5-9.9
					C710.9,696.2,710.5,696.1,710.6,696.3L710.6,696.3z"/>
			</g>
		</g>
	</g>
	<g id="XMLID_46_">
		<g id="XMLID_229_">
			
				<linearGradient id="SVGID_6_" gradientUnits="userSpaceOnUse" x1="-238.4693" y1="683.2171" x2="-134.3589" y2="683.2171" gradientTransform="matrix(-1 0 0 1 569.2941 0)">
				<stop  offset="0" style="stop-color:#673AB7"/>
				<stop  offset="0.1719" style="stop-color:#6F44BA"/>
				<stop  offset="0.4695" style="stop-color:#8561C3"/>
				<stop  offset="0.8546" style="stop-color:#A98ED1"/>
				<stop  offset="1" style="stop-color:#B8A1D7"/>
			</linearGradient>
			<path class="st10" d="M773.8,710.2c1.7-0.8,3.4-1.7,5-2.7c8.6-5,36.2-22.7,27.2-34.9c-2.4-3.3-6.8-4.3-10.8-4.4
				c-3.7-0.1-7.5,0.5-11.1,1.7c-0.7,0.2-1.5,0.5-2.3,0.3c-1.2-0.4-1.6-1.9-1.7-3.2c-0.3-3.4-0.3-7-1.9-10
				c-3.4-6.5-12.9-7.5-19.5-4.2c-3.7,1.8-7.7,4.7-11.4,3.1c-2-0.9-3.2-2.8-4.8-4.3c-3.8-3.6-9.5-4.2-14.7-4.6
				c-4-0.3-8.3-0.6-11.9,1.1c-2.2,1.1-4,2.9-5.5,4.8c-11,13.8-7.3,34.4,1.7,48.4c6.6,10.5,15.7,19.4,28.5,18.3
				C752.2,718.6,763.5,715.4,773.8,710.2z"/>
		</g>
		<g id="XMLID_204_" class="st9">
			<g id="XMLID_227_">
				<path id="XMLID_228_" class="st2" d="M796.8,676.7c-19.6,11.4-36.5,26.4-55,39.4c-0.1,0.1-0.5-0.1-0.4-0.2
					c18.4-13,35.4-28,55-39.4C796.5,676.5,796.9,676.7,796.8,676.7L796.8,676.7z"/>
			</g>
			<g id="XMLID_225_">
				<path id="XMLID_226_" class="st2" d="M790.5,675.3c-1.4,3-3,5.8-5,8.5c-0.1,0.2-0.6,0-0.4-0.2c1.9-2.6,3.6-5.4,4.9-8.4
					C790.1,675,790.6,675.1,790.5,675.3L790.5,675.3z"/>
			</g>
			<g id="XMLID_222_">
				<path id="XMLID_223_" class="st2" d="M782.7,677.4c-1.2,4.4-3.1,8.4-5.6,12.2c-0.1,0.1-0.5,0-0.4-0.2c2.5-3.8,4.3-7.8,5.6-12.2
					C782.2,677.1,782.7,677.3,782.7,677.4L782.7,677.4z"/>
			</g>
			<g id="XMLID_220_">
				<path id="XMLID_221_" class="st2" d="M774.7,682.5c-1.5,4.6-3.5,9-5.8,13.3c-0.1,0.1-0.5-0.1-0.5-0.1c2.3-4.3,4.3-8.7,5.8-13.3
					C774.3,682.3,774.7,682.4,774.7,682.5L774.7,682.5z"/>
			</g>
			<g id="XMLID_218_">
				<path id="XMLID_219_" class="st2" d="M766.4,686.8c-1.7,6-4.2,11.6-7.7,16.8c-0.1,0.2-0.6,0-0.4-0.2c3.4-5.2,6-10.7,7.6-16.7
					C765.9,686.4,766.4,686.6,766.4,686.8L766.4,686.8z"/>
			</g>
			<g id="XMLID_216_">
				<path id="XMLID_217_" class="st2" d="M759.7,691.1c-3.8,7-7.8,13.8-12,20.6c-0.1,0.1-0.5,0-0.4-0.2c4.2-6.7,8.2-13.6,11.9-20.5
					C759.4,690.8,759.8,691,759.7,691.1L759.7,691.1z"/>
			</g>
			<g id="XMLID_214_">
				<path id="XMLID_215_" class="st2" d="M794.5,683.1c-3.5,0.2-6.9,0.8-10.3,1.7c-0.1,0-0.5-0.2-0.4-0.2c3.4-0.9,6.9-1.5,10.4-1.8
					C794.3,682.8,794.7,683,794.5,683.1L794.5,683.1z"/>
			</g>
			<g id="XMLID_212_">
				<path id="XMLID_213_" class="st2" d="M783.2,690.2c-3.6,0.6-7.2,1.6-10.7,2.9c-0.1,0.1-0.6-0.2-0.4-0.2
					c3.5-1.3,7.1-2.3,10.7-2.9C783.1,689.9,783.5,690.1,783.2,690.2L783.2,690.2z"/>
			</g>
			<g id="XMLID_210_">
				<path id="XMLID_211_" class="st2" d="M772,698.4c-3.3-0.4-6.2,1.5-9.4,2.1c-0.1,0-0.5-0.2-0.3-0.2c3.3-0.7,6.2-2.6,9.6-2.1
					C772.2,698.2,772.4,698.5,772,698.4L772,698.4z"/>
			</g>
			<g id="XMLID_207_">
				<path id="XMLID_208_" class="st2" d="M766.6,703.9c-4.1,0-7.5,2-11.5,2.4c-0.1,0-0.5-0.2-0.3-0.2c2.3-0.2,4.2-1.1,6.4-1.8
					c1.7-0.5,3.4-0.6,5.2-0.6C766.4,703.7,766.8,703.9,766.6,703.9L766.6,703.9z"/>
			</g>
			<g id="XMLID_205_">
				<path id="XMLID_206_" class="st2" d="M758.7,709.6c-3.6,0.6-7.6,0.8-11,2.2c-0.1,0.1-0.6-0.1-0.4-0.2c3.4-1.5,7.4-1.7,11.1-2.3
					C758.5,709.4,759,709.6,758.7,709.6L758.7,709.6z"/>
			</g>
		</g>
		<g id="XMLID_170_" class="st9">
			<g id="XMLID_201_">
				<path id="XMLID_202_" class="st2" d="M768.6,656.7c-14.6,17.3-25.5,37.2-38.4,55.6c-0.1,0.1-0.5,0.1-0.5,0
					c12.9-18.5,23.8-38.3,38.4-55.6C768.2,656.6,768.6,656.6,768.6,656.7L768.6,656.7z"/>
			</g>
			<g id="XMLID_198_">
				<path id="XMLID_200_" class="st2" d="M762.2,657.5c-0.3,3.3-0.9,6.5-1.8,9.7c-0.1,0.2-0.5,0.2-0.5-0.1c0.9-3.1,1.5-6.3,1.8-9.6
					C761.7,657.3,762.2,657.3,762.2,657.5L762.2,657.5z"/>
			</g>
			<g id="XMLID_194_">
				<path id="XMLID_196_" class="st2" d="M755.5,662.1c0.3,4.5-0.1,9-1.1,13.4c0,0.1-0.5,0.1-0.5,0c1.1-4.4,1.4-8.8,1.1-13.3
					C755,662,755.5,662,755.5,662.1L755.5,662.1z"/>
			</g>
			<g id="XMLID_192_">
				<path id="XMLID_193_" class="st2" d="M749.8,669.6c0.1,4.9-0.2,9.7-0.9,14.5c0,0.1-0.5,0.1-0.5,0c0.7-4.8,1.1-9.6,0.9-14.5
					C749.3,669.6,749.8,669.5,749.8,669.6L749.8,669.6z"/>
			</g>
			<g id="XMLID_190_">
				<path id="XMLID_191_" class="st2" d="M743.3,676.5c0.5,6.2,0,12.3-1.5,18.4c0,0.2-0.5,0.2-0.5,0c1.5-6,2-12.1,1.5-18.3
					C742.8,676.3,743.3,676.3,743.3,676.5L743.3,676.5z"/>
			</g>
			<g id="XMLID_188_">
				<path id="XMLID_189_" class="st2" d="M738.6,682.8c-1.2,7.9-2.6,15.7-4.3,23.4c0,0.2-0.5,0.2-0.5,0c1.7-7.7,3.1-15.5,4.3-23.3
					C738.1,682.7,738.6,682.6,738.6,682.8L738.6,682.8z"/>
			</g>
			<g id="XMLID_186_">
				<path id="XMLID_187_" class="st2" d="M768.5,663.5c-3.2,1.4-6.2,3.1-9.1,5.1c-0.1,0.1-0.6,0-0.4-0.1c2.9-2,5.9-3.7,9.2-5.2
					C768.3,663.3,768.8,663.4,768.5,663.5L768.5,663.5z"/>
			</g>
			<g id="XMLID_183_">
				<path id="XMLID_185_" class="st2" d="M760.4,674c-3.2,1.8-6.2,3.9-9,6.3c-0.1,0.1-0.6,0-0.4-0.1c2.8-2.4,5.9-4.6,9.1-6.4
					C760.2,673.7,760.6,673.8,760.4,674L760.4,674z"/>
			</g>
			<g id="XMLID_181_">
				<path id="XMLID_182_" class="st2" d="M752.6,685.5c-3.3,0.7-5.4,3.5-8.1,5.2c-0.1,0.1-0.6,0-0.4-0.1c2.8-1.8,4.9-4.5,8.3-5.3
					C752.7,685.3,752.9,685.4,752.6,685.5L752.6,685.5z"/>
			</g>
			<g id="XMLID_175_">
				<path id="XMLID_176_" class="st2" d="M749.4,692.5c-3.9,1.4-6.4,4.4-10,6.2c-0.1,0-0.6,0-0.4-0.1c2-1,3.6-2.5,5.4-3.8
					c1.4-1.1,2.9-1.7,4.6-2.4C749.1,692.4,749.6,692.5,749.4,692.5L749.4,692.5z"/>
			</g>
			<g id="XMLID_173_">
				<path id="XMLID_174_" class="st2" d="M743.9,700.6c-3.2,1.8-6.9,3.3-9.6,5.8c-0.1,0.1-0.6,0.1-0.4-0.1c2.7-2.5,6.4-4.1,9.6-5.9
					C743.6,700.4,744.1,700.4,743.9,700.6L743.9,700.6z"/>
			</g>
		</g>
		<g id="XMLID_78_" class="st9">
			<g id="XMLID_166_">
				<path id="XMLID_168_" class="st2" d="M727.2,645.7c-4,22.3-3.6,44.9-5.7,67.4c0,0.2-0.4,0.4-0.4,0.2c2.1-22.5,1.7-45.1,5.7-67.4
					C726.8,645.7,727.2,645.5,727.2,645.7L727.2,645.7z"/>
			</g>
			<g id="XMLID_164_">
				<path id="XMLID_165_" class="st2" d="M722.1,649.5c1.4,3,2.5,6.1,3.2,9.3c0.1,0.2-0.4,0.4-0.4,0.2c-0.8-3.2-1.8-6.2-3.2-9.2
					C721.6,649.6,722,649.3,722.1,649.5L722.1,649.5z"/>
			</g>
			<g id="XMLID_160_">
				<path id="XMLID_162_" class="st2" d="M718.6,656.8c2.5,3.8,4.4,7.8,5.7,12.2c0,0.1-0.4,0.4-0.4,0.2c-1.3-4.3-3.1-8.4-5.6-12.1
					C718.1,657,718.5,656.7,718.6,656.8L718.6,656.8z"/>
			</g>
			<g id="XMLID_150_">
				<path id="XMLID_151_" class="st2" d="M717.3,666.2c2.5,4.2,4.6,8.5,6.4,13.1c0,0.1-0.4,0.4-0.4,0.3c-1.7-4.5-3.9-8.9-6.4-13.1
					C716.8,666.4,717.2,666.1,717.3,666.2L717.3,666.2z"/>
			</g>
			<g id="XMLID_147_">
				<path id="XMLID_149_" class="st2" d="M715.1,675.3c3.5,5.2,6.1,10.7,7.8,16.7c0.1,0.2-0.4,0.4-0.4,0.2c-1.7-6-4.3-11.5-7.8-16.6
					C714.6,675.4,715,675.1,715.1,675.3L715.1,675.3z"/>
			</g>
			<g id="XMLID_144_">
				<path id="XMLID_146_" class="st2" d="M714.1,683.2c2.9,7.4,5.5,14.9,7.9,22.5c0.1,0.2-0.4,0.4-0.4,0.2c-2.4-7.5-5-15-7.9-22.4
					C713.7,683.3,714.1,683,714.1,683.2L714.1,683.2z"/>
			</g>
			<g id="XMLID_140_">
				<path id="XMLID_142_" class="st2" d="M730.5,651.5c-2.1,2.8-3.9,5.8-5.4,9c-0.1,0.1-0.5,0.3-0.4,0.2c1.5-3.2,3.3-6.2,5.4-9
					C730.2,651.5,730.7,651.3,730.5,651.5L730.5,651.5z"/>
			</g>
			<g id="XMLID_138_">
				<path id="XMLID_139_" class="st2" d="M728.7,664.7c-1.9,3.2-3.4,6.5-4.7,10c-0.1,0.1-0.5,0.3-0.4,0.1c1.3-3.5,2.8-6.9,4.7-10.1
					C728.4,664.6,728.8,664.4,728.7,664.7L728.7,664.7z"/>
			</g>
			<g id="XMLID_131_">
				<path id="XMLID_133_" class="st2" d="M727.7,678.6c-2.5,2.3-2.9,5.7-4.4,8.5c-0.1,0.1-0.5,0.3-0.4,0.1c1.6-2.9,2.1-6.4,4.6-8.7
					C727.6,678.3,727.9,678.3,727.7,678.6L727.7,678.6z"/>
			</g>
			<g id="XMLID_94_">
				<path id="XMLID_95_" class="st2" d="M728.3,686.3c-2.7,3.1-3.4,7-5.6,10.4c-0.1,0.1-0.5,0.3-0.4,0.1c1.3-1.9,1.9-4,2.8-6
					c0.7-1.6,1.7-3,2.9-4.3C728,686.3,728.5,686.1,728.3,686.3L728.3,686.3z"/>
			</g>
			<g id="XMLID_92_">
				<path id="XMLID_93_" class="st2" d="M727.5,695.9c-1.9,3.1-4.3,6.3-5.4,9.8c0,0.1-0.5,0.3-0.4,0.2c1.1-3.6,3.5-6.7,5.5-9.9
					C727.2,695.9,727.7,695.7,727.5,695.9L727.5,695.9z"/>
			</g>
		</g>
	</g>
	<path id="XMLID_249_" class="st2" d="M734.2,720.3c-0.6-2.6-1.7-4.2-1.7-4.2c-2.4,0.8-4.3,1.9-5.9,3.1c-0.1-0.1-0.3-0.1-0.4-0.2
		c1.7-9.9-5.5-14.3-5.5-14.3c-2.7,2.4-4.4,5-5.3,7.7c-3.1-8.4-10.6-10.2-10.6-10.2c-1.4,2.2-2.3,4.4-2.8,6.5c-0.5-0.2-1-0.4-1.5-0.6
		c5.4-8.4,0.4-15.2,0.4-15.2c-4.6,1.5-7.6,4.2-9.5,7.3c-2.8-7.8-9.8-8.9-9.8-8.9c-1.6,3.2-2.2,6.2-2,9c-0.9-0.3-1.8-0.6-2.7-0.9
		c-1.7-4.5-5.1-6.5-5.1-6.5c-1.5,1.3-2.6,2.7-3.4,4.1c-0.4-0.1-0.9-0.2-1.3-0.3c-2.2-9.3-10.1-10.8-10.1-10.8
		c-1.7,3.3-2.3,6.3-2.2,9.2c-0.5,0-1.1,0-1.6,0c0-6.2-4-9.7-4-9.7c-5,3-7.3,7.1-8.2,11.3c-0.2,0.1-0.4,0.1-0.7,0.2
		c-0.6-1.7-1.3-2.6-1.3-2.6c-3.7,1.2-6.3,3.1-8.2,5.4c-2.5-5.1-7.1-6.6-7.1-6.6c-3.5,4.9-3.9,9.8-3,14c-0.1,0.1-0.2,0.1-0.3,0.2
		c-4.5-2.9-9-2.1-9-2.1c-0.3,2.5-0.1,4.7,0.4,6.7c-0.7,0.3-1.4,0.6-2.2,0.9c-2.6-4.3-6.6-5.6-6.6-5.6c-1.2,1.7-2.1,3.4-2.6,5.1
		c-3.3-1.7-6.3-1.4-6.3-1.4c-0.3,1.5-0.5,2.9-0.5,4.3c-2.6-0.1-5.2-0.3-7.8-0.5c-2.6-4.1-6.5-5.4-6.5-5.4c-1.1,1.6-1.9,3.1-2.4,4.7
		c-3.4-4-7.6-5-7.6-5c-1.3,2.1-2.1,4.1-2.7,6c-0.6,0.1-1.1,0.3-1.7,0.4c-4.6-3.2-9.3-2.3-9.3-2.3c-0.3,2.4-0.2,4.5,0.3,6.4
		c-0.4,0.3-0.8,0.5-1.1,0.8H734.2z"/>
	<path id="XMLID_252_" class="st2" d="M849.5,720.3c-0.6-2.6-1.7-4.2-1.7-4.2c-2.4,0.8-4.3,1.9-5.9,3.1c-0.1-0.1-0.3-0.1-0.4-0.2
		c1.7-9.9-5.5-14.3-5.5-14.3c-2.7,2.4-4.4,5-5.3,7.7c-3.1-8.4-10.6-10.2-10.6-10.2c-1.4,2.2-2.3,4.4-2.8,6.5c-0.5-0.2-1-0.4-1.5-0.6
		c5.4-8.4,0.4-15.2,0.4-15.2c-4.6,1.5-7.6,4.2-9.5,7.3c-2.8-7.8-9.8-8.9-9.8-8.9c-1.6,3.2-2.2,6.2-2,9c-0.9-0.3-1.8-0.6-2.7-0.9
		c-1.7-4.5-5.1-6.5-5.1-6.5c-1.5,1.3-2.6,2.7-3.4,4.1c-0.4-0.1-0.9-0.2-1.3-0.3c-2.2-9.3-10.1-10.8-10.1-10.8
		c-1.7,3.3-2.3,6.3-2.2,9.2c-0.5,0-1.1,0-1.6,0c0-6.2-4-9.7-4-9.7c-5,3-7.3,7.1-8.2,11.3c-0.2,0.1-0.4,0.1-0.7,0.2
		c-0.6-1.7-1.3-2.6-1.3-2.6c-3.7,1.2-6.3,3.1-8.2,5.4c-2.5-5.1-7.1-6.6-7.1-6.6c-3.5,4.9-3.9,9.8-3,14c-0.1,0.1-0.2,0.1-0.3,0.2
		c-4.5-2.9-9-2.1-9-2.1c-0.3,2.5-0.1,4.7,0.4,6.7c-0.7,0.3-1.4,0.6-2.2,0.9c-2.6-4.3-6.6-5.6-6.6-5.6c-1.2,1.7-2.1,3.4-2.6,5.1
		c-3.3-1.7-6.3-1.4-6.3-1.4c-0.3,1.5-0.5,2.9-0.5,4.3c-2.6-0.1-5.2-0.3-7.8-0.5c-2.6-4.1-6.5-5.4-6.5-5.4c-1.1,1.6-1.9,3.1-2.4,4.7
		c-3.4-4-7.6-5-7.6-5c-1.3,2.1-2.1,4.1-2.7,6c-0.6,0.1-1.1,0.3-1.7,0.4c-4.6-3.2-9.3-2.3-9.3-2.3c-0.3,2.4-0.2,4.5,0.3,6.4
		c-0.4,0.3-0.8,0.5-1.1,0.8H849.5z"/>
</g>
<g>
	
		<linearGradient id="SVGID_7_" gradientUnits="userSpaceOnUse" x1="117.1618" y1="23.0964" x2="108.7694" y2="-66.4229" gradientTransform="matrix(-0.2858 -0.9583 -0.9583 0.2858 1042.7651 794.4628)">
		<stop  offset="0" style="stop-color:#2329F0"/>
		<stop  offset="0.15" style="stop-color:#332DE7"/>
		<stop  offset="0.4427" style="stop-color:#5C39CF"/>
		<stop  offset="0.8455" style="stop-color:#9F4BAA"/>
		<stop  offset="1" style="stop-color:#BA539A"/>
	</linearGradient>
	<path class="st11" d="M1010.7,672.5c3.1,6.6-2.3,11.6-4.6,13.2c4.2-0.1,8.3-0.4,12.4-0.9c-2.4-11.9,5.6-12.9,5.6-12.9
		c2.8,6-1.3,10.5-3.8,12.6c4.2-0.6,8.4-1.5,12.5-2.6c-2.6-12.1,5.6-13.2,5.6-13.2c2.8,6.1-1.4,10.7-3.9,12.7
		c4.1-1.2,8.2-2.5,12.1-4.2c-2.5-12,5.6-13,5.6-13c2.5,5.4-0.6,9.6-3,11.9c3.7-1.6,7.3-3.4,10.8-5.4c-2.5-12.1,5.6-13.1,5.6-13.1
		c2.2,4.7,0.1,8.5-2.1,11c2.2-1.4,4.4-2.8,6.5-4.4c4.7-10.7,11.7-7.1,11.7-7.1c-1.2,7.4-8.8,8.3-11.4,8.4c-2.4,1.7-4.8,3.3-7.3,4.8
		c9.4-3.4,11.9,3.3,11.9,3.3c-6.3,5-13-0.5-14.4-1.8c-3.7,2.1-7.4,4-11.3,5.6c10.3-2.3,11.8,4.9,11.8,4.9c-7.1,4-12.9-2.6-14-4
		c-3.8,1.5-7.6,2.9-11.5,4c10.5,0.4,10.1,7.7,10.1,7.7c-7.5,2-11.4-5-12.4-7.1c-3.9,1-7.9,1.9-11.9,2.5c9.8,3.4,7.3,10.3,7.3,10.3
		c-7.3-0.2-9.3-7.2-9.8-9.9c-4,0.5-8,0.9-12.1,1c9.2,5.8,5,12.1,5,12.1c-7-2-7.2-9.3-7-12.1c-5.6,0.1-11.2-0.3-16.7-1.1
		c-0.8-0.1-0.7-1.3,0.1-1.2c5.6,0.8,11.2,1.1,16.7,1.1C1002.5,673.5,1010.7,672.5,1010.7,672.5z"/>
	
		<linearGradient id="SVGID_8_" gradientUnits="userSpaceOnUse" x1="1019.9231" y1="554.6191" x2="1011.5301" y2="465.0934" gradientTransform="matrix(0.9751 0.2215 -0.2215 0.9751 95.3808 -86.609)">
		<stop  offset="0" style="stop-color:#2329F0"/>
		<stop  offset="0.15" style="stop-color:#332DE7"/>
		<stop  offset="0.4427" style="stop-color:#5C39CF"/>
		<stop  offset="0.8455" style="stop-color:#9F4BAA"/>
		<stop  offset="1" style="stop-color:#BA539A"/>
	</linearGradient>
	<path class="st12" d="M981.8,655.5c-6.8-2.6-11.4,3.1-12.9,5.4c-0.2-4.2-0.2-8.3,0.1-12.5c12,1.6,12.5-6.5,12.5-6.5
		c-6.1-2.4-10.4,2-12.3,4.6c0.3-4.2,0.9-8.5,1.7-12.6c12.3,1.8,12.8-6.4,12.8-6.4c-6.2-2.4-10.6,2.2-12.4,4.7
		c0.9-4.2,2-8.3,3.4-12.4c12.1,1.7,12.6-6.5,12.6-6.5c-5.5-2.1-9.6,1.2-11.7,3.8c1.4-3.8,2.9-7.5,4.7-11.1
		c12.2,1.7,12.7-6.5,12.7-6.5c-4.8-1.9-8.5,0.5-10.8,2.8c1.2-2.3,2.5-4.6,3.9-6.8c10.4-5.4,6.3-12.2,6.3-12.2
		c-7.3,1.7-7.7,9.3-7.6,11.9c-1.5,2.5-3,5-4.3,7.6c2.7-9.6-4.1-11.6-4.1-11.6c-4.6,6.6,1.3,12.9,2.7,14.3c-1.8,3.8-3.5,7.7-4.9,11.6
		c1.6-10.4-5.7-11.5-5.7-11.5c-3.6,7.3,3.4,12.7,4.9,13.7c-1.3,3.9-2.4,7.8-3.2,11.8c-1.1-10.4-8.4-9.6-8.4-9.6
		c-1.5,7.6,5.7,11.1,7.9,11.9c-0.8,4-1.3,8-1.7,12c-4.1-9.5-10.8-6.6-10.8-6.6c0.7,7.2,7.8,8.8,10.6,9.1c-0.3,4-0.3,8.1-0.2,12.1
		c-6.4-8.8-12.4-4.2-12.4-4.2c2.5,6.8,9.7,6.5,12.5,6.2c0.3,5.6,1,11.1,2.2,16.6c0.2,0.8,1.4,0.6,1.2-0.2
		c-1.1-5.5-1.9-11.1-2.2-16.6C981.3,663.7,981.8,655.5,981.8,655.5z"/>
	<g id="XMLID_535_">
		<g id="XMLID_548_">
			<path class="st13" d="M1028.7,623.9c4.3-2.6,8.9-4.6,13.7-6c1.6-0.5,5.4-2.1,6.9-1.3c1.8,0.9,2.1,4.7,2.2,6.4
				c0.7,12.3-4.5,24.1-10.3,35c-4.6,8.5-9.5,16.9-16.2,24c-0.9,1-1.9,1.9-2.9,2.9c-7.8,7.3-17.2,12.8-27,17
				c-5.4,2.3-17,7.9-20.8,0.6c-1.3-2.5-1-5.6,0.1-8.3c1.1-2.6,2.9-4.9,4.7-7.1c4.6-6.1,9.5-12,13.6-18.5c4.7-7.5,8.4-15.5,13.3-22.8
				c0.2-0.3,0.5-0.7,0.7-1C1012.5,636.3,1020,629.1,1028.7,623.9z"/>
		</g>
		<path class="st14" d="M1022.1,656.1C1022.1,656.1,1022.1,656.1,1022.1,656.1c1.6-6.7,3.8-13.3,6.5-19.6c0.1-0.3,0.8,0.1,0.7,0.4
			c-2.5,5.8-4.5,11.8-6,18c6.7-7.9,12.7-16.3,17.3-25.6c0.2-0.3,0.9-0.3,0.7,0.2c-3.8,7.6-8.6,14.7-13.9,21.4
			c6.9-2,13.1-5.7,18.2-10.8c0.3-0.3,1-0.1,0.6,0.3c-5.4,5.5-12,9.3-19.4,11.3c-1.3,1.6-2.5,3.1-3.8,4.6c0,0,0,0.1,0,0.1
			c0,0.1-0.1,0.1-0.2,0.1c-2.3,2.7-4.7,5.3-7.1,7.9c-1.3,1.4-2.7,2.8-4,4.2c3.1,0.1,6.2,0.1,9.2-0.4c3.1-0.6,6-1.8,8.9-3.1
			c0.3-0.1,0.9,0.3,0.5,0.5c-2.9,1.3-5.9,2.6-9.1,3.2c-3.3,0.6-6.6,0.5-9.9,0.5c0,0-0.1,0-0.1,0c-5,5.2-10.2,10.4-15.4,15.5
			c8.5-0.5,16.8-2.4,24.6-5.7c0.3-0.1,0.9,0.2,0.5,0.4c-8.2,3.4-16.8,5.4-25.6,5.8c-3.8,3.7-7.5,7.5-11.3,11.2
			c-0.3,0.3-0.9,0-0.5-0.3c5.9-5.8,11.8-11.7,17.6-17.5c2.9-8.8,6.9-17.1,11.9-24.9c0.1-0.2,0.7-0.2,0.7-0.3
			c-4.9,7.6-8.8,15.7-11.7,24.3c4.2-4.2,8.3-8.4,12.4-12.7C1016.9,662.1,1019.5,659.1,1022.1,656.1z"/>
	</g>
	<g id="XMLID_456_">
		<g id="XMLID_549_">
			<path class="st13" d="M1003.2,629.5c-0.5-4.2-1.4-8.4-3-12.3c-0.5-1.3-1.4-4.7-2.7-5.3c-1.5-0.7-4.2,1-5.4,1.8
				c-8.6,5.8-13.9,15.3-18.3,24.7c-3.4,7.4-6.5,15-7.8,23.1c-0.2,1.1-0.3,2.3-0.5,3.4c-0.9,9,0.2,18.1,2.4,26.8
				c1.2,4.8,3.4,15.4,10.3,14.3c2.4-0.4,4.3-2.2,5.5-4.3c1.2-2.1,1.8-4.5,2.4-6.8c1.7-6.2,3.2-12.5,5.4-18.5
				c2.6-7,6.1-13.6,8.5-20.6c0.1-0.3,0.2-0.6,0.3-1C1003.1,646.7,1004.2,638,1003.2,629.5z"/>
		</g>
		<path class="st14" d="M984.4,650.2c0-0.1-0.1-0.1,0-0.2c0,0,0,0,0.1-0.1c0.4-1.6,0.7-3.3,1.1-4.9c-2.4-6-3.2-12.4-2.3-18.8
			c0.1-0.4,0.5,0,0.5,0.3c-0.8,6-0.1,12,2,17.7c1.8-7,4.1-13.8,7.3-20.2c0.2-0.4,0.6,0.1,0.4,0.4c-3.8,7.8-6.4,16.2-8.3,24.7
			c3.3-4.2,6.3-8.6,9-13.2c0.1-0.2,0.7,0,0.6,0.2c-2.9,5-6.2,9.8-9.8,14.3c0,0,0,0,0,0c-0.7,3.3-1.3,6.5-1.8,9.8
			c-0.8,4.9-1.5,9.8-2.2,14.7c4.3-6.3,7.7-13.1,10.3-20.2c0,0,0.2,0.4,0.2,0.6c-2.7,7.3-6.2,14.3-10.7,20.7
			c-0.9,6.9-1.8,13.8-2.8,20.8c-0.1,0.4-0.5,0.1-0.5-0.2c0.6-4.4,1.2-8.9,1.8-13.3c-4.2-6.2-7.3-13-9.2-20.2
			c-0.1-0.4,0.5-0.1,0.5,0.1c1.8,7,4.7,13.5,8.7,19.4c0.8-6.1,1.6-12.1,2.6-18.2c0,0-0.1,0-0.1-0.1c-1.7-2.2-3.5-4.4-4.8-6.9
			c-1.2-2.4-1.9-5.1-2.5-7.7c-0.1-0.3,0.5-0.1,0.6,0.1c0.6,2.6,1.3,5.2,2.5,7.6c1.2,2.3,2.8,4.4,4.4,6.4c0.3-1.6,0.5-3.3,0.8-4.9
			C983.2,656,983.8,653.1,984.4,650.2z"/>
	</g>
	<g id="XMLID_397_">
		<g id="XMLID_534_">
			<path class="st15" d="M972.8,696.9c-1.3,5.3-0.8,11.1,1.9,15.3c1.2,1.9,2.4,3.8,4.1,5.3c7.3,6.4,15.5,2.2,22.2-2.2
				c1.7-1.1,3.4-2.3,5.4-2.3c2.5,0,4.7,1.5,7,2c3,0.6,6.2,0.3,9.1-0.8c2.8-1,5.4-2.7,7-5.1c3.8-5.5,1.9-13.8-3.5-17.8
				c-5.4-4-13.1-4-19-0.9c-1.2,0.6-2.6,1.4-3.9,1.1c-1-0.2-1.8-1-2.5-1.7c-1.3-1.3-2.5-2.7-4-3.8c-3.9-2.8-9.2-3.6-13.6-1.8
				C977.8,686.2,974.2,691.2,972.8,696.9z"/>
		</g>
		<g id="XMLID_491_" class="st9">
			<g id="XMLID_532_">
				<path id="XMLID_533_" class="st2" d="M1023.4,704c-6.5-3.2-14.1-3.4-21.2-3.7c-7.3-0.4-14.6-0.2-21.5,2.6
					c-0.1,0.1-0.5-0.6-0.5-0.6c7.2-2.9,14.9-3,22.5-2.5c6.8,0.4,13.9,0.6,20.1,3.7C1023.1,703.5,1023.3,703.9,1023.4,704L1023.4,704
					z"/>
			</g>
			<g id="XMLID_530_">
				<path id="XMLID_531_" class="st2" d="M1006.9,700c4.4-1.5,8.9-2.9,13.5-4c0.2,0,0.6,0.5,0.5,0.5c-4.5,1.1-9,2.5-13.5,4
					C1007.2,700.6,1006.7,700,1006.9,700L1006.9,700z"/>
			</g>
			<g id="XMLID_528_">
				<path id="XMLID_529_" class="st2" d="M1017.8,709.5c-3.2-3.3-6.7-6.3-10.5-8.8c-0.2-0.1-0.1-0.9,0.1-0.7
					c3.9,2.6,7.4,5.5,10.6,8.9C1018.1,709,1018,709.8,1017.8,709.5L1017.8,709.5z"/>
			</g>
			<g id="XMLID_526_">
				<path id="XMLID_527_" class="st2" d="M999.9,707.5c-3.3-2.3-6.6-4.6-9.9-6.9c-0.2-0.1-0.3-0.8-0.1-0.7c3.3,2.3,6.6,4.6,9.9,6.9
					C999.9,707,1000.1,707.7,999.9,707.5L999.9,707.5z"/>
			</g>
			<g id="XMLID_494_">
				<path id="XMLID_525_" class="st2" d="M1001.5,693.7c-4.4,1.8-8.6,4.1-12.5,6.9c-0.3,0.2-0.9-0.3-0.5-0.6c3.9-2.8,8.1-5.1,12.6-7
					C1001.5,692.9,1001.9,693.5,1001.5,693.7L1001.5,693.7z"/>
			</g>
		</g>
	</g>
	<g id="XMLID_27_">
		<g id="XMLID_91_">
			<path class="st16" d="M981.7,705.7c-5.3,1.3-11,0.8-15.3-1.9c-1.9-1.2-3.9-2.4-5.3-4.1c-6.4-7.3-2.3-15.5,2.2-22.2
				c1.1-1.7,2.3-3.5,2.2-5.4c0-2.5-1.5-4.7-2-7c-0.6-3-0.3-6.2,0.8-9.1c1-2.8,2.7-5.4,5.1-7.1c5.5-3.9,13.8-1.9,17.8,3.4
				c4,5.3,4,13.1,1,19c-0.6,1.2-1.4,2.6-1.1,3.9c0.2,1,1,1.8,1.8,2.5c1.3,1.3,2.7,2.5,3.8,4c2.9,3.8,3.6,9.2,1.9,13.6
				C992.4,700.7,987.3,704.3,981.7,705.7z"/>
		</g>
		<g id="XMLID_80_" class="st9">
			<g id="XMLID_89_">
				<path id="XMLID_90_" class="st2" d="M974.4,655.2c3.2,6.5,3.4,14,3.8,21.1c0.4,7.3,0.2,14.6-2.5,21.5c-0.1,0.1,0.6,0.5,0.6,0.5
					c2.8-7.2,2.9-14.9,2.4-22.5c-0.4-6.8-0.6-13.9-3.7-20.1C974.9,655.5,974.5,655.3,974.4,655.2L974.4,655.2z"/>
			</g>
			<g id="XMLID_87_">
				<path id="XMLID_88_" class="st2" d="M978.5,671.7c1.5-4.4,2.8-8.9,4-13.5c0-0.2-0.5-0.6-0.5-0.5c-1.1,4.6-2.5,9-4,13.5
					C977.9,671.3,978.4,671.8,978.5,671.7L978.5,671.7z"/>
			</g>
			<g id="XMLID_85_">
				<path id="XMLID_86_" class="st2" d="M968.9,660.8c3.3,3.2,6.3,6.6,8.8,10.5c0.1,0.2,0.9,0.1,0.7-0.1c-2.6-3.9-5.5-7.4-8.9-10.6
					C969.4,660.5,968.7,660.6,968.9,660.8L968.9,660.8z"/>
			</g>
			<g id="XMLID_83_">
				<path id="XMLID_84_" class="st2" d="M971,678.7c2.3,3.3,4.6,6.6,7,9.9c0.1,0.2,0.8,0.3,0.7,0.1c-2.3-3.3-4.6-6.6-7-9.9
					C971.5,678.6,970.8,678.5,971,678.7L971,678.7z"/>
			</g>
			<g id="XMLID_81_">
				<path id="XMLID_82_" class="st2" d="M984.7,677c-1.8,4.4-4.1,8.6-6.9,12.5c-0.2,0.3,0.3,0.9,0.6,0.5c2.8-4,5.1-8.1,7-12.6
					C985.6,677,984.9,676.6,984.7,677L984.7,677z"/>
			</g>
		</g>
	</g>
</g>
<g id="XMLID_14_">
	<rect id="XMLID_135_" x="942.7" y="536.5" class="st17" width="43.2" height="183.7"/>
	<g id="XMLID_134_">
		<path class="st7" d="M942.9,628.5c0-22.9,0-45.8,0-68.7c0-5.6,0-11.1,0-16.7c0-0.8-0.2-6.6-0.3-6.5c1.6-1.5,12.1,0,14.4,0
			c7.1,0,14.2,0,21.4,0c1.6,0,6.4-0.7,7.3,0.4c0.7,0.8,0,5.1,0,6.1c0,9.5,0,19,0,28.6c0,29.6,0,59.3,0,88.9c0,19.9,0,39.8,0,59.7
			c0,0.1,0.5,0,0.5-0.1c0-53.6,0-107.2,0-160.9c0-7.6,0-15.2,0-22.8c0,0-0.1,0-0.1,0c-14.4,0-28.8,0-43.2,0c-0.1,0-0.4,0-0.4,0.2
			c0,30.7,0,61.4,0,92C942.4,628.7,942.9,628.6,942.9,628.5L942.9,628.5z"/>
	</g>
</g>
<g id="XMLID_1693_">
	<rect id="XMLID_1683_" x="805.2" y="543.9" class="st13" width="33.2" height="176.4"/>
	<g id="XMLID_4_">
		<path class="st7" d="M805.4,656.3c0-11.3,0-22.6,0-33.9c0-0.1-0.5-0.1-0.5,0.1c0,11.3,0,22.6,0,33.9
			C804.9,656.6,805.4,656.5,805.4,656.3L805.4,656.3z"/>
	</g>
	<g id="XMLID_2_">
		<path class="st7" d="M805.4,614.4c0-22.3,0-44.6,0-66.9c0-3.7-0.8-3.6,2.9-3.5c6.5,0.2,13.1,0,19.6,0c1.7,0,9.3-0.8,10.2,0.2
			c0.6,0.7,0,4.6,0,5.5c0,50.6,0,101.1,0,151.7c0,4.4,0,8.8,0,13.2c0,0.9,0.6,5,0,5.7c-0.8,0.9-13.2-0.1-15.4-0.1
			c-5.8,0-11.6,0-17.4,0c-0.2,0-0.5,0.3-0.2,0.3c11.1,0,22.1,0,33.2,0c0.1,0,0.3-0.1,0.3-0.2c0-51.4,0-102.8,0-154.2
			c0-7.4,0-14.8,0-22.3c0-0.1-0.1-0.1-0.1-0.1c-11.1,0-22.1,0-33.2,0c-0.1,0-0.3,0.1-0.3,0.2c0,23.5,0,47,0,70.6
			C804.9,614.6,805.4,614.5,805.4,614.4L805.4,614.4z"/>
	</g>
	<rect id="XMLID_1684_" x="816.5" y="557.5" class="st18" width="8.8" height="8.8"/>
	<rect id="XMLID_1685_" x="816.5" y="575" class="st18" width="8.8" height="8.8"/>
	<rect id="XMLID_1686_" x="816.5" y="592.5" class="st18" width="8.8" height="8.8"/>
	<rect id="XMLID_1687_" x="816.5" y="610" class="st18" width="8.8" height="8.8"/>
	<rect id="XMLID_1688_" x="816.5" y="627.6" class="st18" width="8.8" height="8.8"/>
	<rect id="XMLID_1689_" x="816.5" y="645.1" class="st18" width="8.8" height="8.8"/>
	<rect id="XMLID_1690_" x="816.5" y="662.6" class="st18" width="8.8" height="8.8"/>
	<rect id="XMLID_1691_" x="816.5" y="680.1" class="st18" width="8.8" height="8.8"/>
	<rect id="XMLID_1692_" x="816.5" y="697.6" class="st18" width="8.8" height="8.8"/>
</g>
<g id="XMLID_1698_">
	<rect id="XMLID_1695_" x="837.8" y="544.5" class="st18" width="33.2" height="175.8"/>
	<g id="XMLID_6_">
		<path class="st7" d="M871.2,617.2c0-24.3,0-48.5,0-72.8c0,0-0.1,0-0.1,0c-11.1,0-22.1,0-33.2,0c-0.1,0-0.5,0.2-0.2,0.2
			c9.6,0,19.2,0,28.8,0c3.5,0,3.3-0.7,4.2,1.6c1.1,3,0,8.8,0,11.9c0,19.7,0,39.5,0,59.2C870.7,617.4,871.2,617.4,871.2,617.2
			L871.2,617.2z"/>
	</g>
	<g id="XMLID_3_">
		<path class="st7" d="M837.7,720.4c11.1,0,22.1,0,33.2,0c0.1,0,0.3-0.1,0.3-0.2c0-32.3,0-64.7,0-97c0-0.1-0.5,0-0.5,0.1
			c0,24,0,48.1,0,72.1c0,5.9,0,11.7,0,17.6c0,0.9,0.3,7.1,0.2,7.2c-0.6,0.6-4.5,0-5.4,0c-4,0-7.9,0-11.9,0c-5.3,0-10.5,0-15.8,0
			C837.8,720.2,837.4,720.4,837.7,720.4L837.7,720.4z"/>
	</g>
	
		<linearGradient id="XMLID_65_" gradientUnits="userSpaceOnUse" x1="1244.9532" y1="580.5093" x2="1278.1089" y2="580.5093" gradientTransform="matrix(1 0 0 1 -407.1472 0)">
		<stop  offset="0" style="stop-color:#150D9C"/>
		<stop  offset="0.2082" style="stop-color:#1E13A5"/>
		<stop  offset="0.5556" style="stop-color:#3824BF"/>
		<stop  offset="0.9971" style="stop-color:#623FE9"/>
		<stop  offset="1" style="stop-color:#623FE9"/>
	</linearGradient>
	<rect id="XMLID_1696_" x="837.8" y="567.4" class="st19" width="33.2" height="26.3"/>
	
		<linearGradient id="XMLID_66_" gradientUnits="userSpaceOnUse" x1="1244.9532" y1="684.1545" x2="1278.1089" y2="684.1545" gradientTransform="matrix(1 0 0 1 -407.1472 0)">
		<stop  offset="0" style="stop-color:#150D9C"/>
		<stop  offset="0.2082" style="stop-color:#1E13A5"/>
		<stop  offset="0.5556" style="stop-color:#3824BF"/>
		<stop  offset="0.9971" style="stop-color:#623FE9"/>
		<stop  offset="1" style="stop-color:#623FE9"/>
	</linearGradient>
	<rect id="XMLID_1697_" x="837.8" y="671" class="st20" width="33.2" height="26.3"/>
</g>
<g id="XMLID_21_">
	
		<rect id="XMLID_29_" x="712.4" y="537.4" transform="matrix(0.9664 0.2571 -0.2571 0.9664 186.0939 -166.464)" class="st18" width="34.3" height="181.8"/>
	<g id="XMLID_28_">
		<path class="st7" d="M717.2,608.8c5.3-19.7,10.5-39.5,15.8-59.2c1-3.6,1.5-8,3-11.4c1.2-2.7,0.2-1.9,4.2-0.9
			c9.7,2.6,19.4,5.2,29.1,7.7c0.1,0,0.5-0.2,0.4-0.2c-11-2.9-22.1-5.9-33.1-8.8c-0.1,0-0.4,0-0.4,0.1c-6.5,24.2-12.9,48.5-19.4,72.7
			C716.7,609,717.2,608.9,717.2,608.8L717.2,608.8z"/>
	</g>
	<g id="XMLID_26_">
		<path class="st7" d="M722.9,720.5c-5.5-1.5-11-2.9-16.6-4.4c-2.2-0.6-15.5-2.4-16.5-4.4c-0.5-1,1.5-5.8,1.8-6.9
			c1.6-6,3.2-12,4.8-18c6.4-24,12.8-48,19.2-72.1c0-0.1-0.4-0.1-0.5,0.1c-8.6,32.3-17.2,64.7-25.8,97c0,0,0,0.1,0,0.1
			c11,2.9,22.1,5.9,33.1,8.8C722.7,720.7,723.1,720.5,722.9,720.5L722.9,720.5z"/>
	</g>
	<g id="XMLID_145_">
		<path class="st7" d="M726.5,573.2c11,2.9,22.1,5.9,33.1,8.8c0.2,0.1,0.6-0.2,0.3-0.3c-11-2.9-22.1-5.9-33.1-8.8
			C726.6,572.8,726.2,573.1,726.5,573.2L726.5,573.2z"/>
	</g>
	<g id="XMLID_143_">
		<path class="st7" d="M756.3,563.5c-8.4-2.2-16.8-4.5-25.3-6.7c-0.2-0.1-0.6,0.2-0.3,0.3c8.4,2.2,16.8,4.5,25.3,6.7
			C756.2,563.9,756.6,563.6,756.3,563.5L756.3,563.5z"/>
	</g>
	<g id="XMLID_141_">
		<path class="st7" d="M696.3,687.2c11,2.9,22.1,5.9,33.1,8.8c0.2,0.1,0.6-0.2,0.3-0.3c-11-2.9-22.1-5.9-33.1-8.8
			C696.4,686.8,696,687.1,696.3,687.2L696.3,687.2z"/>
	</g>
	<g id="XMLID_137_">
		<path class="st7" d="M726.1,677.5c-8.4-2.2-16.8-4.5-25.3-6.7c-0.2-0.1-0.6,0.2-0.3,0.3c8.4,2.2,16.8,4.5,25.3,6.7
			C726,677.9,726.4,677.6,726.1,677.5L726.1,677.5z"/>
	</g>
</g>
<rect id="XMLID_1710_" x="805.2" y="543.9" class="st21" width="7.7" height="176.4"/>
<rect id="XMLID_13_" x="864.4" y="544" class="st21" width="7.7" height="176.4"/>
<g id="XMLID_1694_">
	
		<rect id="XMLID_1681_" x="758.2" y="535.2" transform="matrix(0.9976 6.989144e-02 -6.989144e-02 0.9976 45.7339 -52.9666)" class="st22" width="43.2" height="183.7"/>
	<g id="XMLID_1_">
		<path class="st7" d="M758.5,625.7c1.6-22.8,3.2-45.7,4.8-68.5c0.4-5.6,0.8-11.1,1.2-16.7c0.1-0.8,0.3-6.6,0.1-6.5
			c1.8-1.4,12.1,0.8,14.3,1c7.1,0.5,14.2,1,21.3,1.5c1.6,0.1,6.5-0.2,7.2,0.9c0.6,0.9-0.4,5.1-0.4,6.1c-0.7,9.5-1.3,19-2,28.5
			c-2.1,29.6-4.1,59.1-6.2,88.7c-1.4,19.8-2.8,39.7-4.2,59.5c0,0.1,0.5,0,0.5-0.1c3.7-53.5,7.5-107,11.2-160.5
			c0.5-7.6,1.1-15.2,1.6-22.7c0,0-0.1,0-0.1,0c-14.4-1-28.7-2-43.1-3c-0.1,0-0.4,0-0.4,0.1c-2.1,30.6-4.3,61.2-6.4,91.8
			C758,625.9,758.5,625.9,758.5,625.7L758.5,625.7z"/>
	</g>
	
		<rect id="XMLID_1682_" x="773" y="556.5" transform="matrix(0.9976 6.989220e-02 -6.989220e-02 0.9976 46.0347 -52.9356)" class="st18" width="13" height="149.7"/>
</g>
<g id="XMLID_5_">
	
		<rect id="XMLID_11_" x="874.9" y="534.2" transform="matrix(0.9988 -4.984529e-02 4.984529e-02 0.9988 -30.1324 45.3228)" class="st23" width="37.4" height="185.3"/>
	<g id="XMLID_10_">
		<path class="st7" d="M875.2,628.7c-1.1-22.9-2.4-47.4-3.5-70.2c-0.3-5.6-0.6-11.1-0.8-16.7c0-0.8-0.5-6.6-0.6-6.5
			c1.6-1.6,12.1-0.6,14.3-0.7c7.1-0.4,8.5-0.4,15.6-0.8c1.6-0.1,6.4-1,7.3,0c0.7,0.8,0.3,5.1,0.3,6.1c0.5,9.5,0.9,19,1.4,28.5
			c1.5,29.6,3,60.8,4.5,90.5c1,19.9,2,39.7,3,59.6c0,0.1,0.5,0,0.5-0.2c-2.7-53.6-5.4-108.7-8.1-162.3c-0.4-7.6-0.8-15.2-1.1-22.8
			c0,0-0.1,0-0.1,0c-14.4,0.7-23,1.1-37.4,1.9c-0.1,0-0.4,0.1-0.4,0.2c1.5,30.6,3.1,62.9,4.7,93.6
			C874.8,628.9,875.2,628.8,875.2,628.7L875.2,628.7z"/>
	</g>
	
		<rect id="XMLID_9_" x="882.6" y="548.9" transform="matrix(0.9988 -4.984163e-02 4.984163e-02 0.9988 -30.1834 45.3151)" class="st18" width="21.8" height="157.9"/>
	<g id="XMLID_132_">
		<path class="st7" d="M884,651.2c-0.9-18.6-1.9-37.1-2.8-55.7c-0.6-11.7-1.2-23.5-1.8-35.2c-0.1-2.5-1.2-6.9-0.5-9.4
			c0.7-2.3,2.2-1.3,5.7-1.5c2.2-0.1,14-2.3,15.5-0.8c0.4,0.4,0.2,2.9,0.2,3.5c0.4,8,0.8,15.9,1.2,23.9c1.3,25.7,2.6,51.4,3.8,77.1
			c0.9,17.7,1.8,35.4,2.7,53.2c0,0.1,0.5,0,0.5-0.1c-2.3-46-4.6-92-6.9-138c-0.3-6.5-0.7-13.1-1-19.6c0-0.1-0.1-0.1-0.1-0.1
			c-7.2,0.4-14.5,0.7-21.7,1.1c-0.1,0-0.3,0-0.3,0.2c1.7,33.9,3.4,67.8,5.1,101.7C883.6,651.5,884,651.4,884,651.2L884,651.2z"/>
	</g>
</g>
<g id="XMLID_8_">
	
		<rect id="XMLID_33_" x="915.1" y="510.5" transform="matrix(0.9945 -0.1045 0.1045 0.9945 -59.1654 100.7734)" class="st18" width="33.2" height="208.4"/>
	<g id="XMLID_32_">
		<path class="st7" d="M919.6,656.5c-1.2-11.2-2.4-22.5-3.5-33.7c0-0.1-0.5,0-0.5,0.2c1.2,11.2,2.4,22.5,3.5,33.7
			C919.2,656.8,919.6,656.7,919.6,656.5L919.6,656.5z"/>
	</g>
	<g id="XMLID_31_">
		<path class="st7" d="M915.2,614.8c-2.3-22.2-8-76.2-10.3-98.4c-0.4-3.7-1.2-3.5,2.5-3.8c6.5-0.5,13-1.4,19.5-2
			c1.7-0.2,9.1-1.8,10.1-0.9c0.7,0.6,0.5,4.6,0.6,5.5c5.3,50.3,13.9,132.4,19.2,182.7c0.5,4.4,0.9,8.8,1.4,13.2
			c0.1,0.9,1.1,4.9,0.6,5.7c-0.7,1-13.1,1.2-15.4,1.5c-5.8,0.6-11.5,1.2-17.3,1.8c-0.2,0-0.5,0.3-0.2,0.3c11-1.2,22-2.3,33-3.5
			c0.1,0,0.3-0.1,0.3-0.2c-5.4-51.1-10.7-102.2-16.1-153.3c-0.8-7.4-4.9-46.6-5.7-54c0-0.1-0.1-0.1-0.2-0.1c-11,1.2-22,2.3-33,3.5
			c-0.1,0-0.3,0.1-0.3,0.2c2.5,23.4,8.3,78.6,10.7,102C914.8,615.1,915.3,614.9,915.2,614.8L915.2,614.8z"/>
	</g>
	
		<linearGradient id="XMLID_67_" gradientUnits="userSpaceOnUse" x1="1313.2776" y1="772.1066" x2="1313.2776" y2="588.9605" gradientTransform="matrix(0.9945 -0.1045 0.1045 0.9945 -446.373 75.4905)">
		<stop  offset="0" style="stop-color:#673AB7"/>
		<stop  offset="0.4457" style="stop-color:#9347A7"/>
		<stop  offset="0.797" style="stop-color:#B0509E"/>
		<stop  offset="1" style="stop-color:#BA539A"/>
	</linearGradient>
	<polygon id="XMLID_22_" class="st24" points="925.6,523.5 916.9,524.4 936,706.6 944.7,705.7 	"/>
</g>
<rect id="XMLID_24_" x="758.5" y="536.8" transform="matrix(0.9974 7.159827e-02 -7.159827e-02 0.9974 46.9172 -52.9693)" class="st21" width="7.7" height="182.4"/>
<g id="XMLID_239_">
	<g id="XMLID_241_">
		<path class="st23" d="M871.7,490.8c-1.6-1.3-2.3,0.2-2.8,1.6c-0.6,2-1.7,3.7-2.7,5.5c-3.6,6.1-6.3,13.3-7.6,20.3
			c-0.6,3.2,1.9,4.4,4.7,3.4c1.7-0.6,2.1-2.4,2.8-4c0.7-1.7,1.5-3.4,2.2-5c1.5-3.4,3-6.9,3.9-10.6
			C872.9,499,874.5,493.2,871.7,490.8C871.7,490.9,871.7,490.8,871.7,490.8z"/>
	</g>
	<path id="XMLID_209_" class="st2" d="M872.3,478l14.8-1.5c0.3,0,0.5,0.2,0.5,0.5l-7.8,31.4l-13-6.4L872.3,478z"/>
	<polygon id="XMLID_230_" class="st25" points="872,479.1 886.7,477.6 879.2,508.1 866.8,502 	"/>
	<path id="XMLID_224_" class="st26" d="M872.3,478l13.9,6.1c0.9,0.4,1.3,1.4,1,2.3l-7.4,22.9c-0.3,1-1.4,1.4-2.3,1l-11.3-5.5
		L872.3,478z"/>
	<rect id="XMLID_203_" x="744" y="535.2" class="st23" width="14.9" height="7.9"/>
	<g id="XMLID_169_">
		<path class="st26" d="M842.7,523.4c-2.8-4.4-5-9.3-7.3-14c-3.4-6.9-8.1-14.9-15.6-17.8c-7.7-2.9-16-0.6-22.2,4.5
			c-6.3,5.3-11,12.3-14.7,19.7c-2.6,5.2-9.3,16.4-6.1,22.4c1.3,2.5,5.9,2.3,7.9,1.4c3.3-1.5,5.1-4.8,5.9-8.2c0.6-2.4,0.7-3.9,2-5.9
			c1.2-1.9,2.1-3.7,3.6-5.4c3-3.2,7-5.6,11.4-6.4c1.8-0.3,3.7-0.4,5.5,0.1c2.6,0.8,4.8,2.8,6.2,5.1c2.4,3.9,2.4,9.5,5.3,13
			c4.4,5.1,9.7,2.2,15.3,2.2c2.6,0,14.3,1.3,8.3-4.1C846.1,528.1,844.3,525.9,842.7,523.4z"/>
	</g>
	<g id="XMLID_172_">
		<path class="st26" d="M842.6,526.7c-1.3-1.9-3.3-3.2-5.5-4.1c-2.5-1-5.3-1.2-8-1.5c-9.3-0.7-18.8-0.8-28,0.8
			c-11.5,2-22.5,6.4-34.1,8.3c-3.9,0.7-7.8,1-11.7,2c-1.2,0.3-2.5,0.7-3.2,1.6c-0.8,1-0.8,2.3-0.7,3.5c0.2,1.7,0.8,3.5,2,4.7
			c2.5,2.5,8.8,2.4,12.1,2.1c10.5-0.9,20.8-3.8,31.4-4.2c11.7-0.4,23.1,2.4,34.6,4.2c5.2,0.8,10.9,1.4,15.4-1.3
			c-0.7-2.3-1.4-4.5-1.9-6.8c-0.6-2.8-0.5-5.8-1.8-8.4C843.1,527.4,842.9,527,842.6,526.7z"/>
	</g>
	<g id="XMLID_156_">
		<path id="XMLID_199_" class="st2" d="M837.2,522.4c-5.4-1.8-11.4-1.8-17-1.9c-5.8-0.1-11.5,0.1-17.2,1
			c-12.2,1.8-23.8,6.5-35.9,8.6c-0.2,0-0.1,0.4,0.1,0.3c11.3-2,22.1-6.2,33.4-8.2c6.1-1.1,12.2-1.5,18.4-1.4c6,0.1,12.5,0,18.2,1.9
			C837.3,522.8,837.4,522.5,837.2,522.4L837.2,522.4z"/>
	</g>
	<g id="XMLID_152_">
		<path class="st23" d="M892.5,518.8c2.5-1.7,4.1-4.2,5.6-7c1.3,0.5,2.6,1.2,4,1.5c1.4,0.3,2.8,0.4,4.2,0.1c1.1-0.2,1.6-0.2,2.6,0.4
			c0.6,0.3,1.8,1.3,2.5,1.2c-0.8,0.2-3.3,3.1-3.9,3.6c-1.9,1.7-3.8,3.3-5.6,5.2c-1.5,1.7-2.3,3.8-4.6,4.7c-1.2,0.5-2.7,0.4-3.8-0.4
			c-2.2-1.7-3.3-5.1-4.3-7.6C890.6,520,891.6,519.4,892.5,518.8z"/>
	</g>
	<g id="XMLID_163_">
		<path class="st23" d="M915.5,499.7c0-2.1-0.3-4.4-2-5.6c-0.8-0.5-1.8-0.7-2.8-0.8c-2.4-0.1-5.1,0.4-6.8,2.2
			c-0.8,0.9-1.4,2-2.2,2.9c-0.8,0.9-2.2,1.6-3.3,1.1l-0.6-0.2c-0.7,3.3-4.5,5.2-5.7,8.4c-1.2,3.1,0.7,7,3.9,8
			c1.2,0.4,2.5,0.4,3.8,0.4c3.7,0,7.7-0.1,10.8-2.3c2.1-1.5,3.5-3.9,4.2-6.4C915.4,504.9,915.5,502.3,915.5,499.7z"/>
	</g>
	<g id="XMLID_155_">
		<path id="XMLID_197_" class="st2" d="M910.7,493.1c-2.2,0-4.4,0.2-6.2,1.6c-2.1,1.7-3.3,5.4-6.7,4.4c-0.1,0-0.2,0-0.2,0.1
			c-1.4,4.6-7.5,7.1-5.7,12.5c1.7,5.1,7.3,4.6,11.7,4.3c0.2,0,0.2-0.3,0-0.3c-4.7,0.3-11.6,0.4-11.6-6.1c0-3.8,3.5-5.7,5.3-8.8
			c0.1-0.2,0.3-0.9,0.5-1.1c0.6-0.3,0.6,0.1,1.4,0c0.7-0.1,1.2-0.2,1.8-0.6c1.1-0.7,1.6-1.9,2.4-2.9c1.9-2.3,4.3-2.9,7.2-2.9
			C910.9,493.5,910.9,493.2,910.7,493.1L910.7,493.1z"/>
	</g>
	<g id="XMLID_158_">
		
			<linearGradient id="SVGID_9_" gradientUnits="userSpaceOnUse" x1="1330.5143" y1="523.812" x2="1308.5863" y2="482.9461" gradientTransform="matrix(1 0 0 1 -407.1472 0)">
			<stop  offset="0" style="stop-color:#0D035C"/>
			<stop  offset="3.077479e-02" style="stop-color:#0E0563"/>
			<stop  offset="0.2983" style="stop-color:#17149F"/>
			<stop  offset="0.5259" style="stop-color:#1E20CB"/>
			<stop  offset="0.7024" style="stop-color:#2226E6"/>
			<stop  offset="0.8061" style="stop-color:#2329F0"/>
		</linearGradient>
		<path class="st27" d="M922.3,500.2c0.1-0.4,0.1-0.7,0.1-1.1c0.1-1.6-0.5-3.4-1.9-4.3c-0.6-0.4-1.3-0.6-1.7-1.1
			c-0.6-0.7-0.4-1.8-0.5-2.7c-0.2-1.7-1.5-3.2-3.1-3.8c-1.1-0.3-2.3-0.3-3.1-1.1c-0.5-0.5-0.6-1.2-0.9-1.9c-0.7-1.8-2.7-3.1-4.7-2.7
			s-3.4,2.4-2.9,4.3c0.2,0.9,0.9,1.7,0.7,2.7c-0.1,0.5-0.4,1-0.7,1.4c-0.9,1.6-1.4,3.8,0,5.2c0.9,0.9,2.2,1.3,3.4,1.8
			c0.6,0.2,1.3,0.5,1.6,1c0.6,0.9,0.2,2.2-0.3,3.2c-0.4,1-0.7,2.4,0.1,3.1c0.3,0.3,0.7,0.4,0.9,0.8c0.2,0.4,0.1,1-0.2,1.3
			c-0.7,0.9-3.6,2-3,3.5c0.3,0.8,1.4,0.4,2-0.1s1.4-1.2,2.1-0.8c0.4,0.2,0.5,0.8,0.5,1.2c0,1.2-0.4,2.4-1.1,3.3
			c-1.2,1.5-2.8,1.6-2.7,3.8c0.1,1.8,1.2,3.5,3,4.1c2,0.6,4.1-0.1,5.9-1.1c3.1-1.9,5.5-5.1,6.3-8.7c0.4-1.6,0.4-3.5-0.5-4.8
			c-0.3-0.5-0.8-0.9-0.9-1.5c-0.1-0.5,0.1-1,0.2-1.4C921.6,502.7,922,501.4,922.3,500.2z"/>
	</g>
	<g id="XMLID_154_">
		
			<linearGradient id="SVGID_10_" gradientUnits="userSpaceOnUse" x1="1263.4116" y1="548.9607" x2="1290.3232" y2="504.6064" gradientTransform="matrix(1 0 0 1 -407.1472 0)">
			<stop  offset="0" style="stop-color:#673AB7"/>
			<stop  offset="0.4108" style="stop-color:#8643AC"/>
			<stop  offset="1" style="stop-color:#BA539A"/>
		</linearGradient>
		<path class="st28" d="M863.2,517.9c0.3,0.1,0.7,0.1,1,0.1c2.8-0.2,6-1.7,8.6-2.9c2.3-1,4.1-2.3,6.7-2.7c3-0.4,6-0.6,8.9,0.3
			c3,0.9,5.6,2.8,7.8,5.1c3.2,3.2,7.2,7.7,4.5,12.4c-1,1.7-2.6,3-4.1,4.2c-3.6,2.7-7.4,5-11.5,6.9c-4,1.9-8,2.6-12.2,3.7
			c-4.6,1.2-9.4,1.9-14.1,2.4c-5.4,0.6-11,0.9-16.4,0.1c-2.4-0.3-4.7-0.5-6.6-2.1c-1.6-1.4-2.8-3.4-3-5.5c-0.1-1.5,0.3-3,0.7-4.4
			c0.7-2.7,1.6-5.4,2.9-7.8c3.6-6.7,11-11.6,18.6-11.3c1.6,0.1,3.3,0.4,4.9,0.7C860.9,517.2,862,517.7,863.2,517.9z"/>
	</g>
	<g id="XMLID_167_">
		<path id="XMLID_195_" class="st2" d="M872.8,515.2c6.1-2.8,12.5-4.6,18.7-0.9c4.9,2.9,11.9,9.6,9,15.7c-0.1,0.2,0.2,0.4,0.3,0.2
			c2.8-5.9-2.9-11.7-7.3-15c-3-2.3-6.4-3.3-10.2-3.3c-4.1,0.1-7,1.4-10.6,3C872.5,515,872.6,515.3,872.8,515.2L872.8,515.2z"/>
	</g>
	<g id="XMLID_159_">
		<path id="XMLID_184_" class="st2" d="M832.9,539.7c0-7.2,4.2-15.3,10-19.5c2.4-1.7,5.2-3,8.1-3.5c4.2-0.8,8,0.4,12.1,1.4
			c0.2,0.1,0.3-0.3,0.1-0.3c-3.8-0.9-7.3-2.1-11.3-1.6c-3.6,0.5-7,2.1-9.9,4.3c-5.5,4.3-9.4,12.2-9.4,19.2
			C832.6,539.9,832.9,539.9,832.9,539.7L832.9,539.7z"/>
	</g>
	<g id="XMLID_153_">
		<path class="st23" d="M873.7,488.2c0.4-0.4,1-0.8,1.4-0.4c0.2,0.2,0.2,0.5,0.2,0.8c0.1,2.3,0.2,5.1,0,7.4c1.3-1.5,1.5-3.9,2.5-5.6
			c0.2-0.3,0.6-0.7,0.9-0.5c0.2,0.1,0.2,0.4,0.2,0.6c0.1,1.8-0.6,3.3-1,5.1c-0.4,1.7-0.9,3.1-1,4.9c0,0.2,0,0.4,0.1,0.6
			c0.2,0.3,0.8,0.2,1.1,0c1.1-0.5,2.3-1,3.4-1.6c0.4,0.6,0.4,1.4,0,2.1c-0.3,0.6-0.9,1.1-1.5,1.6c-1.4,1-2.9,1.8-4.3,2.8
			c-5.1,3.7-5.2,11.8-4,17.5c0.5,2.3,1.4,4.7,3.5,5.8c1.7,0.9,3.3,0.4,5,0.4c2,0,1.6,0.8,1.4,2.7c-0.3,1.9-0.1,6.5-2,7.3
			c-2,0.8-5.8-0.3-7.8-0.9c-2.5-0.8-4.8-2.4-6.2-4.6c-2.1-3.5-1.6-7.8-1.3-11.7c0.4-6.3,1.7-12.5,3.4-18.6c0.8-3.1,1.8-6.1,2.8-9.1
			C871.5,492,871.8,490.2,873.7,488.2z"/>
	</g>
	<g id="XMLID_161_">
		<path id="XMLID_180_" class="st2" d="M875.8,505.7c-4.5,3.6-5.1,9.8-4.5,15.2c0.3,2.3,0.6,4.7,2,6.6c1.8,2.5,4.2,2.2,7,2.1
			c0.2,0,0.2-0.3,0-0.3c-3.9,0.2-6.8-0.6-8-4.7c-0.6-2-0.8-4.2-0.9-6.3c-0.1-4.6,0.8-9.3,4.6-12.3
			C876.2,505.8,875.9,505.6,875.8,505.7L875.8,505.7z"/>
	</g>
	<g id="XMLID_157_">
		<path id="XMLID_171_" class="st2" d="M872,538.6c-5.6-2.1-7.8-6.5-7.6-12.4c0.1-4.6,0.7-9.2,1.6-13.7c0.8-4.1,1.8-8.1,3-12
			c1.2-3.9,2.1-8.7,4.8-11.8c0.1-0.2-0.1-0.4-0.2-0.2c-2.8,3.3-3.7,8-4.9,12c-1.7,5.6-3.1,11.2-3.9,17c-1.1,8.4-2.4,18,7.1,21.5
			C872.1,539,872.2,538.7,872,538.6L872,538.6z"/>
	</g>
	<g id="XMLID_148_">
		
			<linearGradient id="XMLID_68_" gradientUnits="userSpaceOnUse" x1="322.9309" y1="-279.935" x2="359.6574" y2="-279.935" gradientTransform="matrix(-4.078302e-16 -1 -1 4.078302e-16 460.4995 867.6467)">
			<stop  offset="0" style="stop-color:#2329F0"/>
			<stop  offset="0.3198" style="stop-color:#2433F1"/>
			<stop  offset="0.8713" style="stop-color:#264FF3"/>
			<stop  offset="1" style="stop-color:#2657F4"/>
		</linearGradient>
		<path id="XMLID_179_" class="st29" d="M749,544.7h-17.1V508l0,0c4.9,0,9,3.6,9.7,8.4l1.6,11.3l5.8,3.7V544.7z"/>
		
			<rect id="XMLID_178_" x="713.9" y="524.3" transform="matrix(6.123234e-17 -1 1 6.123234e-17 207.555 1259.9523)" class="st30" width="39.7" height="3.7"/>
		<circle id="XMLID_177_" class="st18" cx="743.1" cy="537.2" r="3.4"/>
	</g>
</g>
<g id="XMLID_349_">
	
		<rect id="XMLID_404_" x="973" y="691.9" transform="matrix(0.5477 0.8367 -0.8367 0.5477 1026.9445 -501.2759)" class="st23" width="8.2" height="14.6"/>
	<g id="XMLID_403_">
		<path class="st30" d="M1022.3,650.7c-0.7-11.1-1.3-26.2-2-37.3l-4.5,0.1c-4.5-2.4-10.5-3.5-14.4-0.2c-3.4,2.9-3.8,8.1-3.2,12.6
			c0.8,5.8,2.8,15.4,4.1,21.1c1.3,5.7,1.8,11.9-0.2,17.4c-2.1,5.7-6.4,10.3-10.6,14.5c-5.2,5.2-10.5,10.4-15.7,15.6
			c-0.4,0.4-0.7,0.7-1,1.2c-0.5,1-0.3,2.3,0.3,3.3c0.7,0.9,1.7,1.5,2.8,1.8c2.6,0.8,5.5,0.2,7.9-1.1c7.1-3.7,11.3-10.3,17-15.6
			c5.9-5.4,13.9-9.1,17.4-16.2C1023,662.6,1022.7,656.5,1022.3,650.7z"/>
	</g>
	
		<linearGradient id="XMLID_69_" gradientUnits="userSpaceOnUse" x1="1372.9358" y1="707.5715" x2="1392.6827" y2="707.5715" gradientTransform="matrix(1 0 0 1 -407.1472 0)">
		<stop  offset="0" style="stop-color:#673AB7"/>
		<stop  offset="0.4457" style="stop-color:#9347A7"/>
		<stop  offset="0.797" style="stop-color:#B0509E"/>
		<stop  offset="1" style="stop-color:#BA539A"/>
	</linearGradient>
	<path id="XMLID_401_" class="st31" d="M970.9,695.2l-5.1,4.4l13.3,20.2h6.5V719c0-1.6-1.2-2.8-2.8-2.9l0,0l-1.8-1.8l-0.6-10.5
		l-0.5-0.7l-4.5,0.3l-3.9-5l0.3-2.2L970.9,695.2z"/>
	<path id="XMLID_399_" class="st2" d="M967.8,698l13.2,20.1h4.4c0.1,0.3,0.2,0.7,0.2,1v0.9h-6.5l-13.3-20.2L967.8,698z"/>
	<rect id="XMLID_398_" x="990.3" y="702.7" class="st23" width="7.6" height="11.6"/>
	<g id="XMLID_396_">
		<path class="st30" d="M1008.6,624c-0.2-5.1-0.3-12.6-4.4-16.4c-4.1-3.7-10.2-1.3-13.5,2.3c-4.6,4.9-5,12.3-5,18.6
			c0,8.3,0.6,20.6,1.2,29c0.8,11.2,1.7,29.9,2.5,41.1c0.3,3.6-1.2,12.4,4.4,11.3c2.9-0.5,5-3.1,6-5.8c1-2.7,1-5.7,1.2-8.6
			c0.7-12.6,3.8-32.6,5.8-45C1007.9,643,1008.8,631.5,1008.6,624z"/>
	</g>
	<g id="XMLID_394_">
		<path id="XMLID_395_" class="st2" d="M1008.4,626.7c0.3,13.8-2.5,27.3-4.5,40.9c-0.8,5.6-1.6,11.2-2.2,16.8
			c-0.9,7.8,1,22.4-8,25.4c-0.2,0.1-0.1,0.4,0.1,0.3c4.7-1.6,6.4-5.5,7-10.2c1-7.9,1.2-15.9,2.2-23.8c2.1-16.4,5.9-32.7,5.6-49.3
			C1008.7,626.5,1008.4,626.5,1008.4,626.7L1008.4,626.7z"/>
	</g>
	<g id="XMLID_393_">
		<path class="st32" d="M1019.2,544.8c-0.2-1.1-0.6-2.3-0.6-3.5c-0.3-4.1-2.8-7.7-6.6-9.5c-2.5-1.2-5.3-1.6-8.1-1.5
			c-2.4,0-5.1,0.6-6.4,2.6c-1,1.5-1,3.5-2.1,5c-0.8,1-1.9,1.5-3.1,2c-2.5,1-4.8,1.7-5.5,4.6c-0.4,1.8,0,3.7-0.1,5.5
			c-0.2,2.1-1.3,4.1-2.9,5.4c-1.7,1.4-3.4,2.2-2.9,4.9c0.3,1.8,1.6,2.2,2.8,3.2c1.2,1.1,2.4,2.7,3.5,3.9c0.7,0.7,1.1,1.7,1.3,2.6
			c0.2,1.1-0.1,2.1,0.3,3.1c0.7,1.9,2.5,3.5,4.4,4.3c2.5,1,5.3,0.9,7.9,0.2c1.4-0.4,3-1.3,3.1-2.7c0-0.4-0.1-0.8,0-1.2
			c0.1-0.4,0.4-0.8,0.8-0.7l-0.5,0c-0.8-1.5-0.2-3.4,1-4.7c1.1-1.3,2.7-2,4.1-2.9c1.4-0.9,2.9-2,3.5-3.6c0.4-1,0.4-2.2,0.6-3.2
			c1-4.2,5-7,5.6-11.3C1019.4,546.4,1019.4,545.6,1019.2,544.8z"/>
	</g>
	<g id="XMLID_392_">
		<path class="st23" d="M993.4,559.3c0.7-0.3,1.4-0.8,1.9-1.4c2.2-2.7,3-6.8,2.9-10.2c0,0,8.7,7.5,8.8,7.5c0.1,0.1-0.2,3-0.1,3.5
			c0.2,1.1,0.6,2,0.9,3.1c0.1,0,0.2,0.1,0.3,0.2c0.8,1.3,2.6,1.5,3.3,2.9c0.4,0.8,0.3,1.9-0.2,2.7c-0.5,0.8-1.2,1.4-1.9,2
			c-0.7,0.6-1.4,1.2-2.3,1.5c-0.8,0.3-1.7,0.3-2.5,0.2c-3.4-0.2-6.7-0.9-9.8-2.1c-0.8-0.3-1.7-0.7-2.4-1.2c-2.3-1.7-3.2-5.1-1.9-7.7
			c0.1-0.2,0.3-0.5,0.5-0.6c0.4-0.2,0.9-0.1,1.4-0.1C992.6,559.5,993,559.4,993.4,559.3z"/>
	</g>
	<g id="XMLID_391_">
		<path class="st23" d="M1017.9,544.3c-0.7-4-4.7-7.1-8.8-7c-4.7,0.1-10,4.7-10.2,9.5c-0.1,2.9,1,5.4,2,8c0.5,1.3,1.1,2.6,2,3.6
			c0.9,1,2.2,1.7,3.6,1.7c1.9-0.1,3.5-1.6,4.8-3c1.4-1.6,2.8-3.3,4.1-5c0.7-1,1.5-2,1.9-3.2C1018,547.4,1018.2,545.8,1017.9,544.3z"
			/>
	</g>
	<g id="XMLID_389_">
		<path id="XMLID_390_" class="st2" d="M1000.8,554.8c1.4,3.6,4.5,7.1,8.5,4.4c2.5-1.7,4.5-4.7,6.3-7.1c1.8-2.5,2.8-4.7,2.5-7.8
			c0-0.2-0.4-0.2-0.3,0c0.5,4.4-2.1,7.4-4.8,10.7c-1,1.1-1.9,2.4-3.1,3.4c-3.9,3.2-7.3,0.1-8.8-3.6
			C1001.1,554.5,1000.7,554.6,1000.8,554.8L1000.8,554.8z"/>
	</g>
	<g id="XMLID_388_">
		<path class="st18" d="M1024.1,586.8c1.5-6.9-1.3-14.1-5.2-20c-0.6-0.9-1.1-1.8-2-2.5c-3.3-2.4-6.8-1.4-6.8-1.4
			c-1.8,3.8-6.2,6.3-10.4,5.9c-0.8-0.1-1.7-0.3-2.4-0.7c-0.8-0.4-1.5-1.1-2-1.8c-1.5-1.9-2.3-4.3-2.3-6.8c-3-0.6-6,0.3-8.8,1.5
			c-1.5,0.7-3,1.5-4.2,2.6c-1.6,1.5-2.5,3.6-3.2,5.7c-1.6,4.7-2.4,9.7-3.1,14.5c2.1,0.3,4.2,1,6.2,1.7c1.1,0.4,2.1,0.7,3.2,1.1
			c3.6,1.2,2.6,3.5,2.3,6.6c-0.4,5.1-0.7,10.1-0.9,15.2c-0.2,3.7-2.2,9.2,1.1,11.9c1.3,1.1,3,1.7,4.7,2.1c8.6,2.4,17.9,2.5,26.6,0.1
			c1.1-0.3,2.2-0.7,3-1.5c3.4-3.4,0.1-13-0.6-17c-0.3-1.8-0.6-3.5-0.8-5.3c-0.4-4.1-0.2-8-0.3-12
			C1020,586.2,1022.2,586.4,1024.1,586.8z"/>
	</g>
	<g id="XMLID_386_">
		<path id="XMLID_387_" class="st2" d="M999.7,568.6c-4.5-0.7-6.4-5-6.6-9.1c0-0.1,0-0.2-0.1-0.2c-3.2-0.4-6,0.3-8.9,1.5
			c-0.2,0.1-0.1,0.4,0.1,0.3c2-0.8,7.1-3.1,8.7-0.6c0.5,0.9,0.5,2.6,1,3.6c1.2,2.6,3,4.4,5.8,4.8
			C999.8,568.9,999.9,568.6,999.7,568.6L999.7,568.6z"/>
	</g>
	<g id="XMLID_384_">
		<path id="XMLID_385_" class="st2" d="M1016.8,622.6c6.5-1.9,4.7-9.1,3.6-14.3c0-0.2-0.4-0.1-0.3,0.1c1.1,4.9,3,12-3.3,13.9
			C1016.5,622.3,1016.6,622.7,1016.8,622.6L1016.8,622.6z"/>
	</g>
	<g id="XMLID_382_">
		<path id="XMLID_383_" class="st2" d="M985.4,620.4c8.7,5.7,21.8,4.6,31.4,2.2c0.2-0.1,0.1-0.4-0.1-0.3c-9.4,2.4-22.5,3.4-31.1-2.2
			C985.4,620,985.2,620.3,985.4,620.4L985.4,620.4z"/>
	</g>
	<g>
		<path class="st32" d="M1020.3,541.3c-0.4,0.9-1,1.6-1.6,2.4c-1.1,1.3-2.2,2.6-3.7,3.4c-2.1,1.1-4.6,0.9-7,0.8
			c-3.8-0.3-6,0.3-9,2.9c-1.9,1.6-3.9,3.6-6.2,4.6c-0.7,0.3-1.5-0.2-1.9-0.8c-1.6-2.8,1.5-7.6,2.3-10.4c0.3-1.2,0.7-2.5,1.4-3.6
			c1.9-2.9,5.8-3.7,9.3-4.2c2.8-0.4,5.6-0.6,8.3-0.9c2.4-0.3,4.5-1.4,6.6,0.5c0.2,0.1,0.3,0.3,0.4,0.4
			C1020.4,537.6,1021,539.6,1020.3,541.3z"/>
	</g>
	<g id="XMLID_378_">
		<path class="st23" d="M1022.8,584.4l-0.6-1.2c-0.5,1.6-1.1,3.2-2.1,4.6c-1.1,1.7-2.8,3.2-3.1,5.2c-0.2,0.9,0,1.9,0.1,2.9
			c0.2,1.4,0.4,2.8,0.6,4.3c0.1,1,0.3,2,0.8,2.8c0.5,0.9,1.4,1.6,2.4,1.5c1.4-0.1,2.3-1.5,2.7-2.8
			C1025.5,596.3,1023.1,590.3,1022.8,584.4z"/>
	</g>
	<g id="XMLID_368_">
		<polygon id="XMLID_377_" class="st1" points="1019,559.5 1014.3,570 1026,575.3 1029.8,570.7 		"/>
		<polygon id="XMLID_376_" class="st1" points="1020.7,558.5 1015.8,568.9 1027.8,574.3 1028.3,565.9 		"/>
		<polygon id="XMLID_375_" class="st1" points="1022.5,557.8 1016.1,568.7 1029.6,573.6 1024.3,560.5 		"/>
		<polygon id="XMLID_374_" class="st18" points="1029.8,570.7 1019,559.5 1019.4,559.2 1030.4,570.4 		"/>
		<polygon id="XMLID_373_" class="st18" points="1029.8,570.6 1020.6,558.5 1021.1,558.3 1030.4,570.4 		"/>
		<polygon id="XMLID_372_" class="st18" points="1029.7,570.4 1022.5,557.8 1023,557.8 1030.4,570.4 		"/>
		<path id="XMLID_371_" class="st33" d="M1008.6,561.3l-10.1,22c-0.4,0.8,0,1.8,0.8,2.2l18,8.4l12.8-23.4l-19.7-9.9
			C1009.8,560.3,1008.9,560.6,1008.6,561.3z"/>
		<polygon id="XMLID_370_" class="st34" points="1030.1,570.5 1023.4,557.8 1024.3,557.8 1031.2,570.5 		"/>
		<polygon id="XMLID_369_" class="st34" points="1031.2,570.5 1018.6,593.9 1017.4,593.9 1030.1,570.5 		"/>
	</g>
	<g id="XMLID_367_">
		<path class="st23" d="M1004.8,594.1c1.1-0.4,2.1-0.8,3.2-1.1c0.9-0.2,1.9-0.4,2.8-0.8c1.9-0.8,2.7-2.9,2.2-4.9
			c-0.6-2.2-3-2.9-5-2.7c-2.2,0.2-3.8,1.3-5.8,1.8c0.4-0.9,1.6-1.5,1.6-2.6c0-0.2-0.1-0.5-0.3-0.6c-0.3-0.2-0.7,0.1-0.9,0.4
			c-1.7,1.9-3.1,4.4-5.2,5.8c-2.2,1.5-4.6,2.9-7.2,3.6c-1,0.3-2.1,0-3-0.2c-1-0.1-1.9-0.6-2.6-1.4c-0.5-0.6-0.7-1.3-0.9-2
			c-0.1-0.7,0.5-1.8,0.3-2.4c-0.4-1.2-3.4-1.5-4.5-1.9c-1.7-0.6-3-0.9-4.7-1.5c-1.4,5.4-0.4,11.3,3.8,15.3c0.8,0.7,1.7,1.4,2.6,1.9
			c4.8,2.2,10.5-0.3,14.9-2.5C998.9,597,1001.7,595.3,1004.8,594.1z"/>
	</g>
	<rect id="XMLID_366_" x="987" y="717.6" class="st2" width="14.8" height="2.7"/>
	
		<linearGradient id="XMLID_70_" gradientUnits="userSpaceOnUse" x1="1394.8408" y1="714.2857" x2="1407.593" y2="714.2857" gradientTransform="matrix(1 0 0 1 -407.1472 0)">
		<stop  offset="0" style="stop-color:#673AB7"/>
		<stop  offset="0.4457" style="stop-color:#9347A7"/>
		<stop  offset="0.797" style="stop-color:#B0509E"/>
		<stop  offset="1" style="stop-color:#BA539A"/>
	</linearGradient>
	<path id="XMLID_365_" class="st35" d="M994.1,710.9L994.1,710.9c-3.5,0-6.4,2.9-6.4,6.4v0.3h12.8v-0.3
		C1000.4,713.8,997.6,710.9,994.1,710.9z"/>
	<g id="XMLID_363_">
		<path id="XMLID_364_" class="st2" d="M983,586.7c1.2,0.4,2.5,0.9,2.6,2.3c0.1,1-0.2,2.1-0.3,3.1c0,0.2,0.3,0.2,0.3,0
			c0.1-1.2,0.5-2.6,0.1-3.8c-0.4-1.1-1.7-1.6-2.7-2C982.8,586.3,982.8,586.6,983,586.7L983,586.7z"/>
	</g>
	<g id="XMLID_361_">
		<path id="XMLID_362_" class="st2" d="M973.5,583.9c3.2,0.6,6.3,1.7,9.4,2.8c0.2,0.1,0.3-0.3,0.1-0.3c-3.1-1-6.2-2.2-9.4-2.8
			C973.4,583.6,973.3,583.9,973.5,583.9L973.5,583.9z"/>
	</g>
	<g id="XMLID_359_">
		<path id="XMLID_360_" class="st2" d="M976.5,569.2c-1.6,4.7-2.4,9.6-3.1,14.5c0,0.2,0.3,0.3,0.3,0.1c0.7-4.9,1.5-9.8,3.1-14.5
			C976.9,569.1,976.6,569,976.5,569.2L976.5,569.2z"/>
	</g>
</g>
<g id="XMLID_7_">
	<g id="XMLID_335_">
		<path class="st2" d="M983.3,410.4c4.2-6,11.7-7.7,18.2-4.3c0.4,0.2,0.7-0.4,0.3-0.6c-6.8-3.7-14.6-1.8-19.1,4.5
			C982.5,410.4,983.1,410.7,983.3,410.4L983.3,410.4z"/>
	</g>
	<g id="XMLID_334_">
		<path class="st2" d="M1012.5,408.4c-3.5,0.1-6.1,2.8-6.2,6.2c0,0.4,0.6,0.4,0.7,0c0.1-3.1,2.5-5.5,5.6-5.6
			C1012.9,409,1012.9,408.4,1012.5,408.4L1012.5,408.4z"/>
	</g>
	<g id="XMLID_333_">
		<path class="st2" d="M1010.1,409.1c-3.4-8.8-12.3-14.2-21.6-11c-4.1,1.4-7.5,4.3-9.5,8.2c-1,1.9-1.2,4.1-2.8,4.9
			c-1.3,0.6-4.2,0-5.7,0c-0.4,0-0.4,0.7,0,0.7c2.4,0,4.7,0,7.1,0c0.1,0,0.3-0.1,0.3-0.2c3.7-16.5,25.5-18.4,31.6-2.4
			C1009.6,409.7,1010.2,409.5,1010.1,409.1L1010.1,409.1z"/>
	</g>
	<g id="XMLID_331_">
		<path class="st2" d="M1024.3,418.3c-1.3-6.9-7.8-11-14.6-9.4c-0.4,0.1-0.2,0.7,0.2,0.6c6.5-1.5,12.5,2.4,13.8,9
			C1023.7,418.9,1024.4,418.7,1024.3,418.3L1024.3,418.3z"/>
	</g>
	<g id="XMLID_330_">
		<path class="st2" d="M1043.9,426.6c-1.7,0-3.4,0-5.2,0c-1,0-2.4,0.3-3.3,0c-1.3-0.4-0.6,0.1-0.9-1.3c-1.4-5.3-5.4-7.2-10.5-7.2
			c-0.4,0-0.4,0.7,0,0.7c5.3,0,9.7,2.3,10,8.2c0,0.2,0.1,0.3,0.3,0.3c3.2,0,6.4,0,9.6,0C1044.3,427.2,1044.3,426.6,1043.9,426.6
			L1043.9,426.6z"/>
	</g>
</g>
<g>
	<g>
		<path class="st23" d="M792.6,449.5c1.5-1,3.3-1.5,5.2-1.5h2.1c1-6.1,6.3-10.9,12.7-10.9c0.1,0,0.2,0,0.3,0l-0.1-0.1
			c0.5,0,1,0.1,1.5,0.2c0.6,0.1,1.1,0.2,1.6,0.3c2-6.5,7.4-11.4,14.2-12.8c-0.2-14.6-12.1-26.4-26.7-26.4c-14.8,0-26.7,12-26.7,26.7
			C776.7,435.9,783.2,445.3,792.6,449.5z"/>
	</g>
	<path class="st36" d="M780.8,427.5c0-14.8,12-26.7,26.7-26.7c4.2,0,8.1,1,11.6,2.7c-4.4-3.2-9.8-5.1-15.7-5.1
		c-14.8,0-26.7,12-26.7,26.7c0,10.6,6.1,19.7,15,24C785.1,444.2,780.8,436.3,780.8,427.5z"/>
	<g id="XMLID_347_">
		<g id="XMLID_357_">
			<g id="XMLID_381_">
				<path class="st2" d="M846.3,438.7c-5-7.1-13.8-9.2-21.5-5.1c-0.4,0.2,0,0.8,0.3,0.6c7.4-3.9,15.8-2,20.6,4.8
					C846,439.4,846.6,439,846.3,438.7L846.3,438.7z"/>
			</g>
			<g id="XMLID_380_">
				<path class="st2" d="M812.8,437.5c3.5,0.1,6.2,2.8,6.3,6.3c0,0.4,0.7,0.4,0.7,0c-0.1-3.9-3.1-6.9-7-7
					C812.4,436.8,812.4,437.5,812.8,437.5L812.8,437.5z"/>
			</g>
			<g id="XMLID_379_">
				<path class="st2" d="M816.2,437.8c6.8-18,31.7-16.1,35.8,2.7c0,0.1,0.2,0.2,0.3,0.2c2.7,0,5.3,0,8,0c0.4,0,0.4-0.7,0-0.7
					c-1.7,0-3.8,0.4-5.5,0c-3.1-0.8-2-0.7-3.5-4.1c-2-4.8-6-8.7-10.8-10.5c-10.6-4-21.2,2.1-25,12.2
					C815.5,438,816.1,438.1,816.2,437.8L816.2,437.8z"/>
			</g>
			<g id="XMLID_358_">
				<path class="st2" d="M777.4,458c3.6,0,7.2,0,10.8,0c0.2,0,0.3-0.2,0.3-0.3c0.6-6.1,5.7-9.3,11.4-9.3c0.1,0,0.3-0.1,0.3-0.2
					c1.8-7.4,8.2-11.7,15.6-10.2c0.4,0.1,0.6-0.5,0.2-0.6c-4.7-1-9.3-0.1-12.8,3.4c-1.6,1.6-1.9,3.5-3.2,5.2
					c-1.8,2.4-2.3,1.3-5.2,2.2c-4.4,1.4-4.6,4.4-6.8,7.5c-1,1.5,0.4,0.9-1.3,1.6c-0.8,0.3-2.3,0-3.2,0c-2,0-4.1,0-6.1,0
					C776.9,457.4,776.9,458,777.4,458L777.4,458z"/>
			</g>
		</g>
		<g id="XMLID_355_">
			<path class="st2" d="M803,385.9c0,2.6,0,5.1,0,7.7c0,0.4,0.7,0.4,0.7,0c0-2.6,0-5.1,0-7.7C803.6,385.4,803,385.4,803,385.9
				L803,385.9z"/>
		</g>
		<g id="XMLID_354_">
			<path class="st2" d="M822.4,390.9c-1.3,2.2-2.6,4.5-3.9,6.7c-0.2,0.4,0.4,0.7,0.6,0.3c1.3-2.2,2.6-4.5,3.9-6.7
				C823.1,390.8,822.6,390.5,822.4,390.9L822.4,390.9z"/>
		</g>
		<g id="XMLID_353_">
			<path class="st2" d="M836.6,404.9c-2.2,1.3-4.5,2.6-6.7,3.9c-0.4,0.2,0,0.8,0.3,0.6c2.2-1.3,4.5-2.6,6.7-3.9
				C837.3,405.3,837,404.7,836.6,404.9L836.6,404.9z"/>
		</g>
		<g id="XMLID_352_">
			<path class="st2" d="M770,444.3c2.2-1.3,4.5-2.6,6.7-3.9c0.4-0.2,0-0.8-0.3-0.6c-2.2,1.3-4.5,2.6-6.7,3.9
				C769.3,443.9,769.7,444.5,770,444.3L770,444.3z"/>
		</g>
		<g id="XMLID_351_">
			<path class="st2" d="M764.6,425c2.6,0,5.1,0,7.7,0c0.4,0,0.4-0.7,0-0.7c-2.6,0-5.1,0-7.7,0C764.2,424.3,764.2,425,764.6,425
				L764.6,425z"/>
		</g>
		<g id="XMLID_350_">
			<path class="st2" d="M769.6,405.6c2.2,1.3,4.5,2.6,6.7,3.8c0.4,0.2,0.7-0.4,0.3-0.6c-2.2-1.3-4.5-2.6-6.7-3.8
				C769.6,404.8,769.2,405.4,769.6,405.6L769.6,405.6z"/>
		</g>
		<g id="XMLID_348_">
			<path class="st2" d="M783.6,391.3c1.3,2.2,2.6,4.5,3.9,6.7c0.2,0.4,0.8,0,0.6-0.3c-1.3-2.2-2.6-4.5-3.9-6.7
				C783.9,390.6,783.4,390.9,783.6,391.3L783.6,391.3z"/>
		</g>
	</g>
</g>
<g id="XMLID_336_">
	<g id="XMLID_346_">
		<path class="st2" d="M894.3,416c-2.3-3.3-6.5-4.3-10.1-2.4c-0.4,0.2,0,0.8,0.3,0.6c3.3-1.8,7-0.9,9.2,2.1
			C894,416.6,894.5,416.3,894.3,416L894.3,416z"/>
	</g>
	<g id="XMLID_345_">
		<path class="st2" d="M879.1,415.8c1.5,0.1,2.7,1.2,2.7,2.7c0,0.4,0.7,0.4,0.7,0c-0.1-1.9-1.5-3.3-3.4-3.4
			C878.7,415.1,878.7,415.8,879.1,415.8L879.1,415.8z"/>
	</g>
	<g id="XMLID_344_">
		<path class="st2" d="M880.6,415.7c3.1-8.1,14.1-7.1,16,1.2c0,0.1,0.2,0.2,0.3,0.2c1.2,0,2.4,0,3.7,0c0.4,0,0.4-0.7,0-0.7
			c-0.7,0-1.9,0.2-2.6,0c-1.2-0.4-0.8-0.6-1.4-2c-1-2.3-2.9-4-5.3-4.8c-4.9-1.7-9.6,1.2-11.4,5.8
			C879.8,415.9,880.4,416.1,880.6,415.7L880.6,415.7z"/>
	</g>
	<g id="XMLID_343_">
		<path class="st2" d="M873.2,420.4c0.6-3.3,3.6-5.3,6.9-4.5c0.4,0.1,0.6-0.5,0.2-0.6c-3.6-0.8-7,1.3-7.7,5
			C872.5,420.7,873.2,420.8,873.2,420.4L873.2,420.4z"/>
	</g>
</g>
<g id="XMLID_435_">
	<g id="XMLID_442_">
		<path class="st2" d="M741.3,482.5c-2.3-3.3-6.5-4.3-10.1-2.4c-0.4,0.2,0,0.8,0.3,0.6c3.3-1.8,7-0.9,9.2,2.1
			C741,483.2,741.6,482.8,741.3,482.5L741.3,482.5z"/>
	</g>
	<g id="XMLID_440_">
		<path class="st2" d="M726.1,482.3c1.5,0.1,2.7,1.2,2.7,2.7c0,0.4,0.7,0.4,0.7,0c-0.1-1.9-1.5-3.3-3.4-3.4
			C725.7,481.6,725.7,482.3,726.1,482.3L726.1,482.3z"/>
	</g>
	<g id="XMLID_438_">
		<path class="st2" d="M727.6,482.2c3.1-8.1,14.1-7.1,16,1.2c0,0.1,0.2,0.2,0.3,0.2c1.2,0,2.4,0,3.7,0c0.4,0,0.4-0.7,0-0.7
			c-0.7,0-1.9,0.2-2.6,0c-1.2-0.4-0.8-0.6-1.4-2c-1-2.3-2.9-4-5.3-4.8c-4.9-1.7-9.6,1.2-11.4,5.8
			C726.8,482.4,727.4,482.6,727.6,482.2L727.6,482.2z"/>
	</g>
	<g id="XMLID_436_">
		<path class="st2" d="M720.3,486.9c0.6-3.3,3.6-5.3,6.9-4.5c0.4,0.1,0.6-0.5,0.2-0.6c-3.6-0.8-7,1.3-7.7,5
			C719.6,487.2,720.2,487.4,720.3,486.9L720.3,486.9z"/>
	</g>
</g>
<polygon id="XMLID_12_" class="st21" points="916.9,718.4 901.2,719.2 902.2,533.6 907.1,533.3 "/>
<g>
	<path class="st2" d="M532,720.7c18.7,0,37.4,0,56,0c44.6,0,89.1,0,133.7,0c54.2,0,108.4,0,162.6,0c46.6,0,93.3,0,139.9,0
		c15.5,0,31.1,0,46.6,0c7,0,15,1.2,21.9,0c0.3-0.1,0.7,0,1,0c0.3,0,0.3-0.4,0-0.4c-18.7,0-37.4,0-56,0c-44.6,0-89.1,0-133.7,0
		c-54.2,0-108.4,0-162.6,0c-46.6,0-93.3,0-139.9,0c-15.5,0-31.1,0-46.6,0c-6.6,0-15.4-1.6-21.9,0c-0.3,0.1-0.7,0-1,0
		C531.8,720.2,531.8,720.7,532,720.7L532,720.7z"/>
</g>
<rect x="821.1" y="363.8" class="st37" width="10.7" height="2.1"/>
</svg>
