<?xml version="1.0" encoding="utf-8"?>
<!-- Generator: Adobe Illustrator 21.0.0, SVG Export Plug-In . SVG Version: 6.00 Build 0)  -->
<svg version="1.1" id="Layer_1" xmlns="http://www.w3.org/2000/svg" xmlns:xlink="http://www.w3.org/1999/xlink" x="0px" y="0px"
	 viewBox="0 0 1080 720" style="enable-background:new 0 0 1080 720;" xml:space="preserve">
<style type="text/css">
	.st0{fill:#FEE7EC;}
	.st1{fill:#E5DBFF;}
	.st2{fill:#150D9C;}
	.st3{fill:url(#SVGID_1_);}
	.st4{fill:url(#SVGID_2_);}
	.st5{fill:url(#SVGID_3_);}
	.st6{fill:url(#SVGID_4_);}
	.st7{fill:#0D035C;}
	.st8{fill:url(#SVGID_5_);}
	.st9{opacity:0.3;}
	.st10{fill:url(#SVGID_6_);}
	.st11{fill:url(#SVGID_7_);}
	.st12{fill:url(#SVGID_8_);}
	.st13{fill:#A8BCFB;}
	.st14{opacity:0.3;fill:#150D9C;}
	.st15{fill:#7D9AF8;}
	.st16{fill:#A7A9F9;}
	.st17{fill:#FFE0E4;}
	.st18{fill:#FFFFFF;}
	.st19{fill:url(#XMLID_65_);}
	.st20{fill:url(#XMLID_66_);}
	.st21{opacity:0.3;fill:#0D035C;}
	.st22{fill:#B8A1D7;}
	.st23{fill:#FC899F;}
	.st24{fill:url(#XMLID_67_);}
	.st25{fill:#F9F7F9;}
	.st26{fill:#2329F0;}
	.st27{fill:url(#SVGID_9_);}
	.st28{fill:url(#SVGID_10_);}
	.st29{fill:url(#XMLID_68_);}
	.st30{fill:#673AB7;}
	.st31{fill:url(#XMLID_69_);}
	.st32{fill:#BA539A;}
	.st33{fill:#2657F4;}
	.st34{fill:#5179F6;}
	.st35{fill:url(#XMLID_70_);}
	.st36{fill:#FDB8C5;}
	.st37{fill:#FF6677;}
</style>
<g>
	<path class="st0" d="M-2.4,609.7c6.1-10.1,12.1-20.2,15.5-31c6.8-21.2,11-41.6,22.2-61.6c10.3-18.5,22.6-35.7,35.7-52.4
		c7.1-9.1,14.4-18,21.7-26.9c21.2-25.9,45.6-53.7,78.7-58.2c23.7-3.2,47.6,6.5,66.6,21c19,14.5,34,33.5,49.3,51.8
		c25.4,30.4,52.3,59.5,80.6,87.2c33.5,32.8,73.7,21.3,115.5,30.3c28.9,6.2,54.7,25.7,68.5,51.9c13.8,26.1,15.5,58.4,4.4,85.9
		c-8.9,22-25.6,35.8-38.8,54.4c-2.2,3.1-3.8,6.6-4.9,10.4h-515V609.7z"/>
</g>
<g>
	<path class="st1" d="M-2.4,772.5V387c5.8,0.5,11.7,1.4,17.3,2.6c23,5.1,44.8,15.4,63.3,30c22.9,18,40.3,41.8,61.3,62
		c21,20.2,47.7,37.3,76.8,36.3c37.5-1.3,67-31.4,102.1-44.7c28.3-10.7,60.9-9.9,88.4,2.7c27.5,12.6,49.6,36.8,59.1,65.5
		c12.6,37.9,3.8,81.2,20.7,117.4c15.5,33.2,49.6,53.5,83.3,67.9c25.9,11.1,53.1,19.9,77.5,34.2c5.4,3.2,9.9,7.1,13.7,11.5H-2.4z"/>
</g>
<g>
	<g id="XMLID_265_">
		<g id="XMLID_523_">
			<path id="XMLID_524_" class="st2" d="M584.8,649.4c-21,28.5-52.8,47.7-87.9,52.9c-0.9,0.1-1.2-1.3-0.3-1.4
				c34.7-5.1,66.2-24,87-52.3C584.1,647.8,585.3,648.6,584.8,649.4L584.8,649.4z"/>
		</g>
		<path id="XMLID_522_" class="st2" d="M581.4,652.9c0,0,12.3-2.9,11-13.4C592.4,639.4,582.6,637.6,581.4,652.9z"/>
		<path id="XMLID_521_" class="st2" d="M573,662.7c0,0,11.1,6.1,17.2-2.5C590.1,660.1,584.1,652.2,573,662.7z"/>
		<path id="XMLID_274_" class="st2" d="M560.1,674.4c0,0,10,7.7,17.3,0.1C577.5,674.5,572.8,665.7,560.1,674.4z"/>
		<path id="XMLID_273_" class="st2" d="M546,683.8c0,0,7.7,10,16.8,4.5C562.7,688.2,560.4,678.6,546,683.8z"/>
		<path id="XMLID_272_" class="st2" d="M530.8,691c0,0,4.5,11.8,14.7,9.1C545.6,700.2,546.2,690.3,530.8,691z"/>
		<path id="XMLID_271_" class="st2" d="M515.7,696.7c0,0,1.4,12.6,12,12.5C527.7,709.2,530.8,699.7,515.7,696.7z"/>
		<path id="XMLID_270_" class="st2" d="M572.8,662.6c0,0,8.5-9.3,1.6-17.3C574.4,645.3,565.3,649.2,572.8,662.6z"/>
		<path id="XMLID_269_" class="st2" d="M560,674.3c0,0,8.5-9.3,1.6-17.3C561.6,657.1,552.4,661,560,674.3z"/>
		<path id="XMLID_268_" class="st2" d="M546,683.9c0,0,8.5-9.3,1.6-17.3C547.5,666.6,538.4,670.6,546,683.9z"/>
		<path id="XMLID_267_" class="st2" d="M531,692.1c0,0,8.5-9.3,1.6-17.3C532.5,674.8,523.4,678.8,531,692.1z"/>
		<path id="XMLID_266_" class="st2" d="M516,697.2c0,0,8.5-9.3,1.6-17.3C517.6,679.9,508.4,683.8,516,697.2z"/>
	</g>
	<g id="XMLID_511_">
		<g id="XMLID_520_">
			
				<linearGradient id="SVGID_1_" gradientUnits="userSpaceOnUse" x1="704.9647" y1="647.9834" x2="715.885" y2="647.9834" gradientTransform="matrix(-1 0 0 1 1212 0)">
				<stop  offset="0" style="stop-color:#2329F0"/>
				<stop  offset="0.3198" style="stop-color:#2433F1"/>
				<stop  offset="0.8713" style="stop-color:#264FF3"/>
				<stop  offset="1" style="stop-color:#2657F4"/>
			</linearGradient>
			<path class="st3" d="M497.9,641.9c0.1,0,0.2,0.1,0.3,0.2c0.3,0.5,0.6,1.3,0.5,1.9c0.6-0.9,1.7-1.4,2.6-1.9c0,0,0.1,0,0.1,0
				c0,0,0.1,0,0.1,0.1c0.3,0.4,0.5,1,0.6,1.5c0,0.5-0.2,1-0.5,1.4c0.4-0.5,0.8-0.9,1.4-1.2c0.2-0.1,0.4-0.1,0.7-0.2
				c0.3-0.1,0.5-0.3,0.8-0.3c0.1,0,0.2,0.1,0.2,0.1c0.1,0.2,0.1,0.4,0.1,0.6c0,0.5,0,0.9-0.1,1.4c0,0.5-0.2,0.8,0.3,0.5
				c0.7-0.3,1.3-0.5,2-0.5c0.1,0-0.1,0.8-0.2,0.8c-0.7,1.8-1.9,3.8-3.4,5c-1.7,1.3-5.6,2.6-5.6,2.6c-0.3-0.4-0.6-0.8-0.8-1.2
				c-0.1-0.2-0.3-0.4-0.4-0.6c-0.1-0.3-0.2-0.6-0.2-0.9c-0.2-1.2-0.3-2.5-0.3-3.7c0-1.3,0.3-2.5,0.8-3.8
				C497,643.5,497.5,641.9,497.9,641.9z"/>
		</g>
		<g id="XMLID_518_">
			<g id="XMLID_519_">
				<path class="st2" d="M501.5,651.2c1.3-1.1,2.3-2.8,3-4.4c0,0,0.1-0.4,0.1-0.6c0.1,0,0.2,0,0.3,0c0.1,0-0.1,0.7-0.1,0.7
					c-0.6,1.6-1.6,3.3-3,4.4c-1.5,1.2-4.9,2.2-4.9,2.2c0-0.1-0.1-0.1-0.1-0.2C497.5,653.1,500.2,652.2,501.5,651.2z"/>
			</g>
		</g>
		<g id="XMLID_516_">
			<g id="XMLID_517_">
				<path class="st2" d="M497,648.7c0.1-1.5,0.8-2.9,1.6-4.1c0,0,0.2-0.2,0.3-0.4c0-0.1-0.1-0.2-0.1-0.2c0,0-0.4,0.4-0.4,0.4
					c-0.8,1.2-1.5,2.7-1.6,4.1c-0.1,1.6,0.8,4.5,0.8,4.5c0.1,0,0.1,0,0.2,0C497.6,652.3,496.9,650,497,648.7z"/>
			</g>
		</g>
		<g id="XMLID_514_">
			<path id="XMLID_515_" class="st2" d="M501.8,645.3c-1.3,2.5-2.6,5.1-3.8,7.7c-0.1,0.2-0.4,0.1-0.3-0.1c1.2-2.6,2.5-5.2,3.9-7.8
				C501.7,645,501.9,645.1,501.8,645.3L501.8,645.3z"/>
		</g>
		<g id="XMLID_513_">
			<path class="st2" d="M496.5,651.7c0,0,0.2,0.1,0.2,0.1c0.1,0.2,0.2,0.5,0.2,0.7c0.2-0.3,0.6-0.5,0.9-0.7c0,0,0,0,0.1,0
				c0,0,0,0,0,0c0.1,0.2,0.2,0.3,0.2,0.5c0,0.2-0.1,0.3-0.2,0.5c0.1-0.2,0.3-0.3,0.5-0.4c0.1,0,0.1,0,0.2-0.1c0.1,0,0.2-0.1,0.3-0.1
				c0,0,0.1,0,0.1,0.1c0,0.1,0,0.1,0,0.2c0,0.2,0,0.3,0,0.5c0,0.2-0.1,0.3,0.1,0.2c0.2-0.1,0.6-0.2,0.8-0.2c0,0-0.1,0.2-0.2,0.3
				c-0.6,0.3-0.7,1.4-1.2,1.8c-0.6,0.5-2,0.9-2,0.9c-0.1-0.1-0.2-0.3-0.3-0.4c-0.1-0.1-0.1-0.1-0.1-0.2c0-0.1-0.1-0.2-0.1-0.3
				c-0.1-0.4-0.1-0.6-0.1-1.1c0-0.5,0.3-0.9,0.5-1.4C496.5,652.5,496.5,651.9,496.5,651.7z"/>
		</g>
		<path id="XMLID_512_" class="st2" d="M490.4,667.7c2.2-4.3,5-8.2,6.3-12.9c0.1-0.4,0.8-0.2,0.6,0.2c-1.3,4.9-4.3,8.9-6.5,13.4
			c-0.6,1.2-1.1,2.4-1.6,3.7l-0.7,0C489.1,670.6,489.7,669.1,490.4,667.7z"/>
	</g>
	<g id="XMLID_255_">
		<g id="XMLID_264_">
			
				<linearGradient id="SVGID_2_" gradientUnits="userSpaceOnUse" x1="881.0914" y1="388.2412" x2="894.2062" y2="388.2412" gradientTransform="matrix(-0.6716 0.7409 0.7409 0.6716 690.3533 -288.6118)">
				<stop  offset="0" style="stop-color:#2329F0"/>
				<stop  offset="0.3198" style="stop-color:#2433F1"/>
				<stop  offset="0.8713" style="stop-color:#264FF3"/>
				<stop  offset="1" style="stop-color:#2657F4"/>
			</linearGradient>
			<path class="st4" d="M373.5,628.2c0.1-0.1,0.3-0.1,0.4-0.1c0.7,0.1,1.6,0.5,2.1,1.1c-0.3-1.2,0.1-2.7,0.4-3.8
				c0-0.1,0-0.1,0.1-0.2c0,0,0.1,0,0.1,0c0.6,0.1,1.3,0.3,1.8,0.7c0.5,0.3,0.7,1,0.8,1.5c-0.1-0.7-0.1-1.5,0.1-2.2
				c0.1-0.3,0.2-0.5,0.4-0.7c0.2-0.3,0.2-0.7,0.4-0.9c0.1-0.1,0.2-0.1,0.3-0.1c0.2,0,0.4,0.2,0.6,0.4c0.4,0.4,0.8,0.8,1.2,1.1
				c0.4,0.4,0.5,0.7,0.8,0.1c0.3-0.8,0.6-1.6,1.1-2.2c0.1-0.1,0.6,0.7,0.6,0.8c1,2.1,1.9,4.7,1.7,7.1c-0.2,2.6-2.3,7.1-2.3,7.1
				c-0.6-0.1-1.2-0.1-1.7-0.2c-0.3,0-0.6-0.1-0.9-0.2c-0.3-0.1-0.6-0.3-0.9-0.5c-1.2-0.8-2.5-1.7-3.6-2.7c-1.2-1.1-2-2.3-2.8-3.7
				C374.2,630.3,373.2,628.5,373.5,628.2z"/>
		</g>
		<g id="XMLID_262_">
			<g id="XMLID_263_">
				<path class="st2" d="M384.6,632.5c0.1-2.1-0.6-4.3-1.5-6.2c0,0-0.2-0.4-0.4-0.6c0.1-0.1,0.1-0.2,0.2-0.3
					c0.1-0.1,0.5,0.6,0.5,0.7c0.9,1.8,1.6,4.1,1.5,6.2c-0.1,2.2-2,6.2-2,6.2c-0.1,0-0.2,0-0.3,0
					C383.2,637.5,384.5,634.4,384.6,632.5z"/>
			</g>
		</g>
		<g id="XMLID_260_">
			<g id="XMLID_261_">
				<path class="st2" d="M378.8,634.4c-1.2-1.3-2-3.1-2.4-4.8c0,0-0.1-0.4-0.1-0.6c-0.1,0-0.2-0.1-0.3-0.1c-0.1,0,0,0.7,0,0.7
					c0.4,1.7,1.2,3.5,2.4,4.8c1.3,1.4,4.6,2.9,4.6,2.9c0.1-0.1,0.1-0.1,0.2-0.2C382.5,636.9,379.9,635.6,378.8,634.4z"/>
			</g>
		</g>
		<g id="XMLID_258_">
			<path id="XMLID_259_" class="st2" d="M379.7,627.4c1.2,3.2,2.4,6.4,3.8,9.6c0.1,0.2-0.3,0.4-0.4,0.2c-1.4-3.2-2.6-6.5-3.8-9.7
				C379.2,627.3,379.6,627.2,379.7,627.4L379.7,627.4z"/>
		</g>
		<g id="XMLID_257_">
			<path class="st2" d="M381.1,637.4c0,0,0.2-0.1,0.3-0.1c0.2,0,0.6,0.2,0.8,0.4c-0.1-0.4,0-1,0.2-1.4c0,0,0,0,0-0.1c0,0,0,0,0.1,0
				c0.2,0,0.5,0.1,0.6,0.3c0.2,0.1,0.2,0.3,0.3,0.5c0-0.3,0-0.5,0-0.8c0-0.1,0.1-0.2,0.1-0.3c0.1-0.1,0.1-0.2,0.2-0.3
				c0,0,0.1,0,0.1,0c0.1,0,0.2,0.1,0.2,0.1c0.1,0.1,0.3,0.3,0.4,0.4c0.1,0.1,0.2,0.3,0.3,0c0.1-0.3,0.3-0.7,0.5-0.9
				c0,0,0.2,0.3,0.1,0.4c-0.2,0.8,0.7,1.7,0.6,2.5c-0.1,0.9-0.8,2.5-0.8,2.5c-0.2,0-0.4,0-0.6-0.1c-0.1,0-0.2,0-0.3-0.1
				c-0.1,0-0.2-0.1-0.3-0.2c-0.4-0.3-0.7-0.4-1.1-0.8c-0.4-0.4-0.6-1-0.8-1.5C381.8,638,381.2,637.5,381.1,637.4z"/>
		</g>
		<path id="XMLID_256_" class="st2" d="M390.4,655.6c-2.1-5.4-3.3-11.1-6.5-16c-0.3-0.4,0.4-0.8,0.7-0.4c3.3,5.1,4.5,11,6.7,16.6
			c0.6,1.5,1.3,2.9,2,4.4l-0.6,0.6C391.9,659.1,391.1,657.4,390.4,655.6z"/>
	</g>
	<g id="XMLID_243_">
		<g id="XMLID_254_">
			
				<linearGradient id="SVGID_3_" gradientUnits="userSpaceOnUse" x1="612.2651" y1="700.2708" x2="623.1849" y2="700.2708" gradientTransform="matrix(-0.9389 -0.3443 -0.3443 0.9389 1334.5065 206.6255)">
				<stop  offset="0" style="stop-color:#2329F0"/>
				<stop  offset="0.3198" style="stop-color:#2433F1"/>
				<stop  offset="0.8713" style="stop-color:#264FF3"/>
				<stop  offset="1" style="stop-color:#2657F4"/>
			</linearGradient>
			<path class="st5" d="M512,644.5c0.1,0.1,0.2,0.2,0.2,0.3c0.1,0.5,0.1,1.4-0.2,2c0.9-0.6,2.1-0.8,3.1-0.8c0.1,0,0.1,0,0.1,0
				c0,0,0,0.1,0.1,0.1c0.1,0.5,0.1,1.1,0,1.6c-0.1,0.5-0.5,0.8-0.9,1.1c0.5-0.3,1.1-0.5,1.7-0.6c0.3,0,0.4,0,0.7,0.1
				c0.3,0,0.6-0.1,0.8,0c0.1,0,0.1,0.1,0.2,0.2c0,0.2,0,0.4-0.1,0.6c-0.2,0.4-0.3,0.8-0.5,1.3c-0.2,0.4-0.4,0.7,0.1,0.6
				c0.7,0,1.4,0,2.1,0.2c0.1,0-0.4,0.7-0.4,0.7c-1.3,1.5-3,2.9-4.9,3.5c-2,0.7-6.2,0.5-6.2,0.5c-0.1-0.5-0.3-0.9-0.4-1.4
				c-0.1-0.2-0.1-0.5-0.1-0.7c0-0.3,0.1-0.6,0.1-0.9c0.3-1.2,0.5-2.4,1-3.6c0.5-1.3,1.2-2.3,2-3.3
				C510.6,645.7,511.7,644.3,512,644.5z"/>
		</g>
		<g id="XMLID_251_">
			<g id="XMLID_253_">
				<path class="st2" d="M512.2,654.4c1.6-0.6,3.1-1.8,4.3-3.1c0,0,0.2-0.3,0.3-0.5c0.1,0,0.2,0,0.3,0.1c0.1,0-0.3,0.6-0.4,0.6
					c-1.1,1.3-2.6,2.5-4.3,3.1c-1.8,0.6-5.4,0.4-5.4,0.4c0-0.1,0-0.1-0.1-0.2C507.9,654.8,510.7,654.9,512.2,654.4z"/>
			</g>
		</g>
		<g id="XMLID_248_">
			<g id="XMLID_250_">
				<path class="st2" d="M508.9,650.5c0.6-1.3,1.8-2.5,3-3.3c0,0,0.3-0.2,0.4-0.2c0-0.1,0-0.2,0-0.3c0-0.1-0.5,0.2-0.6,0.3
					c-1.2,0.8-2.4,2-3,3.3c-0.7,1.4-0.8,4.5-0.8,4.5c0.1,0,0.1,0,0.2,0.1C508.1,654.1,508.3,651.7,508.9,650.5z"/>
			</g>
		</g>
		<g id="XMLID_246_">
			<path id="XMLID_247_" class="st2" d="M514.6,649c-2.1,1.9-4.2,3.9-6.3,5.9c-0.2,0.2-0.4-0.1-0.3-0.2c2.1-2,4.2-4,6.3-6
				C514.5,648.6,514.7,648.9,514.6,649L514.6,649z"/>
		</g>
		<g id="XMLID_245_">
			<path class="st2" d="M507.3,653.2c0,0,0.2,0.1,0.2,0.2c0,0.2,0,0.5-0.1,0.7c0.3-0.2,0.7-0.3,1.1-0.3c0,0,0,0,0.1,0c0,0,0,0,0,0
				c0,0.2,0.1,0.4,0,0.6c0,0.2-0.2,0.3-0.3,0.4c0.2-0.1,0.4-0.2,0.6-0.2c0.1,0,0.2,0,0.2,0c0.1,0,0.2,0,0.3,0c0,0,0.1,0,0.1,0.1
				c0,0.1,0,0.1,0,0.2c-0.1,0.1-0.1,0.3-0.2,0.4c-0.1,0.2-0.1,0.2,0.1,0.2c0.3,0,0.6,0,0.9,0.1c0,0-0.2,0.2-0.3,0.2
				c-0.7,0.1-1.1,1-1.8,1.3c-0.7,0.2-2.2,0.2-2.2,0.2c0-0.2-0.1-0.3-0.1-0.5c0-0.1,0-0.2-0.1-0.3c0-0.1,0-0.2,0-0.3
				c0.1-0.4,0.1-0.6,0.3-1.1c0.2-0.5,0.6-0.8,0.9-1.1C507.1,654,507.3,653.3,507.3,653.2z"/>
		</g>
		<path id="XMLID_244_" class="st2" d="M496.2,666.1c3.5-3.3,7.6-6,10.3-10c0.3-0.4,0.8,0.1,0.5,0.4c-2.9,4.1-7.1,6.9-10.7,10.4
			c-1,0.9-1.9,1.9-2.8,2.9l-0.7-0.2C493.9,668.4,495,667.2,496.2,666.1z"/>
	</g>
	<g id="XMLID_501_">
		<g id="XMLID_510_">
			
				<linearGradient id="SVGID_4_" gradientUnits="userSpaceOnUse" x1="744.0226" y1="639.0322" x2="740.6058" y2="616.3737" gradientTransform="matrix(-1 0 0 1 1212 0)">
				<stop  offset="0" style="stop-color:#2329F0"/>
				<stop  offset="0.3198" style="stop-color:#2433F1"/>
				<stop  offset="0.8713" style="stop-color:#264FF3"/>
				<stop  offset="1" style="stop-color:#2657F4"/>
			</linearGradient>
			<path class="st6" d="M462.7,618.1c0.2,0,0.4,0.1,0.6,0.3c0.6,0.7,1.5,1.9,1.6,3c0.7-1.7,2.3-3,3.6-4c0.1-0.1,0.1-0.1,0.2-0.1
				c0.1,0,0.1,0.1,0.2,0.1c0.7,0.6,1.2,1.4,1.5,2.3c0.3,0.8,0,1.7-0.3,2.4c0.4-0.9,1-1.8,1.8-2.4c0.3-0.3,0.6-0.4,1-0.5
				c0.4-0.2,0.8-0.6,1.2-0.7c0.2,0,0.3,0,0.4,0.2c0.2,0.2,0.3,0.6,0.4,0.9c0.1,0.8,0.3,1.5,0.4,2.3c0.1,0.8,0,1.3,0.8,0.7
				c1-0.7,1.9-1.3,3.1-1.7c0.1,0,0.1,1.3,0.1,1.4c-0.5,3.3-1.6,6.9-3.7,9.6c-2.2,2.8-8.3,6.4-8.3,6.4c-0.6-0.5-1.2-1.1-1.8-1.6
				c-0.3-0.3-0.6-0.6-0.9-0.9c-0.3-0.4-0.5-0.9-0.7-1.4c-0.7-2-1.5-4-1.9-6c-0.5-2.2-0.4-4.3-0.2-6.6
				C461.9,621,462.2,618.2,462.7,618.1z"/>
		</g>
		<g id="XMLID_508_">
			<g id="XMLID_509_">
				<path class="st7" d="M472.2,632c1.8-2.3,2.8-5.5,3.2-8.3c0-0.1,0-0.6,0-1c0.2-0.1,0.3-0.1,0.5-0.2c0.1,0,0.1,1.1,0.1,1.2
					c-0.4,2.9-1.4,6-3.2,8.3c-2,2.5-7.2,5.5-7.2,5.5c-0.1-0.1-0.2-0.2-0.3-0.3C466.4,636.6,470.5,634.1,472.2,632z"/>
			</g>
		</g>
		<g id="XMLID_506_">
			<g id="XMLID_507_">
				<path class="st7" d="M463.9,629.5c-0.4-2.4,0.3-5.2,1.1-7.5c0-0.1,0.2-0.5,0.4-0.7c-0.1-0.1-0.2-0.2-0.3-0.4
					c-0.1-0.1-0.5,0.8-0.6,0.9c-0.9,2.3-1.5,5-1.1,7.5c0.4,2.6,3,7.1,3,7.1c0.1,0,0.2,0,0.3-0.1
					C466.2,635.3,464.3,631.8,463.9,629.5z"/>
			</g>
		</g>
		<g id="XMLID_504_">
			<path id="XMLID_505_" class="st7" d="M470.6,622.2c-1.3,4.7-2.4,9.4-3.4,14.2c-0.1,0.4-0.7,0.3-0.6-0.1c1-4.8,2.2-9.6,3.5-14.3
				C470.2,621.6,470.7,621.8,470.6,622.2L470.6,622.2z"/>
		</g>
		<g id="XMLID_503_">
			<path class="st2" d="M464.1,634.8c0-0.1,0.4,0,0.4,0.1c0.2,0.2,0.5,0.7,0.6,1.1c0.2-0.6,0.8-1.1,1.3-1.5c0,0,0.1,0,0.1,0
				c0,0,0,0,0.1,0c0.2,0.2,0.4,0.5,0.5,0.8c0.1,0.3,0,0.6-0.1,0.9c0.2-0.3,0.4-0.6,0.7-0.9c0.1-0.1,0.2-0.1,0.4-0.2
				c0.1-0.1,0.3-0.2,0.4-0.3c0.1,0,0.1,0,0.2,0.1c0.1,0.1,0.1,0.2,0.1,0.3c0,0.3,0.1,0.5,0.1,0.8c0,0.3,0,0.5,0.3,0.3
				c0.3-0.3,0.9-0.5,1.3-0.6c0,0,0,0.4-0.2,0.6c-0.9,0.8-0.6,2.5-1.3,3.4c-0.8,1-3,2.3-3,2.3c-0.2-0.2-0.4-0.4-0.7-0.6
				c-0.1-0.1-0.2-0.2-0.3-0.3c-0.1-0.2-0.2-0.3-0.2-0.5c-0.3-0.7-0.4-1-0.6-1.8c-0.2-0.8,0.2-1.6,0.3-2.5
				C464.5,636.1,464.2,635,464.1,634.8z"/>
		</g>
		<path id="XMLID_502_" class="st2" d="M460.2,663.5c2-7.9,5.2-15.5,5.4-23.8c0-0.7,1.2-0.6,1.1,0.1c-0.3,8.5-3.7,16.4-5.7,24.6
			c-0.5,2.2-0.9,4.4-1.3,6.6l-1.2,0.3C459.1,668.7,459.6,666.1,460.2,663.5z"/>
	</g>
	<g id="XMLID_289_">
		<g id="XMLID_500_">
			
				<linearGradient id="SVGID_5_" gradientUnits="userSpaceOnUse" x1="689.554" y1="677.7951" x2="808.413" y2="677.7951" gradientTransform="matrix(-1 0 0 1 1212 0)">
				<stop  offset="0" style="stop-color:#673AB7"/>
				<stop  offset="0.1719" style="stop-color:#6F44BA"/>
				<stop  offset="0.4695" style="stop-color:#8561C3"/>
				<stop  offset="0.8546" style="stop-color:#A98ED1"/>
				<stop  offset="1" style="stop-color:#B8A1D7"/>
			</linearGradient>
			<path class="st8" d="M483.7,708.6c1.9-1,3.8-2,5.7-3.1c9.8-5.7,41.3-25.9,31.1-39.8c-2.7-3.7-7.7-4.9-12.3-5
				c-4.3-0.1-8.6,0.5-12.6,1.9c-0.8,0.3-1.7,0.6-2.6,0.3c-1.4-0.5-1.8-2.2-2-3.6c-0.4-3.9-0.4-7.9-2.2-11.4
				c-3.9-7.4-14.7-8.5-22.3-4.8c-4.2,2.1-8.7,5.4-13,3.5c-2.2-1-3.7-3.2-5.4-4.9c-4.4-4.1-10.8-4.8-16.8-5.3
				c-4.6-0.4-9.5-0.7-13.6,1.3c-2.5,1.2-4.5,3.3-6.3,5.4c-12.6,15.8-8.3,39.3,1.9,55.3c7.6,11.9,17.9,22.1,32.6,20.9
				C459,718.2,471.9,714.5,483.7,708.6z"/>
		</g>
		<g id="XMLID_477_" class="st9">
			<g id="XMLID_498_">
				<path id="XMLID_499_" class="st2" d="M509.9,670.4c-22.3,13-41.7,30.1-62.8,44.9c-0.1,0.1-0.6-0.1-0.5-0.2
					c21-14.8,40.4-32,62.8-44.9C509.5,670.1,510,670.3,509.9,670.4L509.9,670.4z"/>
			</g>
			<g id="XMLID_496_">
				<path id="XMLID_497_" class="st2" d="M502.7,668.8c-1.6,3.4-3.4,6.6-5.7,9.7c-0.2,0.2-0.7,0-0.5-0.2c2.2-3,4.1-6.2,5.6-9.6
					C502.3,668.4,502.9,668.5,502.7,668.8L502.7,668.8z"/>
			</g>
			<g id="XMLID_242_">
				<path id="XMLID_495_" class="st2" d="M493.8,671.2c-1.4,5-3.6,9.6-6.4,13.9c-0.1,0.1-0.6,0-0.5-0.2c2.8-4.3,5-8.9,6.4-13.9
					C493.3,670.8,493.9,671,493.8,671.2L493.8,671.2z"/>
			</g>
			<g id="XMLID_492_">
				<path id="XMLID_493_" class="st2" d="M484.7,677c-1.8,5.3-4,10.3-6.6,15.2c-0.1,0.1-0.6-0.1-0.5-0.1c2.7-4.9,4.9-9.9,6.6-15.2
					C484.2,676.7,484.8,676.9,484.7,677L484.7,677z"/>
			</g>
			<g id="XMLID_238_">
				<path id="XMLID_240_" class="st2" d="M475.2,681.8c-1.9,6.9-4.8,13.2-8.7,19.1c-0.1,0.2-0.6,0-0.5-0.2c3.9-5.9,6.8-12.2,8.7-19
					C474.7,681.5,475.2,681.6,475.2,681.8L475.2,681.8z"/>
			</g>
			<g id="XMLID_488_">
				<path id="XMLID_489_" class="st2" d="M467.6,686.8c-4.3,8-8.9,15.8-13.7,23.5c-0.1,0.2-0.6,0-0.5-0.2
					c4.8-7.7,9.3-15.5,13.6-23.4C467.2,686.5,467.7,686.6,467.6,686.8L467.6,686.8z"/>
			</g>
			<g id="XMLID_486_">
				<path id="XMLID_237_" class="st2" d="M507.3,677.6c-4,0.3-7.9,0.9-11.8,2c-0.1,0-0.6-0.2-0.4-0.2c3.9-1.1,7.8-1.7,11.8-2
					C507.1,677.4,507.5,677.6,507.3,677.6L507.3,677.6z"/>
			</g>
			<g id="XMLID_484_">
				<path id="XMLID_485_" class="st2" d="M494.5,685.7c-4.2,0.7-8.2,1.8-12.2,3.3c-0.2,0.1-0.7-0.2-0.4-0.3c4-1.5,8.1-2.6,12.3-3.4
					C494.3,685.4,494.8,685.7,494.5,685.7L494.5,685.7z"/>
			</g>
			<g id="XMLID_482_">
				<path id="XMLID_236_" class="st2" d="M481.6,695.1c-3.8-0.5-7.1,1.7-10.7,2.5c-0.1,0-0.6-0.2-0.3-0.3c3.7-0.8,7-2.9,11-2.4
					C481.8,694.9,482,695.2,481.6,695.1L481.6,695.1z"/>
			</g>
			<g id="XMLID_480_">
				<path id="XMLID_481_" class="st2" d="M475.4,701.4c-4.7,0-8.6,2.3-13.2,2.8c-0.1,0-0.6-0.2-0.3-0.2c2.6-0.3,4.8-1.3,7.3-2
					c2-0.6,3.8-0.7,5.9-0.7C475.2,701.2,475.7,701.4,475.4,701.4L475.4,701.4z"/>
			</g>
			<g id="XMLID_478_">
				<path id="XMLID_479_" class="st2" d="M466.4,707.9c-4.1,0.6-8.7,0.9-12.5,2.5c-0.1,0.1-0.6-0.2-0.4-0.2
					c3.9-1.7,8.5-1.9,12.6-2.6C466.2,707.6,466.7,707.9,466.4,707.9L466.4,707.9z"/>
			</g>
		</g>
		<g id="XMLID_321_" class="st9">
			<g id="XMLID_475_">
				<path id="XMLID_476_" class="st2" d="M477.7,647.6c-16.6,19.8-29.1,42.4-43.8,63.5c-0.1,0.1-0.6,0.1-0.5,0
					c14.8-21.1,27.2-43.8,43.8-63.5C477.3,647.4,477.8,647.5,477.7,647.6L477.7,647.6z"/>
			</g>
			<g id="XMLID_473_">
				<path id="XMLID_474_" class="st2" d="M470.4,648.4c-0.3,3.7-1,7.4-2,11c-0.1,0.2-0.6,0.2-0.5-0.1c1-3.6,1.7-7.2,2-10.9
					C469.9,648.2,470.4,648.2,470.4,648.4L470.4,648.4z"/>
			</g>
			<g id="XMLID_471_">
				<path id="XMLID_472_" class="st2" d="M462.8,653.7c0.3,5.2-0.1,10.3-1.3,15.3c0,0.2-0.6,0.2-0.5,0c1.2-5,1.6-10.1,1.3-15.2
					C462.3,653.6,462.8,653.6,462.8,653.7L462.8,653.7z"/>
			</g>
			<g id="XMLID_235_">
				<path id="XMLID_470_" class="st2" d="M456.2,662.3c0.1,5.6-0.2,11.1-1.1,16.6c0,0.1-0.6,0.1-0.6,0c0.8-5.5,1.2-11,1.1-16.6
					C455.7,662.2,456.2,662.2,456.2,662.3L456.2,662.3z"/>
			</g>
			<g id="XMLID_467_">
				<path id="XMLID_234_" class="st2" d="M448.9,670.1c0.5,7.1,0,14.1-1.7,21c-0.1,0.2-0.6,0.2-0.5-0.1c1.7-6.9,2.3-13.8,1.7-20.9
					C448.3,669.9,448.9,669.9,448.9,670.1L448.9,670.1z"/>
			</g>
			<g id="XMLID_402_">
				<path id="XMLID_466_" class="st2" d="M443.5,677.3c-1.4,9-3,17.9-4.9,26.7c0,0.2-0.6,0.2-0.5,0c1.9-8.8,3.5-17.7,4.9-26.7
					C443,677.2,443.5,677.1,443.5,677.3L443.5,677.3z"/>
			</g>
			<g id="XMLID_233_">
				<path id="XMLID_400_" class="st2" d="M477.7,655.3c-3.7,1.6-7.1,3.6-10.4,5.9c-0.1,0.1-0.6,0-0.5-0.1c3.3-2.3,6.8-4.3,10.5-5.9
					C477.4,655.1,477.9,655.1,477.7,655.3L477.7,655.3z"/>
			</g>
			<g id="XMLID_332_">
				<path id="XMLID_339_" class="st2" d="M468.4,667.2c-3.7,2.1-7.1,4.5-10.3,7.2c-0.1,0.1-0.7,0.1-0.5-0.1
					c3.2-2.8,6.7-5.2,10.4-7.3C468.1,667,468.6,667.1,468.4,667.2L468.4,667.2z"/>
			</g>
			<g id="XMLID_231_">
				<path id="XMLID_232_" class="st2" d="M459.5,680.4c-3.7,0.9-6.1,4-9.2,5.9c-0.1,0.1-0.7,0-0.4-0.1c3.2-2,5.6-5.1,9.5-6
					C459.6,680.2,459.9,680.3,459.5,680.4L459.5,680.4z"/>
			</g>
			<g id="XMLID_328_">
				<path id="XMLID_329_" class="st2" d="M455.8,688.4c-4.4,1.6-7.3,5.1-11.5,7.1c-0.1,0.1-0.6,0-0.4-0.1c2.3-1.1,4.1-2.9,6.2-4.4
					c1.7-1.2,3.4-2,5.3-2.7C455.5,688.3,456,688.3,455.8,688.4L455.8,688.4z"/>
			</g>
			<g id="XMLID_323_">
				<path id="XMLID_325_" class="st2" d="M449.5,697.6c-3.7,2-7.9,3.8-10.9,6.6c-0.1,0.1-0.6,0.1-0.5-0.1c3.1-2.9,7.3-4.7,11-6.7
					C449.2,697.4,449.8,697.4,449.5,697.6L449.5,697.6z"/>
			</g>
		</g>
		<g id="XMLID_291_" class="st9">
			<g id="XMLID_317_">
				<path id="XMLID_319_" class="st2" d="M430.5,634.9c-4.6,25.4-4.1,51.3-6.5,76.9c0,0.2-0.5,0.4-0.5,0.3
					c2.4-25.6,1.9-51.5,6.5-76.9C430,635,430.5,634.8,430.5,634.9L430.5,634.9z"/>
			</g>
			<g id="XMLID_315_">
				<path id="XMLID_316_" class="st2" d="M424.6,639.3c1.6,3.4,2.8,6.9,3.7,10.6c0.1,0.3-0.4,0.5-0.5,0.2c-0.9-3.6-2.1-7.1-3.7-10.5
					C424,639.4,424.5,639.1,424.6,639.3L424.6,639.3z"/>
			</g>
			<g id="XMLID_312_">
				<path id="XMLID_314_" class="st2" d="M420.6,647.7c2.9,4.3,5,8.9,6.5,13.9c0,0.1-0.4,0.4-0.5,0.3c-1.4-5-3.6-9.6-6.4-13.9
					C420.1,647.8,420.5,647.5,420.6,647.7L420.6,647.7z"/>
			</g>
			<g id="XMLID_310_">
				<path id="XMLID_311_" class="st2" d="M419.2,658.4c2.9,4.8,5.3,9.7,7.3,14.9c0.1,0.1-0.4,0.4-0.5,0.3c-2-5.2-4.4-10.1-7.3-14.9
					C418.6,658.6,419.1,658.3,419.2,658.4L419.2,658.4z"/>
			</g>
			<g id="XMLID_308_">
				<path id="XMLID_309_" class="st2" d="M416.7,668.8c4,5.9,7,12.2,8.9,19.1c0.1,0.2-0.4,0.5-0.5,0.2c-1.9-6.8-4.9-13.1-8.9-19
					C416.1,668.9,416.5,668.6,416.7,668.8L416.7,668.8z"/>
			</g>
			<g id="XMLID_306_">
				<path id="XMLID_307_" class="st2" d="M415.6,677.7c3.3,8.5,6.3,17,9,25.6c0.1,0.2-0.4,0.5-0.5,0.2c-2.7-8.6-5.7-17.1-9-25.6
					C415,677.8,415.5,677.6,415.6,677.7L415.6,677.7z"/>
			</g>
			<g id="XMLID_304_">
				<path id="XMLID_305_" class="st2" d="M434.3,641.6c-2.4,3.2-4.4,6.6-6.1,10.2c-0.1,0.1-0.5,0.4-0.5,0.2
					c1.7-3.7,3.8-7.1,6.2-10.3C433.9,641.6,434.4,641.4,434.3,641.6L434.3,641.6z"/>
			</g>
			<g id="XMLID_302_">
				<path id="XMLID_303_" class="st2" d="M432.1,656.6c-2.2,3.6-3.9,7.4-5.4,11.4c-0.1,0.2-0.6,0.4-0.5,0.2c1.4-4,3.2-7.8,5.4-11.5
					C431.8,656.5,432.3,656.4,432.1,656.6L432.1,656.6z"/>
			</g>
			<g id="XMLID_300_">
				<path id="XMLID_301_" class="st2" d="M431,672.5c-2.8,2.6-3.3,6.5-5.1,9.7c-0.1,0.1-0.6,0.3-0.4,0.1c1.8-3.4,2.3-7.3,5.2-9.9
					C430.9,672.2,431.3,672.2,431,672.5L431,672.5z"/>
			</g>
			<g id="XMLID_297_">
				<path id="XMLID_298_" class="st2" d="M431.7,681.3c-3.1,3.6-3.8,8-6.4,11.8c-0.1,0.1-0.6,0.3-0.4,0.1c1.5-2.1,2.2-4.5,3.2-6.9
					c0.8-1.9,1.9-3.4,3.3-5C431.4,681.3,431.9,681.1,431.7,681.3L431.7,681.3z"/>
			</g>
			<g id="XMLID_293_">
				<path id="XMLID_296_" class="st2" d="M430.9,692.3c-2.2,3.6-4.9,7.2-6.2,11.2c0,0.1-0.5,0.4-0.5,0.2c1.3-4.1,4-7.7,6.2-11.3
					C430.5,692.3,431,692.1,430.9,692.3L430.9,692.3z"/>
			</g>
		</g>
	</g>
	<g id="XMLID_46_">
		<g id="XMLID_229_">
			
				<linearGradient id="SVGID_6_" gradientUnits="userSpaceOnUse" x1="84.3542" y1="677.4233" x2="203.2132" y2="677.4233" gradientTransform="matrix(1 0 0 1 235.5586 0)">
				<stop  offset="0" style="stop-color:#673AB7"/>
				<stop  offset="0.1719" style="stop-color:#6F44BA"/>
				<stop  offset="0.4695" style="stop-color:#8561C3"/>
				<stop  offset="0.8546" style="stop-color:#A98ED1"/>
				<stop  offset="1" style="stop-color:#B8A1D7"/>
			</linearGradient>
			<path class="st10" d="M358.7,708.2c-1.9-1-3.8-2-5.7-3.1c-9.8-5.7-41.3-25.9-31.1-39.8c2.7-3.7,7.7-4.9,12.3-5
				c4.3-0.1,8.6,0.5,12.6,1.9c0.8,0.3,1.7,0.6,2.6,0.3c1.4-0.5,1.8-2.2,2-3.6c0.4-3.9,0.4-7.9,2.2-11.4c3.9-7.4,14.7-8.5,22.3-4.8
				c4.2,2.1,8.7,5.4,13,3.5c2.2-1,3.7-3.2,5.4-4.9c4.4-4.1,10.8-4.8,16.8-5.3c4.6-0.4,9.5-0.7,13.6,1.3c2.5,1.2,4.5,3.3,6.3,5.4
				c12.6,15.8,8.3,39.3-1.9,55.3c-7.6,11.9-17.9,22.1-32.6,20.9C383.4,717.9,370.5,714.1,358.7,708.2z"/>
		</g>
		<g id="XMLID_204_" class="st9">
			<g id="XMLID_227_">
				<path id="XMLID_228_" class="st2" d="M332.5,670c22.3,13,41.7,30.1,62.8,44.9c0.1,0.1,0.6-0.1,0.5-0.2
					c-21-14.8-40.4-32-62.8-44.9C332.8,669.7,332.3,670,332.5,670L332.5,670z"/>
			</g>
			<g id="XMLID_225_">
				<path id="XMLID_226_" class="st2" d="M339.6,668.4c1.6,3.4,3.4,6.6,5.7,9.7c0.2,0.2,0.7,0,0.5-0.2c-2.2-3-4.1-6.2-5.6-9.6
					C340,668,339.5,668.1,339.6,668.4L339.6,668.4z"/>
			</g>
			<g id="XMLID_222_">
				<path id="XMLID_223_" class="st2" d="M348.6,670.8c1.4,5,3.6,9.6,6.4,13.9c0.1,0.1,0.6,0,0.5-0.2c-2.8-4.3-5-8.9-6.4-13.9
					C349,670.5,348.5,670.6,348.6,670.8L348.6,670.8z"/>
			</g>
			<g id="XMLID_220_">
				<path id="XMLID_221_" class="st2" d="M357.6,676.6c1.8,5.3,4,10.3,6.6,15.2c0.1,0.1,0.6-0.1,0.5-0.1c-2.7-4.9-4.9-9.9-6.6-15.2
					C358.1,676.3,357.6,676.5,357.6,676.6L357.6,676.6z"/>
			</g>
			<g id="XMLID_218_">
				<path id="XMLID_219_" class="st2" d="M367.2,681.5c1.9,6.9,4.8,13.2,8.7,19.1c0.1,0.2,0.6,0,0.5-0.2c-3.9-5.9-6.8-12.2-8.7-19
					C367.7,681.1,367.1,681.2,367.2,681.5L367.2,681.5z"/>
			</g>
			<g id="XMLID_216_">
				<path id="XMLID_217_" class="st2" d="M374.7,686.4c4.3,8,8.9,15.8,13.7,23.5c0.1,0.2,0.6,0,0.5-0.2c-4.8-7.7-9.3-15.5-13.6-23.4
					C375.2,686.1,374.6,686.3,374.7,686.4L374.7,686.4z"/>
			</g>
			<g id="XMLID_214_">
				<path id="XMLID_215_" class="st2" d="M335.1,677.2c4,0.3,7.9,0.9,11.8,2c0.1,0,0.6-0.2,0.4-0.2c-3.9-1.1-7.8-1.7-11.8-2
					C335.3,677,334.8,677.2,335.1,677.2L335.1,677.2z"/>
			</g>
			<g id="XMLID_212_">
				<path id="XMLID_213_" class="st2" d="M347.9,685.4c4.2,0.7,8.2,1.8,12.2,3.3c0.2,0.1,0.7-0.2,0.4-0.3c-4-1.5-8.1-2.6-12.3-3.4
					C348.1,685,347.6,685.3,347.9,685.4L347.9,685.4z"/>
			</g>
			<g id="XMLID_210_">
				<path id="XMLID_211_" class="st2" d="M360.7,694.8c3.8-0.5,7.1,1.7,10.7,2.5c0.1,0,0.6-0.2,0.3-0.3c-3.7-0.8-7-2.9-11-2.4
					C360.6,694.6,360.3,694.8,360.7,694.8L360.7,694.8z"/>
			</g>
			<g id="XMLID_207_">
				<path id="XMLID_208_" class="st2" d="M366.9,701c4.7,0,8.6,2.3,13.2,2.8c0.1,0,0.6-0.2,0.3-0.2c-2.6-0.3-4.8-1.3-7.3-2
					c-2-0.6-3.8-0.7-5.9-0.7C367.2,700.8,366.7,701,366.9,701L366.9,701z"/>
			</g>
			<g id="XMLID_205_">
				<path id="XMLID_206_" class="st2" d="M375.9,707.5c4.1,0.6,8.7,0.9,12.5,2.5c0.1,0.1,0.6-0.2,0.4-0.2c-3.9-1.7-8.5-1.9-12.6-2.6
					C376.1,707.3,375.6,707.5,375.9,707.5L375.9,707.5z"/>
			</g>
		</g>
		<g id="XMLID_170_" class="st9">
			<g id="XMLID_201_">
				<path id="XMLID_202_" class="st2" d="M364.7,647.2c16.6,19.8,29.1,42.4,43.8,63.5c0.1,0.1,0.6,0.1,0.5,0
					c-14.8-21.1-27.2-43.8-43.8-63.5C365.1,647,364.6,647.1,364.7,647.2L364.7,647.2z"/>
			</g>
			<g id="XMLID_198_">
				<path id="XMLID_200_" class="st2" d="M371.9,648.1c0.3,3.7,1,7.4,2,11c0.1,0.2,0.6,0.2,0.5-0.1c-1-3.6-1.7-7.2-2-10.9
					C372.5,647.9,371.9,647.8,371.9,648.1L371.9,648.1z"/>
			</g>
			<g id="XMLID_194_">
				<path id="XMLID_196_" class="st2" d="M379.5,653.4c-0.3,5.2,0.1,10.3,1.3,15.3c0,0.2,0.6,0.2,0.5,0c-1.2-5-1.6-10.1-1.3-15.2
					C380.1,653.2,379.6,653.2,379.5,653.4L379.5,653.4z"/>
			</g>
			<g id="XMLID_192_">
				<path id="XMLID_193_" class="st2" d="M386.1,661.9c-0.1,5.6,0.2,11.1,1.1,16.6c0,0.1,0.6,0.1,0.6,0c-0.8-5.5-1.2-11-1.1-16.6
					C386.7,661.8,386.1,661.8,386.1,661.9L386.1,661.9z"/>
			</g>
			<g id="XMLID_190_">
				<path id="XMLID_191_" class="st2" d="M393.5,669.7c-0.5,7.1,0,14.1,1.7,21c0.1,0.2,0.6,0.2,0.5-0.1c-1.7-6.9-2.3-13.8-1.7-20.9
					C394,669.5,393.5,669.5,393.5,669.7L393.5,669.7z"/>
			</g>
			<g id="XMLID_188_">
				<path id="XMLID_189_" class="st2" d="M398.9,677c1.4,9,3,17.9,4.9,26.7c0,0.2,0.6,0.2,0.5,0c-1.9-8.8-3.5-17.7-4.9-26.7
					C399.4,676.8,398.8,676.8,398.9,677L398.9,677z"/>
			</g>
			<g id="XMLID_186_">
				<path id="XMLID_187_" class="st2" d="M364.7,654.9c3.7,1.6,7.1,3.6,10.4,5.9c0.1,0.1,0.6,0,0.5-0.1c-3.3-2.3-6.8-4.3-10.5-5.9
					C365,654.7,364.4,654.8,364.7,654.9L364.7,654.9z"/>
			</g>
			<g id="XMLID_183_">
				<path id="XMLID_185_" class="st2" d="M374,666.9c3.7,2.1,7.1,4.5,10.3,7.2c0.1,0.1,0.7,0.1,0.5-0.1c-3.2-2.8-6.7-5.2-10.4-7.3
					C374.2,666.6,373.7,666.7,374,666.9L374,666.9z"/>
			</g>
			<g id="XMLID_181_">
				<path id="XMLID_182_" class="st2" d="M382.9,680.1c3.7,0.9,6.1,4,9.2,5.9c0.1,0.1,0.7,0,0.4-0.1c-3.2-2-5.6-5.1-9.5-6
					C382.8,679.8,382.5,680,382.9,680.1L382.9,680.1z"/>
			</g>
			<g id="XMLID_175_">
				<path id="XMLID_176_" class="st2" d="M386.6,688.1c4.4,1.6,7.3,5.1,11.5,7.1c0.1,0.1,0.6,0,0.4-0.1c-2.3-1.1-4.1-2.9-6.2-4.4
					c-1.7-1.2-3.4-2-5.3-2.7C386.9,687.9,386.3,688,386.6,688.1L386.6,688.1z"/>
			</g>
			<g id="XMLID_173_">
				<path id="XMLID_174_" class="st2" d="M392.8,697.2c3.7,2,7.9,3.8,10.9,6.6c0.1,0.1,0.6,0.1,0.5-0.1c-3.1-2.9-7.3-4.7-11-6.7
					C393.1,697,392.6,697.1,392.8,697.2L392.8,697.2z"/>
			</g>
		</g>
		<g id="XMLID_78_" class="st9">
			<g id="XMLID_166_">
				<path id="XMLID_168_" class="st2" d="M411.9,634.5c4.6,25.4,4.1,51.3,6.5,76.9c0,0.2,0.5,0.4,0.5,0.3
					c-2.4-25.6-1.9-51.5-6.5-76.9C412.3,634.6,411.9,634.4,411.9,634.5L411.9,634.5z"/>
			</g>
			<g id="XMLID_164_">
				<path id="XMLID_165_" class="st2" d="M417.8,638.9c-1.6,3.4-2.8,6.9-3.7,10.6c-0.1,0.3,0.4,0.5,0.5,0.2
					c0.9-3.6,2.1-7.1,3.7-10.5C418.3,639,417.9,638.7,417.8,638.9L417.8,638.9z"/>
			</g>
			<g id="XMLID_160_">
				<path id="XMLID_162_" class="st2" d="M421.7,647.3c-2.9,4.3-5,8.9-6.5,13.9c0,0.1,0.4,0.4,0.5,0.3c1.4-5,3.6-9.6,6.4-13.9
					C422.3,647.5,421.8,647.1,421.7,647.3L421.7,647.3z"/>
			</g>
			<g id="XMLID_150_">
				<path id="XMLID_151_" class="st2" d="M423.2,658c-2.9,4.8-5.3,9.7-7.3,14.9c-0.1,0.1,0.4,0.4,0.5,0.3c2-5.2,4.4-10.1,7.3-14.9
					C423.7,658.2,423.3,657.9,423.2,658L423.2,658z"/>
			</g>
			<g id="XMLID_147_">
				<path id="XMLID_149_" class="st2" d="M425.7,668.4c-4,5.9-7,12.2-8.9,19.1c-0.1,0.2,0.4,0.5,0.5,0.2c1.9-6.8,4.9-13.1,8.9-19
					C426.3,668.5,425.8,668.2,425.7,668.4L425.7,668.4z"/>
			</g>
			<g id="XMLID_144_">
				<path id="XMLID_146_" class="st2" d="M426.8,677.4c-3.3,8.5-6.3,17-9,25.6c-0.1,0.2,0.4,0.5,0.5,0.2c2.7-8.6,5.7-17.1,9-25.6
					C427.3,677.5,426.9,677.2,426.8,677.4L426.8,677.4z"/>
			</g>
			<g id="XMLID_140_">
				<path id="XMLID_142_" class="st2" d="M408.1,641.2c2.4,3.2,4.4,6.6,6.1,10.2c0.1,0.1,0.5,0.4,0.5,0.2c-1.7-3.7-3.8-7.1-6.2-10.3
					C408.4,641.2,407.9,641,408.1,641.2L408.1,641.2z"/>
			</g>
			<g id="XMLID_138_">
				<path id="XMLID_139_" class="st2" d="M410.2,656.3c2.2,3.6,3.9,7.4,5.4,11.4c0.1,0.2,0.6,0.4,0.5,0.2c-1.4-4-3.2-7.8-5.4-11.5
					C410.6,656.2,410.1,656,410.2,656.3L410.2,656.3z"/>
			</g>
			<g id="XMLID_131_">
				<path id="XMLID_133_" class="st2" d="M411.4,672.1c2.8,2.6,3.3,6.5,5.1,9.7c0.1,0.1,0.6,0.3,0.4,0.1c-1.8-3.4-2.3-7.3-5.2-9.9
					C411.4,671.8,411.1,671.8,411.4,672.1L411.4,672.1z"/>
			</g>
			<g id="XMLID_94_">
				<path id="XMLID_95_" class="st2" d="M410.6,680.9c3.1,3.6,3.8,8,6.4,11.8c0.1,0.1,0.6,0.3,0.4,0.1c-1.5-2.1-2.2-4.5-3.2-6.9
					c-0.8-1.9-1.9-3.4-3.3-5C410.9,680.9,410.5,680.7,410.6,680.9L410.6,680.9z"/>
			</g>
			<g id="XMLID_92_">
				<path id="XMLID_93_" class="st2" d="M411.5,692c2.2,3.6,4.9,7.2,6.2,11.2c0,0.1,0.5,0.4,0.5,0.2c-1.3-4.1-4-7.7-6.2-11.3
					C411.8,691.9,411.4,691.7,411.5,692L411.5,692z"/>
			</g>
		</g>
	</g>
	<path id="XMLID_249_" class="st2" d="M403.9,719.7c0.7-3,2-4.8,2-4.8c2.7,0.9,4.9,2.1,6.7,3.6c0.2-0.1,0.3-0.1,0.5-0.2
		c-1.9-11.3,6.3-16.3,6.3-16.3c3.1,2.7,5,5.7,6,8.8c3.5-9.5,12.1-11.7,12.1-11.7c1.6,2.5,2.6,5,3.2,7.5c0.6-0.2,1.2-0.5,1.7-0.7
		c-6.1-9.6-0.5-17.4-0.5-17.4c5.3,1.7,8.7,4.8,10.9,8.3c3.2-8.9,11.2-10.2,11.2-10.2c1.9,3.6,2.5,7.1,2.3,10.2c1-0.3,2-0.7,3.1-1
		c1.9-5.1,5.9-7.4,5.9-7.4c1.7,1.5,2.9,3.1,3.9,4.7c0.5-0.1,1-0.2,1.5-0.3c2.5-10.7,11.6-12.3,11.6-12.3c2,3.7,2.6,7.2,2.5,10.5
		c0.6,0,1.2,0,1.8,0c0-7,4.6-11,4.6-11c5.7,3.4,8.3,8.2,9.3,12.9c0.3,0.1,0.5,0.2,0.8,0.2c0.7-1.9,1.5-3,1.5-3
		c4.2,1.4,7.2,3.6,9.4,6.2c2.9-5.8,8.2-7.5,8.2-7.5c4,5.6,4.5,11.1,3.4,16c0.1,0.1,0.2,0.1,0.3,0.2c5.1-3.4,10.3-2.4,10.3-2.4
		c0.4,2.9,0.2,5.4-0.4,7.7c0.8,0.4,1.6,0.7,2.5,1c3-4.9,7.5-6.4,7.5-6.4c1.4,1.9,2.4,3.9,3,5.8c3.8-1.9,7.2-1.6,7.2-1.6
		c0.4,1.7,0.6,3.3,0.6,4.9c3-0.1,6-0.3,9-0.5c3-4.7,7.4-6.1,7.4-6.1c1.3,1.8,2.2,3.6,2.8,5.3c3.9-4.6,8.7-5.7,8.7-5.7
		c1.4,2.3,2.4,4.6,3,6.9c0.7,0.1,1.3,0.3,1.9,0.5c5.3-3.6,10.6-2.6,10.6-2.6c0.3,2.7,0.2,5.1-0.3,7.3c0.4,0.3,0.9,0.6,1.3,1H403.9z"
		/>
	<path id="XMLID_252_" class="st2" d="M272.2,719.7c0.7-3,2-4.8,2-4.8c2.7,0.9,4.9,2.1,6.7,3.6c0.2-0.1,0.3-0.1,0.5-0.2
		c-1.9-11.3,6.3-16.3,6.3-16.3c3.1,2.7,5,5.7,6,8.8c3.5-9.5,12.1-11.7,12.1-11.7c1.6,2.5,2.6,5,3.2,7.5c0.6-0.2,1.2-0.5,1.7-0.7
		c-6.1-9.6-0.5-17.4-0.5-17.4c5.3,1.7,8.7,4.8,10.9,8.3c3.2-8.9,11.2-10.2,11.2-10.2c1.9,3.6,2.5,7.1,2.3,10.2c1-0.3,2-0.7,3.1-1
		c1.9-5.1,5.9-7.4,5.9-7.4c1.7,1.5,2.9,3.1,3.9,4.7c0.5-0.1,1-0.2,1.5-0.3c2.5-10.7,11.6-12.3,11.6-12.3c2,3.7,2.6,7.2,2.5,10.5
		c0.6,0,1.2,0,1.8,0c0-7,4.6-11,4.6-11c5.7,3.4,8.3,8.2,9.3,12.9c0.3,0.1,0.5,0.2,0.8,0.2c0.7-1.9,1.5-3,1.5-3
		c4.2,1.4,7.2,3.6,9.4,6.2c2.9-5.8,8.2-7.5,8.2-7.5c4,5.6,4.5,11.1,3.4,16c0.1,0.1,0.2,0.1,0.3,0.2c5.1-3.4,10.3-2.4,10.3-2.4
		c0.4,2.9,0.2,5.4-0.4,7.7c0.8,0.4,1.6,0.7,2.5,1c3-4.9,7.5-6.4,7.5-6.4c1.4,1.9,2.4,3.9,3,5.8c3.8-1.9,7.2-1.6,7.2-1.6
		c0.4,1.7,0.6,3.3,0.6,4.9c3-0.1,6-0.3,9-0.5c3-4.7,7.4-6.1,7.4-6.1c1.3,1.8,2.2,3.6,2.8,5.3c3.9-4.6,8.7-5.7,8.7-5.7
		c1.4,2.3,2.4,4.6,3,6.9c0.7,0.1,1.3,0.3,1.9,0.5c5.3-3.6,10.6-2.6,10.6-2.6c0.3,2.7,0.2,5.1-0.3,7.3c0.4,0.3,0.9,0.6,1.3,1H272.2z"
		/>
</g>
<g>
	
		<linearGradient id="SVGID_7_" gradientUnits="userSpaceOnUse" x1="206.9561" y1="306.6697" x2="197.3748" y2="204.4688" gradientTransform="matrix(0.2858 -0.9583 0.9583 0.2858 -237.9124 794.4628)">
		<stop  offset="0" style="stop-color:#2329F0"/>
		<stop  offset="0.15" style="stop-color:#332DE7"/>
		<stop  offset="0.4427" style="stop-color:#5C39CF"/>
		<stop  offset="0.8455" style="stop-color:#9F4BAA"/>
		<stop  offset="1" style="stop-color:#BA539A"/>
	</linearGradient>
	<path class="st11" d="M88.2,665.2c-3.5,7.6,2.7,13.2,5.2,15.1c-4.8-0.1-9.5-0.4-14.2-1.1c2.7-13.6-6.4-14.7-6.4-14.7
		c-3.2,6.8,1.5,12,4.3,14.4c-4.8-0.7-9.6-1.7-14.3-2.9c2.9-13.9-6.4-15-6.4-15c-3.2,6.9,1.7,12.2,4.5,14.5
		c-4.7-1.3-9.3-2.9-13.8-4.8c2.8-13.7-6.4-14.9-6.4-14.9c-2.8,6.1,0.7,11,3.4,13.6c-4.2-1.8-8.3-3.9-12.3-6.2
		c2.9-13.8-6.4-14.9-6.4-14.9c-2.5,5.4-0.1,9.7,2.4,12.5c-2.5-1.6-5-3.2-7.4-5c-5.4-12.2-13.4-8.1-13.4-8.1c1.4,8.5,10.1,9.5,13,9.6
		c2.7,1.9,5.5,3.8,8.3,5.5c-10.7-3.8-13.5,3.7-13.5,3.7c7.2,5.7,14.8-0.5,16.5-2c4.2,2.4,8.5,4.5,12.9,6.4
		c-11.8-2.6-13.5,5.6-13.5,5.6c8.1,4.6,14.7-3,16-4.6c4.3,1.8,8.7,3.3,13.2,4.6c-12,0.4-11.6,8.8-11.6,8.8c8.5,2.3,13-5.7,14.2-8.1
		c4.5,1.2,9,2.1,13.5,2.8c-11.2,3.9-8.4,11.8-8.4,11.8c8.3-0.3,10.6-8.2,11.1-11.4c4.6,0.6,9.2,1,13.8,1.1
		c-10.5,6.7-5.7,13.8-5.7,13.8c8-2.3,8.2-10.6,8-13.8c6.4,0.1,12.7-0.3,19.1-1.2c0.9-0.1,0.8-1.5-0.1-1.4
		c-6.4,0.9-12.7,1.3-19.1,1.2C97.6,666.3,88.2,665.2,88.2,665.2z"/>
	
		<linearGradient id="SVGID_8_" gradientUnits="userSpaceOnUse" x1="725.7271" y1="615.0549" x2="716.1451" y2="512.8467" gradientTransform="matrix(-0.9751 0.2215 0.2215 0.9751 709.4719 -86.609)">
		<stop  offset="0" style="stop-color:#2329F0"/>
		<stop  offset="0.15" style="stop-color:#332DE7"/>
		<stop  offset="0.4427" style="stop-color:#5C39CF"/>
		<stop  offset="0.8455" style="stop-color:#9F4BAA"/>
		<stop  offset="1" style="stop-color:#BA539A"/>
	</linearGradient>
	<path class="st12" d="M121.3,645.8c7.8-3,13,3.5,14.7,6.2c0.2-4.7,0.2-9.5-0.1-14.2c-13.7,1.8-14.2-7.4-14.2-7.4
		c7-2.7,11.9,2.3,14.1,5.3c-0.4-4.8-1-9.7-2-14.4c-14,2-14.6-7.4-14.6-7.4c7.1-2.7,12.1,2.5,14.2,5.4c-1-4.8-2.3-9.5-3.8-14.1
		c-13.9,1.9-14.4-7.4-14.4-7.4c6.3-2.4,10.9,1.4,13.3,4.3c-1.6-4.3-3.3-8.6-5.4-12.7c-13.9,1.9-14.5-7.4-14.5-7.4
		c5.5-2.1,9.7,0.5,12.3,3.2c-1.4-2.6-2.9-5.2-4.5-7.8c-11.8-6.2-7.2-13.9-7.2-13.9c8.4,1.9,8.8,10.7,8.7,13.6
		c1.7,2.8,3.4,5.7,4.9,8.6c-3.1-10.9,4.6-13.3,4.6-13.3c5.2,7.6-1.5,14.8-3.1,16.3c2.1,4.3,4,8.8,5.6,13.3
		c-1.9-11.9,6.5-13.1,6.5-13.1c4.1,8.4-3.9,14.5-5.6,15.7c1.5,4.4,2.7,8.9,3.7,13.4c1.2-11.9,9.6-11,9.6-11c1.7,8.7-6.5,12.6-9,13.6
		c0.9,4.5,1.5,9.1,1.9,13.7c4.7-10.9,12.3-7.6,12.3-7.6c-0.8,8.3-8.9,10-12.1,10.4c0.3,4.6,0.4,9.2,0.2,13.8
		c7.4-10.1,14.2-4.8,14.2-4.8c-2.8,7.8-11.1,7.5-14.3,7c-0.4,6.3-1.2,12.7-2.5,19c-0.2,0.9-1.6,0.7-1.4-0.2c1.3-6.3,2.1-12.6,2.5-19
		C121.8,655.2,121.3,645.8,121.3,645.8z"/>
	<g id="XMLID_535_">
		<g id="XMLID_548_">
			<path class="st13" d="M67.7,609.7c-4.9-2.9-10.2-5.3-15.7-6.9c-1.8-0.5-6.2-2.3-7.9-1.4c-2.1,1.1-2.4,5.3-2.5,7.3
				c-0.8,14,5.1,27.6,11.7,40c5.2,9.7,10.9,19.3,18.5,27.4c1.1,1.1,2.2,2.2,3.3,3.3c8.9,8.3,19.6,14.6,30.8,19.4
				c6.2,2.6,19.4,9,23.8,0.6c1.5-2.9,1.2-6.4-0.1-9.4c-1.3-3-3.4-5.6-5.3-8.1c-5.3-6.9-10.9-13.7-15.5-21.1
				c-5.4-8.5-9.6-17.7-15.2-26.1c-0.3-0.4-0.5-0.8-0.8-1.1C86.2,623.9,77.7,615.6,67.7,609.7z"/>
		</g>
		<path class="st14" d="M75.2,646.5C75.2,646.5,75.2,646.5,75.2,646.5c-1.9-7.7-4.3-15.1-7.4-22.4c-0.1-0.3-0.9,0.1-0.7,0.4
			c2.8,6.7,5.1,13.5,6.9,20.5c-7.6-9-14.5-18.6-19.8-29.2c-0.2-0.4-1-0.3-0.7,0.2c4.4,8.7,9.8,16.8,15.9,24.4
			c-7.9-2.3-14.9-6.5-20.8-12.3c-0.3-0.3-1.1-0.1-0.7,0.3c6.2,6.2,13.7,10.6,22.2,12.9c1.4,1.8,2.9,3.5,4.4,5.3c0,0,0,0.1,0,0.1
			c0,0.1,0.1,0.2,0.2,0.2c2.6,3.1,5.3,6.1,8.1,9c1.5,1.6,3.1,3.2,4.6,4.8c-3.5,0.1-7,0.1-10.5-0.5c-3.6-0.6-6.9-2.1-10.2-3.5
			c-0.3-0.1-1,0.3-0.6,0.5c3.4,1.5,6.7,2.9,10.4,3.6c3.7,0.7,7.6,0.6,11.4,0.5c0,0,0.1,0,0.1,0c5.8,6,11.6,11.8,17.5,17.7
			c-9.7-0.6-19.1-2.8-28.1-6.5c-0.3-0.1-1,0.3-0.6,0.5c9.3,3.9,19.2,6.2,29.3,6.7c4.3,4.3,8.6,8.5,12.9,12.8c0.3,0.3,1,0,0.6-0.4
			c-6.7-6.7-13.4-13.3-20.1-20c-3.3-10-7.9-19.6-13.6-28.5c-0.1-0.2-0.8-0.3-0.8-0.3c5.6,8.7,10,17.9,13.3,27.7
			c-4.8-4.8-9.5-9.6-14.1-14.4C81.2,653.3,78.1,649.9,75.2,646.5z"/>
	</g>
	<g id="XMLID_456_">
		<g id="XMLID_549_">
			<path class="st13" d="M96.8,616.1c0.5-4.8,1.6-9.5,3.4-14c0.6-1.5,1.6-5.3,3.1-6c1.8-0.8,4.8,1.1,6.2,2
				c9.9,6.6,15.9,17.5,20.9,28.3c3.9,8.5,7.4,17.2,8.9,26.4c0.2,1.3,0.4,2.6,0.5,3.9c1,10.2-0.2,20.6-2.7,30.6
				c-1.4,5.5-3.8,17.6-11.7,16.3c-2.7-0.5-4.9-2.5-6.3-4.9c-1.4-2.4-2-5.1-2.7-7.7c-1.9-7.1-3.6-14.3-6.2-21.2
				c-3-7.9-7-15.5-9.8-23.5c-0.1-0.4-0.2-0.7-0.4-1.1C96.9,635.7,95.7,625.8,96.8,616.1z"/>
		</g>
		<path class="st14" d="M118.2,639.7c0-0.1,0.1-0.1,0-0.2c0,0,0-0.1-0.1-0.1c-0.4-1.9-0.8-3.8-1.3-5.6c2.8-6.9,3.7-14.2,2.6-21.5
			c-0.1-0.4-0.6,0-0.6,0.3c1,6.9,0.2,13.8-2.3,20.2c-2-7.9-4.7-15.7-8.3-23.1c-0.2-0.4-0.7,0.1-0.5,0.4c4.4,9,7.3,18.5,9.5,28.1
			c-3.8-4.8-7.2-9.8-10.2-15c-0.2-0.3-0.8,0-0.7,0.3c3.3,5.7,7.1,11.2,11.2,16.4c0,0,0,0,0,0c0.8,3.7,1.5,7.5,2.1,11.2
			c0.9,5.6,1.7,11.2,2.5,16.8c-4.9-7.2-8.8-14.9-11.8-23.1c0,0-0.3,0.5-0.2,0.7c3.1,8.4,7.1,16.3,12.2,23.7
			c1.1,7.9,2.1,15.8,3.2,23.7c0.1,0.5,0.6,0.1,0.6-0.2c-0.7-5.1-1.3-10.1-2-15.2c4.8-7,8.3-14.8,10.5-23.1c0.1-0.4-0.5-0.1-0.6,0.1
			c-2.1,7.9-5.4,15.4-10,22.2c-0.9-6.9-1.9-13.9-2.9-20.8c0,0,0.1-0.1,0.1-0.1c2-2.5,4-5,5.5-7.9c1.4-2.8,2.1-5.8,2.9-8.8
			c0.1-0.4-0.6-0.2-0.7,0.1c-0.7,3-1.4,5.9-2.8,8.7c-1.3,2.6-3.2,5-5,7.3c-0.3-1.9-0.6-3.7-0.9-5.6
			C119.6,646.4,118.9,643,118.2,639.7z"/>
	</g>
	<g id="XMLID_397_">
		<g id="XMLID_534_">
			<path class="st15" d="M131.5,693c1.5,6,0.9,12.6-2.2,17.5c-1.4,2.2-2.8,4.4-4.7,6.1c-8.4,7.3-17.7,2.5-25.3-2.6
				c-1.9-1.3-3.9-2.6-6.2-2.6c-2.8,0-5.3,1.7-8,2.2c-3.5,0.7-7.1,0.3-10.4-0.9c-3.2-1.2-6.1-3.1-8-5.8c-4.4-6.3-2.1-15.7,4-20.3
				c6.1-4.6,14.9-4.5,21.7-1c1.4,0.7,2.9,1.6,4.5,1.3c1.2-0.3,2-1.1,2.8-2c1.5-1.5,2.9-3.1,4.6-4.4c4.4-3.2,10.5-4.1,15.6-2.1
				C125.8,680.8,129.9,686.6,131.5,693z"/>
		</g>
		<g id="XMLID_491_" class="st9">
			<g id="XMLID_532_">
				<path id="XMLID_533_" class="st2" d="M73.8,701.1c7.4-3.7,16-3.8,24.1-4.3c8.3-0.4,16.7-0.2,24.5,2.9c0.1,0.1,0.5-0.7,0.6-0.7
					c-8.2-3.3-17-3.4-25.7-2.9c-7.8,0.5-15.9,0.7-23,4.2C74.1,700.6,73.9,701.1,73.8,701.1L73.8,701.1z"/>
			</g>
			<g id="XMLID_530_">
				<path id="XMLID_531_" class="st2" d="M92.6,696.6c-5.1-1.8-10.2-3.3-15.4-4.6c-0.2-0.1-0.7,0.6-0.6,0.6
					c5.2,1.3,10.3,2.8,15.4,4.6C92.2,697.2,92.7,696.6,92.6,696.6L92.6,696.6z"/>
			</g>
			<g id="XMLID_528_">
				<path id="XMLID_529_" class="st2" d="M80.2,707.4c3.6-3.8,7.6-7.2,12-10c0.2-0.2,0.1-1-0.1-0.8c-4.4,2.9-8.4,6.3-12.1,10.1
					C79.8,706.9,79.9,707.7,80.2,707.4L80.2,707.4z"/>
			</g>
			<g id="XMLID_526_">
				<path id="XMLID_527_" class="st2" d="M100.6,705.2c3.8-2.6,7.6-5.3,11.4-7.9c0.2-0.1,0.4-0.9,0.1-0.8c-3.8,2.6-7.6,5.3-11.4,7.9
					C100.5,704.5,100.3,705.3,100.6,705.2L100.6,705.2z"/>
			</g>
			<g id="XMLID_494_">
				<path id="XMLID_525_" class="st2" d="M98.7,689.4c5,2.1,9.8,4.7,14.2,7.9c0.4,0.3,1-0.4,0.6-0.6c-4.5-3.2-9.3-5.9-14.4-8
					C98.7,688.5,98.2,689.2,98.7,689.4L98.7,689.4z"/>
			</g>
		</g>
	</g>
	<g id="XMLID_27_">
		<g id="XMLID_91_">
			<path class="st16" d="M121.3,703.1c6,1.5,12.6,0.9,17.5-2.1c2.2-1.4,4.4-2.8,6.1-4.7c7.3-8.4,2.6-17.7-2.5-25.3
				c-1.3-1.9-2.6-3.9-2.5-6.2c0-2.8,1.7-5.3,2.3-8c0.7-3.5,0.3-7.1-0.9-10.4c-1.1-3.2-3.1-6.1-5.8-8.1c-6.2-4.4-15.7-2.2-20.3,3.9
				c-4.6,6.1-4.6,14.9-1.1,21.7c0.7,1.4,1.6,2.9,1.3,4.5c-0.3,1.1-1.1,2-2,2.8c-1.5,1.5-3.1,2.9-4.4,4.6c-3.3,4.4-4.1,10.5-2.1,15.6
				C109.2,697.4,114.9,701.5,121.3,703.1z"/>
		</g>
		<g id="XMLID_80_" class="st9">
			<g id="XMLID_89_">
				<path id="XMLID_90_" class="st2" d="M129.7,645.4c-3.7,7.4-3.9,16-4.3,24.1c-0.5,8.3-0.2,16.7,2.9,24.5c0.1,0.1-0.7,0.5-0.7,0.6
					c-3.2-8.2-3.3-17-2.8-25.7c0.5-7.8,0.7-15.9,4.3-23C129.1,645.7,129.6,645.5,129.7,645.4L129.7,645.4z"/>
			</g>
			<g id="XMLID_87_">
				<path id="XMLID_88_" class="st2" d="M125,664.2c-1.7-5.1-3.2-10.2-4.5-15.4c-0.1-0.2,0.6-0.7,0.6-0.6c1.3,5.2,2.8,10.3,4.5,15.4
					C125.7,663.8,125.1,664.4,125,664.2L125,664.2z"/>
			</g>
			<g id="XMLID_85_">
				<path id="XMLID_86_" class="st2" d="M135.9,651.8c-3.8,3.6-7.2,7.6-10.1,12c-0.2,0.2-1,0.1-0.8-0.1c2.9-4.4,6.3-8.4,10.2-12.1
					C135.4,651.4,136.2,651.6,135.9,651.8L135.9,651.8z"/>
			</g>
			<g id="XMLID_83_">
				<path id="XMLID_84_" class="st2" d="M133.6,672.2c-2.7,3.8-5.3,7.6-8,11.3c-0.1,0.2-0.9,0.3-0.8,0.1c2.7-3.8,5.3-7.6,8-11.3
					C133,672.2,133.8,672,133.6,672.2L133.6,672.2z"/>
			</g>
			<g id="XMLID_81_">
				<path id="XMLID_82_" class="st2" d="M117.9,670.3c2.1,5.1,4.7,9.8,7.9,14.3c0.3,0.4-0.4,1-0.6,0.6c-3.2-4.5-5.8-9.3-8-14.4
					C116.9,670.3,117.7,669.9,117.9,670.3L117.9,670.3z"/>
			</g>
		</g>
	</g>
</g>
<g id="XMLID_14_">
	
		<rect id="XMLID_135_" x="116.6" y="509.9" transform="matrix(-1 -4.494373e-11 4.494373e-11 -1 282.5247 1229.5627)" class="st17" width="49.3" height="209.7"/>
	<g id="XMLID_134_">
		<path class="st7" d="M165.6,614.9c0-26.1,0-52.3,0-78.4c0-6.4,0-12.7,0-19.1c0-0.9,0.2-7.6,0.4-7.4c-1.9-1.8-13.9,0-16.4,0
			c-8.1,0-16.3,0-24.4,0c-1.8,0-7.4-0.8-8.3,0.4c-0.8,0.9,0,5.8,0,7c0,10.9,0,21.7,0,32.6c0,33.8,0,67.7,0,101.5
			c0,22.7,0,45.4,0,68.1c0,0.1-0.5,0-0.5-0.1c0-61.2,0-122.4,0-183.6c0-8.7,0-17.4,0-26c0,0,0.1,0,0.1,0c16.4,0,32.9,0,49.3,0
			c0.1,0,0.4,0,0.4,0.2c0,35,0,70.1,0,105.1C166.2,615.2,165.6,615.1,165.6,614.9L165.6,614.9z"/>
	</g>
</g>
<g id="XMLID_1693_">
	
		<rect id="XMLID_1683_" x="285" y="518.3" transform="matrix(-1 -4.488244e-11 4.488244e-11 -1 607.9236 1238.0463)" class="st13" width="37.9" height="201.4"/>
	<g id="XMLID_4_">
		<path class="st7" d="M322.6,646.7c0-12.9,0-25.8,0-38.7c0-0.2,0.5-0.1,0.5,0.1c0,12.9,0,25.8,0,38.7
			C323.2,647.1,322.6,647,322.6,646.7L322.6,646.7z"/>
	</g>
	<g id="XMLID_2_">
		<path class="st7" d="M322.6,598.8c0-25.5,0-50.9,0-76.4c0-4.2,0.9-4.1-3.3-4c-7.4,0.2-14.9,0-22.4,0c-2,0-10.6-1-11.6,0.2
			c-0.7,0.8,0,5.3,0,6.3c0,57.7,0,115.5,0,173.2c0,5,0,10.1,0,15.1c0,1-0.7,5.7,0,6.5c0.9,1,15-0.2,17.6-0.2c6.6,0,13.2,0,19.8,0
			c0.2,0,0.6,0.3,0.2,0.3c-12.6,0-25.2,0-37.9,0c-0.1,0-0.4-0.1-0.4-0.2c0-58.7,0-117.3,0-176c0-8.5,0-16.9,0-25.4
			c0-0.1,0.1-0.1,0.2-0.1c12.6,0,25.2,0,37.9,0c0.1,0,0.4,0.1,0.4,0.2c0,26.9,0,53.7,0,80.6C323.2,599.1,322.6,599,322.6,598.8
			L322.6,598.8z"/>
	</g>
	
		<rect id="XMLID_1684_" x="300" y="533.9" transform="matrix(-1 -4.456936e-11 4.456936e-11 -1 609.9611 1077.7723)" class="st18" width="10" height="10"/>
	
		<rect id="XMLID_1685_" x="300" y="553.9" transform="matrix(-1 -4.493307e-11 4.493307e-11 -1 609.9611 1117.7684)" class="st18" width="10" height="10"/>
	
		<rect id="XMLID_1686_" x="300" y="573.9" transform="matrix(-1 -4.493307e-11 4.493307e-11 -1 609.9611 1157.7644)" class="st18" width="10" height="10"/>
	
		<rect id="XMLID_1687_" x="300" y="593.9" transform="matrix(-1 -4.475099e-11 4.475099e-11 -1 609.9611 1197.7595)" class="st18" width="10" height="10"/>
	
		<rect id="XMLID_1688_" x="300" y="613.9" transform="matrix(-1 -4.493307e-11 4.493307e-11 -1 609.9611 1237.755)" class="st18" width="10" height="10"/>
	
		<rect id="XMLID_1689_" x="300" y="633.9" transform="matrix(-1 -4.475099e-11 4.475099e-11 -1 609.9611 1277.751)" class="st18" width="10" height="10"/>
	
		<rect id="XMLID_1690_" x="300" y="653.9" transform="matrix(-1 -4.475099e-11 4.475099e-11 -1 609.9611 1317.7468)" class="st18" width="10" height="10"/>
	
		<rect id="XMLID_1691_" x="300" y="673.9" transform="matrix(-1 -4.493307e-11 4.493307e-11 -1 609.9611 1357.7422)" class="st18" width="10" height="10"/>
	
		<rect id="XMLID_1692_" x="300" y="693.9" transform="matrix(-1 -4.475099e-11 4.475099e-11 -1 609.9611 1397.7377)" class="st18" width="10" height="10"/>
</g>
<g id="XMLID_1698_">
	
		<rect id="XMLID_1695_" x="247.8" y="519" transform="matrix(-1 -4.483492e-11 4.483492e-11 -1 533.3762 1238.7578)" class="st18" width="37.9" height="200.7"/>
	<g id="XMLID_6_">
		<path class="st7" d="M247.5,602.1c0-27.7,0-55.4,0-83.1c0-0.1,0.1-0.1,0.2-0.1c12.6,0,25.2,0,37.9,0c0.2,0,0.6,0.3,0.2,0.3
			c-11,0-22,0-32.9,0c-4,0-3.8-0.8-4.8,1.8c-1.3,3.5,0,10,0,13.6c0,22.5,0,45.1,0,67.6C248,602.3,247.5,602.2,247.5,602.1
			L247.5,602.1z"/>
	</g>
	<g id="XMLID_3_">
		<path class="st7" d="M285.7,719.9c-12.6,0-25.2,0-37.9,0c-0.1,0-0.4-0.1-0.4-0.2c0-36.9,0-73.9,0-110.8c0-0.1,0.5,0,0.5,0.1
			c0,27.4,0,54.9,0,82.3c0,6.7,0,13.4,0,20.1c0,1.1-0.4,8.1-0.3,8.2c0.7,0.6,5.1,0,6.1,0c4.5,0,9.1,0,13.6,0c6,0,12,0,18,0
			C285.7,719.6,286.1,719.9,285.7,719.9L285.7,719.9z"/>
	</g>
	
		<linearGradient id="XMLID_65_" gradientUnits="userSpaceOnUse" x1="926.3856" y1="560.1656" x2="964.2382" y2="560.1656" gradientTransform="matrix(-1 0 0 1 1212 0)">
		<stop  offset="0" style="stop-color:#150D9C"/>
		<stop  offset="0.2082" style="stop-color:#1E13A5"/>
		<stop  offset="0.5556" style="stop-color:#3824BF"/>
		<stop  offset="0.9971" style="stop-color:#623FE9"/>
		<stop  offset="1" style="stop-color:#623FE9"/>
	</linearGradient>
	<polygon id="XMLID_1696_" class="st19" points="247.8,575.2 285.6,575.2 285.6,545.2 247.8,545.2 	"/>
	
		<linearGradient id="XMLID_66_" gradientUnits="userSpaceOnUse" x1="926.3856" y1="678.4935" x2="964.2382" y2="678.4935" gradientTransform="matrix(-1 0 0 1 1212 0)">
		<stop  offset="0" style="stop-color:#150D9C"/>
		<stop  offset="0.2082" style="stop-color:#1E13A5"/>
		<stop  offset="0.5556" style="stop-color:#3824BF"/>
		<stop  offset="0.9971" style="stop-color:#623FE9"/>
		<stop  offset="1" style="stop-color:#623FE9"/>
	</linearGradient>
	<polygon id="XMLID_1697_" class="st20" points="247.8,693.5 285.6,693.5 285.6,663.5 247.8,663.5 	"/>
</g>
<g id="XMLID_21_">
	
		<rect id="XMLID_29_" x="389.7" y="511" transform="matrix(-0.9664 0.2571 -0.2571 -0.9664 962.7654 1103.5751)" class="st18" width="39.1" height="207.5"/>
	<g id="XMLID_28_">
		<path class="st7" d="M423.3,592.4c-6-22.5-12-45.1-18-67.6c-1.1-4.2-1.7-9.1-3.5-13c-1.4-3.1-0.3-2.2-4.8-1
			c-11.1,2.9-22.1,5.9-33.2,8.8c-0.1,0-0.6-0.2-0.4-0.2c12.6-3.4,25.2-6.7,37.8-10.1c0.1,0,0.4,0,0.5,0.2
			c7.4,27.7,14.7,55.4,22.1,83.1C423.9,592.7,423.3,592.6,423.3,592.4L423.3,592.4z"/>
	</g>
	<g id="XMLID_26_">
		<path class="st7" d="M416.8,719.9c6.3-1.7,12.6-3.4,18.9-5c2.5-0.7,17.7-2.8,18.8-5c0.6-1.1-1.7-6.6-2-7.8
			c-1.8-6.9-3.6-13.7-5.5-20.6c-7.3-27.4-14.6-54.8-21.9-82.3c0-0.1,0.5-0.1,0.5,0.1c9.8,36.9,19.6,73.8,29.5,110.7c0,0,0,0.1,0,0.1
			c-12.6,3.4-25.2,6.7-37.8,10.1C417.1,720.2,416.6,720,416.8,719.9L416.8,719.9z"/>
	</g>
	<g id="XMLID_145_">
		<path class="st7" d="M412.7,551.8c-12.6,3.4-25.2,6.7-37.8,10.1c-0.2,0.1-0.6-0.3-0.3-0.3c12.6-3.4,25.2-6.7,37.8-10.1
			C412.6,551.4,413,551.7,412.7,551.8L412.7,551.8z"/>
	</g>
	<g id="XMLID_143_">
		<path class="st7" d="M378.6,540.8c9.6-2.6,19.2-5.1,28.8-7.7c0.2-0.1,0.6,0.3,0.3,0.3c-9.6,2.6-19.2,5.1-28.8,7.7
			C378.7,541.2,378.3,540.9,378.6,540.8L378.6,540.8z"/>
	</g>
	<g id="XMLID_141_">
		<path class="st7" d="M447.2,681.9c-12.6,3.4-25.2,6.7-37.8,10.1c-0.2,0.1-0.6-0.3-0.3-0.3c12.6-3.4,25.2-6.7,37.8-10.1
			C447.1,681.5,447.5,681.8,447.2,681.9L447.2,681.9z"/>
	</g>
	<g id="XMLID_137_">
		<path class="st7" d="M413.2,671c9.6-2.6,19.2-5.1,28.8-7.7c0.2-0.1,0.6,0.3,0.3,0.3c-9.6,2.6-19.2,5.1-28.8,7.7
			C413.3,671.4,412.9,671,413.2,671L413.2,671z"/>
	</g>
</g>
<rect id="XMLID_1710_" x="314.1" y="518.3" transform="matrix(-1 -4.506274e-11 4.506274e-11 -1 636.9768 1238.0463)" class="st21" width="8.8" height="201.4"/>
<rect id="XMLID_13_" x="246.5" y="518.4" transform="matrix(-1 -4.485580e-11 4.485580e-11 -1 501.7605 1238.2657)" class="st21" width="8.8" height="201.4"/>
<g id="XMLID_1694_">
	
		<rect id="XMLID_1681_" x="327.2" y="508.5" transform="matrix(-0.9976 6.989144e-02 -6.989144e-02 -0.9976 745.7224 1200.5587)" class="st22" width="49.3" height="209.7"/>
	<g id="XMLID_1_">
		<path class="st7" d="M376.2,611.8c-1.8-26.1-3.7-52.1-5.5-78.2c-0.4-6.3-0.9-12.7-1.3-19c-0.1-0.9-0.3-7.6-0.2-7.4
			c-2-1.6-13.8,1-16.3,1.1c-8.1,0.6-16.2,1.1-24.3,1.7c-1.8,0.1-7.4-0.2-8.3,1c-0.7,1,0.4,5.8,0.5,7c0.8,10.8,1.5,21.7,2.3,32.5
			c2.4,33.8,4.7,67.5,7.1,101.3c1.6,22.6,3.2,45.3,4.8,67.9c0,0.1-0.5,0-0.6-0.1c-4.3-61.1-8.6-122.1-12.8-183.2
			c-0.6-8.7-1.2-17.3-1.8-26c0,0,0.1,0,0.1,0c16.4-1.1,32.8-2.3,49.2-3.4c0.1,0,0.4,0,0.5,0.2c2.4,34.9,4.9,69.9,7.3,104.8
			C376.7,612,376.2,611.9,376.2,611.8L376.2,611.8z"/>
	</g>
	
		<rect id="XMLID_1682_" x="344.8" y="532.8" transform="matrix(-0.9976 6.989220e-02 -6.989220e-02 -0.9976 746.7548 1210.3575)" class="st18" width="14.8" height="170.9"/>
</g>
<g id="XMLID_5_">
	
		<rect id="XMLID_11_" x="200.5" y="507.2" transform="matrix(-0.9988 -4.984529e-02 4.984529e-02 -0.9988 412.9142 1236.3365)" class="st23" width="42.7" height="211.5"/>
	<g id="XMLID_10_">
		<path class="st7" d="M242.9,615.2c1.3-26.1,2.7-54.1,4-80.2c0.3-6.4,0.6-12.7,1-19.1c0-0.9,0.6-7.6,0.7-7.4
			c-1.8-1.9-13.8-0.7-16.4-0.8c-8.1-0.4-9.7-0.5-17.8-0.9c-1.8-0.1-7.3-1.1-8.3,0c-0.8,0.9-0.3,5.8-0.3,7
			c-0.5,10.9-1.1,21.7-1.6,32.6c-1.7,33.8-3.5,69.5-5.2,103.3c-1.1,22.7-2.3,45.3-3.4,68c0,0.1-0.5,0-0.5-0.2
			c3.1-61.1,6.2-124.1,9.2-185.3c0.4-8.7,0.9-17.3,1.3-26c0,0,0.1,0,0.1,0c16.4,0.8,26.3,1.3,42.7,2.1c0.1,0,0.4,0.1,0.4,0.2
			c-1.7,35-3.6,71.8-5.3,106.8C243.4,615.4,242.9,615.3,242.9,615.2L242.9,615.2z"/>
	</g>
	
		<rect id="XMLID_9_" x="209.6" y="524.1" transform="matrix(-0.9988 -4.984163e-02 4.984163e-02 -0.9988 413.1116 1238.7677)" class="st18" width="24.8" height="180.2"/>
	<g id="XMLID_132_">
		<path class="st7" d="M232.8,640.9c1.1-21.2,2.1-42.4,3.2-63.6c0.7-13.4,1.3-26.8,2-40.2c0.1-2.9,1.4-7.9,0.5-10.7
			c-0.8-2.6-2.5-1.5-6.5-1.7c-2.5-0.1-16-2.6-17.6-0.9c-0.4,0.4-0.2,3.4-0.2,4c-0.5,9.1-0.9,18.2-1.4,27.3
			c-1.5,29.3-2.9,58.6-4.4,88c-1,20.2-2,40.5-3,60.7c0,0.2-0.6,0.1-0.5-0.1c2.6-52.5,5.2-105,7.9-157.6c0.4-7.5,0.7-15,1.1-22.4
			c0-0.1,0.1-0.1,0.2-0.1c8.3,0.4,16.5,0.8,24.8,1.2c0.1,0,0.4,0.1,0.4,0.2c-1.9,38.7-3.9,77.4-5.8,116.1
			C233.4,641.2,232.8,641.1,232.8,640.9L232.8,640.9z"/>
	</g>
</g>
<g id="XMLID_8_">
	
		<rect id="XMLID_33_" x="159.5" y="480.3" transform="matrix(-0.9945 -0.1045 0.1045 -0.9945 293.2924 1213.8815)" class="st18" width="37.9" height="238"/>
	<g id="XMLID_32_">
		<path class="st7" d="M192.2,646.9c1.4-12.8,2.7-25.7,4.1-38.5c0-0.2,0.5,0,0.5,0.2c-1.4,12.8-2.7,25.7-4.1,38.5
			C192.7,647.3,192.2,647.2,192.2,646.9L192.2,646.9z"/>
	</g>
	<g id="XMLID_31_">
		<path class="st7" d="M197.2,599.3c2.7-25.3,9.1-87,11.8-112.3c0.4-4.2,1.3-4-2.9-4.3c-7.4-0.6-14.8-1.6-22.3-2.3
			c-2-0.2-10.4-2.1-11.6-1c-0.8,0.7-0.6,5.3-0.7,6.2c-6,57.4-15.9,151.2-21.9,208.6c-0.5,5-1.1,10-1.6,15c-0.1,1-1.3,5.6-0.7,6.5
			c0.8,1.1,15,1.4,17.6,1.7c6.6,0.7,13.2,1.4,19.7,2.1c0.2,0,0.5,0.4,0.2,0.3c-12.5-1.3-25.1-2.6-37.6-4c-0.1,0-0.4-0.1-0.4-0.3
			c6.1-58.3,12.3-116.7,18.4-175c0.9-8.4,5.6-53.2,6.5-61.6c0-0.1,0.1-0.1,0.2-0.1c12.5,1.3,25.1,2.6,37.6,4c0.1,0,0.4,0.1,0.4,0.3
			c-2.8,26.7-9.4,89.8-12.2,116.5C197.7,599.6,197.2,599.5,197.2,599.3L197.2,599.3z"/>
	</g>
	
		<linearGradient id="XMLID_67_" gradientUnits="userSpaceOnUse" x1="1011.1628" y1="737.7966" x2="1011.1628" y2="528.7055" gradientTransform="matrix(-0.9945 -0.1045 -0.1045 0.9945 1251.2258 75.4905)">
		<stop  offset="0" style="stop-color:#673AB7"/>
		<stop  offset="0.4457" style="stop-color:#9347A7"/>
		<stop  offset="0.797" style="stop-color:#B0509E"/>
		<stop  offset="1" style="stop-color:#BA539A"/>
	</linearGradient>
	<polygon id="XMLID_22_" class="st24" points="185.4,495.1 195.4,496.1 173.5,704.1 163.5,703 	"/>
</g>
<rect id="XMLID_24_" x="367.4" y="510.2" transform="matrix(-0.9974 7.159827e-02 -7.159827e-02 -0.9974 786.6155 1200.4758)" class="st21" width="8.8" height="208.2"/>
<g id="XMLID_239_">
	<g id="XMLID_241_">
		<path class="st23" d="M247,457.8c1.8-1.5,2.6,0.2,3.1,1.8c0.7,2.3,1.9,4.2,3.1,6.3c4.1,6.9,7.2,15.2,8.7,23.1
			c0.7,3.7-2.2,5-5.4,3.9c-2-0.7-2.4-2.8-3.2-4.6c-0.8-1.9-1.7-3.8-2.5-5.7c-1.7-3.9-3.5-7.9-4.4-12.1
			C245.6,467.2,243.8,460.5,247,457.8C246.9,457.8,246.9,457.8,247,457.8z"/>
	</g>
	<path id="XMLID_209_" class="st2" d="M246.2,443.2l-16.9-1.7c-0.3,0-0.6,0.3-0.5,0.6l8.9,35.9l14.9-7.3L246.2,443.2z"/>
	<polygon id="XMLID_230_" class="st25" points="246.5,444.4 229.8,442.7 238.4,477.5 252.5,470.5 	"/>
	<path id="XMLID_224_" class="st26" d="M246.2,443.2l-15.8,7c-1,0.4-1.5,1.6-1.2,2.6l8.5,26.1c0.4,1.1,1.6,1.6,2.6,1.1l12.9-6.3
		L246.2,443.2z"/>
	
		<rect id="XMLID_203_" x="375.7" y="508.5" transform="matrix(-1 -4.470880e-11 4.470880e-11 -1 768.3774 1025.8824)" class="st23" width="17" height="9"/>
	<g id="XMLID_169_">
		<path class="st26" d="M280,495c3.2-5,5.7-10.6,8.3-16c3.9-7.9,9.2-17,17.8-20.3c8.8-3.4,18.3-0.7,25.3,5.2
			c7.2,6.1,12.6,14.1,16.7,22.5c2.9,6,10.6,18.8,7,25.5c-1.5,2.9-6.7,2.6-9.1,1.5c-3.8-1.8-5.8-5.5-6.8-9.4
			c-0.7-2.7-0.8-4.4-2.3-6.8c-1.4-2.1-2.4-4.3-4.1-6.2c-3.4-3.7-8-6.4-13-7.3c-2.1-0.4-4.3-0.5-6.3,0.1c-3,0.9-5.5,3.2-7.1,5.9
			c-2.8,4.5-2.7,10.9-6.1,14.9c-5,5.9-11.1,2.5-17.4,2.5c-3,0-16.3,1.5-9.4-4.7C276.1,500.3,278.2,497.8,280,495z"/>
	</g>
	<g id="XMLID_172_">
		<path class="st26" d="M280.1,498.7c1.5-2.2,3.8-3.7,6.2-4.6c2.9-1.1,6.1-1.4,9.2-1.7c10.7-0.8,21.4-0.9,32,0.9
			c13.2,2.3,25.7,7.3,38.9,9.5c4.4,0.7,8.9,1.2,13.3,2.2c1.4,0.3,2.8,0.8,3.7,1.9c0.9,1.1,1,2.6,0.8,4c-0.2,2-0.9,4-2.3,5.4
			c-2.8,2.9-10,2.7-13.8,2.4c-12-1.1-23.8-4.4-35.8-4.8c-13.3-0.4-26.4,2.7-39.6,4.8c-5.9,1-12.5,1.6-17.6-1.5
			c0.8-2.6,1.6-5.2,2.2-7.8c0.7-3.1,0.6-6.6,2-9.5C279.6,499.5,279.8,499.1,280.1,498.7z"/>
	</g>
	<g id="XMLID_156_">
		<path id="XMLID_199_" class="st2" d="M286.3,493.9c6.1-2.1,13-2.1,19.4-2.2c6.6-0.1,13.2,0.2,19.7,1.1c14,2.1,27.2,7.4,41,9.9
			c0.2,0,0.1,0.4-0.1,0.4c-12.9-2.3-25.3-7.1-38.2-9.4c-6.9-1.2-14-1.7-21-1.6c-6.8,0.1-14.3,0-20.8,2.2
			C286.1,494.3,286,494,286.3,493.9L286.3,493.9z"/>
	</g>
	<g id="XMLID_152_">
		<path class="st23" d="M223.2,489.7c-2.8-2-4.6-4.8-6.4-8c-1.5,0.6-3,1.4-4.6,1.7c-1.6,0.4-3.2,0.4-4.8,0.1
			c-1.2-0.2-1.8-0.2-2.9,0.4c-0.7,0.4-2,1.5-2.9,1.3c0.9,0.2,3.8,3.5,4.5,4.1c2.2,1.9,4.4,3.8,6.3,5.9c1.8,1.9,2.6,4.4,5.2,5.3
			c1.4,0.5,3.1,0.4,4.3-0.5c2.5-1.9,3.7-5.8,4.9-8.7C225.4,491.1,224.2,490.5,223.2,489.7z"/>
	</g>
	<g id="XMLID_163_">
		<path class="st23" d="M197,467.9c0-2.4,0.3-5.1,2.3-6.4c0.9-0.6,2.1-0.8,3.2-0.9c2.8-0.1,5.8,0.5,7.7,2.5c1,1,1.6,2.3,2.5,3.4
			c0.9,1,2.5,1.8,3.7,1.2l0.7-0.2c0.8,3.8,5.1,6,6.5,9.6c1.4,3.5-0.8,8-4.4,9.1c-1.4,0.4-2.9,0.4-4.3,0.4c-4.3,0-8.8-0.2-12.3-2.7
			c-2.4-1.7-3.9-4.5-4.7-7.3C197,473.8,196.9,470.8,197,467.9z"/>
	</g>
	<g id="XMLID_155_">
		<path id="XMLID_197_" class="st2" d="M202.4,460.4c2.5,0,5,0.3,7.1,1.8c2.4,1.9,3.7,6.2,7.6,5.1c0.1,0,0.2,0,0.2,0.1
			c1.5,5.2,8.6,8.1,6.5,14.3c-2,5.8-8.3,5.3-13.3,4.9c-0.2,0-0.2-0.4,0-0.4c5.4,0.3,13.3,0.5,13.2-6.9c0-4.4-4-6.6-6.1-10
			c-0.1-0.3-0.3-1.1-0.6-1.3c-0.6-0.4-0.7,0.1-1.5-0.1c-0.8-0.1-1.4-0.3-2.1-0.7c-1.2-0.8-1.8-2.2-2.8-3.3c-2.2-2.6-4.9-3.3-8.2-3.3
			C202.2,460.8,202.2,460.4,202.4,460.4L202.4,460.4z"/>
	</g>
	<g id="XMLID_158_">
		
			<linearGradient id="SVGID_9_" gradientUnits="userSpaceOnUse" x1="1024.0676" y1="495.4363" x2="999.0331" y2="448.7813" gradientTransform="matrix(-1 0 0 1 1212 0)">
			<stop  offset="0" style="stop-color:#0D035C"/>
			<stop  offset="3.077479e-02" style="stop-color:#0E0563"/>
			<stop  offset="0.2983" style="stop-color:#17149F"/>
			<stop  offset="0.5259" style="stop-color:#1E20CB"/>
			<stop  offset="0.7024" style="stop-color:#2226E6"/>
			<stop  offset="0.8061" style="stop-color:#2329F0"/>
		</linearGradient>
		<path class="st27" d="M189.2,468.5c-0.1-0.4-0.1-0.8-0.1-1.2c-0.1-1.9,0.6-3.9,2.2-4.9c0.7-0.4,1.5-0.6,1.9-1.2
			c0.7-0.8,0.5-2,0.6-3.1c0.2-1.9,1.7-3.7,3.5-4.3c1.2-0.4,2.7-0.4,3.5-1.3c0.5-0.6,0.7-1.4,1-2.1c0.8-2.1,3.1-3.5,5.3-3.1
			c2.2,0.4,3.9,2.8,3.3,4.9c-0.3,1-1,2-0.8,3c0.1,0.6,0.5,1.1,0.8,1.6c1,1.8,1.6,4.3,0,6c-1,1-2.5,1.5-3.9,2
			c-0.7,0.3-1.4,0.6-1.9,1.2c-0.7,1.1-0.2,2.5,0.3,3.7c0.5,1.2,0.8,2.7-0.1,3.6c-0.3,0.3-0.8,0.5-1,0.9c-0.3,0.5-0.1,1.1,0.2,1.5
			c0.8,1,4.1,2.3,3.5,4c-0.3,0.9-1.6,0.5-2.3-0.1c-0.7-0.6-1.6-1.4-2.4-0.9c-0.5,0.3-0.6,0.9-0.6,1.4c0,1.4,0.4,2.7,1.3,3.8
			c1.4,1.7,3.2,1.9,3.1,4.3c-0.2,2.1-1.4,4-3.4,4.7c-2.2,0.7-4.7-0.1-6.7-1.3c-3.6-2.2-6.2-5.9-7.2-9.9c-0.4-1.9-0.5-3.9,0.6-5.5
			c0.4-0.5,0.9-1,1-1.7c0.1-0.5-0.1-1.1-0.2-1.6C190,471.3,189.5,469.9,189.2,468.5z"/>
	</g>
	<g id="XMLID_154_">
		
			<linearGradient id="SVGID_10_" gradientUnits="userSpaceOnUse" x1="947.4589" y1="524.1477" x2="978.1829" y2="473.51" gradientTransform="matrix(-1 0 0 1 1212 0)">
			<stop  offset="0" style="stop-color:#673AB7"/>
			<stop  offset="0.4108" style="stop-color:#8643AC"/>
			<stop  offset="1" style="stop-color:#BA539A"/>
		</linearGradient>
		<path class="st28" d="M256.6,488.7c-0.4,0.1-0.7,0.1-1.1,0.1c-3.2-0.2-6.9-2-9.8-3.3c-2.7-1.2-4.7-2.7-7.6-3.1
			c-3.4-0.5-6.8-0.7-10.1,0.3c-3.5,1-6.4,3.2-8.9,5.8c-3.6,3.6-8.2,8.8-5.2,14.1c1.1,2,2.9,3.5,4.7,4.8c4.1,3.1,8.5,5.7,13.1,7.9
			c4.6,2.1,9.1,3,14,4.2c5.3,1.3,10.7,2.1,16.1,2.7c6.2,0.6,12.5,1,18.7,0.2c2.7-0.4,5.4-0.6,7.5-2.4c1.8-1.6,3.2-3.9,3.4-6.3
			c0.1-1.7-0.3-3.4-0.7-5.1c-0.8-3.1-1.8-6.1-3.3-8.9c-4.1-7.7-12.5-13.2-21.2-12.9c-1.9,0.1-3.7,0.4-5.5,0.8
			C259.3,487.9,257.9,488.5,256.6,488.7z"/>
	</g>
	<g id="XMLID_167_">
		<path id="XMLID_195_" class="st2" d="M245.6,485.6c-6.9-3.2-14.3-5.2-21.4-1c-5.6,3.3-13.6,10.9-10.2,17.9
			c0.1,0.2-0.2,0.4-0.3,0.2c-3.2-6.7,3.3-13.4,8.4-17.1c3.5-2.6,7.3-3.8,11.7-3.8c4.6,0.1,8,1.5,12.1,3.5
			C246,485.4,245.9,485.7,245.6,485.6L245.6,485.6z"/>
	</g>
	<g id="XMLID_159_">
		<path id="XMLID_184_" class="st2" d="M291.2,513.6c0-8.3-4.8-17.5-11.5-22.3c-2.7-2-5.9-3.4-9.2-4c-4.8-0.9-9.1,0.5-13.8,1.6
			c-0.2,0.1-0.3-0.3-0.1-0.4c4.4-1.1,8.3-2.4,12.9-1.8c4.1,0.6,8,2.3,11.3,4.9c6.3,4.9,10.8,13.9,10.7,21.9
			C291.5,513.8,291.2,513.8,291.2,513.6L291.2,513.6z"/>
	</g>
	<g id="XMLID_153_">
		<path class="st23" d="M244.7,454.8c-0.4-0.4-1.1-0.9-1.5-0.5c-0.2,0.2-0.3,0.6-0.3,0.9c-0.1,2.7-0.3,5.8,0,8.4
			c-1.5-1.7-1.7-4.4-2.9-6.4c-0.2-0.4-0.6-0.8-1-0.5c-0.2,0.1-0.3,0.4-0.3,0.7c-0.1,2.1,0.7,3.8,1.2,5.8c0.4,1.9,1,3.6,1.1,5.6
			c0,0.2,0,0.5-0.1,0.6c-0.3,0.4-0.9,0.2-1.3,0c-1.3-0.6-2.6-1.2-3.9-1.8c-0.5,0.7-0.4,1.6,0,2.4c0.4,0.7,1,1.3,1.7,1.8
			c1.5,1.2,3.3,2.1,4.9,3.2c5.8,4.2,5.9,13.5,4.6,19.9c-0.5,2.6-1.6,5.4-3.9,6.6c-1.9,1-3.7,0.4-5.8,0.4c-2.3,0-1.9,1-1.6,3
			c0.3,2.2,0.1,7.4,2.3,8.3c2.3,0.9,6.7-0.3,8.9-1c2.9-1,5.5-2.7,7.1-5.3c2.4-4,1.8-8.9,1.5-13.3c-0.5-7.2-1.9-14.3-3.9-21.2
			c-1-3.5-2.1-6.9-3.2-10.4C247.1,459.1,246.8,457.1,244.7,454.8z"/>
	</g>
	<g id="XMLID_161_">
		<path id="XMLID_180_" class="st2" d="M242.3,474.8c5.1,4.1,5.8,11.2,5.1,17.3c-0.3,2.6-0.7,5.4-2.3,7.6c-2.1,2.9-4.8,2.5-8,2.4
			c-0.2,0-0.2-0.4,0-0.4c4.4,0.2,7.7-0.7,9.2-5.4c0.7-2.3,0.9-4.8,1-7.1c0.1-5.2-0.9-10.6-5.2-14.1
			C241.8,474.9,242.1,474.6,242.3,474.8L242.3,474.8z"/>
	</g>
	<g id="XMLID_157_">
		<path id="XMLID_171_" class="st2" d="M246.6,512.3c6.4-2.4,8.9-7.5,8.7-14.1c-0.2-5.3-0.8-10.5-1.8-15.7
			c-0.9-4.6-2.1-9.2-3.5-13.7c-1.4-4.4-2.4-9.9-5.5-13.5c-0.2-0.2,0.1-0.5,0.3-0.3c3.1,3.7,4.2,9.1,5.6,13.7
			c1.9,6.4,3.5,12.8,4.4,19.4c1.3,9.6,2.7,20.5-8.1,24.6C246.5,512.8,246.4,512.4,246.6,512.3L246.6,512.3z"/>
	</g>
	<g id="XMLID_148_">
		
			<linearGradient id="XMLID_68_" gradientUnits="userSpaceOnUse" x1="348.3452" y1="52.4266" x2="390.2745" y2="52.4266" gradientTransform="matrix(4.489700e-11 -1 1 4.489700e-11 344.3533 867.6467)">
			<stop  offset="0" style="stop-color:#2329F0"/>
			<stop  offset="0.3198" style="stop-color:#2433F1"/>
			<stop  offset="0.8713" style="stop-color:#264FF3"/>
			<stop  offset="1" style="stop-color:#2657F4"/>
		</linearGradient>
		<path id="XMLID_179_" class="st29" d="M387,519.3h19.5v-41.9l0,0c-5.6,0-10.3,4.1-11.1,9.6l-1.8,12.9l-6.6,4.3V519.3z"/>
		
			<rect id="XMLID_178_" x="381.7" y="496" transform="matrix(4.491702e-11 -1 1 4.491702e-11 -93.7541 902.5682)" class="st30" width="45.4" height="4.2"/>
		<circle id="XMLID_177_" class="st18" cx="393.7" cy="510.7" r="3.9"/>
	</g>
</g>
<g id="XMLID_349_">
	
		<rect id="XMLID_404_" x="121.9" y="687.3" transform="matrix(-0.5477 0.8367 -0.8367 -0.5477 777.9552 970.6796)" class="st23" width="9.4" height="16.6"/>
	<g id="XMLID_403_">
		<path class="st30" d="M74.9,640.3c0.8-12.7,1.5-29.9,2.3-42.5l5.1,0.1c5.1-2.8,12-4,16.4-0.2c3.9,3.4,4.3,9.3,3.6,14.4
			c-0.9,6.7-3.2,17.6-4.7,24.1c-1.5,6.6-2.1,13.6,0.3,19.9c2.4,6.5,7.3,11.8,12.1,16.5c6,5.9,12,11.8,18,17.8
			c0.4,0.4,0.8,0.8,1.1,1.3c0.6,1.2,0.4,2.7-0.4,3.7c-0.8,1.1-2,1.7-3.2,2.1c-3,0.9-6.3,0.2-9-1.3c-8.1-4.2-12.9-11.8-19.4-17.8
			c-6.8-6.2-15.8-10.3-19.9-18.5C74.2,653.9,74.5,646.9,74.9,640.3z"/>
	</g>
	
		<linearGradient id="XMLID_69_" gradientUnits="userSpaceOnUse" x1="1072.4987" y1="705.2278" x2="1095.043" y2="705.2278" gradientTransform="matrix(-1 0 0 1 1212 0)">
		<stop  offset="0" style="stop-color:#673AB7"/>
		<stop  offset="0.4457" style="stop-color:#9347A7"/>
		<stop  offset="0.797" style="stop-color:#B0509E"/>
		<stop  offset="1" style="stop-color:#BA539A"/>
	</linearGradient>
	<path id="XMLID_401_" class="st31" d="M133.6,691.2l5.9,5.1l-15.2,23.1H117v-1c0-1.8,1.4-3.2,3.2-3.3l0,0l2-2l0.7-12l0.6-0.8
		l5.1,0.4l4.5-5.8l-0.4-2.5L133.6,691.2z"/>
	<path id="XMLID_399_" class="st2" d="M137.2,694.3l-15.1,22.9h-5c-0.1,0.4-0.2,0.7-0.2,1.2v1h7.4l15.2-23.1L137.2,694.3z"/>
	
		<rect id="XMLID_398_" x="102.9" y="699.7" transform="matrix(-1 -4.465462e-11 4.465462e-11 -1 214.4277 1412.5935)" class="st23" width="8.6" height="13.2"/>
	<g id="XMLID_396_">
		<path class="st30" d="M90.7,609.9c0.2-5.9,0.3-14.4,5.1-18.7c4.7-4.3,11.6-1.4,15.4,2.7c5.2,5.6,5.7,14,5.7,21.2
			c0,9.5-0.7,23.6-1.4,33.1c-0.9,12.8-1.9,34.1-2.8,46.9c-0.3,4.1,1.4,14.1-5.1,12.9c-3.3-0.6-5.7-3.5-6.8-6.7
			c-1.1-3.1-1.2-6.5-1.3-9.8c-0.8-14.4-4.3-37.2-6.6-51.4C91.4,631.5,90.4,618.4,90.7,609.9z"/>
	</g>
	<g id="XMLID_394_">
		<path id="XMLID_395_" class="st2" d="M90.9,612.9c-0.3,15.7,2.9,31.1,5.1,46.6c0.9,6.4,1.8,12.8,2.5,19.2c1,8.9-1.1,25.5,9.1,29
			c0.2,0.1,0.1,0.4-0.1,0.4c-5.4-1.8-7.3-6.3-8-11.7c-1.1-9-1.4-18.1-2.6-27.1c-2.4-18.7-6.8-37.4-6.4-56.3
			C90.5,612.7,90.9,612.7,90.9,612.9L90.9,612.9z"/>
	</g>
	<g id="XMLID_393_">
		<path class="st32" d="M78.5,519.4c0.2-1.3,0.6-2.6,0.7-4c0.4-4.7,3.1-8.8,7.5-10.8c2.9-1.4,6.1-1.8,9.2-1.7c2.7,0,5.8,0.7,7.3,3
			c1.1,1.7,1.1,4.1,2.4,5.7c0.9,1.1,2.2,1.7,3.5,2.2c2.8,1.1,5.5,2,6.3,5.3c0.5,2,0,4.2,0.2,6.3c0.2,2.4,1.5,4.6,3.3,6.2
			c1.9,1.6,3.9,2.5,3.3,5.6c-0.4,2.1-1.9,2.5-3.3,3.7c-1.4,1.2-2.7,3-4,4.5c-0.8,0.9-1.3,1.9-1.5,3c-0.3,1.2,0.1,2.4-0.4,3.6
			c-0.8,2.2-2.8,4-5,4.9c-2.8,1.2-6.1,1-9,0.2c-1.6-0.5-3.4-1.4-3.5-3.1c0-0.5,0.1-0.9,0-1.4c-0.1-0.5-0.5-0.9-1-0.8l0.6,0
			c0.9-1.7,0.2-3.9-1.1-5.3c-1.3-1.4-3.1-2.3-4.7-3.4c-1.6-1-3.3-2.3-4-4.1c-0.4-1.2-0.4-2.5-0.7-3.7c-1.2-4.8-5.7-8-6.4-12.9
			C78.2,521.2,78.3,520.3,78.5,519.4z"/>
	</g>
	<g id="XMLID_392_">
		<path class="st23" d="M107.9,535.9c-0.9-0.3-1.6-0.9-2.2-1.6c-2.6-3-3.4-7.7-3.4-11.6c0,0-10,8.5-10,8.5c-0.1,0.1,0.2,3.5,0.1,4
			c-0.2,1.2-0.7,2.3-1,3.5c-0.1,0-0.2,0.1-0.3,0.2c-0.9,1.5-3,1.8-3.8,3.3c-0.5,1-0.3,2.2,0.3,3.1c0.6,0.9,1.4,1.6,2.2,2.3
			c0.8,0.7,1.6,1.3,2.6,1.7c0.9,0.3,1.9,0.3,2.9,0.3c3.8-0.2,7.6-1,11.2-2.4c1-0.4,1.9-0.8,2.7-1.4c2.7-1.9,3.6-5.9,2.2-8.8
			c-0.1-0.3-0.3-0.5-0.6-0.7c-0.4-0.3-1-0.2-1.6-0.1C108.9,536.2,108.4,536.1,107.9,535.9z"/>
	</g>
	<g id="XMLID_391_">
		<path class="st23" d="M80,518.8c0.8-4.6,5.4-8.1,10-8c5.4,0.1,11.4,5.3,11.6,10.8c0.1,3.3-1.2,6.1-2.3,9.1
			c-0.6,1.5-1.2,2.9-2.3,4.1s-2.6,2-4.1,1.9c-2.2-0.1-4-1.8-5.5-3.4c-1.6-1.8-3.2-3.8-4.7-5.7c-0.9-1.1-1.7-2.3-2.2-3.6
			C79.9,522.4,79.7,520.6,80,518.8z"/>
	</g>
	<g id="XMLID_389_">
		<path id="XMLID_390_" class="st2" d="M99.5,530.8c-1.6,4.1-5.2,8.1-9.8,5c-2.9-2-5.1-5.3-7.2-8.1c-2.1-2.8-3.2-5.4-2.8-8.9
			c0-0.2,0.4-0.2,0.4,0c-0.5,5.1,2.4,8.5,5.5,12.2c1.1,1.3,2.2,2.8,3.5,3.9c4.4,3.6,8.3,0.1,10-4.1
			C99.2,530.5,99.6,530.6,99.5,530.8L99.5,530.8z"/>
	</g>
	<g id="XMLID_388_">
		<path class="st18" d="M72.9,567.3c-1.7-7.9,1.5-16.1,6-22.9c0.7-1,1.3-2.1,2.3-2.8c3.7-2.7,7.8-1.6,7.8-1.6
			c2.1,4.4,7,7.2,11.8,6.7c0.9-0.1,1.9-0.3,2.7-0.8c0.9-0.5,1.7-1.2,2.3-2.1c1.7-2.2,2.7-5,2.7-7.7c3.4-0.7,6.9,0.3,10.1,1.7
			c1.7,0.8,3.5,1.7,4.8,3c1.8,1.8,2.8,4.1,3.7,6.5c1.8,5.3,2.8,11,3.6,16.6c-2.4,0.4-4.8,1.2-7.1,1.9c-1.2,0.4-2.4,0.8-3.7,1.2
			c-4.1,1.4-2.9,4-2.7,7.5c0.4,5.8,0.8,11.6,1.1,17.4c0.2,4.2,2.6,10.5-1.2,13.5c-1.5,1.2-3.4,1.9-5.3,2.4
			c-9.9,2.8-20.5,2.8-30.4,0.1c-1.2-0.3-2.5-0.8-3.5-1.7c-3.9-3.9-0.2-14.9,0.7-19.4c0.4-2,0.7-4,0.9-6.1c0.5-4.6,0.2-9.1,0.3-13.8
			C77.6,566.6,75.1,566.9,72.9,567.3z"/>
	</g>
	<g id="XMLID_386_">
		<path id="XMLID_387_" class="st2" d="M100.8,546.5c5.1-0.8,7.3-5.7,7.6-10.4c0-0.1,0.1-0.2,0.1-0.2c3.6-0.5,6.8,0.3,10.2,1.7
			c0.2,0.1,0.1,0.5-0.1,0.4c-2.3-0.9-8.1-3.5-9.9-0.7c-0.6,1-0.6,2.9-1.1,4.1c-1.3,3-3.4,5-6.7,5.5
			C100.6,547,100.5,546.6,100.8,546.5L100.8,546.5z"/>
	</g>
	<g id="XMLID_384_">
		<path id="XMLID_385_" class="st2" d="M81.3,608.2c-7.4-2.2-5.4-10.4-4.1-16.3c0.1-0.2,0.4-0.1,0.4,0.1c-1.2,5.6-3.4,13.7,3.8,15.8
			C81.6,607.9,81.5,608.3,81.3,608.2L81.3,608.2z"/>
	</g>
	<g id="XMLID_382_">
		<path id="XMLID_383_" class="st2" d="M117.1,605.7c-9.9,6.5-24.9,5.3-35.8,2.5c-0.2-0.1-0.1-0.4,0.1-0.4
			c10.8,2.7,25.7,3.9,35.5-2.5C117.1,605.2,117.3,605.5,117.1,605.7L117.1,605.7z"/>
	</g>
	<g>
		<path class="st32" d="M78.6,509.7c0.2-0.2,0.3-0.3,0.5-0.5c2.4-2.1,4.9-0.9,7.5-0.5c3.1,0.4,6.4,0.6,9.5,1.1
			c4,0.6,8.4,1.4,10.6,4.8c0.8,1.2,1.2,2.7,1.6,4.1c0.8,3.2,4.4,8.7,2.6,11.9c-0.4,0.7-1.4,1.3-2.2,0.9c-2.6-1.1-4.9-3.4-7.1-5.2
			c-3.4-2.9-5.9-3.6-10.3-3.3c-2.7,0.2-5.6,0.3-8-0.9c-1.7-0.9-3-2.4-4.2-3.8c-0.7-0.8-1.4-1.7-1.8-2.7
			C76.4,513.4,77.2,511.2,78.6,509.7z"/>
	</g>
	<g id="XMLID_378_">
		<path class="st23" d="M74.4,564.6l0.7-1.3c0.6,1.8,1.3,3.7,2.3,5.3c1.3,2,3.2,3.7,3.6,6c0.2,1.1,0,2.2-0.1,3.3
			c-0.2,1.6-0.5,3.2-0.7,4.9c-0.2,1.1-0.3,2.3-0.9,3.2c-0.6,1-1.6,1.8-2.7,1.7c-1.6-0.1-2.6-1.7-3.1-3.2
			C71.4,578.1,74.1,571.3,74.4,564.6z"/>
	</g>
	<g id="XMLID_368_">
		<polygon id="XMLID_377_" class="st1" points="78.8,536.2 84.2,548.2 70.7,554.2 66.4,549 		"/>
		<polygon id="XMLID_376_" class="st1" points="76.8,535 82.4,546.9 68.8,553 68.1,543.5 		"/>
		<polygon id="XMLID_375_" class="st1" points="74.7,534.3 82.1,546.6 66.7,552.3 72.7,537.4 		"/>
		<polygon id="XMLID_374_" class="st18" points="66.4,549 78.8,536.2 78.2,535.8 65.7,548.6 		"/>
		<polygon id="XMLID_373_" class="st18" points="66.4,548.8 76.9,535 76.3,534.8 65.7,548.6 		"/>
		<polygon id="XMLID_372_" class="st18" points="66.5,548.7 74.8,534.3 74.2,534.2 65.7,548.6 		"/>
		<path id="XMLID_371_" class="st33" d="M90.6,538.3l11.5,25.2c0.4,0.9,0,2.1-0.9,2.5l-20.6,9.6L66,548.8l22.5-11.3
			C89.3,537.1,90.2,537.5,90.6,538.3z"/>
		<polygon id="XMLID_370_" class="st34" points="66,548.8 73.7,534.3 72.7,534.3 64.8,548.8 		"/>
		<polygon id="XMLID_369_" class="st34" points="64.8,548.8 79.2,575.5 80.6,575.5 66,548.8 		"/>
	</g>
	<g id="XMLID_367_">
		<path class="st23" d="M95,575.6c-1.2-0.5-2.4-0.9-3.7-1.2c-1.1-0.3-2.2-0.4-3.2-0.9c-2.2-0.9-3.1-3.3-2.5-5.6
			c0.7-2.5,3.4-3.3,5.7-3.1c2.5,0.2,4.4,1.5,6.7,2.1c-0.5-1.1-1.8-1.8-1.8-2.9c0-0.3,0.1-0.6,0.4-0.7c0.4-0.2,0.8,0.2,1.1,0.5
			c2,2.2,3.5,5.1,6,6.6c2.6,1.7,5.2,3.3,8.2,4.1c1.1,0.3,2.4,0,3.5-0.2c1.1-0.2,2.2-0.7,2.9-1.5c0.6-0.7,0.8-1.5,1-2.3
			c0.1-0.7-0.6-2-0.4-2.7c0.5-1.3,3.9-1.7,5.1-2.1c2-0.7,3.4-1,5.4-1.7c1.5,6.2,0.4,12.9-4.4,17.5c-0.9,0.8-1.9,1.6-3,2.1
			c-5.5,2.5-12-0.3-17-2.9C101.7,579,98.5,577,95,575.6z"/>
	</g>
	
		<rect id="XMLID_366_" x="98.4" y="716.7" transform="matrix(-1 -4.499657e-11 4.499657e-11 -1 213.748 1436.5493)" class="st2" width="16.9" height="3.1"/>
	
		<linearGradient id="XMLID_70_" gradientUnits="userSpaceOnUse" x1="1097.5068" y1="712.8932" x2="1112.0656" y2="712.8932" gradientTransform="matrix(-1 0 0 1 1212 0)">
		<stop  offset="0" style="stop-color:#673AB7"/>
		<stop  offset="0.4457" style="stop-color:#9347A7"/>
		<stop  offset="0.797" style="stop-color:#B0509E"/>
		<stop  offset="1" style="stop-color:#BA539A"/>
	</linearGradient>
	<path id="XMLID_365_" class="st35" d="M107.2,709.1L107.2,709.1c4,0,7.3,3.3,7.3,7.3v0.4H99.9v-0.4
		C99.9,712.3,103.2,709.1,107.2,709.1z"/>
	<g id="XMLID_363_">
		<path id="XMLID_364_" class="st2" d="M119.9,567.2c-1.3,0.5-2.8,1.1-2.9,2.6c-0.1,1.2,0.2,2.4,0.3,3.5c0,0.2-0.4,0.2-0.4,0
			c-0.1-1.3-0.6-3-0.2-4.3c0.4-1.3,1.9-1.8,3.1-2.2C120,566.8,120.1,567.2,119.9,567.2L119.9,567.2z"/>
	</g>
	<g id="XMLID_361_">
		<path id="XMLID_362_" class="st2" d="M130.7,564.1c-3.7,0.6-7.2,2-10.8,3.1c-0.2,0.1-0.3-0.3-0.1-0.4c3.6-1.2,7.1-2.5,10.8-3.1
			C130.8,563.7,130.9,564.1,130.7,564.1L130.7,564.1z"/>
	</g>
	<g id="XMLID_359_">
		<path id="XMLID_360_" class="st2" d="M127.3,547.3c1.8,5.4,2.7,11,3.6,16.6c0,0.2-0.3,0.3-0.4,0.1c-0.8-5.6-1.8-11.2-3.6-16.6
			C126.8,547.1,127.2,547,127.3,547.3L127.3,547.3z"/>
	</g>
</g>
<g id="XMLID_7_">
	<g id="XMLID_335_">
		<path class="st2" d="M119.5,365.9c-4.8-6.9-13.4-8.8-20.8-4.9c-0.4,0.2-0.8-0.4-0.4-0.6c7.8-4.2,16.7-2.1,21.8,5.1
			C120.4,366,119.7,366.3,119.5,365.9L119.5,365.9z"/>
	</g>
	<g id="XMLID_334_">
		<path class="st2" d="M86.2,363.7c4,0.1,7,3.2,7.1,7.1c0,0.5-0.7,0.5-0.7,0c-0.1-3.5-2.8-6.3-6.4-6.4
			C85.7,364.4,85.7,363.7,86.2,363.7L86.2,363.7z"/>
	</g>
	<g id="XMLID_333_">
		<path class="st2" d="M89,364.5c3.8-10,14.1-16.2,24.7-12.5c4.7,1.6,8.6,5,10.9,9.4c1.1,2.2,1.3,4.7,3.2,5.6c1.5,0.7,4.8,0,6.5,0
			c0.5,0,0.5,0.7,0,0.7c-2.7,0-5.4,0-8.1,0c-0.2,0-0.3-0.1-0.4-0.3c-4.2-18.9-29.1-21-36.1-2.7C89.5,365.1,88.8,364.9,89,364.5
			L89,364.5z"/>
	</g>
	<g id="XMLID_331_">
		<path class="st2" d="M72.7,375c1.5-7.9,8.9-12.5,16.7-10.8c0.5,0.1,0.3,0.8-0.2,0.7c-7.4-1.7-14.3,2.8-15.8,10.3
			C73.4,375.7,72.6,375.5,72.7,375L72.7,375z"/>
	</g>
	<g id="XMLID_330_">
		<path class="st2" d="M50.3,384.4c2,0,3.9,0,5.9,0c1.1,0,2.7,0.3,3.8,0c1.5-0.4,0.7,0.1,1.1-1.5c1.6-6,6.2-8.2,12-8.2
			c0.5,0,0.5,0.7,0,0.7c-6,0-11.1,2.7-11.5,9.3c0,0.2-0.2,0.4-0.4,0.4c-3.6,0-7.3,0-10.9,0C49.8,385.2,49.8,384.4,50.3,384.4
			L50.3,384.4z"/>
	</g>
</g>
<g>
	<g>
		<path class="st23" d="M337.2,410.6c-1.7-1.1-3.7-1.8-5.9-1.8h-2.4c-1.1-7-7.2-12.4-14.5-12.4c-0.1,0-0.2,0-0.4,0l0.1-0.1
			c-0.6,0-1.1,0.1-1.7,0.2c-0.6,0.1-1.2,0.2-1.9,0.4c-2.3-7.4-8.5-13.1-16.2-14.6c0.2-16.7,13.8-30.2,30.5-30.2
			c16.9,0,30.5,13.7,30.5,30.5C355.4,395.1,347.9,405.8,337.2,410.6z"/>
	</g>
	<path class="st36" d="M350.7,385.5c0-16.9-13.7-30.5-30.5-30.5c-4.8,0-9.2,1.1-13.3,3.1c5-3.7,11.2-5.9,17.9-5.9
		c16.9,0,30.5,13.7,30.5,30.5c0,12.1-7,22.5-17.2,27.4C345.8,404.5,350.7,395.6,350.7,385.5z"/>
	<g id="XMLID_347_">
		<g id="XMLID_357_">
			<g id="XMLID_381_">
				<path class="st2" d="M275.9,398.2c5.7-8.1,15.8-10.5,24.5-5.8c0.4,0.2,0,0.9-0.4,0.6c-8.4-4.5-18.1-2.3-23.5,5.5
					C276.3,399,275.6,398.6,275.9,398.2L275.9,398.2z"/>
			</g>
			<g id="XMLID_380_">
				<path class="st2" d="M314.1,396.9c-4,0.1-7.1,3.2-7.2,7.2c0,0.5-0.8,0.5-0.7,0c0.1-4.4,3.6-7.9,8-8
					C314.6,396.1,314.6,396.9,314.1,396.9L314.1,396.9z"/>
			</g>
			<g id="XMLID_379_">
				<path class="st2" d="M310.2,397.2c-7.7-20.6-36.2-18.4-40.8,3.1c0,0.2-0.2,0.3-0.4,0.3c-3,0-6.1,0-9.1,0c-0.5,0-0.5-0.7,0-0.7
					c2,0,4.4,0.5,6.2,0c3.5-0.9,2.3-0.8,3.9-4.7c2.3-5.5,6.8-9.9,12.4-12c12-4.6,24.2,2.4,28.5,13.9
					C311.1,397.4,310.4,397.6,310.2,397.2L310.2,397.2z"/>
			</g>
			<g id="XMLID_358_">
				<path class="st2" d="M354.6,420.3c-4.1,0-8.2,0-12.3,0c-0.2,0-0.4-0.2-0.4-0.4c-0.7-7-6.5-10.6-13-10.6c-0.2,0-0.3-0.1-0.4-0.3
					c-2-8.4-9.3-13.4-17.9-11.6c-0.5,0.1-0.7-0.6-0.2-0.7c5.3-1.1,10.6-0.1,14.6,3.9c1.8,1.8,2.2,4,3.6,5.9c2,2.7,2.6,1.5,5.9,2.6
					c5,1.6,5.3,5,7.8,8.6c1.2,1.7-0.5,1,1.5,1.8c0.9,0.4,2.6,0,3.7,0c2.3,0,4.7,0,7,0C355.1,419.6,355.1,420.3,354.6,420.3
					L354.6,420.3z"/>
			</g>
		</g>
		<g id="XMLID_355_">
			<path class="st2" d="M325.4,338c0,2.9,0,5.9,0,8.8c0,0.5-0.7,0.5-0.7,0c0-2.9,0-5.9,0-8.8C324.6,337.5,325.4,337.5,325.4,338
				L325.4,338z"/>
		</g>
		<g id="XMLID_354_">
			<path class="st2" d="M303.2,343.7c1.5,2.5,2.9,5.1,4.4,7.6c0.2,0.4-0.4,0.8-0.6,0.4c-1.5-2.5-2.9-5.1-4.4-7.6
				C302.4,343.6,303,343.3,303.2,343.7L303.2,343.7z"/>
		</g>
		<g id="XMLID_353_">
			<path class="st2" d="M286.9,359.7c2.5,1.5,5.1,2.9,7.6,4.4c0.4,0.2,0,0.9-0.4,0.6c-2.5-1.5-5.1-2.9-7.6-4.4
				C286.2,360.1,286.5,359.4,286.9,359.7L286.9,359.7z"/>
		</g>
		<g id="XMLID_352_">
			<path class="st2" d="M363,404.6c-2.5-1.5-5.1-3-7.6-4.4c-0.4-0.2,0-0.9,0.4-0.6c2.5,1.5,5.1,3,7.6,4.4
				C363.8,404.2,363.4,404.8,363,404.6L363,404.6z"/>
		</g>
		<g id="XMLID_351_">
			<path class="st2" d="M369.1,382.6c-2.9,0-5.9,0-8.8,0c-0.5,0-0.5-0.8,0-0.7c2.9,0,5.9,0,8.8,0
				C369.6,381.9,369.6,382.6,369.1,382.6L369.1,382.6z"/>
		</g>
		<g id="XMLID_350_">
			<path class="st2" d="M363.5,360.5c-2.5,1.5-5.1,2.9-7.6,4.4c-0.4,0.2-0.8-0.4-0.4-0.6c2.5-1.5,5.1-2.9,7.6-4.4
				C363.5,359.6,363.9,360.2,363.5,360.5L363.5,360.5z"/>
		</g>
		<g id="XMLID_348_">
			<path class="st2" d="M347.5,344.1c-1.5,2.5-3,5.1-4.4,7.6c-0.2,0.4-0.9,0-0.6-0.4c1.5-2.5,3-5.1,4.4-7.6
				C347.1,343.3,347.8,343.7,347.5,344.1L347.5,344.1z"/>
		</g>
	</g>
</g>
<g id="XMLID_336_">
	<g id="XMLID_346_">
		<path class="st2" d="M221.1,372.3c2.7-3.8,7.4-4.9,11.5-2.7c0.4,0.2,0,0.9-0.4,0.6c-3.7-2-8-1-10.5,2.4
			C221.5,373.1,220.9,372.7,221.1,372.3L221.1,372.3z"/>
	</g>
	<g id="XMLID_345_">
		<path class="st2" d="M238.5,372.1c-1.7,0.1-3,1.4-3.1,3.1c0,0.5-0.8,0.5-0.7,0c0.1-2.2,1.7-3.8,3.9-3.9
			C238.9,371.4,238.9,372.1,238.5,372.1L238.5,372.1z"/>
	</g>
	<g id="XMLID_344_">
		<path class="st2" d="M236.8,372c-3.5-9.2-16.1-8.2-18.3,1.4c0,0.2-0.2,0.3-0.4,0.3c-1.4,0-2.8,0-4.2,0c-0.5,0-0.5-0.7,0-0.7
			c0.8,0,2.2,0.3,2.9,0c1.4-0.5,0.9-0.7,1.6-2.2c1.1-2.6,3.4-4.6,6-5.5c5.6-1.9,10.9,1.3,13,6.6C237.7,372.2,237,372.4,236.8,372
			L236.8,372z"/>
	</g>
	<g id="XMLID_343_">
		<path class="st2" d="M245.2,377.4c-0.7-3.8-4.2-6-7.9-5.2c-0.5,0.1-0.7-0.6-0.2-0.7c4.1-0.9,8,1.5,8.8,5.7
			C246,377.7,245.3,377.9,245.2,377.4L245.2,377.4z"/>
	</g>
</g>
<g id="XMLID_435_">
	<g id="XMLID_442_">
		<path class="st2" d="M395.8,448.2c2.7-3.8,7.4-4.9,11.5-2.7c0.4,0.2,0,0.9-0.4,0.6c-3.7-2-8-1-10.5,2.4
			C396.1,449,395.5,448.6,395.8,448.2L395.8,448.2z"/>
	</g>
	<g id="XMLID_440_">
		<path class="st2" d="M413.1,448.1c-1.7,0.1-3,1.4-3.1,3.1c0,0.5-0.8,0.5-0.7,0c0.1-2.2,1.7-3.8,3.9-3.9
			C413.6,447.3,413.6,448,413.1,448.1L413.1,448.1z"/>
	</g>
	<g id="XMLID_438_">
		<path class="st2" d="M411.4,447.9c-3.5-9.2-16.1-8.2-18.3,1.4c0,0.2-0.2,0.3-0.4,0.3c-1.4,0-2.8,0-4.2,0c-0.5,0-0.5-0.7,0-0.7
			c0.8,0,2.2,0.3,2.9,0c1.4-0.5,0.9-0.7,1.6-2.2c1.1-2.6,3.4-4.6,6-5.5c5.6-1.9,10.9,1.3,13,6.6
			C412.3,448.2,411.6,448.4,411.4,447.9L411.4,447.9z"/>
	</g>
	<g id="XMLID_436_">
		<path class="st2" d="M419.8,453.3c-0.7-3.8-4.2-6-7.9-5.2c-0.5,0.1-0.7-0.6-0.2-0.7c4.1-0.9,8,1.5,8.8,5.7
			C420.6,453.6,419.9,453.8,419.8,453.3L419.8,453.3z"/>
	</g>
</g>
<polygon id="XMLID_12_" class="st21" points="195.3,717.6 213.3,718.5 212.1,506.6 206.5,506.3 "/>
<g>
	<path class="st2" d="M634.7,720.2c-21.3,0-42.6,0-64,0c-50.9,0-101.8,0-152.7,0c-61.9,0-123.7,0-185.6,0c-53.3,0-106.5,0-159.8,0
		c-17.7,0-35.5,0-53.2,0c-8,0-17.1,1.3-25,0c-0.4-0.1-0.8,0-1.1,0c-0.3,0-0.3-0.5,0-0.5c21.3,0,42.6,0,64,0c50.9,0,101.8,0,152.7,0
		c61.9,0,123.7,0,185.6,0c53.3,0,106.5,0,159.8,0c17.7,0,35.5,0,53.2,0c7.6,0,17.6-1.9,25,0c0.3,0.1,0.8,0,1.1,0
		C635,719.7,635,720.2,634.7,720.2L634.7,720.2z"/>
</g>
<rect x="292.5" y="312.7" transform="matrix(-1 -4.482160e-11 4.482160e-11 -1 597.1694 627.8871)" class="st37" width="12.2" height="2.4"/>
</svg>
