<?xml version="1.0" encoding="utf-8"?>
<!-- Generator: Adobe Illustrator 21.0.0, SVG Export Plug-In . SVG Version: 6.00 Build 0)  -->
<svg version="1.1" id="OBJECTS" xmlns="http://www.w3.org/2000/svg" xmlns:xlink="http://www.w3.org/1999/xlink" x="0px" y="0px"
	 viewBox="0 0 750 500" style="enable-background:new 0 0 750 500;" xml:space="preserve">
<style type="text/css">
	.st0{clip-path:url(#SVGID_2_);fill:#FFFFFF;}
	.st1{clip-path:url(#SVGID_2_);}
	.st2{fill:url(#SVGID_3_);}
	.st3{fill:url(#SVGID_4_);}
	.st4{fill:url(#SVGID_5_);}
	.st5{opacity:0.5;fill:#CBD2D8;}
	.st6{fill:url(#SVGID_6_);}
	.st7{fill:none;stroke:#612BC0;stroke-miterlimit:10;}
	.st8{fill:#612BC0;}
	.st9{fill:none;stroke:#E05695;stroke-miterlimit:10;}
	.st10{fill:#E05695;}
	.st11{fill:#CBD2D8;}
	.st12{fill:#6C54E6;}
	.st13{fill:#FFFFFF;}
	.st14{fill:url(#SVGID_7_);}
	.st15{opacity:0.1;}
	.st16{fill:url(#SVGID_8_);}
	.st17{fill:#E1E9EB;}
	.st18{fill:#5409A5;}
	.st19{fill:#8B41AC;}
	.st20{fill:url(#SVGID_9_);}
	.st21{fill:url(#SVGID_10_);}
	.st22{fill:#A164BB;}
	.st23{display:none;}
	.st24{display:inline;fill:#FFFFFF;}
	.st25{font-family:'FiraSans-Book';}
	.st26{font-size:12.782px;}
	.st27{display:inline;}
	.st28{font-family:'Milkshake';}
	.st29{font-size:31.6869px;}
	.st30{fill:none;stroke:#000000;stroke-miterlimit:10;}
	.st31{font-family:'Lato-Heavy';}
	.st32{font-size:9.3502px;}
	.st33{font-family:'FiraSans-Heavy';}
	.st34{font-size:41.1409px;}
	.st35{font-family:'FiraSans-Medium';}
	.st36{fill:none;}
	.st37{font-family:'FiraSans-Regular';}
	.st38{font-size:13.0903px;}
	.st39{font-family:'FiraSans-Bold';}
</style>
<g>
	<g>
		<defs>
			<path id="SVGID_1_" d="M734.8,501.2H-21.7c-3.9,0-7-3.1-7-7V7c0-3.9,3.1-7,7-7h756.5c3.9,0,7,3.1,7,7v487.2
				C741.8,498,738.7,501.2,734.8,501.2z"/>
		</defs>
		<clipPath id="SVGID_2_">
			<use xlink:href="#SVGID_1_"  style="overflow:visible;"/>
		</clipPath>
		<path class="st0" d="M734.8,501.2H-21.7c-3.9,0-7-3.1-7-7V7c0-3.9,3.1-7,7-7h756.5c3.9,0,7,3.1,7,7v487.2
			C741.8,498,738.7,501.2,734.8,501.2z"/>
		<g class="st1">
			<g>
				<linearGradient id="SVGID_3_" gradientUnits="userSpaceOnUse" x1="392.707" y1="368.0836" x2="117.5176" y2="-82.9207">
					<stop  offset="0" style="stop-color:#E05695"/>
					<stop  offset="1" style="stop-color:#8B41AC"/>
				</linearGradient>
				<path class="st2" d="M-29.6,552.2c61.5-112.4,173.4-59.2,250-75.6c126-27,61.8-148.8,246.1-150.5
					c151.6-1.4,194.8-63,145.4-211.2C573.1-1.6,702.5-0.4,702.5-0.4h-732V552.2z"/>
				<g>
					
						<image style="overflow:visible;opacity:0.2;" width="717" height="513" xlink:href="C180548D.png"  transform="matrix(1 0 0 1 -41 -14)">
					</image>
					<g>
						<linearGradient id="SVGID_4_" gradientUnits="userSpaceOnUse" x1="369.3846" y1="332.0193" x2="116.3004" y2="-82.757">
							<stop  offset="0" style="stop-color:#612BC0"/>
							<stop  offset="1" style="stop-color:#8B41AC"/>
						</linearGradient>
						<path class="st3" d="M-29.6,481.1c64.3-96.3,155.5-31,227.2-46.4c118.1-25.3,64.9-138,237.6-139.6
							c142.1-1.3,180.9-67.8,137.6-174.5c-44.3-109.1,83.6-121,83.6-121h-686V481.1z"/>
					</g>
				</g>
			</g>
			<g>
				
					<image style="overflow:visible;opacity:0.3;" width="658" height="471" xlink:href="C180548F.png"  transform="matrix(1 0 0 1 -40 -14)">
				</image>
				<g>
					
						<linearGradient id="SVGID_5_" gradientUnits="userSpaceOnUse" x1="375.9938" y1="366.4563" x2="106.7214" y2="-74.8509" gradientTransform="matrix(0.9767 -0.2146 0.2146 0.9767 -58.7977 48.707)">
						<stop  offset="0" style="stop-color:#6C54E6"/>
						<stop  offset="1" style="stop-color:#612BC0"/>
					</linearGradient>
					<path class="st4" d="M598.6-0.4H-28.3v440c58.8-88,170.7-13.1,237.1-22.1c124.5-17,74.5-146.3,232.3-147.8
						c129.9-1.2,120.9-62.3,87.8-162.1C495.8,7.7,598.6-0.4,598.6-0.4z"/>
				</g>
			</g>
		</g>
	</g>
	<g>
		<ellipse class="st5" cx="512.5" cy="450.8" rx="139.2" ry="12.4"/>
		<g>
			<linearGradient id="SVGID_6_" gradientUnits="userSpaceOnUse" x1="327.6549" y1="357.6217" x2="405.4097" y2="357.6217">
				<stop  offset="0" style="stop-color:#6C54E6"/>
				<stop  offset="1" style="stop-color:#612BC0"/>
			</linearGradient>
			<path class="st6" d="M405.4,365v-14.7h-6.5c-0.8-3.7-2.3-7.2-4.3-10.3l4.6-4.6l-10.4-10.4l-4.6,4.6c-3.1-2-6.6-3.4-10.3-4.3v-6.5
				h-14.7v6.5c-3.7,0.8-7.2,2.3-10.3,4.3l-4.6-4.6l-10.4,10.4l4.6,4.6c-2,3.1-3.4,6.6-4.3,10.3h-6.5V365h6.5
				c0.8,3.7,2.3,7.2,4.3,10.3l-4.6,4.6l10.4,10.4l4.6-4.6c3.1,2,6.6,3.4,10.3,4.3v6.5h14.7V390c3.7-0.8,7.2-2.3,10.3-4.3l4.6,4.6
				l10.4-10.4l-4.6-4.6c2-3.1,3.4-6.6,4.3-10.3H405.4z M366.5,373.8c-8.9,0-16.2-7.3-16.2-16.2c0-8.9,7.2-16.2,16.2-16.2
				c8.9,0,16.2,7.2,16.2,16.2C382.7,366.6,375.5,373.8,366.5,373.8z"/>
			<g>
				<path class="st7" d="M631.8,413.8c11.1-34.1,32.9-64.7,61.4-86.4"/>
				<path class="st8" d="M638.3,365.1c-3.3-6.6,0.7-15.3,0.7-15.3s9.3,2.1,12.6,8.7c3.3,6.6-0.7,15.3-0.7,15.3
					S641.6,371.7,638.3,365.1z"/>
				<path class="st8" d="M667.2,361.6c7.4-0.1,13.5,7.3,13.5,7.3s-5.9,7.5-13.3,7.6c-7.4,0.1-13.5-7.3-13.5-7.3
					S659.7,361.7,667.2,361.6z"/>
				<path class="st8" d="M678.3,345.3c6.3-0.1,11.5,6.2,11.5,6.2s-5.1,6.4-11.4,6.5c-6.3,0.1-11.5-6.2-11.5-6.2
					S672,345.4,678.3,345.3z"/>
				<path class="st8" d="M657.2,343.9c-1.8-5.7,2.5-12.2,2.5-12.2s7.2,2.8,9,8.6c1.8,5.7-2.5,12.2-2.5,12.2S659,349.7,657.2,343.9z"
					/>
				<path class="st8" d="M675,329.5c-1.5-4.8,2.1-10.3,2.1-10.3s6.1,2.4,7.6,7.2c1.5,4.8-2.1,10.3-2.1,10.3S676.5,334.3,675,329.5z"
					/>
				<path class="st8" d="M693.9,332.6c4.9,1.3,7.6,7.2,7.6,7.2s-5.2,3.9-10.2,2.6c-4.9-1.3-7.6-7.2-7.6-7.2S689,331.3,693.9,332.6z"
					/>
				<path class="st8" d="M695.1,319.5c4-3.1,10.3-1.7,10.3-1.7s-0.1,6.5-4.1,9.6c-4,3.1-10.3,1.7-10.3,1.7S691.2,322.6,695.1,319.5z
					"/>
			</g>
			<g>
				<path class="st9" d="M432.6,253.7c-8.9-36.2-29.1-69.6-57-94.4"/>
				<path class="st10" d="M429.7,202.7c3.9-6.6,0.5-16,0.5-16s-9.8,1.4-13.8,8.1c-3.9,6.6-0.5,16-0.5,16S425.7,209.3,429.7,202.7z"
					/>
				<path class="st10" d="M400,196.8c-7.7-0.7-14.6,6.5-14.6,6.5s5.6,8.2,13.3,8.9c7.7,0.7,14.6-6.5,14.6-6.5S407.7,197.5,400,196.8
					z"/>
				<path class="st10" d="M389.7,179c-6.6-0.6-12.4,5.5-12.4,5.5s4.7,7,11.3,7.6c6.6,0.6,12.4-5.5,12.4-5.5S396.2,179.6,389.7,179z"
					/>
				<path class="st10" d="M411.7,179.2c2.3-5.8-1.6-12.9-1.6-12.9s-7.7,2.4-10,8.2c-2.3,5.8,1.6,12.9,1.6,12.9
					S409.4,185,411.7,179.2z"/>
				<path class="st10" d="M394.4,162.9c2-4.9-1.4-10.8-1.4-10.8s-6.5,2-8.4,6.9c-2,4.9,1.4,10.8,1.4,10.8S392.4,167.8,394.4,162.9z"
					/>
				<path class="st10" d="M374.5,164.6c-5.2,0.9-8.5,6.9-8.5,6.9s5.1,4.4,10.3,3.5c5.2-0.9,8.5-6.9,8.5-6.9S379.7,163.7,374.5,164.6
					z"/>
				<path class="st10" d="M374.3,150.9c-3.9-3.5-10.6-2.5-10.6-2.5s-0.4,6.8,3.5,10.3c3.9,3.5,10.6,2.5,10.6,2.5
					S378.1,154.5,374.3,150.9z"/>
			</g>
			<g>
				<path class="st11" d="M632.1,229.8H393c-10.6,0-19.2,8.6-19.2,19.2V400c0,10.6,8.6,19.2,19.2,19.2h239.1
					c10.6,0,19.2-8.6,19.2-19.2V249.1C651.3,238.4,642.7,229.8,632.1,229.8z"/>
				<path class="st12" d="M386.9,397.1V251.9c0-5,4-9,9-9h219c5,0,9,4,9,9v145.2c0,5-4,9-9,9h-219
					C390.9,406.1,386.9,402.1,386.9,397.1z"/>
				<circle class="st13" cx="637" cy="327" r="7.5"/>
			</g>
			<g>
				<path class="st10" d="M663.4,409.8l2.9,6.6c0.1,0.2,0.3,0.4,0.5,0.5l6.6,2.9c0.8,0.4,0.8,1.5,0,1.8l-6.6,2.9
					c-0.2,0.1-0.4,0.3-0.5,0.5l-2.9,6.6c-0.4,0.8-1.5,0.8-1.8,0l-2.9-6.6c-0.1-0.2-0.3-0.4-0.5-0.5l-6.6-2.9c-0.8-0.4-0.8-1.5,0-1.8
					l6.6-2.9c0.2-0.1,0.4-0.3,0.5-0.5l2.9-6.6C661.9,409,663.1,409,663.4,409.8z"/>
				<path class="st10" d="M637.2,391.4l2.3,5.4c0.1,0.2,0.2,0.3,0.4,0.4l5.4,2.3c0.7,0.3,0.7,1.2,0,1.5l-5.4,2.3
					c-0.2,0.1-0.3,0.2-0.4,0.4l-2.3,5.4c-0.3,0.7-1.2,0.7-1.5,0l-2.3-5.4c-0.1-0.2-0.2-0.3-0.4-0.4l-5.4-2.3c-0.7-0.3-0.7-1.2,0-1.5
					l5.4-2.3c0.2-0.1,0.3-0.2,0.4-0.4l2.3-5.4C636,390.8,636.9,390.8,637.2,391.4z"/>
				<path class="st10" d="M667.5,389.4l1.4,3.2c0,0.1,0.1,0.2,0.2,0.2l3.2,1.4c0.4,0.2,0.4,0.7,0,0.9l-3.2,1.4
					c-0.1,0-0.2,0.1-0.2,0.2l-1.4,3.2c-0.2,0.4-0.7,0.4-0.9,0l-1.4-3.2c0-0.1-0.1-0.2-0.2-0.2l-3.2-1.4c-0.4-0.2-0.4-0.7,0-0.9
					l3.2-1.4c0.1,0,0.2-0.1,0.2-0.2l1.4-3.2C666.7,389,667.3,389,667.5,389.4z"/>
			</g>
			<g>
				<path class="st13" d="M359.3,191.7l2.9,6.6c0.1,0.2,0.3,0.4,0.5,0.5l6.6,2.9c0.8,0.4,0.8,1.5,0,1.8l-6.6,2.9
					c-0.2,0.1-0.4,0.3-0.5,0.5l-2.9,6.6c-0.4,0.8-1.5,0.8-1.8,0l-2.9-6.6c-0.1-0.2-0.3-0.4-0.5-0.5l-6.6-2.9c-0.8-0.4-0.8-1.5,0-1.8
					l6.6-2.9c0.2-0.1,0.4-0.3,0.5-0.5l2.9-6.6C357.8,190.9,358.9,190.9,359.3,191.7z"/>
				<path class="st13" d="M351.2,228.5l2.3,5.4c0.1,0.2,0.2,0.3,0.4,0.4l5.4,2.3c0.7,0.3,0.7,1.2,0,1.5l-5.4,2.3
					c-0.2,0.1-0.3,0.2-0.4,0.4l-2.3,5.4c-0.3,0.7-1.2,0.7-1.5,0l-2.3-5.4c-0.1-0.2-0.2-0.3-0.4-0.4l-5.4-2.3c-0.7-0.3-0.7-1.2,0-1.5
					l5.4-2.3c0.2-0.1,0.3-0.2,0.4-0.4l2.3-5.4C350,227.9,351,227.9,351.2,228.5z"/>
				<path class="st13" d="M373.9,227.1l1.4,3.2c0,0.1,0.1,0.2,0.2,0.2l3.2,1.4c0.4,0.2,0.4,0.7,0,0.9l-3.2,1.4
					c-0.1,0-0.2,0.1-0.2,0.2l-1.4,3.2c-0.2,0.4-0.7,0.4-0.9,0l-1.4-3.2c0-0.1-0.1-0.2-0.2-0.2l-3.2-1.4c-0.4-0.2-0.4-0.7,0-0.9
					l3.2-1.4c0.1,0,0.2-0.1,0.2-0.2l1.4-3.2C373.2,226.7,373.8,226.7,373.9,227.1z"/>
			</g>
			<g>
				<linearGradient id="SVGID_7_" gradientUnits="userSpaceOnUse" x1="504.4985" y1="215.228" x2="577.6824" y2="215.228">
					<stop  offset="0" style="stop-color:#6C54E6"/>
					<stop  offset="1" style="stop-color:#612BC0"/>
				</linearGradient>
				<path class="st14" d="M577.7,213.7c0-20.7-17.2-37.4-38-36.6c-19,0.7-34.4,16.2-35.1,35.1c-0.8,20.9,15.9,38,36.6,38
					c2,0,3.9-0.2,5.8-0.5c0.9-0.1,1.8,0,2.6,0.3l8.5,3.2l1.4-6.1c0.3-1.3,1.1-2.5,2.2-3.2C571.3,237.4,577.7,226.3,577.7,213.7z"/>
			</g>
			<g>
				<g>
					<g>
						<g class="st15">
							<circle cx="641.6" cy="240.3" r="29.2"/>
						</g>
						<g>
							<linearGradient id="SVGID_8_" gradientUnits="userSpaceOnUse" x1="611.2896" y1="208.978" x2="674.9814" y2="272.6698">
								<stop  offset="0" style="stop-color:#E05695"/>
								<stop  offset="1" style="stop-color:#8B41AC"/>
							</linearGradient>
							<circle class="st16" cx="641.6" cy="239.3" r="29.2"/>
						</g>
					</g>
				</g>
				<g>
					<path class="st13" d="M651.5,231.2c-0.6-1.4,0-3.6-1.1-4.7c-1.1-1.1-3.3-0.5-4.7-1.1c-1.4-0.6-2.5-2.5-4.1-2.5
						c-1.6,0-2.7,2-4.1,2.5c-1.4,0.6-3.6,0-4.7,1.1c-1.1,1.1-0.5,3.3-1.1,4.7c-0.6,1.4-2.5,2.5-2.5,4.1c0,1.6,2,2.7,2.5,4.1
						c0.6,1.4,0,3.6,1.1,4.7c1.1,1.1,3.3,0.5,4.7,1.1c1.4,0.6,2.5,2.5,4.1,2.5c1.6,0,2.7-2,4.1-2.5c1.4-0.6,3.6,0,4.7-1.1
						c1.1-1.1,0.5-3.3,1.1-4.7c0.6-1.4,2.5-2.5,2.5-4.1C654,233.7,652,232.5,651.5,231.2z M641.6,242.5c-4,0-7.2-3.2-7.2-7.2
						c0-4,3.2-7.2,7.2-7.2c4,0,7.2,3.2,7.2,7.2C648.8,239.2,645.6,242.5,641.6,242.5z"/>
					<path class="st13" d="M641.6,249.7c-1.5,0-2.6-1.5-3.9-2.4v9.9l3.9-3l3.9,3v-9.9C644.2,248.3,643.1,249.7,641.6,249.7z"/>
				</g>
			</g>
			<g>
				<path class="st13" d="M549.5,209.9c0-5.1-4.6-9.2-9.9-8.3c-3.4,0.6-6.2,3.4-6.7,6.8c-0.5,2.9,0.5,5.5,2.4,7.3
					c1.4,1.4,2.2,3.2,2.2,5.1v0.6c0,1,0.8,1.8,1.8,1.8h3.8c1,0,1.8-0.8,1.8-1.8v-0.6c0-1.8,0.7-3.7,2-4.9
					C548.5,214.4,549.5,212.3,549.5,209.9z"/>
				<path class="st13" d="M544.1,224.5h-6c-0.5,0-0.9,0.4-0.9,0.9c0,0.5,0.4,0.9,0.9,0.9h6c0.5,0,0.9-0.4,0.9-0.9
					C545,224.9,544.6,224.5,544.1,224.5z"/>
				<path class="st13" d="M543.7,227.4h-5.3c-0.4,0-0.8,0.4-0.8,0.8c0,0.4,0.4,0.8,0.8,0.8h5.3c0.4,0,0.8-0.4,0.8-0.8
					C544.5,227.8,544.2,227.4,543.7,227.4z"/>
			</g>
			<g>
				<g>
					<rect x="406.2" y="258.6" class="st17" width="149" height="96.4"/>
					<rect x="406.2" y="258.6" class="st11" width="149" height="5.9"/>
					<g>
						<rect x="423.5" y="268.3" class="st12" width="114.4" height="67.1"/>
						<g>
							<rect x="471.8" y="295.5" class="st18" width="17.6" height="12.8"/>
							<polygon class="st13" points="484.3,301.9 477.1,297.7 477.1,306 							"/>
						</g>
						<g>
							<rect x="423.5" y="341.8" class="st11" width="44.6" height="3.5"/>
							<rect x="423.5" y="347.1" class="st11" width="66.9" height="2.1"/>
						</g>
						<circle class="st11" cx="523" cy="343.6" r="2"/>
						<circle class="st11" cx="528.7" cy="343.6" r="2"/>
						<circle class="st11" cx="534.5" cy="343.6" r="2"/>
					</g>
					<g>
						<circle class="st18" cx="410.4" cy="261.5" r="1.8"/>
						<circle class="st19" cx="415.1" cy="261.5" r="1.8"/>
						<circle class="st10" cx="419.9" cy="261.5" r="1.8"/>
					</g>
				</g>
				<g>
					<path class="st18" d="M490.2,364.3h-43.9c-1.5,0-2.6,1.2-2.6,2.6l0,0c0,1.5,1.2,2.6,2.6,2.6h43.9c1.5,0,2.6-1.2,2.6-2.6l0,0
						C492.8,365.5,491.6,364.3,490.2,364.3z"/>
					<path class="st18" d="M481.7,374.3h-35.4c-1.5,0-2.6,1.2-2.6,2.6l0,0c0,1.5,1.2,2.6,2.6,2.6h35.4c1.5,0,2.6-1.2,2.6-2.6l0,0
						C484.3,375.5,483.1,374.3,481.7,374.3z"/>
					<path class="st18" d="M470.2,385.2h-24c-1.5,0-2.6,1.2-2.6,2.6l0,0c0,1.5,1.2,2.6,2.6,2.6h24c1.5,0,2.6-1.2,2.6-2.6l0,0
						C472.8,386.4,471.7,385.2,470.2,385.2z"/>
				</g>
				<g>
					<g>
						<g class="st15">
							<circle cx="422.1" cy="376.7" r="13.7"/>
						</g>
						<g>
							<circle class="st17" cx="422.1" cy="375.7" r="13.7"/>
						</g>
					</g>
				</g>
			</g>
			<g>
				<path class="st13" d="M534.5,296.1c0,0-0.3-14.6-2.8-15c-2.5-0.4-1,8.6-1,8.6s-3.4-0.3-4.5,1.3c-1,1.6-1.5,8.6,1.5,9.5
					S534.5,296.1,534.5,296.1z"/>
				<linearGradient id="SVGID_9_" gradientUnits="userSpaceOnUse" x1="575.8662" y1="397.6006" x2="604.2535" y2="397.6006">
					<stop  offset="0" style="stop-color:#612BC0"/>
					<stop  offset="1" style="stop-color:#5409A5"/>
				</linearGradient>
				<path class="st20" d="M600.5,351.3c1.2,0.9-1.8,33-3,43.1c-1.2,10.1,6.7,49.4,6.7,49.4l-7.8-0.4c0,0-14-41.6-14.3-47
					c-0.3-5.4-6.2-40.4-6.2-40.4L600.5,351.3z"/>
				<linearGradient id="SVGID_10_" gradientUnits="userSpaceOnUse" x1="557.7339" y1="394.8882" x2="603.213" y2="394.8882">
					<stop  offset="0" style="stop-color:#612BC0"/>
					<stop  offset="1" style="stop-color:#5409A5"/>
				</linearGradient>
				<path class="st21" d="M603.2,351.3c0,0-5.1,15.5-12.8,22.6c-7.7,7.1-17.2,22.9-17.2,22.9l2.7,47l-8.7-0.1c0,0-9.4-47.2-9.4-51.3
					s12.8-46.4,12.8-46.4L603.2,351.3z"/>
				<path class="st13" d="M571.6,278.5c0,0-2.7,14,7.8,15.4c10.5,1.3,10.8-19.9,10.8-19.9s-12.6-3.7-13.4-2.5
					c-0.9,1.2-0.9,1.2-0.9,1.2L571.6,278.5z"/>
				<path class="st22" d="M577.6,291.9l-0.8,0.1c-4.8,0.3-8.4,4.8-11.4,8.6l-15.2,16.6l-15.8-21.1l-6.8,4.5c0,0,17.5,33,24.4,31.5
					c6.8-1.5,15.2-11,15.2-11s-1.8,29.2-2.7,33.1c0,0,27.6,12.3,38.9,0.7l-3.2-47.8c-0.8-5.8-5-10.5-10.6-12L577.6,291.9z"/>
				<path class="st10" d="M575.9,443.8v7.4H558c-1.4,0-1.9-1.8-0.7-2.5c3.1-1.8,7.2-4,9.9-5C571.9,441.9,575.9,443.8,575.9,443.8z"
					/>
				<path class="st10" d="M604.2,443.8v7.4H587c-1.6,0-2.1-2.1-0.8-2.9c3-1.7,6.7-3.7,9.2-4.7C600.2,441.9,604.2,443.8,604.2,443.8z
					"/>
				<path class="st10" d="M578.1,307.2c0,0-8.1-6.9-4.1-13.6c4-6.7,7.1-10.4,6.3-14.5c0,0-0.3-5.1-3.9-2c0,0-1.5,2.5-4.9,1.5
					c0,0-3-14.6,12.9-17.8c16.5-3.3,21.1,8.9,19.8,16.7c-1.3,7.8-7,8,0.1,17.9C611.5,305.3,597.3,322.3,578.1,307.2z"/>
			</g>
		</g>
	</g>
	<g class="st23">
		<text transform="matrix(1 0 0 1 173.7139 53.5972)" class="st24 st25 st26">COURSES</text>
		<text transform="matrix(1 0 0 1 246.6924 53.5972)" class="st24 st25 st26">BECOME A TEACHER</text>
		<text transform="matrix(1 0 0 1 381.6328 53.5972)" class="st24 st25 st26">blog</text>
		<text transform="matrix(1 0 0 1 438.3271 53.5972)" class="st24 st25 st26">Contact us</text>
		<g class="st27">
			<g>
				<g>
					<text transform="matrix(0.8221 0 0 1 22.3433 55.978)" class="st13 st28 st29">learningo</text>
				</g>
			</g>
		</g>
		<g class="st27">
			<g>
				<g>
					<g class="st15">
						<path class="st30" d="M681.4,60.5h-21c-5,0-9-4-9-9l0,0c0-5,4-9,9-9h21c5,0,9,4,9,9l0,0C690.4,56.4,686.4,60.5,681.4,60.5z"/>
					</g>
					<g>
						<path class="st7" d="M681.4,59.5h-21c-5,0-9-4-9-9l0,0c0-5,4-9,9-9h21c5,0,9,4,9,9l0,0C690.4,55.4,686.4,59.5,681.4,59.5z"/>
					</g>
				</g>
				<text transform="matrix(1 0 0 1 658.4287 54.0171)" class="st8 st31 st32">eng</text>
			</g>
			<polygon class="st8" points="682.6,52.6 684.7,49 680.5,49 			"/>
		</g>
		<g class="st27">
			<g>
				<text transform="matrix(1 0 0 1 26.0469 148.6929)"><tspan x="0" y="0" class="st13 st33 st34">E-learning</tspan><tspan x="0" y="37.4" class="st13 st35 st34">Services</tspan></text>
			</g>
			<rect x="29.3" y="219.7" class="st36" width="225.4" height="27.6"/>
			<text transform="matrix(1 0 0 1 29.3232 229.0308)"><tspan x="0" y="0" class="st13 st37 st38">Lorem ipsum dolor sit amet, </tspan><tspan x="0" y="15.3" class="st13 st37 st38">consectetuer nonummy nibh</tspan></text>
			<rect x="30.7" y="257.3" class="st36" width="245.2" height="51.4"/>
			<text transform="matrix(1 0 0 1 30.7104 263.9629)"><tspan x="0" y="0" class="st13 st25 st32">Lorem ipsum dolor sit amet, consectetuer adipiscing </tspan><tspan x="0" y="13.1" class="st13 st25 st32">elit, sed diam nonummy nibh euismod tincidunt ut laoreet </tspan><tspan x="0" y="26.2" class="st13 st25 st32">dolore magna aliquam erat volutpat. Ut wisi enim ad </tspan></text>
			<g>
				<g class="st15">
					<path d="M147.9,365.9H42.1c-7,0-12.8-5.7-12.8-12.8l0,0c0-7,5.7-12.8,12.8-12.8h105.8c7,0,12.8,5.7,12.8,12.8l0,0
						C160.6,360.2,154.9,365.9,147.9,365.9z"/>
				</g>
				<g>
					<path class="st13" d="M147.9,364.9H42.1c-7,0-12.8-5.7-12.8-12.8l0,0c0-7,5.7-12.8,12.8-12.8h105.8c7,0,12.8,5.7,12.8,12.8l0,0
						C160.6,359.2,154.9,364.9,147.9,364.9z"/>
				</g>
			</g>
			<text transform="matrix(1 0 0 1 61.709 356.5527)" class="st8 st39 st26">START NOW</text>
		</g>
		<g class="st27">
			<g class="st15">
				<path d="M631.1,45.1c-2.5-2.5-6.6-2.5-9.1,0c-2.5,2.5-2.5,6.6,0,9.1c2.1,2.1,5.2,2.4,7.6,1l4.5,4.4c0.7,0.7,1.8,0.7,2.4,0
					c0.7-0.7,0.7-1.8,0-2.4l-4.5-4.4C633.5,50.3,633.1,47.1,631.1,45.1z M629.3,52.3c-1.5,1.5-4,1.5-5.5,0s-1.5-4,0-5.5
					c1.5-1.5,4-1.5,5.5,0S630.8,50.8,629.3,52.3z"/>
			</g>
			<g>
				<g>
					<path class="st8" d="M631.1,44.1c-2.5-2.5-6.6-2.5-9.1,0c-2.5,2.5-2.5,6.6,0,9.1c2.1,2.1,5.2,2.4,7.6,1l4.5,4.4
						c0.7,0.7,1.8,0.7,2.4,0c0.7-0.7,0.7-1.8,0-2.4l-4.5-4.4C633.5,49.3,633.1,46.1,631.1,44.1z M629.3,51.3c-1.5,1.5-4,1.5-5.5,0
						s-1.5-4,0-5.5c1.5-1.5,4-1.5,5.5,0S630.8,49.8,629.3,51.3z"/>
				</g>
			</g>
		</g>
	</g>
</g>
</svg>
