<?xml version="1.0" encoding="utf-8"?>
<!-- Generator: Adobe Illustrator 21.0.0, SVG Export Plug-In . SVG Version: 6.00 Build 0)  -->
<svg version="1.1" id="Layer_1" xmlns="http://www.w3.org/2000/svg" xmlns:xlink="http://www.w3.org/1999/xlink" x="0px" y="0px"
	 viewBox="0 0 1920 1080" style="enable-background:new 0 0 1920 1080;" xml:space="preserve">
<style type="text/css">
	.st0{fill:#FFFFFF;}
	.st1{fill:url(#SVGID_1_);}
	.st2{fill:#F5B784;}
	.st3{fill:#2A2B3C;}
	.st4{fill:#F0BD4F;}
	.st5{fill:#E8E8E8;}
	.st6{fill:url(#SVGID_2_);}
	.st7{fill:url(#SVGID_3_);}
	.st8{fill:url(#SVGID_4_);}
	.st9{fill:url(#SVGID_5_);}
	.st10{fill:url(#SVGID_6_);}
	.st11{fill:url(#SVGID_7_);}
	.st12{fill:#61D6FF;}
	.st13{fill:url(#SVGID_8_);}
	.st14{fill:#50CCFF;}
	.st15{fill:#3F3B50;}
	.st16{fill:#DEE8EA;}
	.st17{fill:#7E452F;}
	.st18{fill:#E13738;}
	.st19{fill:#E66440;}
	.st20{fill:#EB9047;}
	.st21{fill:#F4E956;}
	.st22{fill:none;}
</style>
<symbol  id="New_Symbol_2" viewBox="-1.2 -1.2 2.3 2.3">
	<circle class="st0" cx="0" cy="0" r="1.2"/>
</symbol>
<linearGradient id="SVGID_1_" gradientUnits="userSpaceOnUse" x1="-11.4077" y1="1271.8363" x2="1925.0499" y2="-12.3427">
	<stop  offset="0" style="stop-color:#19E7FD"/>
	<stop  offset="0.5" style="stop-color:#1972FE"/>
	<stop  offset="1" style="stop-color:#140534"/>
</linearGradient>
<rect x="-1.5" y="-23.9" class="st1" width="1939.9" height="1291.7"/>
<g>
	
		<use xlink:href="#New_Symbol_2"  width="2.3" height="2.3" x="-1.2" y="-1.2" transform="matrix(-0.7671 0 0 0.7671 1508.1493 927.6105)" style="overflow:visible;"/>
	
		<use xlink:href="#New_Symbol_2"  width="2.3" height="2.3" x="-1.2" y="-1.2" transform="matrix(-2.0652 0 0 2.0652 1601.9897 727.9027)" style="overflow:visible;"/>
	
		<use xlink:href="#New_Symbol_2"  width="2.3" height="2.3" x="-1.2" y="-1.2" transform="matrix(-2.0456 0 0 2.0456 1574.2686 674.4347)" style="overflow:visible;"/>
	
		<use xlink:href="#New_Symbol_2"  width="2.3" height="2.3" x="-1.2" y="-1.2" transform="matrix(-0.6963 0 0 0.6963 1453.774 557.4186)" style="overflow:visible;"/>
	
		<use xlink:href="#New_Symbol_2"  width="2.3" height="2.3" x="-1.2" y="-1.2" transform="matrix(-2.0655 0 0 2.0655 1038.1492 648.1931)" style="overflow:visible;"/>
	
		<use xlink:href="#New_Symbol_2"  width="2.3" height="2.3" x="-1.2" y="-1.2" transform="matrix(-3.1613 0 0 3.1613 1002.2017 670.7464)" style="overflow:visible;"/>
	
		<use xlink:href="#New_Symbol_2"  width="2.3" height="2.3" x="-1.2" y="-1.2" transform="matrix(-3.2809 0 0 3.2809 1014.1819 535.2586)" style="overflow:visible;"/>
	
		<use xlink:href="#New_Symbol_2"  width="2.3" height="2.3" x="-1.2" y="-1.2" transform="matrix(-2.5152 0 0 2.5152 1051.7526 372.3358)" style="overflow:visible;"/>
	
		<use xlink:href="#New_Symbol_2"  width="2.3" height="2.3" x="-1.2" y="-1.2" transform="matrix(-2.8031 0 0 2.8031 1255.0405 303.3311)" style="overflow:visible;"/>
	
		<use xlink:href="#New_Symbol_2"  width="2.3" height="2.3" x="-1.2" y="-1.2" transform="matrix(-1.8285 0 0 1.8285 1303.8134 259.7094)" style="overflow:visible;"/>
	
		<use xlink:href="#New_Symbol_2"  width="2.3" height="2.3" x="-1.2" y="-1.2" transform="matrix(-2.0387 0 0 2.0387 1275.4943 225.8377)" style="overflow:visible;"/>
	
		<use xlink:href="#New_Symbol_2"  width="2.3" height="2.3" x="-1.2" y="-1.2" transform="matrix(-2.9295 0 0 2.9295 1197.666 283.4293)" style="overflow:visible;"/>
	
		<use xlink:href="#New_Symbol_2"  width="2.3" height="2.3" x="-1.2" y="-1.2" transform="matrix(-2.5729 0 0 2.5729 1081.4142 267.9294)" style="overflow:visible;"/>
	
		<use xlink:href="#New_Symbol_2"  width="2.3" height="2.3" x="-1.2" y="-1.2" transform="matrix(-1.891 0 0 1.891 865.8732 196.1469)" style="overflow:visible;"/>
	
		<use xlink:href="#New_Symbol_2"  width="2.3" height="2.3" x="-1.2" y="-1.2" transform="matrix(-2.048 0 0 2.048 795.3629 166.8934)" style="overflow:visible;"/>
	
		<use xlink:href="#New_Symbol_2"  width="2.3" height="2.3" x="-1.2" y="-1.2" transform="matrix(-2.1257 0 0 2.1257 757.8287 117.866)" style="overflow:visible;"/>
	
		<use xlink:href="#New_Symbol_2"  width="2.3" height="2.3" x="-1.2" y="-1.2" transform="matrix(-2.0906 0 0 2.0906 677.5031 101.6628)" style="overflow:visible;"/>
	
		<use xlink:href="#New_Symbol_2"  width="2.3" height="2.3" x="-1.2" y="-1.2" transform="matrix(-1.9487 0 0 1.9487 716.5395 192.5906)" style="overflow:visible;"/>
	
		<use xlink:href="#New_Symbol_2"  width="2.3" height="2.3" x="-1.2" y="-1.2" transform="matrix(-3.0318 0 0 3.0318 772.6481 346.3223)" style="overflow:visible;"/>
	
		<use xlink:href="#New_Symbol_2"  width="2.3" height="2.3" x="-1.2" y="-1.2" transform="matrix(-3.3764 0 0 3.3764 742.9205 460.0695)" style="overflow:visible;"/>
	
		<use xlink:href="#New_Symbol_2"  width="2.3" height="2.3" x="-1.2" y="-1.2" transform="matrix(-2.1404 0 0 2.1404 757.6507 545.9741)" style="overflow:visible;"/>
	
		<use xlink:href="#New_Symbol_2"  width="2.3" height="2.3" x="-1.2" y="-1.2" transform="matrix(-1.2645 0 0 1.2645 493.2939 608.6252)" style="overflow:visible;"/>
	
		<use xlink:href="#New_Symbol_2"  width="2.3" height="2.3" x="-1.2" y="-1.2" transform="matrix(-1.2195 0 0 1.2195 596.7406 774.7314)" style="overflow:visible;"/>
	
		<use xlink:href="#New_Symbol_2"  width="2.3" height="2.3" x="-1.2" y="-1.2" transform="matrix(-2.5588 0 0 2.5588 442.1501 888.0575)" style="overflow:visible;"/>
	
		<use xlink:href="#New_Symbol_2"  width="2.3" height="2.3" x="-1.2" y="-1.2" transform="matrix(-2.4582 0 0 2.4582 261.3135 902.9817)" style="overflow:visible;"/>
	
		<use xlink:href="#New_Symbol_2"  width="2.3" height="2.3" x="-1.2" y="-1.2" transform="matrix(-1.7031 0 0 1.7031 214.8974 712.8696)" style="overflow:visible;"/>
	
		<use xlink:href="#New_Symbol_2"  width="2.3" height="2.3" x="-1.2" y="-1.2" transform="matrix(-2.284 0 0 2.284 107.8785 610.3315)" style="overflow:visible;"/>
	
		<use xlink:href="#New_Symbol_2"  width="2.3" height="2.3" x="-1.2" y="-1.2" transform="matrix(-1.6836 0 0 1.6836 -4.8066 610.168)" style="overflow:visible;"/>
	
		<use xlink:href="#New_Symbol_2"  width="2.3" height="2.3" x="-1.2" y="-1.2" transform="matrix(-1.4853 0 0 1.4853 5.8564 691.4715)" style="overflow:visible;"/>
	
		<use xlink:href="#New_Symbol_2"  width="2.3" height="2.3" x="-1.2" y="-1.2" transform="matrix(-1.0783 0 0 1.0783 98.5157 823.4181)" style="overflow:visible;"/>
	
		<use xlink:href="#New_Symbol_2"  width="2.3" height="2.3" x="-1.2" y="-1.2" transform="matrix(-1.4043 0 0 1.4043 140.606 934.4416)" style="overflow:visible;"/>
	
		<use xlink:href="#New_Symbol_2"  width="2.3" height="2.3" x="-1.2" y="-1.2" transform="matrix(-3.4351 0 0 3.4351 372.2522 988.719)" style="overflow:visible;"/>
	
		<use xlink:href="#New_Symbol_2"  width="2.3" height="2.3" x="-1.2" y="-1.2" transform="matrix(-2.8889 0 0 2.8889 447.0925 943.8669)" style="overflow:visible;"/>
	
		<use xlink:href="#New_Symbol_2"  width="2.3" height="2.3" x="-1.2" y="-1.2" transform="matrix(-1.3929 0 0 1.3929 597.3342 816.4674)" style="overflow:visible;"/>
	
		<use xlink:href="#New_Symbol_2"  width="2.3" height="2.3" x="-1.2" y="-1.2" transform="matrix(-2.4877 0 0 2.4877 908.7766 726.5884)" style="overflow:visible;"/>
	
		<use xlink:href="#New_Symbol_2"  width="2.3" height="2.3" x="-1.2" y="-1.2" transform="matrix(-2.5966 0 0 2.5966 1096.0204 884.3259)" style="overflow:visible;"/>
	
		<use xlink:href="#New_Symbol_2"  width="2.3" height="2.3" x="-1.2" y="-1.2" transform="matrix(-2.092 0 0 2.092 1343.3682 868.5968)" style="overflow:visible;"/>
	
		<use xlink:href="#New_Symbol_2"  width="2.3" height="2.3" x="-1.2" y="-1.2" transform="matrix(-1.7653 0 0 1.7653 1132.6295 779.9311)" style="overflow:visible;"/>
	
		<use xlink:href="#New_Symbol_2"  width="2.3" height="2.3" x="-1.2" y="-1.2" transform="matrix(-1.62 0 0 1.62 1162.5742 721.546)" style="overflow:visible;"/>
	
		<use xlink:href="#New_Symbol_2"  width="2.3" height="2.3" x="-1.2" y="-1.2" transform="matrix(-1.6994 0 0 1.6994 993.1284 859.4779)" style="overflow:visible;"/>
	
		<use xlink:href="#New_Symbol_2"  width="2.3" height="2.3" x="-1.2" y="-1.2" transform="matrix(-1.2895 0 0 1.2895 692.6719 750.3334)" style="overflow:visible;"/>
	
		<use xlink:href="#New_Symbol_2"  width="2.3" height="2.3" x="-1.2" y="-1.2" transform="matrix(-1.102 0 0 1.102 472.1332 643.2726)" style="overflow:visible;"/>
	
		<use xlink:href="#New_Symbol_2"  width="2.3" height="2.3" x="-1.2" y="-1.2" transform="matrix(-1.4853 0 0 1.4853 596.5524 604.5107)" style="overflow:visible;"/>
	
		<use xlink:href="#New_Symbol_2"  width="2.3" height="2.3" x="-1.2" y="-1.2" transform="matrix(-1.6331 0 0 1.6331 585.6909 585.016)" style="overflow:visible;"/>
	
		<use xlink:href="#New_Symbol_2"  width="2.3" height="2.3" x="-1.2" y="-1.2" transform="matrix(-1.6767 0 0 1.6767 476.7328 563.4177)" style="overflow:visible;"/>
	
		<use xlink:href="#New_Symbol_2"  width="2.3" height="2.3" x="-1.2" y="-1.2" transform="matrix(-1.6358 0 0 1.6358 506.4298 563.6822)" style="overflow:visible;"/>
	
		<use xlink:href="#New_Symbol_2"  width="2.3" height="2.3" x="-1.2" y="-1.2" transform="matrix(-3.3465 0 0 3.3465 801.3063 461.7201)" style="overflow:visible;"/>
	
		<use xlink:href="#New_Symbol_2"  width="2.3" height="2.3" x="-1.2" y="-1.2" transform="matrix(-1.5049 0 0 1.5049 1121.0322 459.3224)" style="overflow:visible;"/>
	
		<use xlink:href="#New_Symbol_2"  width="2.3" height="2.3" x="-1.2" y="-1.2" transform="matrix(-1.0779 0 0 1.0779 1169.8529 612.8439)" style="overflow:visible;"/>
	
		<use xlink:href="#New_Symbol_2"  width="2.3" height="2.3" x="-1.2" y="-1.2" transform="matrix(-1.7234 0 0 1.7234 1505.879 876.4)" style="overflow:visible;"/>
	
		<use xlink:href="#New_Symbol_2"  width="2.3" height="2.3" x="-1.2" y="-1.2" transform="matrix(-1.2274 0 0 1.2274 1524.751 964.8771)" style="overflow:visible;"/>
	
		<use xlink:href="#New_Symbol_2"  width="2.3" height="2.3" x="-1.2" y="-1.2" transform="matrix(-1.461 0 0 1.461 1619.1375 926.4124)" style="overflow:visible;"/>
	
		<use xlink:href="#New_Symbol_2"  width="2.3" height="2.3" x="-1.2" y="-1.2" transform="matrix(-2.4819 0 0 2.4819 1579.5305 970.9882)" style="overflow:visible;"/>
	
		<use xlink:href="#New_Symbol_2"  width="2.3" height="2.3" x="-1.2" y="-1.2" transform="matrix(-2.1531 0 0 2.1531 1032.8412 830.3488)" style="overflow:visible;"/>
	
		<use xlink:href="#New_Symbol_2"  width="2.3" height="2.3" x="-1.2" y="-1.2" transform="matrix(-1.3321 0 0 1.3321 1759.87 721.2262)" style="overflow:visible;"/>
	
		<use xlink:href="#New_Symbol_2"  width="2.3" height="2.3" x="-1.2" y="-1.2" transform="matrix(-1.6183 0 0 1.6183 1786.6169 713.5886)" style="overflow:visible;"/>
	
		<use xlink:href="#New_Symbol_2"  width="2.3" height="2.3" x="-1.2" y="-1.2" transform="matrix(-2.2266 0 0 2.2266 1827.0476 706.3301)" style="overflow:visible;"/>
	
		<use xlink:href="#New_Symbol_2"  width="2.3" height="2.3" x="-1.2" y="-1.2" transform="matrix(-2.7787 0 0 2.7787 1505.4799 631.3345)" style="overflow:visible;"/>
	
		<use xlink:href="#New_Symbol_2"  width="2.3" height="2.3" x="-1.2" y="-1.2" transform="matrix(-3.1139 0 0 3.1139 1533.4724 589.4531)" style="overflow:visible;"/>
	
		<use xlink:href="#New_Symbol_2"  width="2.3" height="2.3" x="-1.2" y="-1.2" transform="matrix(-2.6018 0 0 2.6018 1346.9232 609.574)" style="overflow:visible;"/>
	
		<use xlink:href="#New_Symbol_2"  width="2.3" height="2.3" x="-1.2" y="-1.2" transform="matrix(-2.2236 0 0 2.2236 1596.0944 664.6263)" style="overflow:visible;"/>
	
		<use xlink:href="#New_Symbol_2"  width="2.3" height="2.3" x="-1.2" y="-1.2" transform="matrix(-1.8608 0 0 1.8608 1795.4287 667.1824)" style="overflow:visible;"/>
	
		<use xlink:href="#New_Symbol_2"  width="2.3" height="2.3" x="-1.2" y="-1.2" transform="matrix(-1.4816 0 0 1.4816 1687.2944 743.8083)" style="overflow:visible;"/>
	
		<use xlink:href="#New_Symbol_2"  width="2.3" height="2.3" x="-1.2" y="-1.2" transform="matrix(-1.3734 0 0 1.3734 1890.9498 749.175)" style="overflow:visible;"/>
	
		<use xlink:href="#New_Symbol_2"  width="2.3" height="2.3" x="-1.2" y="-1.2" transform="matrix(-1.2827 0 0 1.2827 1935.5659 762.8087)" style="overflow:visible;"/>
	
		<use xlink:href="#New_Symbol_2"  width="2.3" height="2.3" x="-1.2" y="-1.2" transform="matrix(-1.0467 0 0 1.0467 1900.0458 766.2043)" style="overflow:visible;"/>
	
		<use xlink:href="#New_Symbol_2"  width="2.3" height="2.3" x="-1.2" y="-1.2" transform="matrix(-0.7712 0 0 0.7712 1499.204 852.3026)" style="overflow:visible;"/>
	
		<use xlink:href="#New_Symbol_2"  width="2.3" height="2.3" x="-1.2" y="-1.2" transform="matrix(-1.068 0 0 1.068 1725.3896 738.3276)" style="overflow:visible;"/>
	
		<use xlink:href="#New_Symbol_2"  width="2.3" height="2.3" x="-1.2" y="-1.2" transform="matrix(-2.6358 0 0 2.6358 1276.2527 597.412)" style="overflow:visible;"/>
	
		<use xlink:href="#New_Symbol_2"  width="2.3" height="2.3" x="-1.2" y="-1.2" transform="matrix(-2.5623 0 0 2.5623 1369.5287 419.2084)" style="overflow:visible;"/>
	
		<use xlink:href="#New_Symbol_2"  width="2.3" height="2.3" x="-1.2" y="-1.2" transform="matrix(-2.093 0 0 2.093 1329.7665 375.1667)" style="overflow:visible;"/>
	
		<use xlink:href="#New_Symbol_2"  width="2.3" height="2.3" x="-1.2" y="-1.2" transform="matrix(-1.2109 0 0 1.2109 1298.1829 413.211)" style="overflow:visible;"/>
	
		<use xlink:href="#New_Symbol_2"  width="2.3" height="2.3" x="-1.2" y="-1.2" transform="matrix(-2.6629 0 0 2.6629 1256.9971 398.8192)" style="overflow:visible;"/>
	
		<use xlink:href="#New_Symbol_2"  width="2.3" height="2.3" x="-1.2" y="-1.2" transform="matrix(-3.2513 0 0 3.2513 1189.7834 304.5512)" style="overflow:visible;"/>
	
		<use xlink:href="#New_Symbol_2"  width="2.3" height="2.3" x="-1.2" y="-1.2" transform="matrix(-2.2033 0 0 2.2033 1102.5948 220.7177)" style="overflow:visible;"/>
	
		<use xlink:href="#New_Symbol_2"  width="2.3" height="2.3" x="-1.2" y="-1.2" transform="matrix(-2.0068 0 0 2.0068 924.8066 232.5888)" style="overflow:visible;"/>
	
		<use xlink:href="#New_Symbol_2"  width="2.3" height="2.3" x="-1.2" y="-1.2" transform="matrix(-2.0291 0 0 2.0291 892.8558 230.2491)" style="overflow:visible;"/>
	
		<use xlink:href="#New_Symbol_2"  width="2.3" height="2.3" x="-1.2" y="-1.2" transform="matrix(-2.251 0 0 2.251 763.0325 199.512)" style="overflow:visible;"/>
	
		<use xlink:href="#New_Symbol_2"  width="2.3" height="2.3" x="-1.2" y="-1.2" transform="matrix(-2.2095 0 0 2.2095 744.9164 138.4698)" style="overflow:visible;"/>
	
		<use xlink:href="#New_Symbol_2"  width="2.3" height="2.3" x="-1.2" y="-1.2" transform="matrix(-2.3218 0 0 2.3218 723.5413 87.2872)" style="overflow:visible;"/>
	
		<use xlink:href="#New_Symbol_2"  width="2.3" height="2.3" x="-1.2" y="-1.2" transform="matrix(-2.2236 0 0 2.2236 654.1415 74.9269)" style="overflow:visible;"/>
	
		<use xlink:href="#New_Symbol_2"  width="2.3" height="2.3" x="-1.2" y="-1.2" transform="matrix(-2.3252 0 0 2.3252 643.1371 62.6546)" style="overflow:visible;"/>
	
		<use xlink:href="#New_Symbol_2"  width="2.3" height="2.3" x="-1.2" y="-1.2" transform="matrix(-2.5805 0 0 2.5805 642.6689 41.5389)" style="overflow:visible;"/>
	
		<use xlink:href="#New_Symbol_2"  width="2.3" height="2.3" x="-1.2" y="-1.2" transform="matrix(-2.9336 0 0 2.9336 823.7219 352.1163)" style="overflow:visible;"/>
	
		<use xlink:href="#New_Symbol_2"  width="2.3" height="2.3" x="-1.2" y="-1.2" transform="matrix(-2.5602 0 0 2.5602 1117.6675 368.9502)" style="overflow:visible;"/>
	
		<use xlink:href="#New_Symbol_2"  width="2.3" height="2.3" x="-1.2" y="-1.2" transform="matrix(-1.1233 0 0 1.1233 1338.3165 481.5267)" style="overflow:visible;"/>
	
		<use xlink:href="#New_Symbol_2"  width="2.3" height="2.3" x="-1.2" y="-1.2" transform="matrix(-0.6781 0 0 0.6781 1425.6425 559.4408)" style="overflow:visible;"/>
	
		<use xlink:href="#New_Symbol_2"  width="2.3" height="2.3" x="-1.2" y="-1.2" transform="matrix(-0.9254 0 0 0.9254 1244.067 572.0457)" style="overflow:visible;"/>
	
		<use xlink:href="#New_Symbol_2"  width="2.3" height="2.3" x="-1.2" y="-1.2" transform="matrix(-1.3359 0 0 1.3359 1072.5155 657.978)" style="overflow:visible;"/>
	
		<use xlink:href="#New_Symbol_2"  width="2.3" height="2.3" x="-1.2" y="-1.2" transform="matrix(-1.9917 0 0 1.9917 1347.1866 845.5722)" style="overflow:visible;"/>
	
		<use xlink:href="#New_Symbol_2"  width="2.3" height="2.3" x="-1.2" y="-1.2" transform="matrix(-3.2215 0 0 3.2215 1390.8842 914.1472)" style="overflow:visible;"/>
	
		<use xlink:href="#New_Symbol_2"  width="2.3" height="2.3" x="-1.2" y="-1.2" transform="matrix(-3.4351 0 0 3.4351 1439.6632 930.7602)" style="overflow:visible;"/>
	
		<use xlink:href="#New_Symbol_2"  width="2.3" height="2.3" x="-1.2" y="-1.2" transform="matrix(-2.1686 0 0 2.1686 1592.9406 981.1929)" style="overflow:visible;"/>
	
		<use xlink:href="#New_Symbol_2"  width="2.3" height="2.3" x="-1.2" y="-1.2" transform="matrix(-2.1933 0 0 2.1933 1633.7302 961.5138)" style="overflow:visible;"/>
	
		<use xlink:href="#New_Symbol_2"  width="2.3" height="2.3" x="-1.2" y="-1.2" transform="matrix(-2.5083 0 0 2.5083 1786.1301 905.442)" style="overflow:visible;"/>
	
		<use xlink:href="#New_Symbol_2"  width="2.3" height="2.3" x="-1.2" y="-1.2" transform="matrix(-1.8694 0 0 1.8694 1785.6421 874.3788)" style="overflow:visible;"/>
	
		<use xlink:href="#New_Symbol_2"  width="2.3" height="2.3" x="-1.2" y="-1.2" transform="matrix(-1.3929 0 0 1.3929 1756.4211 866.7089)" style="overflow:visible;"/>
	
		<use xlink:href="#New_Symbol_2"  width="2.3" height="2.3" x="-1.2" y="-1.2" transform="matrix(-1.236 0 0 1.236 1824.4813 851.2123)" style="overflow:visible;"/>
	
		<use xlink:href="#New_Symbol_2"  width="2.3" height="2.3" x="-1.2" y="-1.2" transform="matrix(-1.1525 0 0 1.1525 1839.9668 867.5412)" style="overflow:visible;"/>
	
		<use xlink:href="#New_Symbol_2"  width="2.3" height="2.3" x="-1.2" y="-1.2" transform="matrix(-1.2281 0 0 1.2281 1840.1891 902.6777)" style="overflow:visible;"/>
	
		<use xlink:href="#New_Symbol_2"  width="2.3" height="2.3" x="-1.2" y="-1.2" transform="matrix(-1.4458 0 0 1.4458 1872.2539 937.8492)" style="overflow:visible;"/>
	
		<use xlink:href="#New_Symbol_2"  width="2.3" height="2.3" x="-1.2" y="-1.2" transform="matrix(-1.5644 0 0 1.5644 1905.0092 959.7605)" style="overflow:visible;"/>
	
		<use xlink:href="#New_Symbol_2"  width="2.3" height="2.3" x="-1.2" y="-1.2" transform="matrix(-1.6533 0 0 1.6533 1858.6748 922.8948)" style="overflow:visible;"/>
	
		<use xlink:href="#New_Symbol_2"  width="2.3" height="2.3" x="-1.2" y="-1.2" transform="matrix(-1.8563 0 0 1.8563 1936.4402 931.8728)" style="overflow:visible;"/>
	
		<use xlink:href="#New_Symbol_2"  width="2.3" height="2.3" x="-1.2" y="-1.2" transform="matrix(-0.8835 0 0 0.8835 1910.4047 838.119)" style="overflow:visible;"/>
	
		<use xlink:href="#New_Symbol_2"  width="2.3" height="2.3" x="-1.2" y="-1.2" transform="matrix(-1.2524 0 0 1.2524 1705.0461 743.1403)" style="overflow:visible;"/>
	
		<use xlink:href="#New_Symbol_2"  width="2.3" height="2.3" x="-1.2" y="-1.2" transform="matrix(-1.8268 0 0 1.8268 1382.1915 450.6075)" style="overflow:visible;"/>
	
		<use xlink:href="#New_Symbol_2"  width="2.3" height="2.3" x="-1.2" y="-1.2" transform="matrix(-1.7639 0 0 1.7639 1308.0101 326.3323)" style="overflow:visible;"/>
	
		<use xlink:href="#New_Symbol_2"  width="2.3" height="2.3" x="-1.2" y="-1.2" transform="matrix(-2.3369 0 0 2.3369 1185.2316 244.181)" style="overflow:visible;"/>
	
		<use xlink:href="#New_Symbol_2"  width="2.3" height="2.3" x="-1.2" y="-1.2" transform="matrix(-1.5369 0 0 1.5369 921.041 147.7636)" style="overflow:visible;"/>
	
		<use xlink:href="#New_Symbol_2"  width="2.3" height="2.3" x="-1.2" y="-1.2" transform="matrix(-1.7237 0 0 1.7237 818.0938 60.5983)" style="overflow:visible;"/>
	
		<use xlink:href="#New_Symbol_2"  width="2.3" height="2.3" x="-1.2" y="-1.2" transform="matrix(-2.5283 0 0 2.5283 710.4813 -17.1825)" style="overflow:visible;"/>
	
		<use xlink:href="#New_Symbol_2"  width="2.3" height="2.3" x="-1.2" y="-1.2" transform="matrix(-2.7052 0 0 2.7052 687.5519 -16.4587)" style="overflow:visible;"/>
	
		<use xlink:href="#New_Symbol_2"  width="2.3" height="2.3" x="-1.2" y="-1.2" transform="matrix(-2.8477 0 0 2.8477 671.5047 -18.1261)" style="overflow:visible;"/>
	
		<use xlink:href="#New_Symbol_2"  width="2.3" height="2.3" x="-1.2" y="-1.2" transform="matrix(-2.115 0 0 2.115 149.3542 129.3826)" style="overflow:visible;"/>
	
		<use xlink:href="#New_Symbol_2"  width="2.3" height="2.3" x="-1.2" y="-1.2" transform="matrix(-2.0889 0 0 2.0889 147.2333 144.1)" style="overflow:visible;"/>
	
		<use xlink:href="#New_Symbol_2"  width="2.3" height="2.3" x="-1.2" y="-1.2" transform="matrix(-1.9728 0 0 1.9728 61.4645 181.5267)" style="overflow:visible;"/>
	
		<use xlink:href="#New_Symbol_2"  width="2.3" height="2.3" x="-1.2" y="-1.2" transform="matrix(-1.5458 0 0 1.5458 0.2056 180.941)" style="overflow:visible;"/>
	
		<use xlink:href="#New_Symbol_2"  width="2.3" height="2.3" x="-1.2" y="-1.2" transform="matrix(-1.4994 0 0 1.4994 -11.1186 122.8558)" style="overflow:visible;"/>
	
		<use xlink:href="#New_Symbol_2"  width="2.3" height="2.3" x="-1.2" y="-1.2" transform="matrix(-1.4974 0 0 1.4974 25.7014 61.9023)" style="overflow:visible;"/>
	
		<use xlink:href="#New_Symbol_2"  width="2.3" height="2.3" x="-1.2" y="-1.2" transform="matrix(-1.7172 0 0 1.7172 71.0289 66.2869)" style="overflow:visible;"/>
	
		<use xlink:href="#New_Symbol_2"  width="2.3" height="2.3" x="-1.2" y="-1.2" transform="matrix(-1.8618 0 0 1.8618 96.6965 66.0021)" style="overflow:visible;"/>
	
		<use xlink:href="#New_Symbol_2"  width="2.3" height="2.3" x="-1.2" y="-1.2" transform="matrix(-1.9443 0 0 1.9443 105.3056 77.9285)" style="overflow:visible;"/>
	
		<use xlink:href="#New_Symbol_2"  width="2.3" height="2.3" x="-1.2" y="-1.2" transform="matrix(-1.9955 0 0 1.9955 125.8075 -24.658)" style="overflow:visible;"/>
	
		<use xlink:href="#New_Symbol_2"  width="2.3" height="2.3" x="-1.2" y="-1.2" transform="matrix(-2.0271 0 0 2.0271 132.0687 -13.1005)" style="overflow:visible;"/>
	
		<use xlink:href="#New_Symbol_2"  width="2.3" height="2.3" x="-1.2" y="-1.2" transform="matrix(-1.7708 0 0 1.7708 92.518 -9.4562)" style="overflow:visible;"/>
	
		<use xlink:href="#New_Symbol_2"  width="2.3" height="2.3" x="-1.2" y="-1.2" transform="matrix(-1.676 0 0 1.676 78.333 5.2733)" style="overflow:visible;"/>
	
		<use xlink:href="#New_Symbol_2"  width="2.3" height="2.3" x="-1.2" y="-1.2" transform="matrix(-1.5506 0 0 1.5506 1080.9333 420.669)" style="overflow:visible;"/>
	
		<use xlink:href="#New_Symbol_2"  width="2.3" height="2.3" x="-1.2" y="-1.2" transform="matrix(-0.9124 0 0 0.9124 1351.3462 482.5222)" style="overflow:visible;"/>
	
		<use xlink:href="#New_Symbol_2"  width="2.3" height="2.3" x="-1.2" y="-1.2" transform="matrix(-1.0281 0 0 1.0281 1416.8131 585.8277)" style="overflow:visible;"/>
	
		<use xlink:href="#New_Symbol_2"  width="2.3" height="2.3" x="-1.2" y="-1.2" transform="matrix(-1.9814 0 0 1.9814 1546.4932 646.9475)" style="overflow:visible;"/>
	
		<use xlink:href="#New_Symbol_2"  width="2.3" height="2.3" x="-1.2" y="-1.2" transform="matrix(-1.5183 0 0 1.5183 1386.7415 592.7739)" style="overflow:visible;"/>
	
		<use xlink:href="#New_Symbol_2"  width="2.3" height="2.3" x="-1.2" y="-1.2" transform="matrix(-1.0989 0 0 1.0989 1475.4514 569.6792)" style="overflow:visible;"/>
	
		<use xlink:href="#New_Symbol_2"  width="2.3" height="2.3" x="-1.2" y="-1.2" transform="matrix(-1.3335 0 0 1.3335 1219.3959 607.7809)" style="overflow:visible;"/>
	
		<use xlink:href="#New_Symbol_2"  width="2.3" height="2.3" x="-1.2" y="-1.2" transform="matrix(-1.6832 0 0 1.6832 1295.6715 653.681)" style="overflow:visible;"/>
	
		<use xlink:href="#New_Symbol_2"  width="2.3" height="2.3" x="-1.2" y="-1.2" transform="matrix(-1.7859 0 0 1.7859 1418.8286 666.7792)" style="overflow:visible;"/>
	
		<use xlink:href="#New_Symbol_2"  width="2.3" height="2.3" x="-1.2" y="-1.2" transform="matrix(-1.9168 0 0 1.9168 1563.8381 688.755)" style="overflow:visible;"/>
	
		<use xlink:href="#New_Symbol_2"  width="2.3" height="2.3" x="-1.2" y="-1.2" transform="matrix(-1.4369 0 0 1.4369 1594.1731 762.2859)" style="overflow:visible;"/>
	
		<use xlink:href="#New_Symbol_2"  width="2.3" height="2.3" x="-1.2" y="-1.2" transform="matrix(-1.0154 0 0 1.0154 1616.4182 785.6169)" style="overflow:visible;"/>
	
		<use xlink:href="#New_Symbol_2"  width="2.3" height="2.3" x="-1.2" y="-1.2" transform="matrix(-1.0776 0 0 1.0776 1537.1826 771.717)" style="overflow:visible;"/>
</g>
<path class="st2" d="M737.3,295c0,0,7.1-49.9-24.2-39.3c-31.3,10.6,13.7,39.3,13.7,39.3H737.3z"/>
<path class="st3" d="M739.8,295h-13.1c10.1,58.9-44,63-82.7,60.6l0,0.1c9.5,8.6,13.6,25.5,17.1,42.8
	C769.7,386.1,739.8,295,739.8,295z"/>
<path class="st4" d="M672.6,171c0,0-1.7,0.6-5,1.8c-1.7,0.5-5.5,1.9-9.5,3.8c-4.1,1.9-8.7,4.3-13.3,7.8c-4.7,3.5-9.4,7.9-14.7,15.1
	c-2.6,3.6-5.4,8-8.6,13.2c-3.2,5.2-6.7,11.3-11.2,18.2c-4.5,6.8-10.1,14.5-17.3,21.6c-7.2,7.1-15.8,13.5-24.9,18.1
	c-9.1,4.6-18.4,7.7-27.4,9.7c-9,2.1-17.8,3.2-26.5,3.7c-8.6,0.6-17,0.6-25.4,0.3c-4.2-0.1-8.3-0.4-12.4-0.6l-11.6-0.9
	c-13.1-1.1-26.3-0.3-35.3,3.7c-4.5,2-8.1,4.6-11,8.3c-2.9,3.8-5,8.9-6.2,14.6c-2.5,11.7-1.8,25.1-0.3,37.7c1.5,12.7,3.9,25,6,36.4
	c2.1,11.4,4,22,5,31.7c0.9,9.6,0.9,18.5-1.9,25.4c-1.4,3.4-3.6,6.1-6,7.7c-2.4,1.6-4.7,2.2-6.5,2.5c-1.8,0.3-3.2,0.3-4.2,0.4
	c-0.9,0-1.4,0-1.4,0s0.5-0.1,1.4-0.2c0.9-0.2,2.3-0.4,3.9-1.1c1.6-0.6,3.6-1.6,5.4-3.3c1.8-1.7,3.1-4.1,3.7-7.1
	c1.3-6.1-0.1-14-2.5-22.8c-2.5-8.8-6.1-18.6-10.2-29.5c-4.1-10.8-8.6-22.7-12.7-35.8c-3.9-13.2-7.7-27.7-7.4-44.9
	c0.3-8.5,1.8-18,6.2-27.2c4.3-9.3,11.7-17.7,20.2-23.5c8.5-5.9,17.6-9.6,26.5-12.2c9-2.5,17.6-4,26.6-4.9l11.5-1.2
	c3.6-0.4,7.2-0.9,10.7-1.4c7-1.1,13.8-2.4,20.2-4.1c12.8-3.2,23.8-8.1,30.4-13.6c6.6-5.6,9.6-11.2,13.5-20.7
	c3.8-9.4,7.9-22.2,13.9-35.1c6-13,14.1-25.6,22.7-35.4c8.6-9.9,17.3-17.2,24.5-22.6c7.3-5.4,12.9-8.9,17.7-11.6c3.2-1.9,5-2.9,5-2.9
	L672.6,171z"/>
<g>
	
		<rect x="708.8" y="67.6" transform="matrix(0.902 -0.4316 0.4316 0.902 -37.3891 330.897)" class="st5" width="3.2" height="360.4"/>
</g>
<path class="st3" d="M756.5,513.4c-16.3-23.5-52.8-8.6-52.8-8.6l-13.9,39l7.5,6.3C716.2,537.3,736.1,524.9,756.5,513.4z"/>
<linearGradient id="SVGID_2_" gradientUnits="userSpaceOnUse" x1="430.414" y1="251.814" x2="430.414" y2="1701.0732" gradientTransform="matrix(0.63 0.7766 -0.7766 0.63 615.8747 452.5149)">
	<stop  offset="0" style="stop-color:#FFFFFF;stop-opacity:0.5"/>
	<stop  offset="1" style="stop-color:#FFFFFF;stop-opacity:0"/>
</linearGradient>
<polyline class="st6" points="-423.9,1881 713.7,958 683.6,921 -453.9,1843.9 "/>
<linearGradient id="SVGID_3_" gradientUnits="userSpaceOnUse" x1="355.3112" y1="207.7936" x2="355.3112" y2="1657.0574" gradientTransform="matrix(0.63 0.7766 -0.7766 0.63 615.8747 452.5149)">
	<stop  offset="0" style="stop-color:#FFFFFF;stop-opacity:0.5"/>
	<stop  offset="1" style="stop-color:#FFFFFF;stop-opacity:0"/>
</linearGradient>
<polyline class="st7" points="-444.5,1785.7 693.1,862.7 678,844.2 -459.5,1767.1 "/>
<linearGradient id="SVGID_4_" gradientUnits="userSpaceOnUse" x1="124.4266" y1="207.8096" x2="124.4266" y2="1657.0706" gradientTransform="matrix(0.63 0.7766 -0.7766 0.63 615.8747 452.5149)">
	<stop  offset="0" style="stop-color:#FFFFFF;stop-opacity:0.5"/>
	<stop  offset="1" style="stop-color:#FFFFFF;stop-opacity:0"/>
</linearGradient>
<polyline class="st8" points="-590,1606.4 547.6,683.4 532.6,664.9 -605,1587.8 "/>
<linearGradient id="SVGID_5_" gradientUnits="userSpaceOnUse" x1="65.3143" y1="251.8343" x2="65.3143" y2="1701.0967" gradientTransform="matrix(0.63 0.7766 -0.7766 0.63 615.8747 452.5149)">
	<stop  offset="0" style="stop-color:#FFFFFF;stop-opacity:0.5"/>
	<stop  offset="1" style="stop-color:#FFFFFF;stop-opacity:0"/>
</linearGradient>
<polyline class="st9" points="-653.9,1597.5 483.7,674.5 453.6,637.5 -684,1560.4 "/>
<linearGradient id="SVGID_6_" gradientUnits="userSpaceOnUse" x1="213.3853" y1="469.0777" x2="213.3853" y2="1702.0308" gradientTransform="matrix(0.63 0.7766 -0.7766 0.63 615.8747 452.5149)">
	<stop  offset="0" style="stop-color:#FFFFFF;stop-opacity:0.5"/>
	<stop  offset="1" style="stop-color:#FFFFFF;stop-opacity:0"/>
</linearGradient>
<polyline class="st10" points="-560.6,1712.5 407.2,927.3 377.1,890.2 -590.7,1675.4 "/>
<linearGradient id="SVGID_7_" gradientUnits="userSpaceOnUse" x1="287.3514" y1="386.5737" x2="287.3514" y2="1701.6696" gradientTransform="matrix(0.63 0.7766 -0.7766 0.63 615.8747 452.5149)">
	<stop  offset="0" style="stop-color:#FFFFFF;stop-opacity:0.5"/>
	<stop  offset="1" style="stop-color:#FFFFFF;stop-opacity:0"/>
</linearGradient>
<polyline class="st11" points="-522.5,1759.4 509.7,921.9 496.7,905.9 -535.5,1743.4 "/>
<g>
	<path class="st5" d="M647.6,624.7c0,0-170.8-17.9-193.7,13.2c-22.8,31.1,123,73.8,123,73.8L647.6,624.7z"/>
	<path class="st12" d="M590.6,694.8l57-70.2c0,0-92.7-9.7-150.7-2.4C455.5,675.2,556.8,691.1,590.6,694.8z"/>
	<path class="st5" d="M766.6,771.3c0,0-17.7,170.9-52.9,186.8c-35.2,15.9-46.8-135.5-46.8-135.5L766.6,771.3z"/>
	<path class="st12" d="M686.2,812.6l80.4-41.3c0,0-9.6,92.8-28.7,148C677.5,948.9,682.9,846.4,686.2,812.6z"/>
	<path class="st5" d="M758.5,829.8c5.4-32.6,8-58.6,8-58.6l-99.7,51.2c0,0,2,26.6,7,56.2C711.2,868.6,739.6,847.9,758.5,829.8z"/>
	<path class="st5" d="M804.9,777.9c-114.1,92.5-168.9,65.7-212,12.7c-43-53.1-58-112.3,56.1-204.8c114.1-92.6,314-183.4,357-130.3
		C1049,508.5,919,685.4,804.9,777.9z"/>
	<linearGradient id="SVGID_8_" gradientUnits="userSpaceOnUse" x1="560.9968" y1="605.4233" x2="997.7046" y2="605.4233">
		<stop  offset="0" style="stop-color:#FFFFFF;stop-opacity:0.5"/>
		<stop  offset="1" style="stop-color:#FFFFFF;stop-opacity:0"/>
	</linearGradient>
	<path class="st13" d="M691.5,642.8C794,559.6,947.8,457.9,997.7,448.2c-56-35.9-240.8,50.1-348.7,137.6
		c-100.3,81.4-100.9,137-70.3,185.3C581.4,747,608.9,709.8,691.5,642.8z"/>
	<polygon class="st12" points="602,783.3 563.2,735.5 552.5,759.3 583.8,798 615.2,836.6 640.7,831 	"/>
	<polygon class="st12" points="578.9,802 548,763.9 535.7,785.9 560.8,816.7 585.8,847.5 609.8,840.1 	"/>
	<path class="st14" d="M955.1,615.5c2.8-3.9,5.4-7.9,8.1-11.8c-26.6-11.3-51.6-30.4-71.8-55.3c-20.2-24.8-33.7-53.3-39.3-81.6
		c-4.4,1.8-8.8,3.6-13.2,5.5c6.3,29.7,20.6,59.2,41.6,85C901.5,583.1,927.4,603.2,955.1,615.5z"/>
	<path class="st12" d="M902.3,539.6c19.3,23.8,43.3,41.9,68.7,52.1c37.1-58.4,55.4-111.2,35.1-136.3c-20.4-25.1-75.8-18-140.6,6.2
		C870.2,488.6,883,515.8,902.3,539.6z"/>
	<g>
		<polygon class="st5" points="580.8,841.3 585.8,847.5 609.8,840.1 598.9,826.6 		"/>
		<path class="st5" d="M804.9,777.9c107.9-87.6,230.2-250.6,206.6-312.9c-19.9,46.9-151,176.3-253.6,259.6
			C688.3,781,647.5,803.6,622,807.9l-7.2,5.8l-10.9,8.9l11.4,14l25.5-5.6C678.3,848.4,728.2,840.2,804.9,777.9z"/>
	</g>
</g>
<g>
	<path class="st3" d="M703.7,504.8l-83.4,55.1c0,0,111.6,24,106,87.6c-5.7,63.6-25.4,101.7-25.4,101.7h15.4
		c0,0,126.1-162.7-2.6-209.8L703.7,504.8z"/>
	<polygon class="st15" points="715.5,744.7 714.5,749.2 730.9,757.6 699.2,759.7 702.8,747.9 	"/>
	<path class="st16" d="M703.7,504.8c8.2-11.4,5.8-42.3-21.5-54.2c-27.3-11.9-12.3-103-55.1-100.7c-42.8,2.4-76.5,193.6-6.7,210
		L703.7,504.8z"/>
	<path class="st3" d="M761.2,454.9v14.9c0,0-96.3,19.6-144.5-10.7c0,0-42.2,55.9-27.3,100.8c0,0-43.4-18.1-30.3-78.2
		c13.1-60,3-121,48.2-131.8c45.2-10.9,26.8,56.9,26.8,56.9S632.8,459,761.2,454.9z"/>
	<path class="st2" d="M612.9,343.8c5.1-0.3,5.6,19.6,19.3,16.4c13.7-3.3,8.6-18.1,8.6-18.1s22.7,2,29.8-27.3
		c7.1-29.3-32.5-92.7-63.4-88.4C576.4,230.6,558.3,346.8,612.9,343.8z"/>
	<path class="st17" d="M634.6,203.7c6.7-20.2,36.1,51.9,4.8,56.3c-31.3,4.4-47.2,13.9-35.3,25.4c0,0-19.8-2.4-9.5,13.1
		c10.3,15.5-23.8,19-29.7,0c-5.9-19-3.2-63,28.5-77.3C625.1,206.9,626,229.5,634.6,203.7z"/>
	<path class="st2" d="M761.2,454.9c0,0,57.3-11.4,58.5,10s-58.5,5-58.5,5V454.9z"/>
	<path class="st18" d="M644,363.4c5.5-1.6,4.9,10.7,4.9,10.7s2.3,33.9-41,53.5c-43.3,19.6-43.4,32.8-45.6,41
		c-2.2,8.2-38.4-29.7,0-42.2c38.4-12.5,79.3-37.6,81.7-52.9C644,373.5,635.6,365.8,644,363.4z"/>
</g>
<g>
	<path class="st18" d="M546,814.7c-50.6-62.3-170.3,34.1-222.8,180.8C477.5,974.2,596.6,877,546,814.7z"/>
	<path class="st19" d="M546,814.7c-43.9-54.1-143.7,26.2-185.7,150.7C490.7,949.8,589.9,868.7,546,814.7z"/>
	<path class="st20" d="M546,814.7c-37.2-45.9-117.1,18.4-148.6,120.5C503.9,925.4,583.2,860.5,546,814.7z"/>
	<path class="st4" d="M546,814.7c-30.5-37.6-90.4,10.5-111.4,90.4C517,901,576.5,852.3,546,814.7z"/>
	<path class="st21" d="M546,814.7c-23.9-29.4-63.8,2.7-74.3,60.3C530.2,876.6,569.8,844.1,546,814.7z"/>
</g>
<path class="st2" d="M713.1,255.7c-14.2,4.8-12.7,13.4-6.8,21.3c9.9,7.8,20.5-3,27.1,4.6c3.6,4.2,0.4-10.6-0.3-20.5
	C729.6,255.4,723.4,252.3,713.1,255.7z"/>
<path class="st0" d="M776.6,1111c-19.9,0-36.9,12.4-43.7,29.9c-16-11.8-35.8-18.8-57.2-18.8c-30.2,0-57.2,13.8-74.9,35.4
	c-18.2-37.6-56.6-63.7-101.2-63.7c-36.5,0-68.9,17.5-89.4,44.5c-6.9-20.3-26-34.9-48.6-34.9c-1,0-1.9,0.1-2.9,0.1
	c8-14.3,12.5-30.8,12.5-48.3c0-55-44.6-99.5-99.5-99.5c-26.3,0-50.1,10.3-67.9,26.9c0.3-3.2,0.5-6.4,0.5-9.7
	c0-55-44.6-99.5-99.5-99.5c-4.3,0-8.5,0.4-12.6,0.9c7.9-12.5,12.6-27.3,12.6-43.3c0-14.3-3.7-27.6-10.2-39.3
	c36.1-15.9,61.3-51.9,61.3-93.9c0-45.4-29.6-83.9-70.5-97.4c0.1-1.7,0.3-3.4,0.3-5.2c0-13-4-25.1-10.9-35.1c18.6-21.4,30-49.4,30-80
	c0-11.6-1.7-22.8-4.7-33.4c17.7-10.2,29.7-29.2,29.7-51.1c0-32.5-26.4-58.9-58.9-58.9c-21,0-39.3,11-49.8,27.5
	c-7.2-2.4-14.8-4.1-22.5-5.1v907.1h761.8c7.9-14,12.4-30.2,12.4-47.4c0-4.9-0.5-9.7-1.2-14.5c1.7,0.2,3.4,0.3,5.2,0.3
	c25.9,0,47-21,47-47C823.5,1132,802.5,1111,776.6,1111z"/>
<path class="st0" d="M108.1,717.3c0,14.1-8.8,26.1-21.1,30.9c8.3,11.3,13.3,25.3,13.3,40.4c0,21.3-9.7,40.3-25,52.9
	c26.6,12.8,44.9,39.9,44.9,71.4c0,25.8-12.4,48.6-31.4,63.1c14.3,4.8,24.6,18.4,24.6,34.3c0,0.7-0.1,1.4-0.1,2
	c10.1-5.6,21.7-8.8,34.1-8.8c38.8,0,70.3,31.5,70.3,70.3c0,18.6-7.2,35.4-19,47.9c2.2-0.2,4.5-0.3,6.8-0.3
	c38.8,0,70.3,31.5,70.3,70.3c0,3-0.3,6-0.6,8.9c8.8-5.6,19.3-8.9,30.5-8.9c10.1,0,19.5,2.6,27.7,7.2c11.2-25.5,36.6-43.3,66.2-43.3
	c32.1,0,59.2,20.9,68.7,49.8c1.2-0.1,2.4-0.2,3.7-0.2c9.2,0,17.7,2.8,24.8,7.7c15.1-13.1,34.8-21.2,56.5-21.2
	c8.2,0,16.1,1.2,23.6,3.3c7.2-12.5,20.6-20.9,36.1-20.9c23,0,41.6,18.6,41.6,41.6c0,14.8-7.8,27.8-19.4,35.1
	c1.7,5.1,2.9,10.4,3.6,15.9H-1.6V728.9c9.9-5.6,21.3-8.8,33.5-8.8c3.5,0,6.9,0.3,10.2,0.8c-0.1-1.2-0.2-2.4-0.2-3.7
	c0-18.3,14.8-33.1,33.1-33.1S108.1,698.9,108.1,717.3z"/>
<path class="st22" d="M1925.9,1266.1H11.1c-5.3,0-9.5-4.3-9.5-9.5V-13.7c0-5.3,4.3-9.5,9.5-9.5h1914.8c5.3,0,9.5,4.3,9.5,9.5v1270.2
	C1935.4,1261.8,1931.2,1266.1,1925.9,1266.1z"/>
</svg>
