<?xml version="1.0" encoding="utf-8"?>
<!-- Generator: Adobe Illustrator 21.0.0, SVG Export Plug-In . SVG Version: 6.00 Build 0)  -->
<svg version="1.1" id="OBJECTS" xmlns="http://www.w3.org/2000/svg" xmlns:xlink="http://www.w3.org/1999/xlink" x="0px" y="0px"
	 viewBox="0 0 750 500" style="enable-background:new 0 0 750 500;" xml:space="preserve">
<style type="text/css">
	.st0{clip-path:url(#SVGID_2_);}
	.st1{fill:url(#SVGID_3_);}
	.st2{fill:url(#SVGID_4_);}
	.st3{fill:url(#SVGID_5_);}
</style>
<g>
	<g>
		<defs>
			<path id="SVGID_1_" d="M734.8,501.2H-21.7c-3.9,0-7-3.1-7-7V7c0-3.9,3.1-7,7-7h756.5c3.9,0,7,3.1,7,7v487.2
				C741.8,498,738.7,501.2,734.8,501.2z"/>
		</defs>
		<clipPath id="SVGID_2_">
			<use xlink:href="#SVGID_1_"  style="overflow:visible;"/>
		</clipPath>
		<g class="st0">
			<g>
				<linearGradient id="SVGID_3_" gradientUnits="userSpaceOnUse" x1="392.707" y1="368.0836" x2="117.5176" y2="-82.9207">
					<stop  offset="0" style="stop-color:#E05695"/>
					<stop  offset="1" style="stop-color:#8B41AC"/>
				</linearGradient>
				<path class="st1" d="M-29.6,552.2c61.5-112.4,173.4-59.2,250-75.6c126-27,61.8-148.8,246.1-150.5
					c151.6-1.4,194.8-63,145.4-211.2C573.1-1.6,702.5-0.4,702.5-0.4h-732V552.2z"/>
				<g>
					
						<image style="overflow:visible;opacity:0.2;" width="717" height="513" xlink:href="E28103BD.png"  transform="matrix(1 0 0 1 -41 -14)">
					</image>
					<g>
						<linearGradient id="SVGID_4_" gradientUnits="userSpaceOnUse" x1="369.3846" y1="332.0193" x2="116.3004" y2="-82.7569">
							<stop  offset="0" style="stop-color:#612BC0"/>
							<stop  offset="1" style="stop-color:#8B41AC"/>
						</linearGradient>
						<path class="st2" d="M-29.6,481.1c64.3-96.3,155.5-31,227.2-46.4c118.1-25.3,64.9-138,237.6-139.6
							c142.1-1.3,180.9-67.8,137.6-174.5c-44.3-109.1,83.6-121,83.6-121h-686V481.1z"/>
					</g>
				</g>
			</g>
			<g>
				
					<image style="overflow:visible;opacity:0.3;" width="658" height="471" xlink:href="E28103BC.png"  transform="matrix(1 0 0 1 -40 -14)">
				</image>
				<g>
					
						<linearGradient id="SVGID_5_" gradientUnits="userSpaceOnUse" x1="375.9938" y1="366.4563" x2="106.7214" y2="-74.8508" gradientTransform="matrix(0.9767 -0.2146 0.2146 0.9767 -58.7977 48.707)">
						<stop  offset="0" style="stop-color:#6C54E6"/>
						<stop  offset="1" style="stop-color:#612BC0"/>
					</linearGradient>
					<path class="st3" d="M598.6-0.4H-28.3v440c58.8-88,170.7-13.1,237.1-22.1c124.5-17,74.5-146.3,232.3-147.8
						c129.9-1.2,120.9-62.3,87.8-162.1C495.8,7.7,598.6-0.4,598.6-0.4z"/>
				</g>
			</g>
		</g>
	</g>
</g>
</svg>
