<?xml version="1.0" standalone="no"?>
<!DOCTYPE svg PUBLIC "-//W3C//DTD SVG 20010904//EN"
 "http://www.w3.org/TR/2001/REC-SVG-20010904/DTD/svg10.dtd">
<svg version="1.0" xmlns="http://www.w3.org/2000/svg"
 width="512.000000pt" height="512.000000pt" viewBox="0 0 512.000000 512.000000"
 preserveAspectRatio="xMidYMid meet">
<metadata>
Created by potrace 1.11, written by Peter Selinger 2001-2013
</metadata>
<g transform="translate(0.000000,512.000000) scale(0.100000,-0.100000)"
fill="#000000" stroke="none">
<path d="M1680 4549 c-481 -314 -917 -597 -969 -631 l-93 -60 86 -57 86 -56 0
-132 c0 -119 -2 -132 -18 -138 -41 -12 -49 -78 -15 -116 12 -15 5 -69 -61
-446 -42 -235 -76 -434 -76 -441 0 -9 46 -12 190 -12 174 0 190 1 190 18 0 9
-34 207 -75 440 l-74 424 20 28 c26 35 18 83 -17 106 -23 16 -24 21 -24 125 0
60 3 109 7 109 3 0 115 -71 249 -157 l242 -158 7 -44 c13 -83 45 -167 85 -224
47 -65 100 -173 100 -203 0 -28 -19 -51 -60 -72 -29 -14 -35 -23 -38 -54 -6
-72 74 -399 123 -506 19 -40 46 -116 60 -169 32 -121 79 -211 157 -298 l61
-69 -7 -96 c-10 -145 -33 -280 -51 -300 -9 -10 -28 -21 -42 -25 -55 -14 -71
-34 -119 -158 -64 -166 -89 -214 -122 -231 -15 -7 -130 -50 -257 -95 -261 -93
-326 -123 -620 -286 -116 -65 -240 -132 -277 -151 -47 -24 -72 -44 -84 -65
-20 -40 -29 -152 -19 -262 l7 -87 2323 0 2324 0 8 57 c13 92 10 264 -5 299
-11 26 -30 40 -105 74 -51 24 -204 97 -342 163 -305 145 -494 228 -684 296
-79 29 -154 59 -168 68 -27 18 -63 92 -113 231 -32 90 -56 123 -116 158 -19
11 -22 29 -40 260 -9 115 -3 135 50 192 54 58 76 102 111 217 15 50 41 110 58
134 80 117 217 542 217 675 0 52 -18 71 -78 85 -24 5 -46 11 -48 14 -3 3 9 27
26 53 62 98 110 316 110 505 1 74 3 90 12 75 6 -11 13 -50 16 -88 2 -37 7 -68
9 -68 2 0 162 102 354 227 272 177 347 230 337 239 -15 13 -1926 1254 -1930
1253 -2 0 -397 -257 -878 -570z"/>
</g>
</svg>
