<svg version="1" xmlns="http://www.w3.org/2000/svg" width="682.667" height="682.667" viewBox="0 0 512.000000 512.000000"><path d="M124.7 141.8C-3.2 186.9-2.7 186.8 1.1 190.5c.8.8 56.5 22.9 123.9 49.1 100.1 39 123.3 47.8 127 47.7 3.4-.1 31.2-10.5 116.5-43.8 61.6-24.1 112.8-44 113.8-44.2 1.6-.5 1.7 2.6 1.7 55.1v55.7l-3.6 3.1c-4.8 4.2-6.7 8.3-6.7 14.3 0 6.2 2.1 10.3 7.2 14.7l3.9 3.2-1.9 5c-5.7 14.4-10.7 42-8.8 48.9 5 19 31.4 19.4 37 .6 1-3.1 1-6.1 0-13.7-1.4-10.8-6.1-30.2-8.9-36.6l-1.8-4.1 3.7-2.7c4.4-3.1 7.9-10 7.9-15.3 0-5.2-3.4-12-7.6-15.1l-3.4-2.6v-58.9c0-38.1.4-59 1-59.4 1.3-.8 1.3-5.2 0-6-3.4-2.1-247.8-87.5-250.4-87.5-1.7 0-58.8 19.7-126.9 43.8z"/><path d="M79.2 277.7c.4 36.7.4 38 2.7 44.2 14.3 38.7 74.4 69.4 149.1 76.1 42.8 3.8 96.7-5.7 134-23.6 34.8-16.7 55.5-38.9 59-63.1 1-7.2 1.4-71.3.4-71.3-.3 0-38.7 14.8-85.4 33-46.6 18.1-85.9 33-87.3 33-1.3 0-40.6-14.9-87.2-33-46.6-18.2-84.9-33-85.2-33-.2 0-.3 17-.1 37.7z"/></svg>