<?xml version="1.0" standalone="no"?>
<!DOCTYPE svg PUBLIC "-//W3C//DTD SVG 20010904//EN"
 "http://www.w3.org/TR/2001/REC-SVG-20010904/DTD/svg10.dtd">
<svg version="1.0" xmlns="http://www.w3.org/2000/svg"
 width="512.000000pt" height="512.000000pt" viewBox="0 0 512.000000 512.000000"
 preserveAspectRatio="xMidYMid meet">
<metadata>
Created by potrace 1.11, written by Peter Selinger 2001-2013
</metadata>
<g transform="translate(0.000000,512.000000) scale(0.100000,-0.100000)"
fill="#000000" stroke="none">
<path d="M1506 4720 c-792 -175 -1454 -322 -1471 -327 l-33 -8 397 -354 c218
-195 402 -356 408 -358 6 -2 18 25 28 61 20 75 4 67 200 95 243 35 402 44 705
38 450 -9 722 -58 1054 -191 420 -169 809 -425 1260 -828 l48 -43 -37 -118
c-20 -65 -35 -121 -33 -123 3 -2 136 21 297 52 160 31 294 54 297 51 5 -5
-234 -786 -246 -799 -3 -4 -42 4 -87 19 -45 15 -84 25 -86 23 -5 -7 -125 -394
-123 -397 1 -1 64 17 139 41 l138 44 102 -118 c60 -70 105 -113 108 -107 15
27 120 378 115 385 -3 5 -40 19 -83 32 -43 13 -82 27 -86 30 -7 6 242 829 264
871 5 11 53 24 161 43 84 16 157 32 162 36 5 5 -44 62 -107 128 l-116 119 14
44 c8 24 21 64 30 89 23 62 22 141 -1 182 -41 70 -189 106 -324 79 -30 -7 -60
-13 -66 -14 -6 -1 -363 367 -793 818 -430 451 -785 821 -789 822 -4 0 -655
-142 -1446 -317z m3283 -1459 c18 -18 19 -23 6 -71 -8 -29 -16 -54 -18 -56 -3
-3 -30 23 -61 57 -31 35 -53 66 -49 70 8 8 43 15 81 18 12 0 31 -8 41 -18z
m-60 -267 c117 -98 -15 -284 -146 -204 -74 45 -83 139 -19 197 30 28 43 33 85
33 39 0 56 -6 80 -26z"/>
<path d="M1410 3729 c-97 -8 -401 -48 -408 -54 -4 -4 -202 -639 -199 -641 1
-1 63 -9 137 -19 377 -46 766 -118 1095 -201 427 -108 870 -283 1414 -556 140
-70 256 -126 258 -124 2 2 48 147 103 322 l99 319 -32 33 c-101 106 -359 311
-552 439 -538 359 -998 497 -1639 492 -94 -1 -218 -6 -276 -10z"/>
<path d="M1302 2789 c-128 -19 -286 -91 -395 -182 l-49 -40 -82 82 -82 82 -69
-78 c-90 -102 -153 -200 -183 -286 -20 -58 -23 -85 -20 -156 5 -148 65 -235
239 -352 153 -101 323 -224 497 -357 153 -118 161 -126 146 -143 -9 -10 -93
-72 -188 -138 -94 -67 -238 -180 -321 -252 -171 -150 -235 -208 -235 -213 0
-3 44 -14 97 -26 54 -13 105 -26 113 -30 8 -5 31 -40 49 -79 l34 -70 62 122
c74 148 126 227 197 296 52 51 192 152 255 185 30 15 29 11 -41 -102 -100
-161 -141 -245 -166 -341 -19 -77 -51 -263 -46 -269 2 -1 29 7 61 18 63 22 85
25 85 11 0 -4 19 -48 42 -97 l42 -89 16 120 c46 330 93 463 222 637 46 62 51
67 69 54 52 -36 368 -334 659 -622 353 -349 373 -364 499 -386 257 -44 515
169 602 497 32 121 30 283 -4 390 -46 140 -146 264 -260 321 -94 48 -476 325
-759 550 -225 179 -385 321 -553 489 -153 152 -239 254 -322 383 l-54 82 -47
-1 c-26 -1 -75 -6 -110 -10z m134 -186 c77 -110 180 -230 311 -362 68 -69 123
-126 123 -127 0 -1 -21 -4 -46 -8 -69 -9 -167 -60 -234 -123 l-60 -55 -67 58
c-75 66 -481 452 -501 477 -11 13 -6 21 40 58 93 74 267 145 365 148 15 1 34
-17 69 -66z m-512 -280 c121 -119 291 -281 377 -360 l156 -144 -48 -94 c-29
-56 -51 -114 -55 -145 -4 -27 -10 -50 -14 -50 -4 0 -100 69 -212 153 -112 83
-264 193 -338 242 -207 139 -245 186 -244 305 0 49 7 80 27 124 26 56 112 186
124 186 3 0 105 -98 227 -217z m1359 -556 c117 -96 392 -304 519 -392 48 -33
87 -62 87 -65 1 -3 -21 -22 -48 -42 -127 -95 -220 -341 -192 -508 20 -126 101
-248 193 -294 144 -72 268 10 325 214 l17 63 -25 19 c-13 11 -93 81 -177 155
l-152 135 22 40 c30 53 78 94 128 109 59 18 119 -9 196 -85 65 -66 105 -138
123 -224 39 -186 -30 -421 -163 -557 -78 -79 -149 -116 -237 -123 -224 -16
-342 166 -356 548 -5 140 -1 206 24 403 5 45 5 47 -19 47 -68 0 -382 193 -616
378 l-112 90 40 35 c64 59 231 133 303 136 10 1 64 -37 120 -82z m-381 -316
c171 -130 362 -256 458 -302 l70 -34 -8 -90 c-9 -118 -9 -310 1 -410 l8 -80
-138 135 c-199 196 -391 376 -592 554 l-44 39 25 101 c25 96 61 196 73 196 2
0 69 -49 147 -109z m1008 -640 c148 -130 134 -112 115 -157 -37 -88 -92 -108
-156 -55 -69 57 -113 190 -95 286 8 43 -3 49 136 -74z"/>
</g>
</svg>
