<svg id="OBJECTS" xmlns="http://www.w3.org/2000/svg" xmlns:xlink="http://www.w3.org/1999/xlink" viewBox="0 0 287.04 243.63"><defs><style>.cls-1{fill:none;}.cls-2{fill:#e5556a;}.cls-3{fill:#eca858;}.cls-4{fill:#4d4dba;}.cls-5{clip-path:url(#clip-path);}.cls-12,.cls-6{fill:#b0affd;}.cls-11,.cls-6{opacity:0.2;}.cls-7{fill:#fff;}.cls-8{fill:#ff7382;}.cls-9{clip-path:url(#clip-path-2);}.cls-10{fill:#423fad;}.cls-12{opacity:0.6;}.cls-13{fill:#7994f1;}.cls-14{fill:#bccbff;}.cls-15{fill:#92a5f8;}.cls-16{fill:#e9eeff;}.cls-17{fill:#e3983d;}.cls-18{fill:#f8bd6c;}.cls-19{fill:#ffcc8a;}.cls-20{fill:#2e2ea3;}.cls-21{fill:#1f1f8c;}.cls-22{fill:#fdc5b6;}.cls-23{isolation:isolate;}.cls-24{clip-path:url(#clip-path-3);}.cls-25{clip-path:url(#clip-path-4);}.cls-26{clip-path:url(#clip-path-5);}.cls-27{clip-path:url(#clip-path-6);}.cls-28{clip-path:url(#clip-path-7);}.cls-29{clip-path:url(#clip-path-8);}.cls-30{clip-path:url(#clip-path-9);}.cls-31{clip-path:url(#clip-path-10);}.cls-32{fill:#1d4694;}.cls-33{clip-path:url(#clip-path-11);}.cls-34{clip-path:url(#clip-path-12);}.cls-35{clip-path:url(#clip-path-13);}.cls-36{clip-path:url(#clip-path-14);}.cls-37{clip-path:url(#clip-path-15);}.cls-38{clip-path:url(#clip-path-16);}.cls-39{clip-path:url(#clip-path-17);}.cls-40{clip-path:url(#clip-path-18);}.cls-41{clip-path:url(#clip-path-19);}.cls-42{clip-path:url(#clip-path-20);}.cls-43{clip-path:url(#clip-path-21);}.cls-44{clip-path:url(#clip-path-22);}.cls-45{clip-path:url(#clip-path-23);}.cls-46{clip-path:url(#clip-path-24);}.cls-47{clip-path:url(#clip-path-25);}.cls-48{clip-path:url(#clip-path-26);}.cls-49{clip-path:url(#clip-path-27);}.cls-50{clip-path:url(#clip-path-28);}.cls-51{clip-path:url(#clip-path-29);}.cls-52{clip-path:url(#clip-path-30);}.cls-53{clip-path:url(#clip-path-31);}.cls-54{clip-path:url(#clip-path-32);}.cls-55{clip-path:url(#clip-path-33);}.cls-56{clip-path:url(#clip-path-34);}.cls-57{clip-path:url(#clip-path-35);}.cls-58{clip-path:url(#clip-path-36);}.cls-59{clip-path:url(#clip-path-37);}.cls-60{clip-path:url(#clip-path-38);}.cls-61{clip-path:url(#clip-path-39);}.cls-62{clip-path:url(#clip-path-40);}.cls-63{clip-path:url(#clip-path-41);}.cls-64{clip-path:url(#clip-path-42);}.cls-65{fill:#d6daff;}.cls-66{fill:#f8a9b6;}.cls-67{fill:#8fadf6;}.cls-68{fill:#a0616b;}.cls-69{fill:#35324c;}</style><clipPath id="clip-path" transform="translate(-351.35 -163)"><rect class="cls-1" x="79.24" y="58.65" width="591.52" height="385.63" rx="7.85" ry="7.85"/></clipPath><clipPath id="clip-path-2" transform="translate(-351.35 -163)"><polygon class="cls-1" points="438.46 365.69 400.53 343.62 366.02 363.8 403.96 385.86 438.46 365.69"/></clipPath><clipPath id="clip-path-3" transform="translate(-351.35 -163)"><path class="cls-4" d="M592.91,336v.73a2.56,2.56,0,0,0-1.5-2.05,7.34,7.34,0,0,0-3.61-.86,7.2,7.2,0,0,0-3.56.87v-.77a7.19,7.19,0,0,1,3.56-.87,7.34,7.34,0,0,1,3.61.86,2.56,2.56,0,0,1,1.5,2.05Z"/></clipPath><clipPath id="clip-path-4" transform="translate(-351.35 -163)"><path class="cls-4" d="M594.91,336v.77a3.48,3.48,0,0,1-2,2.85v-.77A3.48,3.48,0,0,0,594.91,336Z"/></clipPath><clipPath id="clip-path-5" transform="translate(-351.35 -163)"><path class="cls-4" d="M584.11,339.17v.77h0a.83.83,0,0,0-.48-.66,2.53,2.53,0,0,0-2.3,0v-.77a2.53,2.53,0,0,1,2.3,0,.83.83,0,0,1,.48.66Z"/></clipPath><clipPath id="clip-path-6" transform="translate(-351.35 -163)"><path class="cls-4" d="M586.11,339.17v.77a1.81,1.81,0,0,1-1,1.46v-.77A1.81,1.81,0,0,0,586.11,339.17Z"/></clipPath><clipPath id="clip-path-7" transform="translate(-351.35 -163)"><path class="cls-4" d="M572.12,343.29v-.77a.51.51,0,0,0,.3.42,1.56,1.56,0,0,0,1.41,0v.77a1.56,1.56,0,0,1-1.41,0A.51.51,0,0,1,572.12,343.29Z"/></clipPath><clipPath id="clip-path-8" transform="translate(-351.35 -163)"><path class="cls-4" d="M566.93,345.7v-.77a1.65,1.65,0,0,1,1-1.35v.77A1.65,1.65,0,0,0,566.93,345.7Z"/></clipPath><clipPath id="clip-path-9" transform="translate(-351.35 -163)"><path class="cls-4" d="M578.3,346.8V346a.51.51,0,0,0,.3.42,1.56,1.56,0,0,0,1.41,0v.77a1.56,1.56,0,0,1-1.41,0A.51.51,0,0,1,578.3,346.8Z"/></clipPath><clipPath id="clip-path-10" transform="translate(-351.35 -163)"><path class="cls-4" d="M564.93,345.68v-.77a2.71,2.71,0,0,0,1.6,2.23,7.74,7.74,0,0,0,3.8.89,7.59,7.59,0,0,0,3.76-.92v.77a7.59,7.59,0,0,1-3.76.92,7.74,7.74,0,0,1-3.8-.89A2.71,2.71,0,0,1,564.93,345.68Z"/></clipPath><clipPath id="clip-path-11" transform="translate(-351.35 -163)"><path class="cls-2" d="M566.56,252.29v.62s0,0,0,0a2.07,2.07,0,0,0-1.21-1.66,6,6,0,0,0-2.93-.69,5.83,5.83,0,0,0-2.88.71v-.62a5.83,5.83,0,0,1,2.88-.71,6,6,0,0,1,2.93.69,2.07,2.07,0,0,1,1.21,1.66Z"/></clipPath><clipPath id="clip-path-12" transform="translate(-351.35 -163)"><path class="cls-2" d="M568.19,252.29v.62a2.82,2.82,0,0,1-1.63,2.31v-.62A2.82,2.82,0,0,0,568.19,252.29Z"/></clipPath><clipPath id="clip-path-13" transform="translate(-351.35 -163)"><path class="cls-2" d="M559.44,254.85v.62h0a.67.67,0,0,0-.39-.53,2,2,0,0,0-1.86,0v-.62a2,2,0,0,1,1.86,0,.67.67,0,0,1,.39.53Z"/></clipPath><clipPath id="clip-path-14" transform="translate(-351.35 -163)"><path class="cls-2" d="M561.06,254.86v.62a1.47,1.47,0,0,1-.84,1.18V256A1.47,1.47,0,0,0,561.06,254.86Z"/></clipPath><clipPath id="clip-path-15" transform="translate(-351.35 -163)"><path class="cls-2" d="M549.71,258.19v-.62a.41.41,0,0,0,.24.34,1.26,1.26,0,0,0,1.14,0v.62a1.26,1.26,0,0,1-1.14,0A.41.41,0,0,1,549.71,258.19Z"/></clipPath><clipPath id="clip-path-16" transform="translate(-351.35 -163)"><path class="cls-2" d="M545.51,260.15v-.62a1.34,1.34,0,0,1,.77-1.1v.62A1.34,1.34,0,0,0,545.51,260.15Z"/></clipPath><clipPath id="clip-path-17" transform="translate(-351.35 -163)"><path class="cls-2" d="M554.73,261v-.62a.41.41,0,0,0,.24.34,1.26,1.26,0,0,0,1.15,0v.62a1.26,1.26,0,0,1-1.15,0A.41.41,0,0,1,554.73,261Z"/></clipPath><clipPath id="clip-path-18" transform="translate(-351.35 -163)"><path class="cls-2" d="M543.89,260.14v-.62a2.2,2.2,0,0,0,1.3,1.81,6.27,6.27,0,0,0,3.08.72,6.15,6.15,0,0,0,3.05-.75v.62a6.16,6.16,0,0,1-3.05.75,6.27,6.27,0,0,1-3.08-.72A2.2,2.2,0,0,1,543.89,260.14Z"/></clipPath><clipPath id="clip-path-19" transform="translate(-351.35 -163)"><path class="cls-3" d="M392.15,341.08v.63s0,0,0,0a2.08,2.08,0,0,0-1.22-1.67,6,6,0,0,0-2.94-.7,5.86,5.86,0,0,0-2.9.71v-.63a5.86,5.86,0,0,1,2.9-.71,6,6,0,0,1,2.94.7,2.08,2.08,0,0,1,1.22,1.67S392.15,341.07,392.15,341.08Z"/></clipPath><clipPath id="clip-path-20" transform="translate(-351.35 -163)"><path class="cls-3" d="M393.78,341.08v.63a2.84,2.84,0,0,1-1.64,2.32v-.63A2.84,2.84,0,0,0,393.78,341.08Z"/></clipPath><clipPath id="clip-path-21" transform="translate(-351.35 -163)"><path class="cls-3" d="M385,343.66v.63h0a.67.67,0,0,0-.39-.54,2.06,2.06,0,0,0-1.87,0v-.63a2.06,2.06,0,0,1,1.87,0,.67.67,0,0,1,.39.54Z"/></clipPath><clipPath id="clip-path-22" transform="translate(-351.35 -163)"><path class="cls-3" d="M386.61,343.66v.63a1.47,1.47,0,0,1-.84,1.19v-.63A1.47,1.47,0,0,0,386.61,343.66Z"/></clipPath><clipPath id="clip-path-23" transform="translate(-351.35 -163)"><path class="cls-3" d="M375.22,347v-.63a.41.41,0,0,0,.24.34,1.27,1.27,0,0,0,1.15,0v.63a1.27,1.27,0,0,1-1.15,0A.41.41,0,0,1,375.22,347Z"/></clipPath><clipPath id="clip-path-24" transform="translate(-351.35 -163)"><path class="cls-3" d="M371,349v-.63a1.35,1.35,0,0,1,.78-1.1v.63A1.35,1.35,0,0,0,371,349Z"/></clipPath><clipPath id="clip-path-25" transform="translate(-351.35 -163)"><path class="cls-3" d="M380.25,349.88v-.63a.41.41,0,0,0,.24.34,1.27,1.27,0,0,0,1.15,0v.63a1.27,1.27,0,0,1-1.15,0A.41.41,0,0,1,380.25,349.88Z"/></clipPath><clipPath id="clip-path-26" transform="translate(-351.35 -163)"><path class="cls-3" d="M369.36,349v-.63a2.21,2.21,0,0,0,1.3,1.81,6.3,6.3,0,0,0,3.09.73,6.18,6.18,0,0,0,3.06-.75v.63a6.18,6.18,0,0,1-3.06.75,6.3,6.3,0,0,1-3.09-.73A2.21,2.21,0,0,1,369.36,349Z"/></clipPath><clipPath id="clip-path-27" transform="translate(-351.35 -163)"><path class="cls-4" d="M469.09,374v.78s0,0,0,0a2.6,2.6,0,0,1,1.52-2.09,7.47,7.47,0,0,1,3.68-.87,7.32,7.32,0,0,1,3.62.89v-.78a7.32,7.32,0,0,0-3.62-.89,7.48,7.48,0,0,0-3.68.87,2.6,2.6,0,0,0-1.52,2.09Z"/></clipPath><clipPath id="clip-path-28" transform="translate(-351.35 -163)"><path class="cls-4" d="M467.05,374v.78a3.55,3.55,0,0,0,2.05,2.9v-.78A3.55,3.55,0,0,1,467.05,374Z"/></clipPath><clipPath id="clip-path-29" transform="translate(-351.35 -163)"><path class="cls-4" d="M478,377.18V378h0a.84.84,0,0,1,.49-.67,2.57,2.57,0,0,1,2.34,0v-.78a2.57,2.57,0,0,0-2.34,0,.84.84,0,0,0-.49.67Z"/></clipPath><clipPath id="clip-path-30" transform="translate(-351.35 -163)"><path class="cls-4" d="M476,377.18V378a1.84,1.84,0,0,0,1.05,1.49v-.78A1.84,1.84,0,0,1,476,377.18Z"/></clipPath><clipPath id="clip-path-31" transform="translate(-351.35 -163)"><path class="cls-4" d="M490.25,381.37v-.78a.52.52,0,0,1-.31.42,1.58,1.58,0,0,1-1.44,0v.78a1.58,1.58,0,0,0,1.44,0A.52.52,0,0,0,490.25,381.37Z"/></clipPath><clipPath id="clip-path-32" transform="translate(-351.35 -163)"><path class="cls-4" d="M495.54,383.82V383a1.68,1.68,0,0,0-1-1.38v.78A1.68,1.68,0,0,1,495.54,383.82Z"/></clipPath><clipPath id="clip-path-33" transform="translate(-351.35 -163)"><path class="cls-4" d="M484,385v-.78a.52.52,0,0,1-.31.42,1.59,1.59,0,0,1-1.44,0v.78a1.59,1.59,0,0,0,1.44,0A.52.52,0,0,0,484,385Z"/></clipPath><clipPath id="clip-path-34" transform="translate(-351.35 -163)"><path class="cls-4" d="M497.57,383.81V383a2.76,2.76,0,0,1-1.63,2.27,7.88,7.88,0,0,1-3.87.91,7.73,7.73,0,0,1-3.83-.94V386a7.73,7.73,0,0,0,3.83.94,7.88,7.88,0,0,0,3.87-.91A2.76,2.76,0,0,0,497.57,383.81Z"/></clipPath><clipPath id="clip-path-35" transform="translate(-351.35 -163)"><path class="cls-4" d="M461.86,275.14v.43a1.49,1.49,0,0,1,.87-1.19,4.27,4.27,0,0,1,2.1-.5,4.18,4.18,0,0,1,2.07.51v-.45a4.18,4.18,0,0,0-2.07-.51,4.27,4.27,0,0,0-2.1.5,1.49,1.49,0,0,0-.87,1.19Z"/></clipPath><clipPath id="clip-path-36" transform="translate(-351.35 -163)"><path class="cls-4" d="M460.7,275.14v.45a2,2,0,0,0,1.17,1.66v-.45A2,2,0,0,1,460.7,275.14Z"/></clipPath><clipPath id="clip-path-37" transform="translate(-351.35 -163)"><path class="cls-4" d="M467,277v.45h0a.48.48,0,0,1,.28-.38,1.47,1.47,0,0,1,1.34,0v-.45a1.47,1.47,0,0,0-1.34,0,.48.48,0,0,0-.28.38Z"/></clipPath><clipPath id="clip-path-38" transform="translate(-351.35 -163)"><path class="cls-4" d="M465.82,277v.45a1.05,1.05,0,0,0,.6.85v-.45A1.05,1.05,0,0,1,465.82,277Z"/></clipPath><clipPath id="clip-path-39" transform="translate(-351.35 -163)"><path class="cls-4" d="M474,279.37v-.45a.3.3,0,0,1-.17.24.91.91,0,0,1-.82,0v.45a.91.91,0,0,0,.82,0A.3.3,0,0,0,474,279.37Z"/></clipPath><clipPath id="clip-path-40" transform="translate(-351.35 -163)"><path class="cls-4" d="M477,280.77v-.45a1,1,0,0,0-.55-.79V280A1,1,0,0,1,477,280.77Z"/></clipPath><clipPath id="clip-path-41" transform="translate(-351.35 -163)"><path class="cls-4" d="M470.36,281.42V281a.29.29,0,0,1-.17.24.91.91,0,0,1-.82,0v.45a.91.91,0,0,0,.82,0A.29.29,0,0,0,470.36,281.42Z"/></clipPath><clipPath id="clip-path-42" transform="translate(-351.35 -163)"><path class="cls-4" d="M478.14,280.77v-.45a1.58,1.58,0,0,1-.93,1.3,4.5,4.5,0,0,1-2.21.52,4.42,4.42,0,0,1-2.19-.54V282a4.42,4.42,0,0,0,2.19.54,4.5,4.5,0,0,0,2.21-.52A1.58,1.58,0,0,0,478.14,280.77Z"/></clipPath></defs><title>loginscreen</title><g class="cls-5"><path class="cls-6" d="M626.42,295.78c-14.48-6.43-37.87-6.43-52.25,0a22.78,22.78,0,0,0-8.56,6c-.56-5.65-3.22-10.95-7.55-12.53l-1.68-.62v5.86h0v-5.85l-6.14,3.54h0l6.14-3.54-95.72-55.28-74.45,43h0v6.14l8.43,4.87v.41a33.87,33.87,0,0,0-6.79-.68c-10.23,0-18.53,4.31-18.53,9.63,0,5,7.42,9.16,16.89,9.59v.89l95.72,55.26,31.29-18.07a23,23,0,0,0,3.53,1.92c10.66,4.73,27.88,4.73,38.47,0s10.53-12.4-.13-17.14a41.45,41.45,0,0,0-10.5-2.89l11.79-6.81v-5.92h0v5.92a30.4,30.4,0,0,0,4.52-3.21,12.12,12.12,0,0,0,3.55-5.07c1.54,2.88,4.83,5.61,9.89,7.85,14.48,6.43,37.87,6.43,52.25,0S640.9,302.21,626.42,295.78Z" transform="translate(-351.35 -163)"/><polygon class="cls-7" points="123.17 214.34 50.7 172.52 0 201.81 72.43 243.63 123.17 214.34"/><ellipse class="cls-8" cx="71.97" cy="226.98" rx="7.96" ry="4.12"/><g class="cls-9"><rect class="cls-10" x="363.65" y="353.18" width="41.57" height="1.87" transform="translate(-477.51 79.44) rotate(-30.31)"/><rect class="cls-10" x="370.33" y="357.6" width="42.29" height="1.87" transform="translate(-477.65 78.46) rotate(-29.74)"/><rect class="cls-10" x="377.7" y="361.6" width="41.45" height="1.87" transform="translate(-477.34 76.4) rotate(-29.09)"/><rect class="cls-10" x="385.6" y="365.6" width="41.29" height="1.87" transform="translate(-479.48 85.96) rotate(-29.65)"/><rect class="cls-10" x="391.96" y="370.06" width="41.97" height="1.87" transform="translate(-481.8 94.51) rotate(-30.14)"/><rect class="cls-10" x="399.26" y="374.44" width="41.57" height="1.87" transform="translate(-483.37 100.31) rotate(-30.31)"/></g><g class="cls-11"><path class="cls-12" d="M447.25,367.57c7.82,3.47,7.86,9.1.09,12.57s-20.4,3.47-28.22,0-7.86-9.1-.09-12.57S439.43,364.1,447.25,367.57Z" transform="translate(-351.35 -163)"/></g><g class="cls-11"><path class="cls-12" d="M632.49,323.19c7.82,3.47,7.86,9.1.09,12.57s-20.4,3.47-28.22,0-7.86-9.1-.09-12.57S624.67,319.72,632.49,323.19Z" transform="translate(-351.35 -163)"/></g><polygon class="cls-13" points="188.13 143.06 193.22 139.35 192.89 129.74 112.86 99.59 54.32 133.39 129.59 176.84 188.13 143.06"/><polygon class="cls-14" points="129.69 181.43 54.43 137.98 54.43 133.15 129.69 176.6 129.69 181.43"/><polygon class="cls-14" points="54.42 113.72 129.69 157.17 188.24 123.39 112.97 79.92 54.42 113.72"/><path class="cls-15" d="M540.91,286.87l-1.32-.48v4.81h0c4.3,1.61,5.81,9.65,1.68,13.34l-1.68,1.29v4.81a23.89,23.89,0,0,0,3.55-2.53C549.22,303.19,547.64,289.34,540.91,286.87Z" transform="translate(-351.35 -163)"/><path class="cls-7" d="M426,274.82l58.55,33.88,38.85-22.37-58.79-34.19Z" transform="translate(-351.35 -163)"/><polygon class="cls-7" points="187.84 126.03 177.33 133.1 129.08 160.61 61.06 121.34 61.06 134.54 129.08 173.81 187.84 140.02 187.84 126.03"/><polygon class="cls-16" points="129.75 173.43 187.84 140.02 187.84 126.03 177.33 133.1 129.97 160.1 129.75 173.43"/><polygon class="cls-15" points="188.24 147.63 129.69 181.43 129.69 176.6 188.24 142.82 188.24 147.63"/><polygon class="cls-15" points="188.24 128.2 129.69 162 129.69 157.17 188.24 123.39 188.24 128.2"/><polygon class="cls-16" points="129.69 162 54.43 118.54 54.43 113.72 129.69 157.17 129.69 162"/><polygon class="cls-8" points="141.77 158.87 141.77 173.97 145.71 167.45 148.94 169.61 148.54 155.08 141.77 158.87"/><polygon class="cls-17" points="64.52 112.01 59.98 108.7 60.27 100.13 131.63 73.25 183.82 103.39 116.71 142.13 64.52 112.01"/><polygon class="cls-3" points="116.62 146.22 183.73 107.48 183.73 103.17 116.62 141.91 116.62 146.22"/><polygon class="cls-18" points="183.73 85.84 116.62 124.58 64.42 94.46 131.53 55.71 183.73 85.84"/><path class="cls-19" d="M414.59,257.9l1.18-.43v4.29h0c-3.84,1.44-5.18,8.61-1.5,11.89l1.5,1.15v4.29a21.3,21.3,0,0,1-3.17-2.25C407.18,272.45,408.58,260.1,414.59,257.9Z" transform="translate(-351.35 -163)"/><polygon class="cls-7" points="64.78 96.82 74.15 103.13 117.17 127.65 177.82 92.64 177.82 104.41 117.17 139.42 64.78 109.29 64.78 96.82"/><polygon class="cls-16" points="116.57 139.08 64.78 109.29 64.78 96.82 74.15 103.13 116.37 127.2 116.57 139.08"/><polygon class="cls-19" points="64.42 116.08 116.62 146.22 116.62 141.91 64.42 111.8 64.42 116.08"/><polygon class="cls-19" points="64.42 98.75 116.62 128.89 116.62 124.58 64.42 94.47 64.42 98.75"/><polygon class="cls-3" points="116.62 128.89 183.73 90.15 183.73 85.84 116.62 124.58 116.62 128.89"/><ellipse class="cls-3" cx="125.93" cy="93.4" rx="33.23" ry="14.98"/><ellipse class="cls-3" cx="87.63" cy="97.75" rx="10.7" ry="4.82"/><ellipse class="cls-3" cx="165.87" cy="90.41" rx="10.7" ry="4.82"/><polygon class="cls-20" points="178.14 45.95 178.14 48.54 121.65 81.17 65.13 48.54 65.13 45.95 178.14 45.95"/><path class="cls-10" d="M441.48,217.83v30c0,10.4,14.23,18.83,31.79,18.83s31.79-8.43,31.79-18.83v-30Z" transform="translate(-351.35 -163)"/><path class="cls-21" d="M442.05,226.3c-.86.24,8.63,13.28,24.32,22,9.14,5.11,26.52,6.23,36.43,6.43a12.39,12.39,0,0,0,2.26-7V225.47l-41.56-6.89S443.36,225.93,442.05,226.3Z" transform="translate(-351.35 -163)"/><polygon class="cls-20" points="65.13 48.54 121.64 15.92 178.14 48.54 121.65 81.17 65.13 48.54"/><polygon class="cls-10" points="65.13 45.95 121.64 13.33 178.14 45.95 121.65 78.58 65.13 45.95"/><polygon class="cls-4" points="121.65 81.17 121.65 78.58 65.13 45.95 65.13 48.54 121.65 81.17"/><path class="cls-18" d="M498.62,255.88H501a2.35,2.35,0,0,0,2.34-2.52l-1.18-6.14A2.35,2.35,0,0,0,499.8,245h0a2.35,2.35,0,0,0-2.34,2.18l-1.18,6.14A2.35,2.35,0,0,0,498.62,255.88Z" transform="translate(-351.35 -163)"/><polygon class="cls-18" points="147.91 93.07 149.05 93.07 149.05 58.73 117.85 40.33 117.27 41.31 147.91 59.38 147.91 93.07"/><circle class="cls-18" cx="148.44" cy="77.92" r="2.65"/><path class="cls-21" d="M518.93,333.49a1.09,1.09,0,0,1-.78-1l-10.08-72.47c-.08-.55.21-1,.65-1a1,1,0,0,1,.93,1l10.08,72.47c.08.55-.21,1-.65,1Z" transform="translate(-351.35 -163)"/><path class="cls-21" d="M537.09,326.15a1.09,1.09,0,0,1-.78-1l-10.08-72.47c-.08-.55.21-1,.65-1a1,1,0,0,1,.93,1l10.08,72.47c.08.55-.21,1-.65,1Z" transform="translate(-351.35 -163)"/><path class="cls-21" d="M511.11,275.26a1,1,0,0,1-.67-.58,1,1,0,0,1,.26-1.31l17.38-10.2c.38-.22.87,0,1.1.51a1,1,0,0,1-.26,1.31l-17.38,10.2A.61.61,0,0,1,511.11,275.26Z" transform="translate(-351.35 -163)"/><path class="cls-21" d="M512.78,288.16a1,1,0,0,1-.67-.58,1,1,0,0,1,.26-1.31l17.38-10.2c.37-.22.87,0,1.1.51a1,1,0,0,1-.26,1.31l-17.38,10.2A.61.61,0,0,1,512.78,288.16Z" transform="translate(-351.35 -163)"/><path class="cls-21" d="M514.45,301.06a1,1,0,0,1-.67-.58,1,1,0,0,1,.26-1.31L531.42,289a.82.82,0,0,1,1.1.51,1,1,0,0,1-.26,1.31L514.89,301A.61.61,0,0,1,514.45,301.06Z" transform="translate(-351.35 -163)"/><path class="cls-21" d="M516.12,314a1,1,0,0,1-.67-.58,1,1,0,0,1,.26-1.31l17.38-10.2a.82.82,0,0,1,1.1.51,1,1,0,0,1-.26,1.31l-17.38,10.2A.61.61,0,0,1,516.12,314Z" transform="translate(-351.35 -163)"/><path class="cls-21" d="M517.8,326.86a1,1,0,0,1-.67-.58,1,1,0,0,1,.26-1.31l17.38-10.2a.82.82,0,0,1,1.1.51,1,1,0,0,1-.26,1.31l-17.38,10.2A.61.61,0,0,1,517.8,326.86Z" transform="translate(-351.35 -163)"/><circle class="cls-22" cx="527.71" cy="264.46" r="1.51" transform="translate(-409.26 27.6) rotate(-19.43)"/><path class="cls-22" d="M528.47,265.12s4.15,8.6,4.53,10.12c.29,1.17-1.87,2.82-2.73,1.92s-3.12-11.66-3.12-11.66Z" transform="translate(-351.35 -163)"/><path class="cls-21" d="M536.54,280.17a37.5,37.5,0,0,1-4-6.93c-.15-.29-.34-.61-.66-.69a1.19,1.19,0,0,0-.74.14c-.94.4-2,1-2,2.06a2.57,2.57,0,0,0,.25.92A104.07,104.07,0,0,0,536,288.73c.39.66.9,1.38,1.66,1.45s1.47-.63,1.91-1.31c.73-1.15,2-3.46,1.35-4.86S537.64,281.51,536.54,280.17Z" transform="translate(-351.35 -163)"/><circle class="cls-22" cx="517.25" cy="269.76" r="1.51" transform="translate(-411.62 24.41) rotate(-19.43)"/><path class="cls-18" d="M542.88,334.87a2.62,2.62,0,0,1-2.51-1.86l-4.23-13.85a2.59,2.59,0,0,1-.1-.46l-2.11-18.31a2.62,2.62,0,1,1,5.21-.6l2.09,18.08,4.16,13.62a2.63,2.63,0,0,1-2.51,3.39Z" transform="translate(-351.35 -163)"/><circle class="cls-22" cx="536.02" cy="280.16" r="4.59" transform="translate(-347.95 403.73) rotate(-55.88)"/><path class="cls-18" d="M524.8,322.43a2.62,2.62,0,0,1-2.55-2l-2.82-11.51a2.62,2.62,0,0,1,1.29-2.93l10.33-5.63a2.62,2.62,0,1,1,2.51,4.61L525,309.63l2.34,9.54a2.63,2.63,0,0,1-2.55,3.25Z" transform="translate(-351.35 -163)"/><path class="cls-10" d="M526.43,321.4s-.09,1.88-.11,2.05-.82.57-2,.34-4.44-1.32-5-1.89,1.24-.44,2.35-.34a21.36,21.36,0,0,0,3.26-.16Z" transform="translate(-351.35 -163)"/><path class="cls-10" d="M539,294.89a47.55,47.55,0,0,0,1.53-5c1-3.1.71-4.82.25-5.73-1.63-.81-4.42.51-4.42.51A25.63,25.63,0,0,0,530,288c-.84.69-.29,4.27-.11,8a19.1,19.1,0,0,1-1.11,5.91s4.28,1.84,6.57,1.68,5-1.22,4.74-2.29S538.43,296.27,539,294.89Z" transform="translate(-351.35 -163)"/><path class="cls-22" d="M518,270.42s4.15,8.6,4.53,10.12c.29,1.17-1.87,2.82-2.73,1.92s-3.12-11.66-3.12-11.66Z" transform="translate(-351.35 -163)"/><path class="cls-22" d="M536.33,280.55l.69,4.92h0a2.94,2.94,0,0,1-2.8,1.76l-.57,0-1.1-5.18Z" transform="translate(-351.35 -163)"/><path class="cls-8" d="M532.77,279.57a1,1,0,0,1,1.62.2,1.48,1.48,0,0,1-.34,1.47,3.06,3.06,0,0,1-1.19.59c.66,1.62,1.93,2.86,3,4.27,1.12-.44,1.56-.76,2.68-1.2a4.83,4.83,0,0,0,1.44-.76,5.74,5.74,0,0,0,1.6-4.06,6.07,6.07,0,0,0-2.47-4.17,5.12,5.12,0,0,0-4.23-.61C533.13,275.8,533.16,278,532.77,279.57Z" transform="translate(-351.35 -163)"/><circle class="cls-21" cx="540.84" cy="279.07" r="3.45" transform="translate(-344.93 407.23) rotate(-55.88)"/><circle class="cls-8" cx="541.66" cy="278.91" r="3.71" transform="translate(-344.44 407.84) rotate(-55.88)"/><path class="cls-10" d="M530.79,287.72l1.36.94a5.13,5.13,0,0,1,1.28,1.12,1.74,1.74,0,0,1,.3,1.61,2.42,2.42,0,0,1-1.89,1.2,16.07,16.07,0,0,1-3.34.37,16.07,16.07,0,0,1-3.19-1.53,13.69,13.69,0,0,1-4.43-5.74q-.82-1.7-1.49-3.46a4.54,4.54,0,0,0,2-.4,1.73,1.73,0,0,0,1.25-1.6L525,285a8.73,8.73,0,0,0,1,1.62C527,287.76,529.29,288,530.79,287.72Z" transform="translate(-351.35 -163)"/><path class="cls-10" d="M543,333.29s.39,1.18.72,2.09,0,2.94.52,3.79,2,.13,1.89-.59a30.59,30.59,0,0,0-.65-3.92,14.64,14.64,0,0,0-1.53-1.91Z" transform="translate(-351.35 -163)"/><circle class="cls-18" cx="271.48" cy="140.57" r="9.54"/><path class="cls-21" d="M618.62,299.81A2,2,0,0,1,617,299l-14.68-19.43a2,2,0,1,1,3.19-2.41l14.68,19.43a2,2,0,0,1-1.59,3.2Z" transform="translate(-351.35 -163)"/><circle class="cls-18" cx="249.25" cy="128.8" r="8.29"/><path class="cls-21" d="M600.26,290.86a2,2,0,0,1-2-2V274.94a2,2,0,1,1,4,0v13.92A2,2,0,0,1,600.26,290.86Z" transform="translate(-351.35 -163)"/><circle class="cls-18" cx="259.02" cy="67.42" r="9.1"/><circle class="cls-14" cx="248.18" cy="112.22" r="7.54"/><path class="cls-21" d="M599.3,274.92a2,2,0,0,1-2-2V251a2,2,0,1,1,4,0v21.92A2,2,0,0,1,599.3,274.92Z" transform="translate(-351.35 -163)"/><path class="cls-21" d="M602,247.16a2,2,0,0,1-1.75-3l7.6-13.75a2,2,0,1,1,3.5,1.93l-7.6,13.75A2,2,0,0,1,602,247.16Z" transform="translate(-351.35 -163)"/><circle class="cls-8" cx="247.78" cy="87.45" r="9.54"/><path class="cls-21" d="M596.27,251.38a2,2,0,0,1-1.38-.55l-14.41-13.72a2,2,0,1,1,2.76-2.9l14.41,13.72a2,2,0,0,1-1.38,3.45Z" transform="translate(-351.35 -163)"/><circle class="cls-8" cx="225.28" cy="140.57" r="9.54"/><path class="cls-21" d="M580.83,299.81a2,2,0,0,1-1.59-3.2l14.68-19.43a2,2,0,0,1,3.19,2.41L582.42,299A2,2,0,0,1,580.83,299.81Z" transform="translate(-351.35 -163)"/><circle class="cls-14" cx="233.47" cy="75.47" r="9.1"/><g class="cls-23"><g class="cls-23"><path class="cls-4" d="M592.91,336v.73a2.56,2.56,0,0,0-1.5-2.05,7.34,7.34,0,0,0-3.61-.86,7.2,7.2,0,0,0-3.56.87v-.77a7.19,7.19,0,0,1,3.56-.87,7.34,7.34,0,0,1,3.61.86,2.56,2.56,0,0,1,1.5,2.05Z" transform="translate(-351.35 -163)"/><g class="cls-24"><g class="cls-23"><path class="cls-4" d="M592.91,336v.73a2.56,2.56,0,0,0-1.5-2.05,5.74,5.74,0,0,0-.74-.35v-.77a5.74,5.74,0,0,1,.74.35,2.56,2.56,0,0,1,1.5,2.05v0" transform="translate(-351.35 -163)"/><path class="cls-4" d="M590.68,333.56v.77q-.3-.12-.62-.21v-.77q.32.09.62.21" transform="translate(-351.35 -163)"/><path class="cls-4" d="M590.06,333.35v.77l-.53-.13v-.77l.53.13" transform="translate(-351.35 -163)"/><path class="cls-4" d="M589.53,333.23V334l-.49-.09v-.77l.49.09" transform="translate(-351.35 -163)"/><path class="cls-4" d="M589,333.14v.77l-.49-.05v-.77l.49.05" transform="translate(-351.35 -163)"/><path class="cls-4" d="M588.55,333.09v.77l-.5,0v-.77l.5,0" transform="translate(-351.35 -163)"/><path class="cls-4" d="M588.06,333.06v.77h-.52v-.77h.52" transform="translate(-351.35 -163)"/><path class="cls-4" d="M587.54,333.06v.77l-.56,0v-.77l.56,0" transform="translate(-351.35 -163)"/><path class="cls-4" d="M587,333.1v.77l-.64.09v-.77l.64-.09" transform="translate(-351.35 -163)"/><path class="cls-4" d="M586.33,333.19V334a7.3,7.3,0,0,0-.94.23v-.77a7.28,7.28,0,0,1,.94-.23" transform="translate(-351.35 -163)"/><path class="cls-4" d="M585.39,333.42v.77a5.74,5.74,0,0,0-1.15.51v-.77a5.74,5.74,0,0,1,1.15-.51" transform="translate(-351.35 -163)"/></g></g></g><g class="cls-23"><path class="cls-4" d="M594.91,336v.77a3.48,3.48,0,0,1-2,2.85v-.77A3.48,3.48,0,0,0,594.91,336Z" transform="translate(-351.35 -163)"/><g class="cls-25"><g class="cls-23"><path class="cls-4" d="M594.91,336v.06s0,0,0-.06" transform="translate(-351.35 -163)"/><path class="cls-4" d="M594.91,336.07v.77a2.44,2.44,0,0,1,0,.41v-.77a2.43,2.43,0,0,0,0-.41" transform="translate(-351.35 -163)"/><path class="cls-4" d="M594.86,336.48v.77a2.55,2.55,0,0,1-.11.4v-.77a2.56,2.56,0,0,0,.11-.4" transform="translate(-351.35 -163)"/><path class="cls-4" d="M594.75,336.87v.77a2.83,2.83,0,0,1-.19.4v-.77a2.84,2.84,0,0,0,.19-.4" transform="translate(-351.35 -163)"/><path class="cls-4" d="M594.56,337.27V338a3.31,3.31,0,0,1-.28.42v-.77a3.3,3.3,0,0,0,.28-.42" transform="translate(-351.35 -163)"/><path class="cls-4" d="M594.28,337.69v.77a4,4,0,0,1-.44.47v-.77a4.06,4.06,0,0,0,.44-.47" transform="translate(-351.35 -163)"/><path class="cls-4" d="M593.85,338.16v.77a5.47,5.47,0,0,1-.89.66v-.77a5.48,5.48,0,0,0,.89-.66" transform="translate(-351.35 -163)"/><path class="cls-4" d="M593,338.82v.77l-.06,0v-.77l.06,0" transform="translate(-351.35 -163)"/></g></g></g><g class="cls-23"><path class="cls-4" d="M584.11,339.17v.77h0a.83.83,0,0,0-.48-.66,2.53,2.53,0,0,0-2.3,0v-.77a2.53,2.53,0,0,1,2.3,0,.83.83,0,0,1,.48.66Z" transform="translate(-351.35 -163)"/><g class="cls-26"><g class="cls-23"><path class="cls-4" d="M584.11,339.17v.77h0a.83.83,0,0,0-.48-.66l-.23-.11v-.77l.23.11a.83.83,0,0,1,.48.66h0" transform="translate(-351.35 -163)"/><path class="cls-4" d="M583.4,338.39v.77l-.2-.07v-.77l.2.07" transform="translate(-351.35 -163)"/><path class="cls-4" d="M583.2,338.32v.77l-.17,0v-.77l.17,0" transform="translate(-351.35 -163)"/><path class="cls-4" d="M583,338.28V339l-.16,0v-.77l.16,0" transform="translate(-351.35 -163)"/><path class="cls-4" d="M582.87,338.25V339l-.16,0v-.77l.16,0" transform="translate(-351.35 -163)"/><path class="cls-4" d="M582.71,338.23V339h-.16v-.77h.16" transform="translate(-351.35 -163)"/><path class="cls-4" d="M582.55,338.22V339h-.17v-.77h.17" transform="translate(-351.35 -163)"/><path class="cls-4" d="M582.39,338.23V339h-.18v-.77h.18" transform="translate(-351.35 -163)"/><path class="cls-4" d="M582.21,338.24V339l-.21,0v-.77l.21,0" transform="translate(-351.35 -163)"/><path class="cls-4" d="M582,338.27V339l-.31.08v-.77l.3-.08" transform="translate(-351.35 -163)"/><path class="cls-4" d="M581.7,338.34v.77a1.81,1.81,0,0,0-.36.16v-.77a1.8,1.8,0,0,1,.36-.16" transform="translate(-351.35 -163)"/></g></g></g><g class="cls-23"><path class="cls-4" d="M586.11,339.17v.77a1.81,1.81,0,0,1-1,1.46v-.77A1.81,1.81,0,0,0,586.11,339.17Z" transform="translate(-351.35 -163)"/><g class="cls-27"><g class="cls-23"><path class="cls-4" d="M586.11,339.17v0" transform="translate(-351.35 -163)"/><path class="cls-4" d="M586.11,339.2V340a1.2,1.2,0,0,1,0,.2v-.77a1.21,1.21,0,0,0,0-.2" transform="translate(-351.35 -163)"/><path class="cls-4" d="M586.09,339.41v.77a1.32,1.32,0,0,1-.06.2v-.77a1.31,1.31,0,0,0,.06-.2" transform="translate(-351.35 -163)"/><path class="cls-4" d="M586,339.61v.77a1.48,1.48,0,0,1-.1.21v-.77a1.47,1.47,0,0,0,.1-.21" transform="translate(-351.35 -163)"/><path class="cls-4" d="M585.93,339.82v.77a1.74,1.74,0,0,1-.15.22V340a1.72,1.72,0,0,0,.15-.22" transform="translate(-351.35 -163)"/><path class="cls-4" d="M585.79,340v.77a2.12,2.12,0,0,1-.23.25v-.77a2.12,2.12,0,0,0,.23-.25" transform="translate(-351.35 -163)"/><path class="cls-4" d="M585.56,340.28v.77a2.76,2.76,0,0,1-.45.33v-.77a2.76,2.76,0,0,0,.45-.33" transform="translate(-351.35 -163)"/><path class="cls-4" d="M585.11,340.62v.77l0,0v-.77l0,0" transform="translate(-351.35 -163)"/></g></g></g><polygon class="cls-4" points="229.99 175.5 229.99 176.27 222.48 180.7 222.49 179.93 229.99 175.5"/><g class="cls-23"><path class="cls-4" d="M572.12,343.29v-.77a.51.51,0,0,0,.3.42,1.56,1.56,0,0,0,1.41,0v.77a1.56,1.56,0,0,1-1.41,0A.51.51,0,0,1,572.12,343.29Z" transform="translate(-351.35 -163)"/><g class="cls-28"><g class="cls-23"><path class="cls-4" d="M573.83,342.93v.77a1.12,1.12,0,0,1-.22.1V343l.22-.1" transform="translate(-351.35 -163)"/><path class="cls-4" d="M573.61,343v.77l-.19,0v-.77l.19,0" transform="translate(-351.35 -163)"/><path class="cls-4" d="M573.42,343.07v.77l-.13,0v-.77l.13,0" transform="translate(-351.35 -163)"/><path class="cls-4" d="M573.29,343.09v.77h-.11v-.77h.11" transform="translate(-351.35 -163)"/><path class="cls-4" d="M573.18,343.1v.77h-.1v-.77h.1" transform="translate(-351.35 -163)"/><path class="cls-4" d="M573.08,343.1v.77H573v-.77h.1" transform="translate(-351.35 -163)"/><path class="cls-4" d="M573,343.09v.77h-.1v-.77h.1" transform="translate(-351.35 -163)"/><path class="cls-4" d="M572.88,343.08v.77l-.1,0v-.77l.1,0" transform="translate(-351.35 -163)"/><path class="cls-4" d="M572.78,343.07v.77l-.1,0V343l.1,0" transform="translate(-351.35 -163)"/><path class="cls-4" d="M572.68,343v.77l-.12,0V343l.12,0" transform="translate(-351.35 -163)"/><path class="cls-4" d="M572.56,343v.77l-.14-.07a.51.51,0,0,1-.3-.42v-.77a.51.51,0,0,0,.3.42l.14.07" transform="translate(-351.35 -163)"/></g></g></g><polygon class="cls-4" points="232.89 170.93 232.89 171.7 216.53 181.34 216.54 180.58 232.89 170.93"/><g class="cls-23"><path class="cls-4" d="M566.93,345.7v-.77a1.65,1.65,0,0,1,1-1.35v.77A1.65,1.65,0,0,0,566.93,345.7Z" transform="translate(-351.35 -163)"/><g class="cls-29"><g class="cls-23"><path class="cls-4" d="M567.88,343.58v.77h0v-.77h0" transform="translate(-351.35 -163)"/><path class="cls-4" d="M567.86,343.59v.77a2.58,2.58,0,0,0-.42.31v-.77a2.59,2.59,0,0,1,.42-.31" transform="translate(-351.35 -163)"/><path class="cls-4" d="M567.44,343.9v.77a1.91,1.91,0,0,0-.21.22v-.77a1.93,1.93,0,0,1,.21-.22" transform="translate(-351.35 -163)"/><path class="cls-4" d="M567.23,344.13v.77a1.56,1.56,0,0,0-.13.2v-.77a1.59,1.59,0,0,1,.13-.2" transform="translate(-351.35 -163)"/><path class="cls-4" d="M567.1,344.33v.77a1.34,1.34,0,0,0-.09.19v-.77a1.37,1.37,0,0,1,.09-.19" transform="translate(-351.35 -163)"/><path class="cls-4" d="M567,344.52v.77a1.21,1.21,0,0,0-.05.19v-.77a1.23,1.23,0,0,1,.05-.19" transform="translate(-351.35 -163)"/><path class="cls-4" d="M567,344.71v.77a1.15,1.15,0,0,0,0,.19v-.77a1.15,1.15,0,0,1,0-.19" transform="translate(-351.35 -163)"/><path class="cls-4" d="M566.93,344.9v0" transform="translate(-351.35 -163)"/></g></g></g><polygon class="cls-4" points="241.55 175.85 241.55 176.62 228.67 184.22 228.67 183.45 241.55 175.85"/><g class="cls-23"><path class="cls-4" d="M578.3,346.8V346a.51.51,0,0,0,.3.42,1.56,1.56,0,0,0,1.41,0v.77a1.56,1.56,0,0,1-1.41,0A.51.51,0,0,1,578.3,346.8Z" transform="translate(-351.35 -163)"/><g class="cls-30"><g class="cls-23"><path class="cls-4" d="M580,346.45v.77l-.22.1v-.77l.22-.1" transform="translate(-351.35 -163)"/><path class="cls-4" d="M579.8,346.55v.77l-.19,0v-.77l.19,0" transform="translate(-351.35 -163)"/><path class="cls-4" d="M579.61,346.59v.77l-.13,0v-.77l.13,0" transform="translate(-351.35 -163)"/><path class="cls-4" d="M579.48,346.61v.77h-.11v-.77h.11" transform="translate(-351.35 -163)"/><path class="cls-4" d="M579.37,346.62v.77h-.1v-.77h.1" transform="translate(-351.35 -163)"/><path class="cls-4" d="M579.27,346.62v.77h-.1v-.77h.1" transform="translate(-351.35 -163)"/><path class="cls-4" d="M579.17,346.61v.77h-.1v-.77h.1" transform="translate(-351.35 -163)"/><path class="cls-4" d="M579.07,346.6v.77l-.1,0v-.77l.1,0" transform="translate(-351.35 -163)"/><path class="cls-4" d="M579,346.58v.77l-.1,0v-.77l.1,0" transform="translate(-351.35 -163)"/><path class="cls-4" d="M578.87,346.56v.77l-.12,0v-.77l.12,0" transform="translate(-351.35 -163)"/><path class="cls-4" d="M578.74,346.52v.77l-.14-.07a.51.51,0,0,1-.3-.42V346a.51.51,0,0,0,.3.42l.14.07" transform="translate(-351.35 -163)"/></g></g></g><polygon class="cls-4" points="233.73 177.63 233.73 178.4 222.75 184.88 222.75 184.11 233.73 177.63"/><g class="cls-23"><path class="cls-4" d="M564.93,345.68v-.77a2.71,2.71,0,0,0,1.6,2.23,7.74,7.74,0,0,0,3.8.89,7.59,7.59,0,0,0,3.76-.92v.77a7.59,7.59,0,0,1-3.76.92,7.74,7.74,0,0,1-3.8-.89A2.71,2.71,0,0,1,564.93,345.68Z" transform="translate(-351.35 -163)"/><g class="cls-31"><g class="cls-23"><path class="cls-4" d="M574.1,347.11v.77a6,6,0,0,1-1.22.54v-.77a6.05,6.05,0,0,0,1.22-.54" transform="translate(-351.35 -163)"/><path class="cls-4" d="M572.87,347.65v.77a7.7,7.7,0,0,1-1,.24v-.77a7.73,7.73,0,0,0,1-.24" transform="translate(-351.35 -163)"/><path class="cls-4" d="M571.89,347.9v.77l-.68.09V348l.68-.09" transform="translate(-351.35 -163)"/><path class="cls-4" d="M571.2,348v.77l-.59,0V348l.59,0" transform="translate(-351.35 -163)"/><path class="cls-4" d="M570.61,348v.77h-.56V348h.56" transform="translate(-351.35 -163)"/><path class="cls-4" d="M570.05,348v.77l-.53,0V348l.53,0" transform="translate(-351.35 -163)"/><path class="cls-4" d="M569.53,348v.77l-.52-.06v-.77l.52.06" transform="translate(-351.35 -163)"/><path class="cls-4" d="M569,347.95v.77l-.52-.09v-.77l.52.09" transform="translate(-351.35 -163)"/><path class="cls-4" d="M568.49,347.85v.77l-.56-.14v-.77l.56.14" transform="translate(-351.35 -163)"/><path class="cls-4" d="M567.93,347.72v.77c-.22-.06-.44-.14-.64-.22v-.77c.21.08.42.15.64.22" transform="translate(-351.35 -163)"/><path class="cls-4" d="M567.29,347.5v.77a5.89,5.89,0,0,1-.75-.36,2.71,2.71,0,0,1-1.6-2.23v-.77a2.71,2.71,0,0,0,1.6,2.23,5.88,5.88,0,0,0,.75.36" transform="translate(-351.35 -163)"/></g></g></g></g><path class="cls-32" d="M592.79,333.07a3.6,3.6,0,0,1,2.12,2.88,3.46,3.46,0,0,1-2,2.9L580,346.45a1.56,1.56,0,0,1-1.41,0c-.39-.23-.4-.59,0-.82L591.47,338a2.48,2.48,0,0,0,1.44-2.08,2.56,2.56,0,0,0-1.5-2.05,7.34,7.34,0,0,0-3.61-.86,7.19,7.19,0,0,0-3.56.87l-16.36,9.65c-1.28.76-1.27,2,0,2.73a5.38,5.38,0,0,0,4.75,0l11-6.48a.8.8,0,0,0,.46-.67.83.83,0,0,0-.48-.66,2.53,2.53,0,0,0-2.3,0l-7.5,4.42a1.56,1.56,0,0,1-1.41,0c-.39-.23-.4-.59,0-.82l7.5-4.42a5.65,5.65,0,0,1,5.12,0,1.84,1.84,0,0,1,1.09,1.48,1.79,1.79,0,0,1-1,1.49l-11,6.48a7.59,7.59,0,0,1-3.76.92,7.74,7.74,0,0,1-3.8-.89c-2.11-1.22-2.13-3.17-.08-4.38l16.36-9.65a10,10,0,0,1,5-1.22A10.21,10.21,0,0,1,592.79,333.07Z" transform="translate(-351.35 -163)"/><g class="cls-23"><g class="cls-23"><path class="cls-2" d="M566.56,252.29v.62s0,0,0,0a2.07,2.07,0,0,0-1.21-1.66,6,6,0,0,0-2.93-.69,5.83,5.83,0,0,0-2.88.71v-.62a5.83,5.83,0,0,1,2.88-.71,6,6,0,0,1,2.93.69,2.07,2.07,0,0,1,1.21,1.66Z" transform="translate(-351.35 -163)"/><g class="cls-33"><g class="cls-23"><path class="cls-2" d="M566.56,252.29v.59a2.07,2.07,0,0,0-1.21-1.66,4.66,4.66,0,0,0-.6-.28v-.62a4.66,4.66,0,0,1,.6.28,2.07,2.07,0,0,1,1.21,1.66v0" transform="translate(-351.35 -163)"/><path class="cls-2" d="M564.76,250.31v.62l-.5-.17v-.62l.5.17" transform="translate(-351.35 -163)"/><path class="cls-2" d="M564.26,250.14v.62l-.43-.1V250l.43.1" transform="translate(-351.35 -163)"/><path class="cls-2" d="M563.83,250v.62l-.4-.07V250l.4.07" transform="translate(-351.35 -163)"/><path class="cls-2" d="M563.43,250v.62l-.39,0v-.62l.39,0" transform="translate(-351.35 -163)"/><path class="cls-2" d="M563,249.93v.62l-.4,0v-.62l.4,0" transform="translate(-351.35 -163)"/><path class="cls-2" d="M562.63,249.91v.62h-.42v-.62h.42" transform="translate(-351.35 -163)"/><path class="cls-2" d="M562.21,249.91v.62l-.45,0v-.62l.45,0" transform="translate(-351.35 -163)"/><path class="cls-2" d="M561.75,249.94v.62l-.52.07V250l.52-.07" transform="translate(-351.35 -163)"/><path class="cls-2" d="M561.23,250v.62a5.91,5.91,0,0,0-.76.19v-.62a5.93,5.93,0,0,1,.76-.19" transform="translate(-351.35 -163)"/><path class="cls-2" d="M560.47,250.2v.62a4.65,4.65,0,0,0-.94.41v-.62a4.66,4.66,0,0,1,.94-.41" transform="translate(-351.35 -163)"/></g></g></g><g class="cls-23"><path class="cls-2" d="M568.19,252.29v.62a2.82,2.82,0,0,1-1.63,2.31v-.62A2.82,2.82,0,0,0,568.19,252.29Z" transform="translate(-351.35 -163)"/><g class="cls-34"><g class="cls-23"><path class="cls-2" d="M568.19,252.29v0" transform="translate(-351.35 -163)"/><path class="cls-2" d="M568.19,252.35V253a2,2,0,0,1,0,.33v-.62a2,2,0,0,0,0-.33" transform="translate(-351.35 -163)"/><path class="cls-2" d="M568.15,252.68v.62a2.07,2.07,0,0,1-.09.32V253a2.06,2.06,0,0,0,.09-.32" transform="translate(-351.35 -163)"/><path class="cls-2" d="M568.06,253v.62a2.29,2.29,0,0,1-.15.32v-.62a2.28,2.28,0,0,0,.15-.32" transform="translate(-351.35 -163)"/><path class="cls-2" d="M567.91,253.32v.62a2.68,2.68,0,0,1-.23.34v-.62a2.66,2.66,0,0,0,.23-.34" transform="translate(-351.35 -163)"/><path class="cls-2" d="M567.68,253.66v.62a3.28,3.28,0,0,1-.35.38V254a3.29,3.29,0,0,0,.35-.38" transform="translate(-351.35 -163)"/><path class="cls-2" d="M567.33,254v.62a4.44,4.44,0,0,1-.72.54v-.62a4.44,4.44,0,0,0,.72-.53" transform="translate(-351.35 -163)"/><path class="cls-2" d="M566.61,254.57v.62l-.05,0v-.62l.05,0" transform="translate(-351.35 -163)"/></g></g></g><g class="cls-23"><path class="cls-2" d="M559.44,254.85v.62h0a.67.67,0,0,0-.39-.53,2,2,0,0,0-1.86,0v-.62a2,2,0,0,1,1.86,0,.67.67,0,0,1,.39.53Z" transform="translate(-351.35 -163)"/><g class="cls-35"><g class="cls-23"><path class="cls-2" d="M559.44,254.85v.62h0a.67.67,0,0,0-.39-.53l-.18-.09v-.62l.18.09a.67.67,0,0,1,.39.53h0" transform="translate(-351.35 -163)"/><path class="cls-2" d="M558.86,254.22v.62l-.16-.05v-.62l.16.05" transform="translate(-351.35 -163)"/><path class="cls-2" d="M558.7,254.17v.62l-.14,0v-.62l.14,0" transform="translate(-351.35 -163)"/><path class="cls-2" d="M558.56,254.14v.62l-.13,0v-.62l.13,0" transform="translate(-351.35 -163)"/><path class="cls-2" d="M558.43,254.11v.62h-.13v-.62h.13" transform="translate(-351.35 -163)"/><path class="cls-2" d="M558.3,254.1v.62h-.13v-.62h.13" transform="translate(-351.35 -163)"/><path class="cls-2" d="M558.17,254.09v.62H558v-.62h.13" transform="translate(-351.35 -163)"/><path class="cls-2" d="M558,254.09v.62h-.15v-.62H558" transform="translate(-351.35 -163)"/><path class="cls-2" d="M557.89,254.1v.62l-.17,0v-.62l.17,0" transform="translate(-351.35 -163)"/><path class="cls-2" d="M557.72,254.13v.62l-.25.06v-.62l.25-.06" transform="translate(-351.35 -163)"/><path class="cls-2" d="M557.48,254.19v.62a1.47,1.47,0,0,0-.29.13v-.62a1.46,1.46,0,0,1,.29-.13" transform="translate(-351.35 -163)"/></g></g></g><g class="cls-23"><path class="cls-2" d="M561.06,254.86v.62a1.47,1.47,0,0,1-.84,1.18V256A1.47,1.47,0,0,0,561.06,254.86Z" transform="translate(-351.35 -163)"/><g class="cls-36"><g class="cls-23"><path class="cls-2" d="M561.06,254.86v0" transform="translate(-351.35 -163)"/><path class="cls-2" d="M561.05,254.89v.62a1,1,0,0,1,0,.16v-.62a1,1,0,0,0,0-.16" transform="translate(-351.35 -163)"/><path class="cls-2" d="M561,255.05v.62a1.06,1.06,0,0,1,0,.16v-.62a1.07,1.07,0,0,0,0-.16" transform="translate(-351.35 -163)"/><path class="cls-2" d="M561,255.22v.62a1.19,1.19,0,0,1-.08.17v-.62a1.2,1.2,0,0,0,.08-.17" transform="translate(-351.35 -163)"/><path class="cls-2" d="M560.91,255.38V256l-.12.18v-.62l.12-.18" transform="translate(-351.35 -163)"/><path class="cls-2" d="M560.79,255.56v.62a1.71,1.71,0,0,1-.18.2v-.62a1.72,1.72,0,0,0,.18-.2" transform="translate(-351.35 -163)"/><path class="cls-2" d="M560.61,255.76v.62a2.23,2.23,0,0,1-.36.27V256a2.24,2.24,0,0,0,.36-.27" transform="translate(-351.35 -163)"/><path class="cls-2" d="M560.24,256v.62l0,0V256l0,0" transform="translate(-351.35 -163)"/></g></g></g><polygon class="cls-2" points="205.84 91.32 205.84 91.94 199.75 95.53 199.76 94.9 205.84 91.32"/><g class="cls-23"><path class="cls-2" d="M549.71,258.19v-.62a.41.41,0,0,0,.24.34,1.26,1.26,0,0,0,1.14,0v.62a1.26,1.26,0,0,1-1.14,0A.41.41,0,0,1,549.71,258.19Z" transform="translate(-351.35 -163)"/><g class="cls-37"><g class="cls-23"><path class="cls-2" d="M551.1,257.9v.62l-.18.08V258l.18-.08" transform="translate(-351.35 -163)"/><path class="cls-2" d="M550.92,258v.62l-.15,0V258l.15,0" transform="translate(-351.35 -163)"/><path class="cls-2" d="M550.77,258v.62h-.1V258h.1" transform="translate(-351.35 -163)"/><path class="cls-2" d="M550.66,258v.62h-.09V258h.09" transform="translate(-351.35 -163)"/><path class="cls-2" d="M550.57,258v.62h-.08V258h.08" transform="translate(-351.35 -163)"/><path class="cls-2" d="M550.49,258v.62h-.08V258h.08" transform="translate(-351.35 -163)"/><path class="cls-2" d="M550.41,258v.62h-.08V258h.08" transform="translate(-351.35 -163)"/><path class="cls-2" d="M550.33,258v.62h-.08V258h.08" transform="translate(-351.35 -163)"/><path class="cls-2" d="M550.25,258v.62l-.08,0V258l.08,0" transform="translate(-351.35 -163)"/><path class="cls-2" d="M550.17,258v.62l-.1,0V258l.1,0" transform="translate(-351.35 -163)"/><path class="cls-2" d="M550.07,258v.62l-.11-.05a.41.41,0,0,1-.24-.34v-.62a.41.41,0,0,0,.24.34l.11.05" transform="translate(-351.35 -163)"/></g></g></g><polygon class="cls-2" points="208.19 87.61 208.19 88.23 194.93 96.05 194.93 95.43 208.19 87.61"/><g class="cls-23"><path class="cls-2" d="M545.51,260.15v-.62a1.34,1.34,0,0,1,.77-1.1v.62A1.34,1.34,0,0,0,545.51,260.15Z" transform="translate(-351.35 -163)"/><g class="cls-38"><g class="cls-23"><path class="cls-2" d="M546.28,258.43v.62h0v-.62h0" transform="translate(-351.35 -163)"/><path class="cls-2" d="M546.26,258.44v.62a2.1,2.1,0,0,0-.34.25v-.62a2.1,2.1,0,0,1,.34-.25" transform="translate(-351.35 -163)"/><path class="cls-2" d="M545.92,258.69v.62l-.17.18v-.62l.17-.18" transform="translate(-351.35 -163)"/><path class="cls-2" d="M545.75,258.88v.62l-.11.16V259l.11-.16" transform="translate(-351.35 -163)"/><path class="cls-2" d="M545.64,259v.62a1.12,1.12,0,0,0-.07.15v-.62a1.09,1.09,0,0,1,.07-.15" transform="translate(-351.35 -163)"/><path class="cls-2" d="M545.57,259.19v.62a1,1,0,0,0,0,.15v-.62a1,1,0,0,1,0-.15" transform="translate(-351.35 -163)"/><path class="cls-2" d="M545.53,259.34V260a.92.92,0,0,0,0,.16v-.62a.93.93,0,0,1,0-.16" transform="translate(-351.35 -163)"/><path class="cls-2" d="M545.51,259.5v0" transform="translate(-351.35 -163)"/></g></g></g><polygon class="cls-2" points="215.21 91.6 215.21 92.23 204.77 98.38 204.77 97.76 215.21 91.6"/><g class="cls-23"><path class="cls-2" d="M554.73,261v-.62a.41.41,0,0,0,.24.34,1.26,1.26,0,0,0,1.15,0v.62a1.26,1.26,0,0,1-1.15,0A.41.41,0,0,1,554.73,261Z" transform="translate(-351.35 -163)"/><g class="cls-39"><g class="cls-23"><path class="cls-2" d="M556.12,260.76v.62l-.18.08v-.62l.18-.08" transform="translate(-351.35 -163)"/><path class="cls-2" d="M555.94,260.84v.62l-.15,0v-.62l.15,0" transform="translate(-351.35 -163)"/><path class="cls-2" d="M555.78,260.87v.62h-.1v-.62h.1" transform="translate(-351.35 -163)"/><path class="cls-2" d="M555.68,260.89v.62h-.09v-.62h.09" transform="translate(-351.35 -163)"/><path class="cls-2" d="M555.59,260.9v.62h-.08v-.62h.08" transform="translate(-351.35 -163)"/><path class="cls-2" d="M555.51,260.9v.62h-.08v-.62h.08" transform="translate(-351.35 -163)"/><path class="cls-2" d="M555.43,260.89v.62h-.08v-.62h.08" transform="translate(-351.35 -163)"/><path class="cls-2" d="M555.35,260.88v.62h-.08v-.62h.08" transform="translate(-351.35 -163)"/><path class="cls-2" d="M555.27,260.87v.62l-.08,0v-.62l.08,0" transform="translate(-351.35 -163)"/><path class="cls-2" d="M555.18,260.85v.62l-.1,0v-.62l.1,0" transform="translate(-351.35 -163)"/><path class="cls-2" d="M555.08,260.81v.62l-.11-.05a.41.41,0,0,1-.24-.34v-.62a.41.41,0,0,0,.24.34l.11.05" transform="translate(-351.35 -163)"/></g></g></g><polygon class="cls-2" points="208.87 93.05 208.87 93.67 199.97 98.92 199.97 98.3 208.87 93.05"/><g class="cls-23"><path class="cls-2" d="M543.89,260.14v-.62a2.2,2.2,0,0,0,1.3,1.81,6.27,6.27,0,0,0,3.08.72,6.15,6.15,0,0,0,3.05-.75v.62a6.16,6.16,0,0,1-3.05.75,6.27,6.27,0,0,1-3.08-.72A2.2,2.2,0,0,1,543.89,260.14Z" transform="translate(-351.35 -163)"/><g class="cls-40"><g class="cls-23"><path class="cls-2" d="M551.32,261.29v.62a4.91,4.91,0,0,1-1,.44v-.62a4.9,4.9,0,0,0,1-.44" transform="translate(-351.35 -163)"/><path class="cls-2" d="M550.33,261.73v.62a6.24,6.24,0,0,1-.8.2v-.62a6.24,6.24,0,0,0,.8-.2" transform="translate(-351.35 -163)"/><path class="cls-2" d="M549.52,261.93v.62l-.55.08V262l.55-.08" transform="translate(-351.35 -163)"/><path class="cls-2" d="M549,262v.62l-.48,0V262l.48,0" transform="translate(-351.35 -163)"/><path class="cls-2" d="M548.49,262v.62H548V262h.45" transform="translate(-351.35 -163)"/><path class="cls-2" d="M548,262v.62l-.43,0V262l.43,0" transform="translate(-351.35 -163)"/><path class="cls-2" d="M547.61,262v.62l-.42,0V262l.42,0" transform="translate(-351.35 -163)"/><path class="cls-2" d="M547.19,262v.62l-.42-.07v-.62l.42.07" transform="translate(-351.35 -163)"/><path class="cls-2" d="M546.77,261.9v.62l-.45-.11v-.62l.45.11" transform="translate(-351.35 -163)"/><path class="cls-2" d="M546.32,261.79v.62l-.52-.18v-.62l.52.18" transform="translate(-351.35 -163)"/><path class="cls-2" d="M545.8,261.61v.62a4.79,4.79,0,0,1-.61-.29,2.2,2.2,0,0,1-1.3-1.81v-.62a2.2,2.2,0,0,0,1.3,1.81,4.78,4.78,0,0,0,.61.29" transform="translate(-351.35 -163)"/></g></g></g></g><path class="cls-8" d="M566.47,249.92a2.92,2.92,0,0,1,1.72,2.34,2.8,2.8,0,0,1-1.63,2.35l-10.44,6.15a1.26,1.26,0,0,1-1.15,0c-.32-.18-.32-.48,0-.66l10.44-6.15a2,2,0,0,0,1.17-1.68,2.07,2.07,0,0,0-1.21-1.66,6,6,0,0,0-2.93-.69,5.83,5.83,0,0,0-2.88.71l-13.26,7.82a1.17,1.17,0,0,0,0,2.21,4.36,4.36,0,0,0,3.85,0l8.9-5.25a.65.65,0,0,0,.38-.54.67.67,0,0,0-.39-.53,2,2,0,0,0-1.86,0l-6.08,3.59a1.26,1.26,0,0,1-1.14,0c-.32-.18-.32-.48,0-.66l6.08-3.59a4.58,4.58,0,0,1,4.15,0,1.49,1.49,0,0,1,.88,1.2,1.45,1.45,0,0,1-.84,1.21l-8.9,5.25a6.15,6.15,0,0,1-3.05.75,6.27,6.27,0,0,1-3.08-.72c-1.71-1-1.73-2.57-.06-3.55L558.38,250a8.11,8.11,0,0,1,4-1A8.28,8.28,0,0,1,566.47,249.92Z" transform="translate(-351.35 -163)"/><g class="cls-23"><g class="cls-23"><path class="cls-3" d="M392.15,341.08v.63s0,0,0,0a2.08,2.08,0,0,0-1.22-1.67,6,6,0,0,0-2.94-.7,5.86,5.86,0,0,0-2.9.71v-.63a5.86,5.86,0,0,1,2.9-.71,6,6,0,0,1,2.94.7,2.08,2.08,0,0,1,1.22,1.67S392.15,341.07,392.15,341.08Z" transform="translate(-351.35 -163)"/><g class="cls-41"><g class="cls-23"><path class="cls-3" d="M392.15,341.08v.63s0,0,0,0a2.08,2.08,0,0,0-1.22-1.67,4.69,4.69,0,0,0-.6-.28v-.63a4.68,4.68,0,0,1,.6.28,2.08,2.08,0,0,1,1.22,1.67s0,0,0,0" transform="translate(-351.35 -163)"/><path class="cls-3" d="M390.33,339.09v.63l-.5-.17v-.63l.5.17" transform="translate(-351.35 -163)"/><path class="cls-3" d="M389.83,338.92v.63l-.43-.11v-.63l.43.11" transform="translate(-351.35 -163)"/><path class="cls-3" d="M389.4,338.82v.63l-.4-.07v-.63l.4.07" transform="translate(-351.35 -163)"/><path class="cls-3" d="M389,338.75v.63l-.4,0v-.63l.4,0" transform="translate(-351.35 -163)"/><path class="cls-3" d="M388.6,338.7v.63l-.41,0v-.63l.41,0" transform="translate(-351.35 -163)"/><path class="cls-3" d="M388.2,338.68v.63h-.42v-.63h.42" transform="translate(-351.35 -163)"/><path class="cls-3" d="M387.77,338.68v.63l-.46,0v-.63l.46,0" transform="translate(-351.35 -163)"/><path class="cls-3" d="M387.32,338.71v.63l-.52.07v-.63l.52-.07" transform="translate(-351.35 -163)"/><path class="cls-3" d="M386.79,338.79v.63a5.92,5.92,0,0,0-.76.19V339a5.92,5.92,0,0,1,.76-.19" transform="translate(-351.35 -163)"/><path class="cls-3" d="M386,339v.63a4.67,4.67,0,0,0-.94.41v-.63A4.68,4.68,0,0,1,386,339" transform="translate(-351.35 -163)"/></g></g></g><g class="cls-23"><path class="cls-3" d="M393.78,341.08v.63a2.84,2.84,0,0,1-1.64,2.32v-.63A2.84,2.84,0,0,0,393.78,341.08Z" transform="translate(-351.35 -163)"/><g class="cls-42"><g class="cls-23"><path class="cls-3" d="M393.78,341.08v0" transform="translate(-351.35 -163)"/><path class="cls-3" d="M393.78,341.13v.63a2,2,0,0,1,0,.33v-.63a2,2,0,0,0,0-.33" transform="translate(-351.35 -163)"/><path class="cls-3" d="M393.74,341.47v.63a2.07,2.07,0,0,1-.09.32v-.63a2.08,2.08,0,0,0,.09-.32" transform="translate(-351.35 -163)"/><path class="cls-3" d="M393.65,341.79v.63a2.31,2.31,0,0,1-.15.32v-.63a2.29,2.29,0,0,0,.15-.32" transform="translate(-351.35 -163)"/><path class="cls-3" d="M393.5,342.11v.63a2.68,2.68,0,0,1-.23.34v-.63a2.69,2.69,0,0,0,.23-.34" transform="translate(-351.35 -163)"/><path class="cls-3" d="M393.27,342.45v.63a3.3,3.3,0,0,1-.35.38v-.63a3.29,3.29,0,0,0,.35-.38" transform="translate(-351.35 -163)"/><path class="cls-3" d="M392.91,342.83v.63a4.47,4.47,0,0,1-.72.54v-.63a4.46,4.46,0,0,0,.72-.54" transform="translate(-351.35 -163)"/><path class="cls-3" d="M392.19,343.37V344l-.05,0v-.63l.05,0" transform="translate(-351.35 -163)"/></g></g></g><g class="cls-23"><path class="cls-3" d="M385,343.66v.63h0a.67.67,0,0,0-.39-.54,2.06,2.06,0,0,0-1.87,0v-.63a2.06,2.06,0,0,1,1.87,0,.67.67,0,0,1,.39.54Z" transform="translate(-351.35 -163)"/><g class="cls-43"><g class="cls-23"><path class="cls-3" d="M385,343.66v.63h0a.67.67,0,0,0-.39-.54l-.19-.09V343l.19.09a.67.67,0,0,1,.39.54h0" transform="translate(-351.35 -163)"/><path class="cls-3" d="M384.41,343v.63l-.16-.05V343l.16.05" transform="translate(-351.35 -163)"/><path class="cls-3" d="M384.25,343v.63l-.14,0v-.63l.14,0" transform="translate(-351.35 -163)"/><path class="cls-3" d="M384.11,342.93v.63l-.13,0v-.63l.13,0" transform="translate(-351.35 -163)"/><path class="cls-3" d="M384,342.91v.63h-.13v-.63H384" transform="translate(-351.35 -163)"/><path class="cls-3" d="M383.85,342.9v.63h-.13v-.63h.13" transform="translate(-351.35 -163)"/><path class="cls-3" d="M383.72,342.89v.63h-.14v-.63h.14" transform="translate(-351.35 -163)"/><path class="cls-3" d="M383.58,342.89v.63h-.15v-.63h.15" transform="translate(-351.35 -163)"/><path class="cls-3" d="M383.44,342.9v.63l-.17,0v-.63l.17,0" transform="translate(-351.35 -163)"/><path class="cls-3" d="M383.27,342.92v.63l-.25.06V343l.25-.06" transform="translate(-351.35 -163)"/><path class="cls-3" d="M383,343v.63a1.47,1.47,0,0,0-.3.13v-.63a1.47,1.47,0,0,1,.3-.13" transform="translate(-351.35 -163)"/></g></g></g><g class="cls-23"><path class="cls-3" d="M386.61,343.66v.63a1.47,1.47,0,0,1-.84,1.19v-.63A1.47,1.47,0,0,0,386.61,343.66Z" transform="translate(-351.35 -163)"/><g class="cls-44"><g class="cls-23"><path class="cls-3" d="M386.61,343.66v0" transform="translate(-351.35 -163)"/><path class="cls-3" d="M386.61,343.69v.63a1,1,0,0,1,0,.17v-.63a1,1,0,0,0,0-.17" transform="translate(-351.35 -163)"/><path class="cls-3" d="M386.6,343.85v.63a1.07,1.07,0,0,1,0,.16V344a1.08,1.08,0,0,0,0-.17" transform="translate(-351.35 -163)"/><path class="cls-3" d="M386.55,344v.63a1.22,1.22,0,0,1-.08.17v-.63a1.22,1.22,0,0,0,.08-.17" transform="translate(-351.35 -163)"/><path class="cls-3" d="M386.47,344.19v.63l-.12.18v-.63l.12-.18" transform="translate(-351.35 -163)"/><path class="cls-3" d="M386.35,344.36V345a1.73,1.73,0,0,1-.19.2v-.63a1.73,1.73,0,0,0,.19-.2" transform="translate(-351.35 -163)"/><path class="cls-3" d="M386.16,344.56v.63a2.25,2.25,0,0,1-.36.27v-.63a2.24,2.24,0,0,0,.37-.27" transform="translate(-351.35 -163)"/><path class="cls-3" d="M385.8,344.84v.63l0,0v-.63l0,0" transform="translate(-351.35 -163)"/></g></g></g><polygon class="cls-3" points="31.38 180.12 31.38 180.74 25.27 184.35 25.27 183.72 31.38 180.12"/><g class="cls-23"><path class="cls-3" d="M375.22,347v-.63a.41.41,0,0,0,.24.34,1.27,1.27,0,0,0,1.15,0v.63a1.27,1.27,0,0,1-1.15,0A.41.41,0,0,1,375.22,347Z" transform="translate(-351.35 -163)"/><g class="cls-45"><g class="cls-23"><path class="cls-3" d="M376.61,346.72v.63l-.18.08v-.63l.18-.08" transform="translate(-351.35 -163)"/><path class="cls-3" d="M376.43,346.8v.63l-.15,0v-.63l.15,0" transform="translate(-351.35 -163)"/><path class="cls-3" d="M376.28,346.84v.63h-.1v-.63h.1" transform="translate(-351.35 -163)"/><path class="cls-3" d="M376.17,346.85v.63h-.09v-.63h.09" transform="translate(-351.35 -163)"/><path class="cls-3" d="M376.08,346.86v.63H376v-.63h.08" transform="translate(-351.35 -163)"/><path class="cls-3" d="M376,346.86v.63h-.08v-.63H376" transform="translate(-351.35 -163)"/><path class="cls-3" d="M375.92,346.86v.63h-.08v-.63h.08" transform="translate(-351.35 -163)"/><path class="cls-3" d="M375.84,346.85v.63h-.08v-.63h.08" transform="translate(-351.35 -163)"/><path class="cls-3" d="M375.76,346.83v.63l-.08,0v-.63l.08,0" transform="translate(-351.35 -163)"/><path class="cls-3" d="M375.68,346.81v.63l-.1,0v-.63l.1,0" transform="translate(-351.35 -163)"/><path class="cls-3" d="M375.58,346.78v.63l-.11-.05a.41.41,0,0,1-.24-.34v-.63a.41.41,0,0,0,.24.34l.11.05" transform="translate(-351.35 -163)"/></g></g></g><polygon class="cls-3" points="33.74 176.39 33.74 177.02 20.42 184.87 20.42 184.25 33.74 176.39"/><g class="cls-23"><path class="cls-3" d="M371,349v-.63a1.35,1.35,0,0,1,.78-1.1v.63A1.35,1.35,0,0,0,371,349Z" transform="translate(-351.35 -163)"/><g class="cls-46"><g class="cls-23"><path class="cls-3" d="M371.77,347.25v.63h0v-.63h0" transform="translate(-351.35 -163)"/><path class="cls-3" d="M371.75,347.26v.63a2.1,2.1,0,0,0-.34.25v-.63a2.11,2.11,0,0,1,.34-.25" transform="translate(-351.35 -163)"/><path class="cls-3" d="M371.41,347.51v.63l-.17.18v-.63l.17-.18" transform="translate(-351.35 -163)"/><path class="cls-3" d="M371.24,347.7v.63l-.11.16v-.63l.11-.16" transform="translate(-351.35 -163)"/><path class="cls-3" d="M371.13,347.86v.63a1.1,1.1,0,0,0-.07.16V348a1.12,1.12,0,0,1,.07-.16" transform="translate(-351.35 -163)"/><path class="cls-3" d="M371.05,348v.63a1,1,0,0,0,0,.15v-.63a1,1,0,0,1,0-.15" transform="translate(-351.35 -163)"/><path class="cls-3" d="M371,348.17v.63a.94.94,0,0,0,0,.16v-.63a.92.92,0,0,1,0-.16" transform="translate(-351.35 -163)"/><path class="cls-3" d="M371,348.32v0" transform="translate(-351.35 -163)"/></g></g></g><polygon class="cls-3" points="40.79 180.4 40.79 181.03 30.3 187.21 30.31 186.59 40.79 180.4"/><g class="cls-23"><path class="cls-3" d="M380.25,349.88v-.63a.41.41,0,0,0,.24.34,1.27,1.27,0,0,0,1.15,0v.63a1.27,1.27,0,0,1-1.15,0A.41.41,0,0,1,380.25,349.88Z" transform="translate(-351.35 -163)"/><g class="cls-47"><g class="cls-23"><path class="cls-3" d="M381.65,349.59v.63l-.18.08v-.63l.18-.08" transform="translate(-351.35 -163)"/><path class="cls-3" d="M381.47,349.67v.63l-.15,0v-.63l.15,0" transform="translate(-351.35 -163)"/><path class="cls-3" d="M381.32,349.7v.63h-.1v-.63h.1" transform="translate(-351.35 -163)"/><path class="cls-3" d="M381.21,349.72v.63h-.09v-.63h.09" transform="translate(-351.35 -163)"/><path class="cls-3" d="M381.12,349.72v.63H381v-.63h.08" transform="translate(-351.35 -163)"/><path class="cls-3" d="M381,349.73v.63H381v-.63H381" transform="translate(-351.35 -163)"/><path class="cls-3" d="M381,349.72v.63h-.08v-.63H381" transform="translate(-351.35 -163)"/><path class="cls-3" d="M380.88,349.71v.63h-.08v-.63h.08" transform="translate(-351.35 -163)"/><path class="cls-3" d="M380.8,349.7v.63l-.09,0v-.63l.08,0" transform="translate(-351.35 -163)"/><path class="cls-3" d="M380.71,349.68v.63l-.1,0v-.63l.1,0" transform="translate(-351.35 -163)"/><path class="cls-3" d="M380.61,349.64v.63l-.11-.05a.41.41,0,0,1-.24-.34v-.63a.41.41,0,0,0,.24.34l.11.05" transform="translate(-351.35 -163)"/></g></g></g><polygon class="cls-3" points="34.43 181.85 34.42 182.48 25.48 187.75 25.48 187.13 34.43 181.85"/><g class="cls-23"><path class="cls-3" d="M369.36,349v-.63a2.21,2.21,0,0,0,1.3,1.81,6.3,6.3,0,0,0,3.09.73,6.18,6.18,0,0,0,3.06-.75v.63a6.18,6.18,0,0,1-3.06.75,6.3,6.3,0,0,1-3.09-.73A2.21,2.21,0,0,1,369.36,349Z" transform="translate(-351.35 -163)"/><g class="cls-48"><g class="cls-23"><path class="cls-3" d="M376.83,350.13v.63a4.92,4.92,0,0,1-1,.44v-.63a4.93,4.93,0,0,0,1-.44" transform="translate(-351.35 -163)"/><path class="cls-3" d="M375.83,350.57v.63a6.28,6.28,0,0,1-.81.2v-.63a6.29,6.29,0,0,0,.81-.2" transform="translate(-351.35 -163)"/><path class="cls-3" d="M375,350.77v.63l-.55.08v-.63l.55-.08" transform="translate(-351.35 -163)"/><path class="cls-3" d="M374.47,350.84v.63l-.48,0v-.63l.48,0" transform="translate(-351.35 -163)"/><path class="cls-3" d="M374,350.87v.63h-.45v-.63H374" transform="translate(-351.35 -163)"/><path class="cls-3" d="M373.54,350.88v.63l-.43,0v-.63l.43,0" transform="translate(-351.35 -163)"/><path class="cls-3" d="M373.11,350.85v.63l-.42,0v-.63l.42,0" transform="translate(-351.35 -163)"/><path class="cls-3" d="M372.69,350.81v.63l-.43-.07v-.63l.43.07" transform="translate(-351.35 -163)"/><path class="cls-3" d="M372.26,350.73v.63l-.45-.11v-.63l.45.11" transform="translate(-351.35 -163)"/><path class="cls-3" d="M371.81,350.62v.63l-.52-.18v-.63l.52.18" transform="translate(-351.35 -163)"/><path class="cls-3" d="M371.28,350.44v.63a4.79,4.79,0,0,1-.61-.29,2.21,2.21,0,0,1-1.3-1.81v-.63a2.21,2.21,0,0,0,1.3,1.81,4.8,4.8,0,0,0,.61.29" transform="translate(-351.35 -163)"/></g></g></g></g><path class="cls-18" d="M392.05,338.69a2.93,2.93,0,0,1,1.73,2.35,2.81,2.81,0,0,1-1.64,2.36l-10.49,6.18a1.27,1.27,0,0,1-1.15,0c-.32-.19-.33-.48,0-.67L391,342.74a2,2,0,0,0,1.18-1.69,2.08,2.08,0,0,0-1.22-1.67,6,6,0,0,0-2.94-.7,5.86,5.86,0,0,0-2.9.71l-13.32,7.86a1.18,1.18,0,0,0,0,2.23,4.38,4.38,0,0,0,3.87,0l8.95-5.28a.65.65,0,0,0,.38-.54.67.67,0,0,0-.39-.54,2.06,2.06,0,0,0-1.87,0l-6.11,3.6a1.27,1.27,0,0,1-1.15,0c-.32-.19-.33-.48,0-.67l6.11-3.6a4.6,4.6,0,0,1,4.17,0,1.5,1.5,0,0,1,.89,1.2,1.46,1.46,0,0,1-.84,1.21l-8.94,5.27a6.18,6.18,0,0,1-3.06.75,6.3,6.3,0,0,1-3.09-.73c-1.72-1-1.74-2.58-.07-3.57l13.32-7.86a8.15,8.15,0,0,1,4-1A8.31,8.31,0,0,1,392.05,338.69Z" transform="translate(-351.35 -163)"/><g class="cls-23"><g class="cls-23"><path class="cls-4" d="M469.09,374v.78s0,0,0,0a2.6,2.6,0,0,1,1.52-2.09,7.47,7.47,0,0,1,3.68-.87,7.32,7.32,0,0,1,3.62.89v-.78a7.32,7.32,0,0,0-3.62-.89,7.48,7.48,0,0,0-3.68.87,2.6,2.6,0,0,0-1.52,2.09Z" transform="translate(-351.35 -163)"/><g class="cls-49"><g class="cls-23"><path class="cls-4" d="M469.09,374v.78s0,0,0,0a2.6,2.6,0,0,1,1.52-2.09,5.84,5.84,0,0,1,.75-.36v-.78a5.84,5.84,0,0,0-.75.36,2.6,2.6,0,0,0-1.52,2.09v0" transform="translate(-351.35 -163)"/><path class="cls-4" d="M471.36,371.47v.78q.3-.12.63-.21v-.78c-.22.06-.43.13-.63.21" transform="translate(-351.35 -163)"/><path class="cls-4" d="M472,371.26V372l.54-.13v-.78l-.54.13" transform="translate(-351.35 -163)"/><path class="cls-4" d="M472.52,371.13v.78l.5-.09V371l-.5.09" transform="translate(-351.35 -163)"/><path class="cls-4" d="M473,371v.78l.5-.06V371l-.5.06" transform="translate(-351.35 -163)"/><path class="cls-4" d="M473.52,371v.78l.51,0V371l-.51,0" transform="translate(-351.35 -163)"/><path class="cls-4" d="M474,371v.78h.53V371H474" transform="translate(-351.35 -163)"/><path class="cls-4" d="M474.56,371v.78l.57,0V371l-.57,0" transform="translate(-351.35 -163)"/><path class="cls-4" d="M475.13,371v.78l.66.09v-.78l-.66-.09" transform="translate(-351.35 -163)"/><path class="cls-4" d="M475.79,371.09v.78a7.42,7.42,0,0,1,1,.24v-.78a7.43,7.43,0,0,0-1-.24" transform="translate(-351.35 -163)"/><path class="cls-4" d="M476.74,371.33v.78a5.84,5.84,0,0,1,1.18.52v-.78a5.85,5.85,0,0,0-1.18-.52" transform="translate(-351.35 -163)"/></g></g></g><g class="cls-23"><path class="cls-4" d="M467.05,374v.78a3.55,3.55,0,0,0,2.05,2.9v-.78A3.55,3.55,0,0,1,467.05,374Z" transform="translate(-351.35 -163)"/><g class="cls-50"><g class="cls-23"><path class="cls-4" d="M467.05,374V374s0,0,0-.06" transform="translate(-351.35 -163)"/><path class="cls-4" d="M467.05,374v.78a2.48,2.48,0,0,0,0,.42v-.78a2.47,2.47,0,0,1,0-.42" transform="translate(-351.35 -163)"/><path class="cls-4" d="M467.1,374.44v.78a2.61,2.61,0,0,0,.12.4v-.78a2.58,2.58,0,0,1-.12-.4" transform="translate(-351.35 -163)"/><path class="cls-4" d="M467.21,374.84v.78a2.9,2.9,0,0,0,.19.4v-.78a2.87,2.87,0,0,1-.19-.4" transform="translate(-351.35 -163)"/><path class="cls-4" d="M467.4,375.25V376a3.37,3.37,0,0,0,.28.42v-.78a3.35,3.35,0,0,1-.28-.42" transform="translate(-351.35 -163)"/><path class="cls-4" d="M467.69,375.67v.78a4.12,4.12,0,0,0,.44.48v-.78a4.12,4.12,0,0,1-.44-.48" transform="translate(-351.35 -163)"/><path class="cls-4" d="M468.13,376.15v.78a5.57,5.57,0,0,0,.9.67v-.78a5.59,5.59,0,0,1-.9-.67" transform="translate(-351.35 -163)"/><path class="cls-4" d="M469,376.82v.78l.07,0v-.78l-.07,0" transform="translate(-351.35 -163)"/></g></g></g><g class="cls-23"><path class="cls-4" d="M478,377.18V378h0a.84.84,0,0,1,.49-.67,2.57,2.57,0,0,1,2.34,0v-.78a2.57,2.57,0,0,0-2.34,0,.84.84,0,0,0-.49.67Z" transform="translate(-351.35 -163)"/><g class="cls-51"><g class="cls-23"><path class="cls-4" d="M478,377.18V378h0a.84.84,0,0,1,.49-.67l.23-.11v-.78l-.23.11a.84.84,0,0,0-.49.67h0" transform="translate(-351.35 -163)"/><path class="cls-4" d="M478.76,376.38v.78l.2-.07v-.78l-.2.07" transform="translate(-351.35 -163)"/><path class="cls-4" d="M479,376.32v.78l.17,0v-.78l-.17,0" transform="translate(-351.35 -163)"/><path class="cls-4" d="M479.14,376.27v.78l.16,0v-.78l-.16,0" transform="translate(-351.35 -163)"/><path class="cls-4" d="M479.3,376.24V377l.16,0v-.78l-.16,0" transform="translate(-351.35 -163)"/><path class="cls-4" d="M479.47,376.23V377h.16v-.78h-.16" transform="translate(-351.35 -163)"/><path class="cls-4" d="M479.63,376.22V377h.17v-.78h-.17" transform="translate(-351.35 -163)"/><path class="cls-4" d="M479.8,376.22V377H480v-.78h-.18" transform="translate(-351.35 -163)"/><path class="cls-4" d="M480,376.23V377l.21,0v-.78l-.21,0" transform="translate(-351.35 -163)"/><path class="cls-4" d="M480.19,376.26V377l.31.08v-.78l-.31-.08" transform="translate(-351.35 -163)"/><path class="cls-4" d="M480.5,376.34v.78a1.84,1.84,0,0,1,.37.16v-.78a1.84,1.84,0,0,0-.37-.16" transform="translate(-351.35 -163)"/></g></g></g><g class="cls-23"><path class="cls-4" d="M476,377.18V378a1.84,1.84,0,0,0,1.05,1.49v-.78A1.84,1.84,0,0,1,476,377.18Z" transform="translate(-351.35 -163)"/><g class="cls-52"><g class="cls-23"><path class="cls-4" d="M476,377.18v0" transform="translate(-351.35 -163)"/><path class="cls-4" d="M476,377.22V378a1.24,1.24,0,0,0,0,.21v-.78a1.24,1.24,0,0,1,0-.21" transform="translate(-351.35 -163)"/><path class="cls-4" d="M476,377.42v.78a1.34,1.34,0,0,0,.06.21v-.78a1.32,1.32,0,0,1-.06-.21" transform="translate(-351.35 -163)"/><path class="cls-4" d="M476.09,377.63v.78a1.51,1.51,0,0,0,.1.21v-.78a1.5,1.5,0,0,1-.1-.21" transform="translate(-351.35 -163)"/><path class="cls-4" d="M476.19,377.84v.78a1.76,1.76,0,0,0,.15.22v-.78a1.76,1.76,0,0,1-.15-.22" transform="translate(-351.35 -163)"/><path class="cls-4" d="M476.34,378.06v.78a2.16,2.16,0,0,0,.23.25v-.78a2.16,2.16,0,0,1-.23-.25" transform="translate(-351.35 -163)"/><path class="cls-4" d="M476.57,378.31v.78a2.82,2.82,0,0,0,.46.34v-.78a2.81,2.81,0,0,1-.46-.34" transform="translate(-351.35 -163)"/><path class="cls-4" d="M477,378.65v.78l0,0v-.78l0,0" transform="translate(-351.35 -163)"/></g></g></g><polygon class="cls-4" points="129.52 213.5 129.53 214.28 137.16 218.79 137.16 218 129.52 213.5"/><g class="cls-23"><path class="cls-4" d="M490.25,381.37v-.78a.52.52,0,0,1-.31.42,1.58,1.58,0,0,1-1.44,0v.78a1.58,1.58,0,0,0,1.44,0A.52.52,0,0,0,490.25,381.37Z" transform="translate(-351.35 -163)"/><g class="cls-53"><g class="cls-23"><path class="cls-4" d="M488.51,381v.78a1.14,1.14,0,0,0,.23.1v-.78a1.15,1.15,0,0,1-.23-.1" transform="translate(-351.35 -163)"/><path class="cls-4" d="M488.74,381.11v.78l.19,0v-.78l-.19,0" transform="translate(-351.35 -163)"/><path class="cls-4" d="M488.93,381.15v.78l.13,0v-.78l-.13,0" transform="translate(-351.35 -163)"/><path class="cls-4" d="M489.06,381.17V382h.11v-.78h-.11" transform="translate(-351.35 -163)"/><path class="cls-4" d="M489.17,381.18V382h.1v-.78h-.1" transform="translate(-351.35 -163)"/><path class="cls-4" d="M489.27,381.18V382h.1v-.78h-.1" transform="translate(-351.35 -163)"/><path class="cls-4" d="M489.37,381.18V382h.1v-.78h-.1" transform="translate(-351.35 -163)"/><path class="cls-4" d="M489.47,381.16v.78l.1,0v-.78l-.1,0" transform="translate(-351.35 -163)"/><path class="cls-4" d="M489.57,381.15v.78l.11,0v-.78l-.11,0" transform="translate(-351.35 -163)"/><path class="cls-4" d="M489.68,381.12v.78l.12,0v-.78l-.12,0" transform="translate(-351.35 -163)"/><path class="cls-4" d="M489.8,381.08v.78l.14-.07a.52.52,0,0,0,.31-.42v-.78a.52.52,0,0,1-.31.42l-.14.07" transform="translate(-351.35 -163)"/></g></g></g><polygon class="cls-4" points="126.57 208.84 126.57 209.63 143.22 219.45 143.22 218.67 126.57 208.84"/><g class="cls-23"><path class="cls-4" d="M495.54,383.82V383a1.68,1.68,0,0,0-1-1.38v.78A1.68,1.68,0,0,1,495.54,383.82Z" transform="translate(-351.35 -163)"/><g class="cls-54"><g class="cls-23"><path class="cls-4" d="M494.57,381.67v.78h0v-.78h0" transform="translate(-351.35 -163)"/><path class="cls-4" d="M494.59,381.68v.78a2.64,2.64,0,0,1,.43.32V382a2.63,2.63,0,0,0-.43-.32" transform="translate(-351.35 -163)"/><path class="cls-4" d="M495,382v.78a2,2,0,0,1,.21.23v-.78A2,2,0,0,0,495,382" transform="translate(-351.35 -163)"/><path class="cls-4" d="M495.23,382.23V383a1.6,1.6,0,0,1,.14.2v-.78a1.61,1.61,0,0,0-.14-.2" transform="translate(-351.35 -163)"/><path class="cls-4" d="M495.37,382.43v.78a1.4,1.4,0,0,1,.09.19v-.78a1.37,1.37,0,0,0-.09-.19" transform="translate(-351.35 -163)"/><path class="cls-4" d="M495.46,382.62v.78a1.25,1.25,0,0,1,.06.19v-.78a1.25,1.25,0,0,0-.06-.19" transform="translate(-351.35 -163)"/><path class="cls-4" d="M495.51,382.82v.78a1.17,1.17,0,0,1,0,.2V383a1.18,1.18,0,0,0,0-.2" transform="translate(-351.35 -163)"/><path class="cls-4" d="M495.53,383v0" transform="translate(-351.35 -163)"/></g></g></g><polygon class="cls-4" points="117.75 213.86 117.76 214.64 130.87 222.37 130.86 221.59 117.75 213.86"/><g class="cls-23"><path class="cls-4" d="M484,385v-.78a.52.52,0,0,1-.31.42,1.59,1.59,0,0,1-1.44,0v.78a1.59,1.59,0,0,0,1.44,0A.52.52,0,0,0,484,385Z" transform="translate(-351.35 -163)"/><g class="cls-55"><g class="cls-23"><path class="cls-4" d="M482.21,384.59v.78a1.15,1.15,0,0,0,.23.1v-.78a1.14,1.14,0,0,1-.23-.1" transform="translate(-351.35 -163)"/><path class="cls-4" d="M482.44,384.69v.78l.19,0v-.78l-.19,0" transform="translate(-351.35 -163)"/><path class="cls-4" d="M482.63,384.74v.78l.13,0v-.78l-.13,0" transform="translate(-351.35 -163)"/><path class="cls-4" d="M482.76,384.75v.78h.11v-.78h-.11" transform="translate(-351.35 -163)"/><path class="cls-4" d="M482.87,384.76v.78h.1v-.78h-.1" transform="translate(-351.35 -163)"/><path class="cls-4" d="M483,384.76v.78h.1v-.78H483" transform="translate(-351.35 -163)"/><path class="cls-4" d="M483.08,384.76v.78h.1v-.78h-.1" transform="translate(-351.35 -163)"/><path class="cls-4" d="M483.18,384.75v.78l.1,0v-.78l-.1,0" transform="translate(-351.35 -163)"/><path class="cls-4" d="M483.28,384.73v.78l.11,0v-.78l-.11,0" transform="translate(-351.35 -163)"/><path class="cls-4" d="M483.38,384.7v.78l.12,0v-.78l-.12,0" transform="translate(-351.35 -163)"/><path class="cls-4" d="M483.51,384.66v.78l.14-.07A.52.52,0,0,0,484,385v-.78a.52.52,0,0,1-.31.42l-.14.07" transform="translate(-351.35 -163)"/></g></g></g><polygon class="cls-4" points="125.71 215.67 125.72 216.45 136.9 223.05 136.89 222.26 125.71 215.67"/><g class="cls-23"><path class="cls-4" d="M497.57,383.81V383a2.76,2.76,0,0,1-1.63,2.27,7.88,7.88,0,0,1-3.87.91,7.73,7.73,0,0,1-3.83-.94V386a7.73,7.73,0,0,0,3.83.94,7.88,7.88,0,0,0,3.87-.91A2.76,2.76,0,0,0,497.57,383.81Z" transform="translate(-351.35 -163)"/><g class="cls-56"><g class="cls-23"><path class="cls-4" d="M488.24,385.26V386a6.15,6.15,0,0,0,1.24.55v-.78a6.16,6.16,0,0,1-1.24-.55" transform="translate(-351.35 -163)"/><path class="cls-4" d="M489.48,385.81v.78a7.86,7.86,0,0,0,1,.25v-.78a7.85,7.85,0,0,1-1-.25" transform="translate(-351.35 -163)"/><path class="cls-4" d="M490.49,386.06v.78l.69.1v-.78l-.69-.1" transform="translate(-351.35 -163)"/><path class="cls-4" d="M491.18,386.16v.78l.6,0v-.78l-.6,0" transform="translate(-351.35 -163)"/><path class="cls-4" d="M491.79,386.2V387h.57v-.78h-.57" transform="translate(-351.35 -163)"/><path class="cls-4" d="M492.35,386.2V387l.54,0v-.78l-.54,0" transform="translate(-351.35 -163)"/><path class="cls-4" d="M492.89,386.17V387l.53-.06v-.78l-.53.06" transform="translate(-351.35 -163)"/><path class="cls-4" d="M493.42,386.11v.78l.53-.09V386l-.53.09" transform="translate(-351.35 -163)"/><path class="cls-4" d="M493.95,386v.78l.57-.14v-.78l-.57.14" transform="translate(-351.35 -163)"/><path class="cls-4" d="M494.52,385.88v.78c.23-.06.45-.14.66-.22v-.78q-.32.12-.66.22" transform="translate(-351.35 -163)"/><path class="cls-4" d="M495.17,385.66v.78a6,6,0,0,0,.77-.37,2.76,2.76,0,0,0,1.63-2.27V383a2.76,2.76,0,0,1-1.63,2.27,6,6,0,0,1-.77.36" transform="translate(-351.35 -163)"/></g></g></g></g><path class="cls-32" d="M469.21,371a3.66,3.66,0,0,0-2.16,2.93,3.52,3.52,0,0,0,2.05,3l13.11,7.73a1.59,1.59,0,0,0,1.44,0c.4-.23.41-.6,0-.83L470.56,376a2.52,2.52,0,0,1-1.47-2.12,2.6,2.6,0,0,1,1.52-2.09,7.48,7.48,0,0,1,3.68-.87,7.32,7.32,0,0,1,3.62.89l16.65,9.82c1.31.77,1.29,2,0,2.78a5.48,5.48,0,0,1-4.84,0l-11.18-6.59a.82.82,0,0,1-.47-.68.84.84,0,0,1,.49-.67,2.57,2.57,0,0,1,2.34,0l7.64,4.5a1.58,1.58,0,0,0,1.44,0c.4-.23.41-.6,0-.83l-7.64-4.5a5.75,5.75,0,0,0-5.21,0,1.88,1.88,0,0,0-1.11,1.51,1.83,1.83,0,0,0,1.05,1.51l11.18,6.59a7.73,7.73,0,0,0,3.83.94,7.88,7.88,0,0,0,3.87-.91c2.15-1.24,2.17-3.23.08-4.46L479.37,371a10.18,10.18,0,0,0-5.06-1.24A10.39,10.39,0,0,0,469.21,371Z" transform="translate(-351.35 -163)"/><g class="cls-23"><g class="cls-23"><path class="cls-4" d="M461.86,275.14v.43a1.49,1.49,0,0,1,.87-1.19,4.27,4.27,0,0,1,2.1-.5,4.18,4.18,0,0,1,2.07.51v-.45a4.18,4.18,0,0,0-2.07-.51,4.27,4.27,0,0,0-2.1.5,1.49,1.49,0,0,0-.87,1.19Z" transform="translate(-351.35 -163)"/><g class="cls-57"><g class="cls-23"><path class="cls-4" d="M461.86,275.14v.43a1.49,1.49,0,0,1,.87-1.19,3.36,3.36,0,0,1,.43-.2v-.45a3.33,3.33,0,0,0-.43.2,1.49,1.49,0,0,0-.87,1.19v0" transform="translate(-351.35 -163)"/><path class="cls-4" d="M463.16,273.72v.45l.36-.12v-.45l-.36.12" transform="translate(-351.35 -163)"/><path class="cls-4" d="M463.52,273.6V274l.31-.08v-.45l-.31.08" transform="translate(-351.35 -163)"/><path class="cls-4" d="M463.83,273.52V274l.29,0v-.45l-.29,0" transform="translate(-351.35 -163)"/><path class="cls-4" d="M464.11,273.47v.45l.28,0v-.45l-.28,0" transform="translate(-351.35 -163)"/><path class="cls-4" d="M464.4,273.44v.45l.29,0v-.45l-.29,0" transform="translate(-351.35 -163)"/><path class="cls-4" d="M464.69,273.42v.45h.3v-.45h-.3" transform="translate(-351.35 -163)"/><path class="cls-4" d="M465,273.43v.45l.33,0v-.45l-.33,0" transform="translate(-351.35 -163)"/><path class="cls-4" d="M465.31,273.45v.45l.37.05v-.45l-.37-.05" transform="translate(-351.35 -163)"/><path class="cls-4" d="M465.69,273.5v.45a4.25,4.25,0,0,1,.54.13v-.45a4.26,4.26,0,0,0-.54-.13" transform="translate(-351.35 -163)"/><path class="cls-4" d="M466.23,273.63v.45a3.34,3.34,0,0,1,.67.3v-.45a3.35,3.35,0,0,0-.67-.3" transform="translate(-351.35 -163)"/></g></g></g><g class="cls-23"><path class="cls-4" d="M460.7,275.14v.45a2,2,0,0,0,1.17,1.66v-.45A2,2,0,0,1,460.7,275.14Z" transform="translate(-351.35 -163)"/><g class="cls-58"><g class="cls-23"><path class="cls-4" d="M460.7,275.14v0" transform="translate(-351.35 -163)"/><path class="cls-4" d="M460.7,275.18v.45a1.41,1.41,0,0,0,0,.24v-.45a1.41,1.41,0,0,1,0-.24" transform="translate(-351.35 -163)"/><path class="cls-4" d="M460.73,275.41v.45a1.49,1.49,0,0,0,.07.23v-.45a1.49,1.49,0,0,1-.07-.23" transform="translate(-351.35 -163)"/><path class="cls-4" d="M460.79,275.64v.45a1.63,1.63,0,0,0,.11.23v-.45a1.66,1.66,0,0,1-.11-.23" transform="translate(-351.35 -163)"/><path class="cls-4" d="M460.9,275.87v.45a1.93,1.93,0,0,0,.16.24v-.45a1.92,1.92,0,0,1-.16-.24" transform="translate(-351.35 -163)"/><path class="cls-4" d="M461.06,276.12v.45a2.36,2.36,0,0,0,.25.27v-.45a2.36,2.36,0,0,1-.25-.27" transform="translate(-351.35 -163)"/><path class="cls-4" d="M461.32,276.39v.45a3.19,3.19,0,0,0,.52.38v-.45a3.19,3.19,0,0,1-.52-.38" transform="translate(-351.35 -163)"/><path class="cls-4" d="M461.83,276.77v.45l0,0v-.45l0,0" transform="translate(-351.35 -163)"/></g></g></g><g class="cls-23"><path class="cls-4" d="M467,277v.45h0a.48.48,0,0,1,.28-.38,1.47,1.47,0,0,1,1.34,0v-.45a1.47,1.47,0,0,0-1.34,0,.48.48,0,0,0-.28.38Z" transform="translate(-351.35 -163)"/><g class="cls-59"><g class="cls-23"><path class="cls-4" d="M467,277v.45h0a.48.48,0,0,1,.28-.38l.13-.06v-.45l-.13.06a.48.48,0,0,0-.28.38h0" transform="translate(-351.35 -163)"/><path class="cls-4" d="M467.39,276.52V277l.12,0v-.45l-.12,0" transform="translate(-351.35 -163)"/><path class="cls-4" d="M467.51,276.49v.45l.1,0v-.45l-.1,0" transform="translate(-351.35 -163)"/><path class="cls-4" d="M467.61,276.46v.45l.09,0v-.45l-.09,0" transform="translate(-351.35 -163)"/><path class="cls-4" d="M467.7,276.44v.45h.09v-.45h-.09" transform="translate(-351.35 -163)"/><path class="cls-4" d="M467.79,276.43v.45h.09v-.45h-.09" transform="translate(-351.35 -163)"/><path class="cls-4" d="M467.89,276.43v.45h.1v-.45h-.1" transform="translate(-351.35 -163)"/><path class="cls-4" d="M468,276.43v.45h.1v-.45H468" transform="translate(-351.35 -163)"/><path class="cls-4" d="M468.09,276.44v.45l.12,0v-.45l-.12,0" transform="translate(-351.35 -163)"/><path class="cls-4" d="M468.21,276.45v.45l.18,0v-.45l-.18,0" transform="translate(-351.35 -163)"/><path class="cls-4" d="M468.38,276.5v.45l.21.09v-.45l-.21-.09" transform="translate(-351.35 -163)"/></g></g></g><g class="cls-23"><path class="cls-4" d="M465.82,277v.45a1.05,1.05,0,0,0,.6.85v-.45A1.05,1.05,0,0,1,465.82,277Z" transform="translate(-351.35 -163)"/><g class="cls-60"><g class="cls-23"><path class="cls-4" d="M465.82,277v0" transform="translate(-351.35 -163)"/><path class="cls-4" d="M465.82,277v.45a.7.7,0,0,0,0,.12v-.45a.71.71,0,0,1,0-.12" transform="translate(-351.35 -163)"/><path class="cls-4" d="M465.83,277.12v.45a.75.75,0,0,0,0,.12v-.45a.76.76,0,0,1,0-.12" transform="translate(-351.35 -163)"/><path class="cls-4" d="M465.86,277.23v.45l.06.12v-.45l-.06-.12" transform="translate(-351.35 -163)"/><path class="cls-4" d="M465.92,277.36v.45l.09.13v-.45l-.09-.13" transform="translate(-351.35 -163)"/><path class="cls-4" d="M466,277.48v.45l.13.14v-.45l-.13-.14" transform="translate(-351.35 -163)"/><path class="cls-4" d="M466.14,277.63v.45a1.61,1.61,0,0,0,.26.19v-.45a1.6,1.6,0,0,1-.26-.19" transform="translate(-351.35 -163)"/><path class="cls-4" d="M466.4,277.82v.45h0v-.45h0" transform="translate(-351.35 -163)"/></g></g></g><polygon class="cls-4" points="117.25 113.59 117.25 114.04 121.61 116.61 121.61 116.16 117.25 113.59"/><g class="cls-23"><path class="cls-4" d="M474,279.37v-.45a.3.3,0,0,1-.17.24.91.91,0,0,1-.82,0v.45a.91.91,0,0,0,.82,0A.3.3,0,0,0,474,279.37Z" transform="translate(-351.35 -163)"/><g class="cls-61"><g class="cls-23"><path class="cls-4" d="M473,279.16v.45l.13.06v-.45l-.13-.06" transform="translate(-351.35 -163)"/><path class="cls-4" d="M473.09,279.22v.45l.11,0v-.45l-.11,0" transform="translate(-351.35 -163)"/><path class="cls-4" d="M473.2,279.25v.45h.07v-.45h-.07" transform="translate(-351.35 -163)"/><path class="cls-4" d="M473.27,279.26v.45h.06v-.45h-.06" transform="translate(-351.35 -163)"/><path class="cls-4" d="M473.34,279.26v.45h.06v-.45h-.06" transform="translate(-351.35 -163)"/><path class="cls-4" d="M473.4,279.26v.45h.06v-.45h-.06" transform="translate(-351.35 -163)"/><path class="cls-4" d="M473.45,279.26v.45h.06v-.45h-.06" transform="translate(-351.35 -163)"/><path class="cls-4" d="M473.51,279.25v.45h.06v-.45h-.06" transform="translate(-351.35 -163)"/><path class="cls-4" d="M473.57,279.24v.45h.06v-.45h-.06" transform="translate(-351.35 -163)"/><path class="cls-4" d="M473.63,279.23v.45l.07,0v-.45l-.07,0" transform="translate(-351.35 -163)"/><path class="cls-4" d="M473.7,279.21v.45l.08,0a.3.3,0,0,0,.17-.24v-.45a.3.3,0,0,1-.17.24l-.08,0" transform="translate(-351.35 -163)"/></g></g></g><polygon class="cls-4" points="115.56 110.93 115.56 111.38 125.07 116.99 125.07 116.54 115.56 110.93"/><g class="cls-23"><path class="cls-4" d="M477,280.77v-.45a1,1,0,0,0-.55-.79V280A1,1,0,0,1,477,280.77Z" transform="translate(-351.35 -163)"/><g class="cls-62"><g class="cls-23"><path class="cls-4" d="M476.42,279.54V280h0v-.45h0" transform="translate(-351.35 -163)"/><path class="cls-4" d="M476.43,279.55V280a1.5,1.5,0,0,1,.24.18v-.45a1.52,1.52,0,0,0-.24-.18" transform="translate(-351.35 -163)"/><path class="cls-4" d="M476.68,279.73v.45l.12.13v-.45l-.12-.13" transform="translate(-351.35 -163)"/><path class="cls-4" d="M476.8,279.86v.45l.08.12V280l-.08-.12" transform="translate(-351.35 -163)"/><path class="cls-4" d="M476.88,280v.45l.05.11v-.45l-.05-.11" transform="translate(-351.35 -163)"/><path class="cls-4" d="M476.93,280.09v.45a.71.71,0,0,1,0,.11v-.45a.71.71,0,0,0,0-.11" transform="translate(-351.35 -163)"/><path class="cls-4" d="M477,280.2v.45a.68.68,0,0,1,0,.11v-.45a.66.66,0,0,0,0-.11" transform="translate(-351.35 -163)"/><path class="cls-4" d="M477,280.31v0" transform="translate(-351.35 -163)"/></g></g></g><polygon class="cls-4" points="110.53 113.8 110.53 114.24 118.02 118.66 118.01 118.21 110.53 113.8"/><g class="cls-23"><path class="cls-4" d="M470.36,281.42V281a.29.29,0,0,1-.17.24.91.91,0,0,1-.82,0v.45a.91.91,0,0,0,.82,0A.29.29,0,0,0,470.36,281.42Z" transform="translate(-351.35 -163)"/><g class="cls-63"><g class="cls-23"><path class="cls-4" d="M469.36,281.21v.45l.13.06v-.45l-.13-.06" transform="translate(-351.35 -163)"/><path class="cls-4" d="M469.49,281.27v.45l.11,0v-.45l-.11,0" transform="translate(-351.35 -163)"/><path class="cls-4" d="M469.6,281.3v.45h.07v-.45h-.07" transform="translate(-351.35 -163)"/><path class="cls-4" d="M469.67,281.31v.45h.06v-.45h-.06" transform="translate(-351.35 -163)"/><path class="cls-4" d="M469.74,281.31v.45h.06v-.45h-.06" transform="translate(-351.35 -163)"/><path class="cls-4" d="M469.8,281.31v.45h.06v-.45h-.06" transform="translate(-351.35 -163)"/><path class="cls-4" d="M469.86,281.31v.45h.06v-.45h-.06" transform="translate(-351.35 -163)"/><path class="cls-4" d="M469.91,281.3v.45H470v-.45h-.06" transform="translate(-351.35 -163)"/><path class="cls-4" d="M470,281.29v.45H470v-.45H470" transform="translate(-351.35 -163)"/><path class="cls-4" d="M470,281.28v.45l.07,0v-.45l-.07,0" transform="translate(-351.35 -163)"/><path class="cls-4" d="M470.1,281.25v.45l.08,0a.29.29,0,0,0,.17-.24V281a.29.29,0,0,1-.17.24l-.08,0" transform="translate(-351.35 -163)"/></g></g></g><polygon class="cls-4" points="115.07 114.83 115.07 115.28 121.46 119.05 121.46 118.6 115.07 114.83"/><g class="cls-23"><path class="cls-4" d="M478.14,280.77v-.45a1.58,1.58,0,0,1-.93,1.3,4.5,4.5,0,0,1-2.21.52,4.42,4.42,0,0,1-2.19-.54V282a4.42,4.42,0,0,0,2.19.54,4.5,4.5,0,0,0,2.21-.52A1.58,1.58,0,0,0,478.14,280.77Z" transform="translate(-351.35 -163)"/><g class="cls-64"><g class="cls-23"><path class="cls-4" d="M472.81,281.6V282a3.52,3.52,0,0,0,.71.31v-.45a3.52,3.52,0,0,1-.71-.31" transform="translate(-351.35 -163)"/><path class="cls-4" d="M473.52,281.91v.45a4.49,4.49,0,0,0,.57.14v-.45a4.49,4.49,0,0,1-.57-.14" transform="translate(-351.35 -163)"/><path class="cls-4" d="M474.09,282.05v.45l.4.06v-.45l-.4-.06" transform="translate(-351.35 -163)"/><path class="cls-4" d="M474.49,282.11v.45l.34,0v-.45l-.34,0" transform="translate(-351.35 -163)"/><path class="cls-4" d="M474.83,282.13v.45h.32v-.45h-.32" transform="translate(-351.35 -163)"/><path class="cls-4" d="M475.16,282.13v.45l.31,0v-.45l-.31,0" transform="translate(-351.35 -163)"/><path class="cls-4" d="M475.46,282.12v.45l.3,0v-.45l-.3,0" transform="translate(-351.35 -163)"/><path class="cls-4" d="M475.76,282.08v.45l.3-.05V282l-.3.05" transform="translate(-351.35 -163)"/><path class="cls-4" d="M476.07,282v.45l.32-.08V282l-.32.08" transform="translate(-351.35 -163)"/><path class="cls-4" d="M476.39,282v.45l.37-.13v-.45l-.37.13" transform="translate(-351.35 -163)"/><path class="cls-4" d="M476.76,281.82v.45a3.42,3.42,0,0,0,.44-.21,1.58,1.58,0,0,0,.93-1.3v-.45a1.58,1.58,0,0,1-.93,1.3,3.42,3.42,0,0,1-.44.21" transform="translate(-351.35 -163)"/></g></g></g></g><path class="cls-32" d="M461.93,273.43a2.09,2.09,0,0,0-1.23,1.68,2,2,0,0,0,1.17,1.69l7.49,4.42a.91.91,0,0,0,.82,0c.23-.13.23-.34,0-.48l-7.49-4.42a1.44,1.44,0,0,1-.84-1.21,1.49,1.49,0,0,1,.87-1.19,4.27,4.27,0,0,1,2.1-.5,4.18,4.18,0,0,1,2.07.51l9.51,5.61a.84.84,0,0,1,0,1.59,3.13,3.13,0,0,1-2.76,0l-6.39-3.77A.47.47,0,0,1,467,277a.48.48,0,0,1,.28-.38,1.47,1.47,0,0,1,1.34,0l4.36,2.57a.91.91,0,0,0,.82,0c.23-.13.23-.34,0-.48l-4.36-2.57a3.29,3.29,0,0,0-3,0,1.07,1.07,0,0,0-.63.86,1,1,0,0,0,.6.86l6.39,3.77a4.42,4.42,0,0,0,2.19.54,4.5,4.5,0,0,0,2.21-.52c1.23-.71,1.24-1.84,0-2.55l-9.51-5.61a5.82,5.82,0,0,0-2.89-.71A5.94,5.94,0,0,0,461.93,273.43Z" transform="translate(-351.35 -163)"/><path class="cls-21" d="M628.16,326.75l-3.73-.11a1.44,1.44,0,0,0-1.3,1.82v0c.06.37,3.95,1.52,6.28,2.18.9.25,1.68-.49,1.65-1.58l0-1.07Z" transform="translate(-351.35 -163)"/><path class="cls-10" d="M628.71,330.07a3,3,0,0,1-3-2.67l-2-18.53a3,3,0,0,1,0-.73l1.67-12.41a3,3,0,1,1,5.94.8l-1.62,12.05,2,18.17a3,3,0,0,1-2.65,3.31Z" transform="translate(-351.35 -163)"/><path class="cls-10" d="M618.1,292.73c-.2,4.42-1.32,17.83-1.07,19.15.33,1.78,7-10.09,7.5-12.12,2.1-.32,6.88-3.31,6.88-3.31a10,10,0,0,0-.32-4.84l-7-1.29A6.64,6.64,0,0,0,618.1,292.73Z" transform="translate(-351.35 -163)"/><circle class="cls-22" cx="272.17" cy="103.22" r="5.38"/><path class="cls-14" d="M631.94,278.5s2.31-6.06-.15-7.77a9.4,9.4,0,0,0-4.15.88s-4.85,3.12-8.08,4.74c-1.63.81-.49,4.72-.43,8.63a32,32,0,0,1-1,7.7s5,2.15,7.71,2,5.92-1.44,5.56-2.69-2-5.92-1.26-7.54A55.78,55.78,0,0,0,631.94,278.5Z" transform="translate(-351.35 -163)"/><path class="cls-65" d="M619.56,276.34c.86-.43,1.84-1,2.82-1.53.8.32,1.44.6,1.44.6l.54,5.41s-.3,8.61-.89,13.59a33.45,33.45,0,0,1-5.34-1.73,34.24,34.24,0,0,0,1.05-8C619.12,280.76,617.92,277.16,619.56,276.34Z" transform="translate(-351.35 -163)"/><circle class="cls-22" cx="254.61" cy="115.38" r="2.31"/><path class="cls-21" d="M618.29,331.27l-3.73-.11a1.44,1.44,0,0,0-1.3,1.82v0c.06.37,3.95,1.52,6.28,2.18.9.25,1.68-.49,1.65-1.58l0-1.07Z" transform="translate(-351.35 -163)"/><path class="cls-14" d="M625.28,273.19l-5.73,3.15s-1.62.58-3.23,4.51-3.95,7.7-5,8.06-4.32-8.09-5-8.63-2-1.74-1.78.57,1.62,12.72,3.95,13.62,17.66-11.23,17.84-14.46A21.92,21.92,0,0,0,625.28,273.19Z" transform="translate(-351.35 -163)"/><path class="cls-22" d="M606.35,279.83c.72.54,3.88,9.44,5,9.08l.19-.1.06,0,.17-.12.06,0,.23-.22.08-.08.18-.19.1-.12.17-.22.18-.24.16-.21.16-.23.11-.16c.21-.32.43-.66.66-1l0,0c.33-.55.67-1.15,1-1.79h0a19.86,19.86,0,0,0,3.85,4.3c-4.29,3.51-9,6.58-10.26,6.11-2.33-.9-3.77-11.31-3.95-13.62S605.63,279.29,606.35,279.83Z" transform="translate(-351.35 -163)"/><path class="cls-22" d="M627,267.59l.81,5.78h0a3.45,3.45,0,0,1-3.29,2.07l-.66,0-1.29-6.07Z" transform="translate(-351.35 -163)"/><path class="cls-10" d="M620,267.79a1.12,1.12,0,0,1,1.71-.88,1.45,1.45,0,0,1,.39,1.55,4.26,4.26,0,0,1-.89,1.44,25,25,0,0,0,5.48,2.77l2.41-3.49a5.67,5.67,0,0,0,.9-1.68,6.73,6.73,0,0,0-1.12-5,7.12,7.12,0,0,0-5.14-2.42,6,6,0,0,0-4.51,2.19C617.83,263.9,619.34,266,620,267.79Z" transform="translate(-351.35 -163)"/><path class="cls-10" d="M619.45,333.77a3,3,0,0,1-3-3l-.19-18.71a3,3,0,0,1,0-.52l2.41-14.45a3,3,0,0,1,5.92,1l-2.37,14.19.18,18.45a3,3,0,0,1-3,3Z" transform="translate(-351.35 -163)"/><path class="cls-10" d="M629.59,272a9.47,9.47,0,0,1,3.11,8.77,5.08,5.08,0,0,1-1.2,2.63,3.61,3.61,0,0,1-5.13-.14,5.86,5.86,0,0,1-1-4.38,45.56,45.56,0,0,0,.49-4.82,9.65,9.65,0,0,1,.08-2.61c.17-.63,1-1.93,1.77-1.47.3.17.53.81.78,1.08A12.61,12.61,0,0,0,629.59,272Z" transform="translate(-351.35 -163)"/><path class="cls-8" d="M626.23,271.16a1.94,1.94,0,0,0-.78.77.4.4,0,0,0,0,.4.44.44,0,0,0,.26.14,2.92,2.92,0,0,0,2.45-.49c.36-.27,1.24-1.47.45-1.74C628,270,626.7,270.86,626.23,271.16Z" transform="translate(-351.35 -163)"/><path class="cls-10" d="M432.61,366.13a9.92,9.92,0,0,0-.76,3,2,2,0,0,0,.59,1.52,25.06,25.06,0,0,0,2.7.59c.62,0,2.67,1.66,4.16,1.77s3.4.55,3.6-.62-7.35-5.86-7.35-5.86Z" transform="translate(-351.35 -163)"/><path class="cls-10" d="M424.76,367.22s.12,1.06,1.06,1a3,3,0,0,0,1.76-1.06l-.24,3.76s-.53,5.64-2.17,6.23-2-2.53-2-2.53Z" transform="translate(-351.35 -163)"/><path class="cls-18" d="M441.14,324l.29,10.24-13.5,5.32-.09-6.09s-2.61-2.84-1.76-3.06,12.39-7.91,12.39-7.91Z" transform="translate(-351.35 -163)"/><path class="cls-21" d="M441.21,308.72l1.57,1.77s4.67,14.06,4.55,15.32a2,2,0,0,1-2.49,1.75c-1-.38-4.65-9.35-4.65-9.35Z" transform="translate(-351.35 -163)"/><path class="cls-18" d="M434.29,367a2.85,2.85,0,0,1-.65-.08,2.82,2.82,0,0,1-2.1-3.39l4.11-17.42.16-17.75a2.82,2.82,0,0,1,2.82-2.8h0a2.82,2.82,0,0,1,2.8,2.85l-.17,18.06a2.82,2.82,0,0,1-.08.62L437,364.79A2.82,2.82,0,0,1,434.29,367Z" transform="translate(-351.35 -163)"/><path class="cls-10" d="M432.49,309.19s5.16-1.66,7.28-1.13a3.82,3.82,0,0,1,3,2.64c.18.71-.71,17.81-.71,17.81s-9.17,7.58-13,5.64c-2.8-1.4-3-3-2.94-3.76a9.43,9.43,0,0,0,.09-1.41l2.32-16.52Z" transform="translate(-351.35 -163)"/><circle class="cls-22" cx="437.96" cy="303.68" r="5.14" transform="matrix(0.33, -0.95, 0.95, 0.33, -343.27, 455.69)"/><path class="cls-22" d="M439.08,305.06l-1.75,5.29h0a3.3,3.3,0,0,1-3.69.38h0a.81.81,0,0,1-.4-.92l1.3-5.13Z" transform="translate(-351.35 -163)"/><path class="cls-18" d="M426.26,369a2.86,2.86,0,0,1-.58-.06,2.82,2.82,0,0,1-2.18-3.34l2.82-13.42,2.33-20.61a2.82,2.82,0,1,1,5.61.63l-2.34,20.74q0,.13,0,.26L429,366.72A2.82,2.82,0,0,1,426.26,369Z" transform="translate(-351.35 -163)"/><path class="cls-10" d="M442.3,303.9a1.29,1.29,0,0,0,.77-.2l0,0a5.13,5.13,0,0,0-10.17-1,1.76,1.76,0,0,0,.66.21c.52,0,2.26-.66,2.1-1.37l.23,1a1.25,1.25,0,0,0,.75-.91A7.62,7.62,0,0,0,442.3,303.9Z" transform="translate(-351.35 -163)"/><path class="cls-21" d="M446.75,328.52h0A2.56,2.56,0,0,1,444.2,326h0a2.56,2.56,0,0,1,2.56-2.56h0a2.56,2.56,0,0,1,2.56,2.56h0A2.56,2.56,0,0,1,446.75,328.52Z" transform="translate(-351.35 -163)"/><circle class="cls-22" cx="433.64" cy="302.36" r="1.57" transform="translate(-344.93 450.73) rotate(-70.97)"/><circle class="cls-22" cx="98.63" cy="162.72" r="1.9"/><path class="cls-21" d="M426.08,330.4a2.32,2.32,0,0,0,0,.24s0,0,0,0a2.4,2.4,0,0,0,0,.29v0a3.73,3.73,0,0,0,1.75,2.46h0a20.44,20.44,0,0,0,2.17,1c3.11.38,8.11-3,10.58-4.79a9.38,9.38,0,0,0-.63-1.29l-9.5-4.18-2.23-11.32-.25-.58.5.18L426.16,329A9.43,9.43,0,0,1,426.08,330.4Z" transform="translate(-351.35 -163)"/><path class="cls-10" d="M428.79,319.5s4.94-9.78,3.71-10.31c0,0-4.36,1-5.24,2.92s-6.16,14.5-5.89,16.18,1.88,2.26,6.2,3.4a52.42,52.42,0,0,0,7.32,1.4l.16-1.85-8-4.8Z" transform="translate(-351.35 -163)"/><path class="cls-16" d="M455.26,325.29l-9.53.76s-3.22,1.91-3.1,3.34,2.86,1.43,2.86,1.43l5.25,3.34Z" transform="translate(-351.35 -163)"/><path class="cls-7" d="M440.48,329.39l3.79.33a7.23,7.23,0,0,1,4.93,2.59l1.53,1.85-15.13-1.7S437,328.67,440.48,329.39Z" transform="translate(-351.35 -163)"/><path class="cls-7" d="M448.33,331.57a3.14,3.14,0,0,1,.64-2.25c1.49-1.91,4.39-4,5.77-4l-9,.69s-4.17,1.43-3.1,3.34a2.6,2.6,0,0,0,2.86,1.43Z" transform="translate(-351.35 -163)"/><path class="cls-8" d="M450.93,334.53l-17.21-1.89a.35.35,0,1,1,.08-.7l16.75,1.83,5.13-9.1a.35.35,0,0,1,.61.35Z" transform="translate(-351.35 -163)"/><circle class="cls-22" cx="82.65" cy="168.73" r="1.9"/><path class="cls-16" d="M450.54,333.78a5.58,5.58,0,0,0-5.68-3.07c-4,.54-5.16,1.92-5.16,1.92Z" transform="translate(-351.35 -163)"/><path class="cls-10" d="M525.67,233.78a7.22,7.22,0,0,0-1.09,2,1.44,1.44,0,0,0,.14,1.18,18.24,18.24,0,0,0,1.8.91c.43.14,1.58,1.66,2.61,2s2.29,1,2.65.22-4.1-5.47-4.1-5.47Z" transform="translate(-351.35 -163)"/><path class="cls-10" d="M510.94,232.34s.1.92.92.87a2.64,2.64,0,0,0,1.53-.92l-.2,3.26s-.46,4.9-1.89,5.41-1.73-2.19-1.73-2.19Z" transform="translate(-351.35 -163)"/><path class="cls-14" d="M514.73,201.36l.25,8.88-5.14,5.32-4.59-1.43a2.77,2.77,0,0,1-1.95-2.5l-.11-2.07s-2.26-2.46-1.53-2.65,10.75-6.86,10.75-6.86Z" transform="translate(-351.35 -163)"/><path class="cls-14" d="M512.29,234A2.62,2.62,0,0,1,510,230c.94-1.65,3.34-6.7,3.2-10.14-.07-1.59-4.2-4.41-7.85-5.87a2.62,2.62,0,1,1,1.95-4.87c1.82.73,10.9,4.65,11.14,10.52.23,5.56-3.46,12.21-3.88,13A2.62,2.62,0,0,1,512.29,234Z" transform="translate(-351.35 -163)"/><path class="cls-14" d="M526.81,235.81a2.62,2.62,0,0,1-2.61-2.42c-.25-3.24-1.23-12.43-2.77-15.91-.91-2.06-5.49-4.32-8.45-5.26a2.62,2.62,0,0,1,1.58-5c1.57.5,9.5,3.22,11.67,8.15s3.09,16.33,3.19,17.62A2.62,2.62,0,0,1,527,235.8Z" transform="translate(-351.35 -163)"/><path class="cls-3" d="M515.49,188.11l2.46,1.68s2.18,5.87,5.88,9.32c4,3.76,9.6,5.15,9.5,5.77-.2,1.2.84,2.41-.74,2-.79-.18-6.33-.75-10.8-3.17a29.76,29.76,0,0,1-7.88-6.66Z" transform="translate(-351.35 -163)"/><path class="cls-18" d="M507.7,191.13a15,15,0,0,1,7.17-2.74,5.57,5.57,0,0,1,1.76,0,2.71,2.71,0,0,1,2.29,2.21c.07.59-3.8,16.36-3.8,16.36s-7.73,4.82-10.87,3.2c-2.27-1.17-2.28-2.49-2.11-3.13a8,8,0,0,0,.24-1.17l3.95-13.78Z" transform="translate(-351.35 -163)"/><path class="cls-7" d="M512.12,189.14s-2.33.72-2.5,1.35,1.65,2.67,3.85,2.5,4.4-2.29,3.51-3S512.12,189.14,512.12,189.14Z" transform="translate(-351.35 -163)"/><path class="cls-66" d="M517.31,186.94l-2.66,4h0a2.86,2.86,0,0,1-3.18-.51h0a.7.7,0,0,1-.13-.86l2.25-4Z" transform="translate(-351.35 -163)"/><circle class="cls-22" cx="516.68" cy="185.53" r="4.46" transform="translate(-278.06 346.24) rotate(-55.88)"/><path class="cls-20" d="M520.27,186.7a1.12,1.12,0,0,0,.69,0l0,0a4.45,4.45,0,0,0-8.29-3.15,1.52,1.52,0,0,0,.51.32c.43.16,2,0,2.07-.67l0,.93a1.08,1.08,0,0,0,.84-.6A6.61,6.61,0,0,0,520.27,186.7Z" transform="translate(-351.35 -163)"/><circle class="cls-22" cx="513.36" cy="183.46" r="1.36" transform="translate(-277.8 342.57) rotate(-55.88)"/><circle class="cls-22" cx="182.55" cy="42.81" r="1.65"/><path class="cls-18" d="M506.32,192.1s-8.35,9.67-8.23,16.34a22.45,22.45,0,0,0,3.56,11.62l2.81-.12s-3-11-1.69-13.62S509.67,192.91,506.32,192.1Z" transform="translate(-351.35 -163)"/><circle class="cls-22" cx="503.24" cy="219.84" r="1.93" transform="translate(-372.29 220.59) rotate(-40.95)"/><path class="cls-10" d="M422.62,234.24a7.22,7.22,0,0,1,1.09,2,1.44,1.44,0,0,1-.14,1.18,18.24,18.24,0,0,1-1.8.91c-.43.14-1.58,1.66-2.61,2s-2.29,1-2.65.22,4.1-5.47,4.1-5.47Z" transform="translate(-351.35 -163)"/><path class="cls-10" d="M437.34,232.8s-.1.92-.92.87a2.64,2.64,0,0,1-1.53-.92l.2,3.26s.46,4.9,1.89,5.41,1.73-2.19,1.73-2.19Z" transform="translate(-351.35 -163)"/><path class="cls-18" d="M433.55,201.83l-.25,8.88,5.14,5.32L443,214.6a2.77,2.77,0,0,0,1.95-2.5l.11-2.07s2.26-2.47,1.53-2.65-10.75-6.86-10.75-6.86Z" transform="translate(-351.35 -163)"/><path class="cls-18" d="M436,234.41a2.62,2.62,0,0,0,2.28-3.92c-.94-1.65-3.34-6.7-3.2-10.14.07-1.59,4.2-4.41,7.85-5.87a2.62,2.62,0,1,0-1.95-4.87c-1.82.73-10.9,4.65-11.14,10.52-.23,5.56,3.46,12.21,3.88,13A2.62,2.62,0,0,0,436,234.41Z" transform="translate(-351.35 -163)"/><path class="cls-18" d="M421.47,236.28a2.62,2.62,0,0,0,2.61-2.42c.25-3.24,1.23-12.43,2.77-15.91.91-2.06,5.49-4.32,8.45-5.26a2.62,2.62,0,0,0-1.58-5c-1.57.5-9.5,3.22-11.67,8.15s-3.09,16.33-3.19,17.62a2.62,2.62,0,0,0,2.41,2.82Z" transform="translate(-351.35 -163)"/><path class="cls-67" d="M433.82,186.72l-1.54,1.1s-6.33,15.07-6.21,16.29a1.94,1.94,0,0,0,2.41,1.69c1-.37,4.5-9.06,4.5-9.06Z" transform="translate(-351.35 -163)"/><path class="cls-14" d="M440.44,188s-5-1.59-7.06-1.08-1.92,3.39-2.09,4.07,1.1,17.06,1.1,17.06,7.66,6,11.42,4.13c2.71-1.36,2.93-2.89,2.85-3.64a9.13,9.13,0,0,1-.08-1.36l-2.25-16Z" transform="translate(-351.35 -163)"/><circle class="cls-68" cx="435.15" cy="182.68" r="4.98" transform="translate(-387.13 -11.14) rotate(-19.03)"/><path class="cls-68" d="M434.06,184l1.7,5.12h0a3.19,3.19,0,0,0,3.57.37h0a.79.79,0,0,0,.39-.89l-1.26-5Z" transform="translate(-351.35 -163)"/><path class="cls-67" d="M426.63,206.74h0a2.48,2.48,0,0,0,2.48-2.48h0a2.48,2.48,0,0,0-2.48-2.48h0a2.48,2.48,0,0,0-2.48,2.48h0A2.48,2.48,0,0,0,426.63,206.74Z" transform="translate(-351.35 -163)"/><circle class="cls-68" cx="72.16" cy="41.03" r="1.84"/><path class="cls-67" d="M446.65,208.56a2.24,2.24,0,0,1,0,.23s0,0,0,0a2.31,2.31,0,0,1,0,.28v0a3.61,3.61,0,0,1-1.7,2.38h0a19.85,19.85,0,0,1-2.1,1c-3,.37-7.86-2.87-10.25-4.64a9.08,9.08,0,0,1,.61-1.25l9.2-4,2.16-11,.24-.56-.48.18,2.25,16A9.13,9.13,0,0,0,446.65,208.56Z" transform="translate(-351.35 -163)"/><path class="cls-14" d="M444,198s-4.79-9.47-3.59-10c0,0,4.22,1,5.08,2.83s6,14,5.71,15.67-1.82,2.19-6,3.3a50.76,50.76,0,0,1-7.09,1.36l-.16-1.79,7.77-4.65Z" transform="translate(-351.35 -163)"/><path class="cls-16" d="M418.39,203.61l9.23.74s3.12,1.85,3,3.23-2.77,1.39-2.77,1.39l-5.08,3.23Z" transform="translate(-351.35 -163)"/><path class="cls-7" d="M425.1,209.7a3,3,0,0,0-.62-2.18c-1.44-1.85-4.26-3.83-5.59-3.83l8.73.66s4,1.39,3,3.23a2.52,2.52,0,0,1-2.77,1.39Z" transform="translate(-351.35 -163)"/><path class="cls-7" d="M423,211.84s1.9-3.44,4-3.56a14,14,0,0,0,3.65-.69s4.5-.43,6.38,1.81l1,1.22Z" transform="translate(-351.35 -163)"/><path class="cls-21" d="M422.58,212.57l16.67-1.83a.34.34,0,1,0-.07-.68L423,211.84,418,203a.34.34,0,0,0-.6.34Z" transform="translate(-351.35 -163)"/><circle class="cls-68" cx="87.29" cy="47.26" r="1.84"/><path class="cls-16" d="M435.48,210s-9.08-1.89-10.38-.79-1.92,1.75-1.92,1.75l-.23.91,13.63-1.45Z" transform="translate(-351.35 -163)"/><path class="cls-69" d="M435.94,184a3.36,3.36,0,0,1-.05-1.08,1.14,1.14,0,0,1,.59-.86A1.17,1.17,0,0,1,437,182a1.34,1.34,0,0,1,1,.47,1.36,1.36,0,0,1,.19.38,2.18,2.18,0,0,1-.8,2.42,1.33,1.33,0,0,0,.75.54,3.67,3.67,0,0,0,.87.27,3.9,3.9,0,0,1,0,2.4,11.79,11.79,0,0,1-.2,2,9.89,9.89,0,0,0-.38,5.4c.57-1.13,1.69-1.84,2.52-2.78a5.17,5.17,0,0,0,1.34-3.88,4,4,0,0,0-2.33-3.28,5.24,5.24,0,0,0,1-4.33,5.07,5.07,0,0,0-2.57-3.54,7.36,7.36,0,0,0-3-.75,6.6,6.6,0,0,0-1.53.06,5.23,5.23,0,0,0-3.18,2,3.85,3.85,0,0,0-.74,3.67,2.19,2.19,0,0,1,1.86-.66c.53.13,2,1.59,2.86,1.72C435.12,184.18,435.66,184.27,435.94,184Z" transform="translate(-351.35 -163)"/><path class="cls-10" d="M439,185.95a.71.71,0,0,0-.24.26.56.56,0,0,0,.37.69,1.62,1.62,0,0,0,.87,0l.55-.1a1.18,1.18,0,0,0,.53-.19.7.7,0,0,0,.21-.72C441.05,184.88,439.59,185.54,439,185.95Z" transform="translate(-351.35 -163)"/><path class="cls-18" d="M378.24,346.74" transform="translate(-351.35 -163)"/><path class="cls-10" d="M377.7,298.74a2.33,2.33,0,0,1-2.3-2c-2-14.63,7.9-39.09,8.33-40.13a2.33,2.33,0,0,1,4.31,1.77c-.1.24-9.89,24.34-8,37.71a2.33,2.33,0,0,1-2,2.63Z" transform="translate(-351.35 -163)"/><path class="cls-21" d="M394.54,299.81c1.16-.23,1.55-1.24.62-2.23a6.67,6.67,0,0,0-1.6-.13c-.35,0-.72-.56-1.61-.5-.64,0-1.81.73-2.19.75-2.76.11-2.55,1.38-2.37,1.49a5.21,5.21,0,0,0,2.43,1A45.28,45.28,0,0,0,394.54,299.81Z" transform="translate(-351.35 -163)"/><path class="cls-21" d="M378,299.58c1.18.08,1.82-.79,1.18-2a6.67,6.67,0,0,0-1.52-.54c-.35-.07-.55-.73-1.42-.91-.63-.12-1.94.23-2.31.15-2.7-.62-2.82.67-2.68.82a5.21,5.21,0,0,0,2.07,1.64A45.27,45.27,0,0,0,378,299.58Z" transform="translate(-351.35 -163)"/><path class="cls-10" d="M384.05,265.64a17,17,0,0,0,5.57,1.56,9.82,9.82,0,0,0,3.91-.49l.49-4.89-9.29-2.05Z" transform="translate(-351.35 -163)"/><path class="cls-10" d="M394,299.49a2.33,2.33,0,0,1-2.31-2c-.08-.66-2-16.17-2-20.54s.69-16.37.72-16.88a2.33,2.33,0,1,1,4.65.27c0,.12-.72,12.45-.72,16.61s2,19.8,2,20a2.33,2.33,0,0,1-2,2.6Z" transform="translate(-351.35 -163)"/><path class="cls-18" d="M397.52,245.28c-1.73-2.54-8.93-3.54-10.68-3.86s-2.06,2.23-2.37,5.14L383,256.72s-1.52,3.57.74,4.38,11.47,2.46,12.37.81C396.36,261.52,398.15,246.2,397.52,245.28Z" transform="translate(-351.35 -163)"/><circle class="cls-68" cx="390.03" cy="235.97" r="4.63" transform="translate(-263.32 414.43) rotate(-79.68)"/><path class="cls-68" d="M388.27,237.09l.7,5h0a3,3,0,0,0,3.21.93l.54-.18-.37-5.33Z" transform="translate(-351.35 -163)"/><ellipse class="cls-68" cx="394.16" cy="236.91" rx="1.79" ry="0.94" transform="translate(-260.87 419.26) rotate(-79.68)"/><path class="cls-69" d="M390.86,231.41a4.63,4.63,0,0,0-4.76,2.12,6.65,6.65,0,0,0,2.79,1.18c.36.07,3.7.21,3.66-.38a8.25,8.25,0,0,0,.44,2.17,1.57,1.57,0,0,1,1.49-1.25h.12A4.63,4.63,0,0,0,390.86,231.41Z" transform="translate(-351.35 -163)"/><path class="cls-18" d="M393.79,258.9l1.26.7c1.29.71.83,1.45.83,1.45s12.17-9.45,11.79-10.18-13.14-8.3-13.53-7.53.56,4.92.56,4.92,6.51,3.25,5.91,4S393.79,258.9,393.79,258.9Z" transform="translate(-351.35 -163)"/><circle class="cls-68" cx="43.02" cy="95.24" r="1.68"/><path class="cls-18" d="M385.79,241.69s-5.08,3.36-8.45,3.84-9.22-3.37-9.22-3.37-1.22,1.27-1,1.71,5.3,5.83,9.42,6.09,10.18-3.51,10.18-3.51Z" transform="translate(-351.35 -163)"/><circle class="cls-68" cx="367.87" cy="243.25" r="1.68" transform="translate(-288.68 398.6) rotate(-79.68)"/><path class="cls-14" d="M364.62,238.86v7a1.49,1.49,0,0,0,1.49,1.49h0a1.49,1.49,0,0,0,1.49-1.49v-7Z" transform="translate(-351.35 -163)"/><path class="cls-14" d="M581.16,181.18l-31.92-18a1.26,1.26,0,0,0-1.14-.15l-.11,0-.11,0-.11,0-.11,0-.11,0-.11,0-.11,0-.11,0-.11,0-.11,0-.11,0-.11,0-.11,0-.11,0-.11,0-.11,0-.11,0-.11,0-.11,0-.11,0-.11,0-.11,0-.11,0-.11,0-.11,0-.11,0-.11,0-.11,0-.11,0-.11,0c-.74.2-1.26,1.23-1.26,2.76v29c0,2.17,1,4.53,2.28,5.27l4.54,2.69v8.88l.11-.1v.06l.11-.1v.06l.11-.1v.06l.11-.1v.06l.11-.1v.06l.11-.1v.06l.11-.1v.06l.11-.1v.06l.11-.1v.06l.11-.1v.06l.11-.1v.06l.11-.1v.06l.11-.1v.06l.11-.1v.06l.11-.1v.06l.11-.1v.06l.11-.1v.06l.11-.1v.06l.11-.1v.06l.11-.1v.06l.11-.1v.06l.11-.1V212l.11-.1V212l.11-.1v.06l.11-.1v.06l.11-.1v.06l.11-.1v.06l.11-.1v.06l.11-.1v.06l.11-.1v.06l.11-.1v.06l3.75-3.37,20.88,10.94a1.25,1.25,0,0,0,1.14.15l.11,0,.11,0c2.28-.92,3.67-.88,3.67-3.83v-29C583.44,184.29,582.42,181.93,581.16,181.18Z" transform="translate(-351.35 -163)"/><path class="cls-7" d="M578.4,182.37l-32.72-18c-1.26-.75-2.28.41-2.28,2.57v29c0,2.17,1,4.53,2.28,5.27l4.54,2.69v8.88l6-5.35,22.22,11.74c1.26.75,2.28-.41,2.28-2.57v-29C580.68,185.47,579.66,183.11,578.4,182.37Z" transform="translate(-351.35 -163)"/><path class="cls-8" d="M555.49,189.38c0,1.14-.54,1.74-1.2,1.35a3.5,3.5,0,0,1-1.2-2.77c0-1.14.54-1.74,1.2-1.35A3.5,3.5,0,0,1,555.49,189.38Z" transform="translate(-351.35 -163)"/><path class="cls-8" d="M562.58,193.59c0,1.14-.54,1.74-1.2,1.35a3.5,3.5,0,0,1-1.2-2.77c0-1.14.54-1.74,1.2-1.35A3.5,3.5,0,0,1,562.58,193.59Z" transform="translate(-351.35 -163)"/><path class="cls-8" d="M569.67,197.79c0,1.14-.54,1.74-1.2,1.35a3.5,3.5,0,0,1-1.2-2.77c0-1.14.54-1.74,1.2-1.35A3.5,3.5,0,0,1,569.67,197.79Z" transform="translate(-351.35 -163)"/><circle class="cls-8" cx="16.79" cy="70.07" r="0.82"/><circle class="cls-8" cx="14.65" cy="67.38" r="0.57"/><circle class="cls-8" cx="15.99" cy="65.63" r="0.57"/><circle class="cls-8" cx="14.71" cy="72.08" r="0.82"/></g></svg>